<svg version="1.1" id="Layer_1" xmlns="http://www.w3.org/2000/svg" xmlns:xlink="http://www.w3.org/1999/xlink" x="0px" y="0px"
	 width="100%" viewBox="0 0 1080 1080" enable-background="new 0 0 1080 1080" xml:space="preserve">
<path fill="#000000" opacity="1.000000" stroke="none" 
	d="
M634.000000,1081.000000 
	C422.691010,1081.000000 211.881989,1081.000000 1.036494,1081.000000 
	C1.036494,721.065857 1.036494,361.131744 1.036494,1.098807 
	C360.892548,1.098807 720.785156,1.098807 1080.838867,1.098807 
	C1080.838867,360.999939 1080.838867,720.999939 1080.838867,1081.000000 
	C932.131287,1081.000000 783.315613,1081.000000 634.000000,1081.000000 
M375.956909,202.043930 
	C375.956909,202.043930 375.875732,202.044510 376.042297,202.568588 
	C376.346497,202.754181 376.650696,202.939774 376.955231,203.045609 
	C376.955231,203.045609 376.875488,203.046158 377.042603,203.569275 
	C377.346436,203.754669 377.650238,203.940048 377.954407,204.046371 
	C377.954407,204.046371 377.875336,204.046921 378.042480,204.569199 
	C378.345642,204.754684 378.648773,204.940186 378.952240,205.048416 
	C378.952240,205.048416 378.875000,205.049088 379.043274,205.570663 
	C379.346039,205.755630 379.648804,205.940598 379.951904,206.048645 
	C379.951904,206.048645 379.875000,206.049255 380.043304,206.570755 
	C380.346069,206.755692 380.648865,206.940628 380.952057,207.048599 
	C380.952057,207.048599 380.875092,207.049133 381.043182,207.570526 
	C381.346313,207.755569 381.649475,207.940613 381.952972,208.047836 
	C381.952972,208.047836 381.875153,208.048386 382.043121,208.570328 
	C382.346588,208.755402 382.650055,208.940475 382.953857,209.046967 
	C382.953857,209.046967 382.875275,209.047516 383.043060,209.570114 
	C383.346924,209.755219 383.650818,209.940323 383.954987,210.045853 
	C383.954987,210.045853 383.875427,210.046417 384.043030,210.569931 
	C384.347504,210.755020 384.651978,210.940109 384.956726,211.043930 
	C384.956726,211.043930 384.875488,211.044556 385.043457,211.570312 
	C385.349243,211.755051 385.655029,211.939789 385.961182,212.039108 
	C385.961182,212.039108 385.875763,212.039520 386.042938,212.568878 
	C386.351013,212.753845 386.659058,212.938812 386.968567,213.029465 
	C386.968567,213.029465 386.874237,213.028656 387.041382,213.565292 
	C387.353607,213.751740 387.665802,213.938187 387.983185,214.010941 
	C387.983185,214.010941 387.869446,214.006058 388.046936,214.571426 
	C388.372070,214.783203 388.697235,214.994995 388.988129,215.913483 
	C395.234680,224.051697 401.481232,232.189896 407.049194,239.444000 
	C403.980286,246.280899 401.070068,251.677948 399.106842,257.399933 
	C396.359283,265.407898 394.317505,273.658051 391.259674,281.923218 
	C382.167847,271.063019 371.112061,264.600983 356.574890,262.731323 
	C337.112549,260.228241 319.739105,264.534454 303.566772,274.825958 
	C298.550079,278.018402 293.894562,281.903046 289.529175,285.960846 
	C284.730988,290.420868 281.286194,295.701630 280.929596,302.751465 
	C280.024139,320.650879 282.907074,337.743805 290.925995,353.842163 
	C292.187866,356.375397 291.950348,357.752533 288.169037,358.017365 
	C273.378326,362.028259 258.515564,365.794800 243.820648,370.130371 
	C232.848114,373.367676 222.157440,377.555237 211.203766,380.864532 
	C207.504837,381.982056 205.075729,383.584930 204.262573,387.339966 
	C203.475616,390.974060 202.361450,394.589050 202.057968,398.267426 
	C200.446426,417.801025 204.186646,435.891296 217.029190,451.390472 
	C219.556290,454.440338 222.300934,455.960236 226.453171,454.320251 
	C229.574799,453.087311 232.997742,452.617249 236.729141,451.712189 
	C237.015305,451.482025 237.058807,451.212921 236.784119,451.054108 
	C236.784119,451.054108 236.931946,451.132355 237.792023,450.998383 
	C242.338043,449.964844 246.884048,448.931335 251.514877,447.958588 
	C251.514877,447.958588 251.575241,447.873474 252.513611,447.989685 
	C255.221420,447.665344 257.956635,447.487030 260.631073,446.985046 
	C265.581329,446.055908 270.496033,444.937286 275.534760,443.980408 
	C275.534760,443.980408 275.617462,443.871063 276.519073,443.980774 
	C278.153320,443.619904 279.787537,443.259003 281.538696,442.987305 
	C281.538696,442.987305 281.627747,442.870331 282.536957,442.978668 
	C284.453888,442.631836 286.370850,442.285004 288.605896,442.019287 
	C288.605896,442.019287 288.885559,441.847382 289.799164,441.958344 
	C296.981323,441.253143 304.163452,440.547974 310.966553,439.880005 
	C310.966553,442.836334 310.966553,445.372498 310.244141,448.250427 
	C308.842194,453.747925 307.440277,459.245392 305.366211,465.104950 
	C304.862762,466.735565 304.359283,468.366180 303.943848,469.981323 
	C303.943848,469.981323 303.927582,469.893433 303.273010,470.190552 
	C303.133850,471.131531 302.994690,472.072540 302.963379,472.988525 
	C302.963379,472.988525 302.937836,472.880768 302.334595,473.126343 
	C302.175079,473.746094 302.015533,474.365875 301.932800,474.973480 
	C301.932800,474.973480 301.919708,474.896881 301.266663,475.194763 
	C301.130219,476.135162 300.993805,477.075531 300.968994,477.989197 
	C300.968994,477.989197 300.941772,477.877686 300.336517,478.124847 
	C300.176666,478.746704 300.016785,479.368561 299.939545,479.978302 
	C299.939545,479.978302 299.926544,479.895782 299.260437,480.201752 
	C298.793060,481.800293 298.325653,483.398834 297.954987,484.982086 
	C297.954987,484.982086 297.939026,484.885529 297.334412,485.128021 
	C297.175232,485.748108 297.016052,486.368164 296.937775,486.976105 
	C296.937775,486.976105 296.924713,486.895355 296.259033,487.203186 
	C295.792542,488.803223 295.326050,490.403259 294.962982,491.981903 
	C294.962982,491.981903 294.941010,491.878601 294.335785,492.125549 
	C294.176331,492.747498 294.016876,493.369415 293.947510,493.979156 
	C293.947510,493.979156 293.934601,493.889160 293.330688,494.129822 
	C293.172852,494.749054 293.015015,495.368286 292.940430,495.976746 
	C292.940430,495.976746 292.928833,495.893616 292.279968,496.180725 
	C292.196350,496.961761 292.112732,497.742767 291.396454,498.964233 
	C286.222290,510.730774 280.710846,522.362488 275.943115,534.291504 
	C265.503113,560.412720 257.604065,587.060669 258.879486,615.753540 
	C259.518433,630.128479 262.291107,643.886169 268.963806,656.487488 
	C275.416595,668.673401 283.046844,680.235779 289.975708,692.831848 
	C288.651520,698.324707 286.662750,703.752869 286.120361,709.321838 
	C283.983490,731.263794 288.891388,751.995117 298.296875,771.704651 
	C308.324432,792.717773 319.473206,813.141968 333.902863,831.502441 
	C349.007812,850.721924 363.663544,870.427673 380.256134,888.305420 
	C395.342010,904.559753 412.390045,919.082275 429.267700,933.558350 
	C444.774719,946.858826 461.815857,958.245178 480.063293,967.509888 
	C499.767120,977.514160 520.065308,985.892212 542.457336,988.167847 
	C558.972961,989.846313 575.347412,989.632019 591.315918,985.192139 
	C604.033569,981.656067 616.841736,977.819519 628.784851,972.323853 
	C638.189575,967.996216 646.336914,960.935913 655.669495,955.020325 
	C656.140991,954.725037 656.612549,954.429688 657.008423,954.009705 
	C657.008423,954.009705 657.080933,954.131042 657.597046,953.969421 
	C657.776794,953.668762 657.956482,953.368042 658.066101,953.065002 
	C658.066101,953.065002 658.069214,953.135010 658.593445,952.971069 
	C658.775330,952.665527 658.957214,952.359985 659.054077,952.053955 
	C659.054077,952.053955 659.054688,952.138916 659.586853,951.974548 
	C659.771484,951.665039 659.956177,951.355530 660.045349,951.045471 
	C660.045349,951.045471 660.045776,951.140869 660.581604,950.977295 
	C660.768066,950.666687 660.954529,950.356140 661.045288,950.045105 
	C661.045288,950.045105 661.045715,950.140869 661.581604,949.977295 
	C661.768066,949.666687 661.954590,949.356079 662.045227,949.045044 
	C662.045227,949.045044 662.045715,949.140869 662.581604,948.977295 
	C662.768127,948.666687 662.954590,948.356079 663.045227,948.044983 
	C663.045227,948.044983 663.045654,948.140869 663.581482,947.977356 
	C663.768005,947.666687 663.954529,947.356079 664.045227,947.044983 
	C664.045227,947.044983 664.045654,947.140869 664.581543,946.977356 
	C664.768066,946.666748 664.954590,946.356079 665.045532,946.045105 
	C665.045532,946.045105 665.046082,946.140625 665.577820,945.979980 
	C665.764465,945.673401 665.951172,945.366760 666.058960,945.059326 
	C666.058960,945.059326 666.059509,945.138184 666.581543,944.978516 
	C666.765442,944.677307 666.949341,944.376099 667.007996,944.015564 
	C667.007996,944.015564 667.124695,944.091187 667.707397,943.875671 
	C667.817444,943.281128 667.927490,942.686584 668.678406,941.831360 
	C669.758484,940.416626 670.776978,938.949463 671.928040,937.595093 
	C685.456055,921.678101 693.270020,902.546875 701.949585,883.934143 
	C708.556213,869.766479 714.700745,855.383423 721.675659,840.877869 
	C722.159790,839.946716 722.643921,839.015503 723.022827,838.004150 
	C723.022827,838.004150 723.113037,838.100464 723.701660,837.848511 
	C723.858154,837.236206 724.014648,836.623901 724.067078,836.021667 
	C724.067078,836.021667 724.078125,836.125610 724.677185,835.868958 
	C724.840698,835.248291 725.004150,834.627686 725.044800,834.015381 
	C725.044800,834.015381 725.053711,834.138245 725.670288,833.885193 
	C726.159485,832.946899 726.648621,832.008606 727.058655,831.031372 
	C727.058655,831.031372 727.105164,831.106323 727.697693,830.851562 
	C727.855286,830.235168 728.012817,829.618835 728.046509,829.012512 
	C728.046509,829.012512 728.057190,829.136353 728.674561,828.881836 
	C729.165039,827.939270 729.655457,826.996704 730.076782,826.052551 
	C730.076782,826.052551 730.084106,826.121460 730.696472,825.864990 
	C731.181763,824.924011 731.667114,823.983032 732.072205,823.045532 
	C732.072205,823.045532 732.076843,823.125671 732.692078,822.868286 
	C733.179871,821.922363 733.667603,820.976440 734.032959,820.030457 
	C734.032959,820.030457 734.033569,820.152954 734.555603,819.967224 
	C734.751831,819.665283 734.948059,819.363342 735.064392,819.026367 
	C735.064392,819.026367 735.112427,819.099243 735.698242,818.851318 
	C735.840881,818.241760 735.983521,817.632141 736.762634,816.749451 
	C743.191589,807.991394 750.045532,799.509888 755.961975,790.418396 
	C768.678040,770.878418 781.563660,751.398438 793.155090,731.191406 
	C804.361328,711.655884 812.990967,690.737061 818.451843,668.836853 
	C822.180237,653.884583 825.483337,638.606567 826.642090,623.297485 
	C827.719421,609.063293 826.593689,594.486877 824.859680,580.253418 
	C821.639221,553.819092 812.176941,529.400879 797.020874,507.476990 
	C789.254639,496.242737 780.410156,485.753815 772.286621,474.236328 
	C773.397217,471.782654 774.584595,469.360474 775.605347,466.869934 
	C780.298523,455.418671 784.704590,443.885284 785.750183,430.810364 
	C785.841980,421.279663 785.949646,411.748993 785.979553,402.218079 
	C785.981079,401.729858 785.314758,401.239502 785.031311,399.899200 
	C784.946960,398.082855 785.210876,396.166504 784.722900,394.466003 
	C780.902527,381.155182 777.900208,367.497284 772.739319,354.716095 
	C767.870483,342.658173 760.785522,331.479950 754.469421,320.028351 
	C751.627502,314.875671 748.284363,309.999420 745.952637,305.001282 
	C747.354919,304.662415 748.789673,304.421814 750.154419,303.969604 
	C764.035950,299.369873 777.383789,294.176544 787.342529,282.424561 
	C800.213989,267.235474 805.517517,250.159027 802.002258,230.635681 
	C798.670532,212.131409 784.168030,198.954468 764.181519,197.866409 
	C748.942566,197.036804 735.338501,201.657059 721.258484,207.758743 
	C716.595581,197.723267 712.288208,187.502838 707.186707,177.695496 
	C699.468750,162.858307 687.519653,151.571869 674.080505,142.103989 
	C667.062561,137.159866 659.076050,133.302597 651.056152,130.153320 
	C643.698486,127.264030 635.776917,125.641098 627.978638,124.089165 
	C619.586914,122.419151 618.964478,122.122551 617.954773,113.292175 
	C617.894043,112.761398 617.297729,112.291870 616.950317,110.923447 
	C616.248352,102.950623 615.546387,94.977798 614.989380,86.075294 
	C614.937561,77.394913 614.885742,68.714523 614.982117,59.198566 
	C615.749634,54.909554 615.733337,50.260338 617.494507,46.427979 
	C619.442200,42.189934 618.041382,39.966351 614.990845,37.796810 
	C613.881592,37.007885 612.534912,36.504570 611.236633,36.037338 
	C601.562195,32.555595 591.527100,31.677259 581.332764,31.957335 
	C571.977966,32.214348 569.415405,34.042046 566.058777,42.604595 
	C562.829285,50.842880 559.261902,58.954868 556.235168,67.265182 
	C549.981323,84.436409 544.415710,101.821678 542.014099,120.036606 
	C541.365173,124.957977 540.957458,129.911133 540.359558,135.605850 
	C535.930725,126.665733 532.514343,118.014336 527.638123,110.283783 
	C516.796692,93.096275 505.407257,76.242508 493.800812,59.559078 
	C491.377838,56.076271 489.707520,50.055073 483.019562,51.996098 
	C476.080902,54.009865 469.111664,55.919540 462.186005,57.976433 
	C452.848907,60.749516 445.503601,66.918854 437.861725,72.534615 
	C431.996185,76.844971 430.674133,82.250832 433.288818,87.830093 
	C437.039642,95.833702 441.190979,103.760399 443.862335,112.137352 
	C450.611420,133.301315 456.716766,154.673187 462.885803,176.017883 
	C464.658661,182.152008 465.770172,188.477295 467.184875,194.714951 
	C464.332001,194.042862 462.623108,192.560150 460.739716,191.348633 
	C448.609741,183.545746 436.390503,175.880722 424.304810,168.010330 
	C416.807678,163.128098 409.538666,157.896957 402.086426,152.944046 
	C393.853912,147.472549 378.085358,149.046768 369.815155,156.636383 
	C362.293640,163.538940 357.015808,172.073135 352.959442,181.140793 
	C357.670593,185.224548 362.137726,189.096771 366.980591,193.477066 
	C367.326660,193.695892 367.672760,193.914719 368.006622,194.001389 
	C368.006622,194.001389 367.874451,194.013489 368.038116,194.557968 
	C368.353149,194.747696 368.668213,194.937424 368.981659,195.020935 
	C368.981659,195.020935 368.875458,195.022888 369.039001,195.560730 
	C369.350189,195.749130 369.661407,195.937531 369.971619,196.030884 
	C369.971619,196.030884 369.876587,196.032486 370.040283,196.564011 
	C370.347870,196.750900 370.655457,196.937790 370.962982,197.038147 
	C370.962982,197.038147 370.876465,197.038895 371.041931,197.567276 
	C371.348145,197.753021 371.654327,197.938782 371.960724,198.039917 
	C371.960724,198.039917 371.876160,198.040527 372.042267,198.568024 
	C372.348206,198.753555 372.654114,198.939087 372.960266,199.040436 
	C372.960266,199.040436 372.876068,199.041000 373.042267,199.568085 
	C373.347931,199.753632 373.653564,199.939178 373.959442,200.041183 
	C373.959442,200.041183 373.875916,200.041779 374.042267,200.568207 
	C374.347473,200.753784 374.652710,200.939346 374.958130,201.042480 
	C374.958130,201.042480 374.875702,201.043045 375.042419,201.568573 
	C375.347137,201.754089 375.651886,201.939606 375.956909,202.043930 
z"/>
<path fill="#E34088" opacity="1.000000" stroke="none" 
	d="
M655.042725,955.089478 
	C646.336914,960.935913 638.189575,967.996216 628.784851,972.323853 
	C616.841736,977.819519 604.033569,981.656067 591.315918,985.192139 
	C575.347412,989.632019 558.972961,989.846313 542.457336,988.167847 
	C520.065308,985.892212 499.767120,977.514160 480.063293,967.509888 
	C461.815857,958.245178 444.774719,946.858826 429.267700,933.558350 
	C412.390045,919.082275 395.342010,904.559753 380.256134,888.305420 
	C363.663544,870.427673 349.007812,850.721924 333.902863,831.502441 
	C319.473206,813.141968 308.324432,792.717773 298.296875,771.704651 
	C288.891388,751.995117 283.983490,731.263794 286.120361,709.321838 
	C286.662750,703.752869 288.651520,698.324707 290.364380,692.274292 
	C291.268860,690.871887 291.915131,690.079712 292.280731,689.174316 
	C297.359406,676.596558 305.285797,665.990967 314.866791,656.541565 
	C330.776611,640.850342 349.986603,630.274597 370.098877,621.150024 
	C384.347229,614.685730 399.101654,609.194275 412.867310,601.840576 
	C436.404907,589.266602 453.215393,570.070618 458.892548,543.750427 
	C463.253448,523.532715 464.441986,502.630707 467.227539,481.703125 
	C470.003235,471.039520 472.063660,460.538208 475.276062,450.401917 
	C487.446075,412.001038 502.385284,375.149017 533.286438,347.132111 
	C542.769165,338.534485 545.339966,327.263336 540.793884,315.105988 
	C536.422180,303.415161 531.274292,292.015320 526.858765,280.339661 
	C525.901978,277.809631 525.653137,274.205048 526.736145,271.861511 
	C530.002991,264.791962 533.457642,257.649963 537.968628,251.344284 
	C551.692810,232.159988 569.502075,218.366272 593.065308,213.552170 
	C606.039062,210.901566 618.660950,210.844269 631.592224,216.557327 
	C641.398560,220.889786 652.661621,222.932129 663.454285,223.810959 
	C684.605164,225.533218 703.478638,217.022507 721.967957,207.934982 
	C735.338501,201.657059 748.942566,197.036804 764.181519,197.866409 
	C784.168030,198.954468 798.670532,212.131409 802.002258,230.635681 
	C805.517517,250.159027 800.213989,267.235474 787.342529,282.424561 
	C777.383789,294.176544 764.035950,299.369873 750.154419,303.969604 
	C748.789673,304.421814 747.354919,304.662415 745.276245,304.891449 
	C734.681152,308.611237 724.560303,311.992249 714.881653,316.354431 
	C685.656860,329.526215 659.902222,347.479980 639.688110,372.728943 
	C621.448669,395.511444 610.497192,421.801300 602.816895,449.651764 
	C600.384338,458.472931 600.305786,458.600464 608.027405,463.680389 
	C626.015015,475.514160 646.104614,481.781586 667.099365,485.496216 
	C694.101685,490.273834 721.101501,490.808594 747.813049,483.913300 
	C756.113098,481.770752 763.985046,477.969757 772.052979,474.928040 
	C780.410156,485.753815 789.254639,496.242737 797.020874,507.476990 
	C812.176941,529.400879 821.639221,553.819092 824.859680,580.253418 
	C826.593689,594.486877 827.719421,609.063293 826.642090,623.297485 
	C825.483337,638.606567 822.180237,653.884583 818.451843,668.836853 
	C812.990967,690.737061 804.361328,711.655884 793.155090,731.191406 
	C781.563660,751.398438 768.678040,770.878418 755.961975,790.418396 
	C750.045532,799.509888 743.191589,807.991394 736.057922,816.979858 
	C735.272949,817.839966 735.192688,818.469604 735.112427,819.099243 
	C735.112427,819.099243 735.064392,819.026367 734.738342,818.907227 
	C734.286072,819.242981 734.159790,819.697998 734.033569,820.152954 
	C734.033569,820.152954 734.032959,820.030457 733.711914,819.978394 
	C732.952881,820.992859 732.514893,822.059265 732.076904,823.125671 
	C732.076843,823.125671 732.072205,823.045532 731.728088,822.960388 
	C730.950684,823.957336 730.517395,825.039368 730.084106,826.121460 
	C730.084106,826.121460 730.076782,826.052551 729.740784,825.935059 
	C728.955627,826.923828 728.506409,828.030090 728.057251,829.136353 
	C728.057190,829.136353 728.046509,829.012512 727.694946,829.038818 
	C727.263916,829.745544 727.184570,830.425964 727.105164,831.106323 
	C727.105164,831.106323 727.058655,831.031372 726.737671,830.883972 
	C725.962280,831.870483 725.507996,833.004333 725.053711,834.138245 
	C725.053711,834.138245 725.044800,834.015381 724.710938,834.027710 
	C724.277405,834.735229 724.177795,835.430420 724.078125,836.125610 
	C724.078125,836.125610 724.067078,836.021667 723.691650,836.026978 
	C723.248474,836.721741 723.180725,837.411072 723.113037,838.100464 
	C723.113037,838.100464 723.022827,838.004150 722.735840,837.834961 
	C721.982849,838.809265 721.516907,839.952759 721.050903,841.096252 
	C714.700745,855.383423 708.556213,869.766479 701.949585,883.934143 
	C693.270020,902.546875 685.456055,921.678101 671.928040,937.595093 
	C670.776978,938.949463 669.758484,940.416626 668.007263,942.073242 
	C667.265625,942.907166 667.195190,943.499146 667.124695,944.091187 
	C667.124695,944.091187 667.007996,944.015564 666.708496,943.923828 
	C666.292480,944.267517 666.176025,944.702881 666.059570,945.138184 
	C666.059509,945.138184 666.058960,945.059326 665.746826,944.977661 
	C665.305115,945.310852 665.175598,945.725708 665.046082,946.140625 
	C665.046082,946.140625 665.045532,946.045105 664.745605,945.997620 
	C664.312378,946.347046 664.179016,946.743958 664.045654,947.140869 
	C664.045654,947.140869 664.045227,947.044983 663.745483,946.997559 
	C663.312378,947.347046 663.179016,947.743958 663.045654,948.140869 
	C663.045654,948.140869 663.045227,948.044983 662.745422,947.997559 
	C662.312317,948.346985 662.179016,948.743958 662.045715,949.140869 
	C662.045715,949.140869 662.045227,949.045044 661.745422,948.997498 
	C661.312317,949.346924 661.178955,949.743896 661.045654,950.140869 
	C661.045715,950.140869 661.045288,950.045105 660.745483,949.997559 
	C660.312317,950.346924 660.179077,950.743896 660.045776,951.140869 
	C660.045776,951.140869 660.045349,951.045471 659.739563,950.996094 
	C659.307434,951.344177 659.181091,951.741516 659.054688,952.138916 
	C659.054688,952.138916 659.054077,952.053955 658.730042,951.983276 
	C658.293762,952.320007 658.181458,952.727478 658.069214,953.135010 
	C658.069214,953.135010 658.066101,953.065002 657.721802,952.961426 
	C657.278687,953.282227 657.179810,953.706665 657.080933,954.131042 
	C657.080933,954.131042 657.008423,954.009705 656.792725,953.773560 
	C656.065613,954.054749 655.554138,954.572083 655.042725,955.089478 
M745.530457,641.111633 
	C751.570312,648.135559 758.848816,653.125366 768.072388,655.014709 
	C771.490112,655.714844 774.713257,655.675903 775.718140,651.664917 
	C776.723450,647.652039 773.670227,646.557678 770.542358,645.840393 
	C761.033752,643.659851 753.828674,638.076294 749.253784,629.729797 
	C744.546631,621.141968 740.683228,612.084534 736.596375,603.165894 
	C732.852844,594.996277 729.908386,586.398010 725.526794,578.598022 
	C719.009338,566.995789 709.200745,559.944824 693.246521,566.884644 
	C690.823730,567.938538 689.346741,567.793030 688.074829,565.201904 
	C675.471008,539.524536 655.967468,520.087158 632.712402,504.005219 
	C622.204834,496.738800 610.945190,490.210693 605.659424,477.457916 
	C605.156067,476.243561 601.427734,475.056793 600.320557,475.723572 
	C598.840271,476.615021 597.925842,479.289703 597.771667,481.276428 
	C597.644897,482.909271 598.880310,484.705444 599.686401,486.343353 
	C603.648254,494.393555 610.211609,500.039856 617.437378,504.934326 
	C636.550720,517.881042 654.651794,531.814697 668.447571,550.779968 
	C684.768677,573.216797 691.399414,597.977783 687.040161,625.304688 
	C682.833801,651.672913 669.685913,673.056213 648.123962,688.800659 
	C633.909058,699.180298 622.668274,711.821899 615.594604,727.877258 
	C612.351746,735.237854 607.924438,741.412842 601.950623,746.642944 
	C598.066711,750.043274 594.414490,753.723755 590.396667,756.952942 
	C566.092529,776.486267 539.292480,790.688843 507.963837,795.037720 
	C504.692444,795.491882 501.752167,796.551086 502.243286,800.453430 
	C502.758423,804.546509 505.939911,805.170410 509.433105,804.535400 
	C516.575867,803.237061 523.705811,801.867859 531.381653,800.426331 
	C530.994019,802.335083 530.556580,803.893921 530.375549,805.482056 
	C529.547974,812.743164 528.666077,820.001953 528.064636,827.283203 
	C527.768799,830.865173 528.697510,834.426941 533.156982,834.302979 
	C537.277100,834.188354 537.736389,830.715271 537.919006,827.352173 
	C538.225525,821.709106 538.316284,816.022583 539.127747,810.445984 
	C540.451172,801.350830 544.590698,794.723450 553.967102,790.984375 
	C568.889282,785.033875 582.169067,775.987244 594.666260,765.876160 
	C597.421204,763.647278 600.213928,761.465271 603.745972,758.660767 
	C603.745972,760.627380 603.889771,761.452454 603.724976,762.210388 
	C599.208313,782.989075 597.557861,804.017944 597.896851,825.254089 
	C597.937439,827.794128 597.134827,830.556152 596.015320,832.873352 
	C586.434387,852.704956 571.998474,867.903809 552.307922,877.967224 
	C549.396301,879.455261 546.141846,881.003113 547.934143,885.009338 
	C549.809448,889.201233 553.279175,888.003540 556.498779,886.603271 
	C557.567505,886.138367 558.628601,885.643372 559.648987,885.081848 
	C573.608276,877.399597 585.048279,866.886780 594.453430,854.085999 
	C595.548401,852.595764 596.727783,851.167603 597.918884,849.645569 
	C600.670288,866.245056 603.221863,882.160706 605.991516,898.038330 
	C606.848267,902.950073 608.196838,907.786072 609.516113,912.603149 
	C610.291992,915.436157 612.351929,917.919434 615.260437,916.436829 
	C617.036560,915.531372 618.117676,912.505554 618.676575,910.227417 
	C619.069153,908.627136 618.105225,906.669495 617.662170,904.892517 
	C610.446777,875.953186 607.489258,846.554565 607.759033,816.757874 
	C608.009888,789.048462 611.634033,762.072205 621.989441,736.079224 
	C630.966309,713.546143 648.445618,699.186951 667.466064,685.805481 
	C669.190857,689.924011 670.373779,694.201416 672.613525,697.825623 
	C679.439514,708.870667 686.030884,720.160767 693.952942,730.396179 
	C700.172791,738.432312 700.215271,746.244446 695.796204,754.029297 
	C690.908203,762.640503 684.721252,770.528198 678.907776,778.592346 
	C677.034363,781.191040 675.004150,783.561096 677.986877,786.397156 
	C680.980164,789.243286 683.754883,787.540100 685.638367,784.975037 
	C691.910767,776.432983 697.987366,767.745239 704.026733,759.035461 
	C705.164734,757.394226 705.786682,755.395264 707.186340,752.410767 
	C713.423279,765.963135 716.940125,778.359253 713.221436,791.875061 
	C712.780457,793.477600 711.754761,795.319275 712.187378,796.669800 
	C712.857910,798.762817 714.185730,801.279053 715.953064,802.137878 
	C716.937378,802.616211 720.625610,800.373840 720.944885,798.893799 
	C722.471802,791.814270 724.051331,784.579163 724.078430,777.393494 
	C724.102234,771.105896 722.086975,764.810608 720.944458,758.360413 
	C721.847778,758.219116 722.495850,758.004395 723.132019,758.035522 
	C731.285950,758.434143 739.036194,756.889648 746.415649,753.386108 
	C749.751404,751.802429 752.395386,749.640076 750.488403,745.676697 
	C748.598206,741.748169 745.362183,743.022461 742.329834,744.468628 
	C734.865601,748.028564 727.001038,749.052246 718.950684,747.389832 
	C716.942017,746.975159 714.648865,745.457031 713.499939,743.760010 
	C705.678528,732.207275 697.954712,720.579468 690.556580,708.752502 
	C686.243896,701.858154 682.174500,694.743408 678.765686,687.371765 
	C675.578796,680.480103 676.579651,673.827026 680.846313,667.052124 
	C696.840454,641.655334 702.077637,614.174805 695.201233,584.699707 
	C693.259766,576.377869 696.373474,572.463745 704.941711,573.474060 
	C707.696289,573.798767 710.919800,575.315552 712.728088,577.352722 
	C715.882324,580.906067 718.656982,585.037354 720.608948,589.368774 
	C725.328796,599.842590 729.523743,610.554810 733.811218,621.218811 
	C734.330750,622.510986 734.281433,624.104370 734.218933,625.546204 
	C733.868652,633.630676 732.400513,641.819580 733.232544,649.772034 
	C735.252686,669.080505 740.978821,687.384033 753.145081,702.895508 
	C756.842102,707.609131 762.099182,711.213806 767.022095,714.804932 
	C769.635803,716.711609 773.373291,717.313232 775.285889,713.639893 
	C777.191650,709.979614 773.841309,708.592346 771.442627,706.727661 
	C767.540039,703.693726 762.802795,700.932678 760.442017,696.877869 
	C755.037537,687.595215 750.148254,677.865417 746.385925,667.816956 
	C742.921082,658.563293 741.254883,648.649475 743.412842,637.649048 
	C743.966187,638.642639 744.519592,639.636169 745.530457,641.111633 
M559.723694,627.417419 
	C559.971191,625.326843 561.136475,622.533203 560.218750,621.335205 
	C559.217224,620.027893 556.168457,619.515381 554.218079,619.851440 
	C548.005188,620.922180 541.953125,623.251953 535.721863,623.827576 
	C517.148804,625.543457 502.765961,616.346985 489.599396,604.723145 
	C488.461761,603.718811 488.242676,601.463379 487.969452,599.730408 
	C487.166901,594.640259 486.913330,589.439148 485.785858,584.429871 
	C483.682434,575.084839 479.504272,566.878357 471.152802,561.412048 
	C468.513214,559.684387 465.737274,558.067200 463.244354,561.323059 
	C460.585205,564.796082 462.792480,567.190979 465.611664,569.164368 
	C471.377441,573.200378 475.280090,578.772949 476.034454,585.584961 
	C477.257141,596.626160 477.607025,607.772522 477.998108,618.885986 
	C478.045013,620.219116 476.313843,621.988281 474.970520,622.938477 
	C463.009460,631.398987 450.853058,639.585815 438.964386,648.145142 
	C433.706451,651.930725 428.877136,656.324402 423.962585,660.568604 
	C421.607971,662.602112 420.336853,665.217285 422.793060,667.957031 
	C425.205444,670.647888 427.865875,669.715942 430.331909,667.769043 
	C430.985107,667.253296 431.575684,666.656494 432.240295,666.157227 
	C445.682098,656.058044 459.117828,645.950562 472.596588,635.900940 
	C473.978516,634.870544 475.625427,634.195618 477.755005,633.022034 
	C477.959900,635.330811 478.066711,636.781128 478.220581,638.226440 
	C479.047852,645.998657 478.739716,654.124268 481.005554,661.453308 
	C483.992432,671.114807 481.017029,678.409668 475.186707,685.286377 
	C471.761139,689.326660 467.464722,692.638977 464.135559,696.745300 
	C462.913696,698.252502 463.349426,701.103455 463.029022,703.341553 
	C465.274506,703.577454 467.699463,704.442017 469.713531,703.867004 
	C471.610168,703.325684 473.243988,701.423828 474.696136,699.846680 
	C479.260956,694.888977 483.685791,689.802307 488.215790,684.708313 
	C490.994324,688.279968 493.725739,691.811218 496.479889,695.324646 
	C498.593994,698.021606 501.171844,700.313110 504.390656,697.413330 
	C507.432037,694.673401 506.127686,691.605652 504.108856,688.490540 
	C500.508026,682.934387 496.509674,677.439026 494.080475,671.357849 
	C487.182007,654.088745 487.779846,635.841248 488.456970,617.673401 
	C488.463745,617.491882 488.945129,617.328064 489.394409,617.030396 
	C490.433014,617.694763 491.485687,618.513550 492.656586,619.093689 
	C501.267365,623.359375 509.530060,628.982300 518.639343,631.392212 
	C526.788818,633.548157 532.083557,637.478882 535.721985,644.396484 
	C538.505798,649.689392 540.910767,655.185120 543.388916,660.633972 
	C544.777222,663.686401 546.686890,665.969116 550.282837,664.480408 
	C553.652222,663.085571 553.335144,660.106384 552.441467,657.211365 
	C552.098145,656.099304 551.700867,654.990112 551.194153,653.944641 
	C547.881226,647.109497 544.531494,640.292236 541.245178,633.574219 
	C547.121033,631.689941 553.122681,629.765259 559.723694,627.417419 
z"/>
<path fill="#FF7DB7" opacity="1.000000" stroke="none" 
	d="
M721.613220,207.846863 
	C703.478638,217.022507 684.605164,225.533218 663.454285,223.810959 
	C652.661621,222.932129 641.398560,220.889786 631.592224,216.557327 
	C618.660950,210.844269 606.039062,210.901566 593.065308,213.552170 
	C569.502075,218.366272 551.692810,232.159988 537.968628,251.344284 
	C533.457642,257.649963 530.002991,264.791962 526.736145,271.861511 
	C525.653137,274.205048 525.901978,277.809631 526.858765,280.339661 
	C531.274292,292.015320 536.422180,303.415161 540.793884,315.105988 
	C545.339966,327.263336 542.769165,338.534485 533.286438,347.132111 
	C502.385284,375.149017 487.446075,412.001038 475.276062,450.401917 
	C472.063660,460.538208 470.003235,471.039520 466.920227,481.548950 
	C462.559326,478.590240 458.428436,475.727570 454.869415,472.275360 
	C437.320526,455.252930 424.395416,435.036102 413.961517,413.033813 
	C396.391266,375.982758 388.856384,337.032806 391.055786,296.144318 
	C391.313080,291.361786 391.665497,286.584381 391.973785,281.804596 
	C394.317505,273.658051 396.359283,265.407898 399.106842,257.399933 
	C401.070068,251.677948 403.980286,246.280899 407.049194,239.444000 
	C401.481232,232.189896 395.234680,224.051697 388.903046,215.276978 
	C388.501801,214.429001 388.185608,214.217529 387.869446,214.006058 
	C387.869446,214.006058 387.983185,214.010941 387.940674,213.766403 
	C387.556854,213.357468 387.215546,213.193069 386.874237,213.028656 
	C386.874237,213.028656 386.968567,213.029465 386.953552,212.762360 
	C386.584290,212.343323 386.230042,212.191422 385.875763,212.039520 
	C385.875763,212.039520 385.961182,212.039108 385.960632,211.761383 
	C385.598541,211.337296 385.237030,211.190933 384.875488,211.044556 
	C384.875488,211.044556 384.956726,211.043930 384.965698,210.761200 
	C384.608246,210.334457 384.241852,210.190445 383.875427,210.046417 
	C383.875427,210.046417 383.954987,210.045853 383.967773,209.760864 
	C383.612152,209.333084 383.243713,209.190308 382.875275,209.047516 
	C382.875275,209.047516 382.953857,209.046967 382.969177,208.760437 
	C382.614685,208.332077 382.244934,208.190231 381.875153,208.048386 
	C381.875153,208.048386 381.952972,208.047836 381.970276,207.760101 
	C381.616760,207.331299 381.245911,207.190216 380.875092,207.049133 
	C380.875092,207.049133 380.952057,207.048599 380.971619,206.759628 
	C380.619110,206.330185 380.247070,206.189713 379.875000,206.049255 
	C379.875000,206.049255 379.951904,206.048645 379.971649,205.759735 
	C379.619263,205.330231 379.247131,205.189667 378.875000,205.049088 
	C378.875000,205.049088 378.952240,205.048416 378.971008,204.761292 
	C378.618286,204.331741 378.246826,204.189331 377.875336,204.046921 
	C377.875336,204.046921 377.954407,204.046371 377.968506,203.761536 
	C377.613586,203.333191 377.244537,203.189667 376.875488,203.046158 
	C376.875488,203.046158 376.955231,203.045609 376.967529,202.762329 
	C376.611786,202.334213 376.243774,202.189362 375.875732,202.044495 
	C375.875732,202.044510 375.956909,202.043930 375.965454,201.762741 
	C375.607910,201.335388 375.241791,201.189224 374.875702,201.043045 
	C374.875702,201.043045 374.958130,201.042480 374.963867,200.763229 
	C374.605072,200.336578 374.240479,200.189178 373.875916,200.041779 
	C373.875916,200.041779 373.959442,200.041183 373.962372,199.763550 
	C373.602234,199.337616 373.239136,199.189301 372.876068,199.041000 
	C372.876068,199.041000 372.960266,199.040436 372.961426,198.763763 
	C372.600464,198.338226 372.238312,198.189377 371.876160,198.040527 
	C371.876160,198.040527 371.960724,198.039917 371.960846,197.764557 
	C371.599457,197.339111 371.237976,197.188995 370.876465,197.038895 
	C370.876465,197.038895 370.962982,197.038147 370.957397,196.768402 
	C370.593384,196.343262 370.234985,196.187866 369.876587,196.032486 
	C369.876587,196.032486 369.971619,196.030884 369.943512,195.775940 
	C369.568756,195.354965 369.222107,195.188934 368.875458,195.022888 
	C368.875458,195.022888 368.981659,195.020935 368.929565,194.783066 
	C368.543121,194.367966 368.208801,194.190720 367.874451,194.013489 
	C367.874451,194.013489 368.006622,194.001389 367.869843,193.780899 
	C367.356995,193.363266 366.980896,193.166122 366.604828,192.968979 
	C362.137726,189.096771 357.670593,185.224548 352.959442,181.140793 
	C357.015808,172.073135 362.293640,163.538940 369.815155,156.636383 
	C378.085358,149.046768 393.853912,147.472549 402.086426,152.944046 
	C409.538666,157.896957 416.807678,163.128098 424.304810,168.010330 
	C436.390503,175.880722 448.609741,183.545746 460.739716,191.348633 
	C462.623108,192.560150 464.332001,194.042862 467.184875,194.714951 
	C465.770172,188.477295 464.658661,182.152008 462.885803,176.017883 
	C456.716766,154.673187 450.611420,133.301315 443.862335,112.137352 
	C441.190979,103.760399 437.039642,95.833702 433.288818,87.830093 
	C430.674133,82.250832 431.996185,76.844971 437.861725,72.534615 
	C445.503601,66.918854 452.848907,60.749516 462.186005,57.976433 
	C469.111664,55.919540 476.080902,54.009865 483.019562,51.996098 
	C489.707520,50.055073 491.377838,56.076271 493.800812,59.559078 
	C505.407257,76.242508 516.796692,93.096275 527.638123,110.283783 
	C532.514343,118.014336 535.930725,126.665733 540.359558,135.605850 
	C540.957458,129.911133 541.365173,124.957977 542.014099,120.036606 
	C544.415710,101.821678 549.981323,84.436409 556.235168,67.265182 
	C559.261902,58.954868 562.829285,50.842880 566.058777,42.604595 
	C569.415405,34.042046 571.977966,32.214348 581.332764,31.957335 
	C591.527100,31.677259 601.562195,32.555595 611.236633,36.037338 
	C612.534912,36.504570 613.881592,37.007885 614.990845,37.796810 
	C618.041382,39.966351 619.442200,42.189934 617.494507,46.427979 
	C615.733337,50.260338 615.749634,54.909554 614.642334,59.936211 
	C614.243469,69.439995 614.184448,78.206139 614.079834,87.422905 
	C615.006287,95.846970 615.978455,103.820412 616.950623,111.793846 
	C617.297729,112.291870 617.894043,112.761398 617.954773,113.292175 
	C618.964478,122.122551 619.586914,122.419151 627.978638,124.089165 
	C635.776917,125.641098 643.698486,127.264030 651.056152,130.153320 
	C659.076050,133.302597 667.062561,137.159866 674.080505,142.103989 
	C687.519653,151.571869 699.468750,162.858307 707.186707,177.695496 
	C712.288208,187.502838 716.595581,197.723267 721.613220,207.846863 
z"/>
<path fill="#F18FB8" opacity="1.000000" stroke="none" 
	d="
M391.616730,281.863892 
	C391.665497,286.584381 391.313080,291.361786 391.055786,296.144318 
	C388.856384,337.032806 396.391266,375.982758 413.961517,413.033813 
	C424.395416,435.036102 437.320526,455.252930 454.869415,472.275360 
	C458.428436,475.727570 462.559326,478.590240 466.733948,481.878845 
	C464.441986,502.630707 463.253448,523.532715 458.892548,543.750427 
	C453.215393,570.070618 436.404907,589.266602 412.867310,601.840576 
	C399.101654,609.194275 384.347229,614.685730 370.098877,621.150024 
	C349.986603,630.274597 330.776611,640.850342 314.866791,656.541565 
	C305.285797,665.990967 297.359406,676.596558 292.280731,689.174316 
	C291.915131,690.079712 291.268860,690.871887 290.456482,691.894409 
	C283.046844,680.235779 275.416595,668.673401 268.963806,656.487488 
	C262.291107,643.886169 259.518433,630.128479 258.879486,615.753540 
	C257.604065,587.060669 265.503113,560.412720 275.943115,534.291504 
	C280.710846,522.362488 286.222290,510.730774 291.752930,498.513550 
	C292.382507,497.339783 292.655670,496.616699 292.928833,495.893616 
	C292.928833,495.893616 292.940430,495.976746 293.231079,495.888123 
	C293.659363,495.162689 293.796967,494.525940 293.934570,493.889160 
	C293.934601,493.889160 293.947510,493.979156 294.228882,493.883484 
	C294.653809,493.151428 294.797424,492.515015 294.941040,491.878601 
	C294.941010,491.878601 294.962982,491.981903 295.254578,491.854126 
	C296.005707,490.116028 296.465210,488.505707 296.924713,486.895355 
	C296.924713,486.895355 296.937775,486.976105 297.227234,486.886688 
	C297.657471,486.160034 297.798248,485.522766 297.939026,484.885529 
	C297.939026,484.885529 297.954987,484.982086 298.256592,484.864990 
	C299.014282,483.130524 299.470398,481.513153 299.926514,479.895782 
	C299.926544,479.895782 299.939545,479.978302 300.225403,479.884399 
	C300.654755,479.152863 300.798248,478.515289 300.941772,477.877686 
	C300.941772,477.877686 300.968994,477.989197 301.242493,477.833771 
	C301.650574,476.751190 301.785126,475.824036 301.919708,474.896881 
	C301.919708,474.896881 301.932800,474.973480 302.227692,474.888916 
	C302.661011,474.163147 302.799438,473.521973 302.937866,472.880768 
	C302.937836,472.880768 302.963379,472.988525 303.239594,472.837982 
	C303.653076,471.756104 303.790314,470.824768 303.927582,469.893433 
	C303.927582,469.893433 303.943848,469.981323 304.252502,469.863281 
	C305.053558,468.077759 305.545929,466.410339 306.038330,464.742889 
	C307.440277,459.245392 308.842194,453.747925 310.746368,447.740112 
	C311.837952,444.438751 312.427307,441.647766 313.025543,438.439758 
	C315.754883,418.490509 313.412048,399.743988 304.509430,381.962860 
	C301.766846,376.485016 298.939972,371.001984 296.827667,365.272156 
	C295.346893,361.255371 293.154877,358.815369 288.983826,358.142975 
	C291.950348,357.752533 292.187866,356.375397 290.925995,353.842163 
	C282.907074,337.743805 280.024139,320.650879 280.929596,302.751465 
	C281.286194,295.701630 284.730988,290.420868 289.529175,285.960846 
	C293.894562,281.903046 298.550079,278.018402 303.566772,274.825958 
	C319.739105,264.534454 337.112549,260.228241 356.574890,262.731323 
	C371.112061,264.600983 382.167847,271.063019 391.616730,281.863892 
M347.388367,306.984833 
	C353.049896,304.221863 358.968079,301.872253 364.292480,298.566345 
	C368.623474,295.877228 373.229462,292.233490 371.640900,286.156738 
	C370.097229,280.251831 364.323334,278.943848 359.353455,278.250824 
	C339.357971,275.462708 320.654266,279.764923 303.423279,290.124908 
	C298.890259,292.850342 294.015198,296.266815 295.089508,302.591614 
	C296.198364,309.119598 302.187195,309.996002 307.339600,311.025360 
	C320.774017,313.709381 333.793762,311.183838 347.388367,306.984833 
z"/>
<path fill="#FF7DB7" opacity="1.000000" stroke="none" 
	d="
M772.169800,474.582153 
	C763.985046,477.969757 756.113098,481.770752 747.813049,483.913300 
	C721.101501,490.808594 694.101685,490.273834 667.099365,485.496216 
	C646.104614,481.781586 626.015015,475.514160 608.027405,463.680389 
	C600.305786,458.600464 600.384338,458.472931 602.816895,449.651764 
	C610.497192,421.801300 621.448669,395.511444 639.688110,372.728943 
	C659.902222,347.479980 685.656860,329.526215 714.881653,316.354431 
	C724.560303,311.992249 734.681152,308.611237 744.884277,304.889679 
	C748.284363,309.999420 751.627502,314.875671 754.469421,320.028351 
	C760.785522,331.479950 767.870483,342.658173 772.739319,354.716095 
	C777.900208,367.497284 780.902527,381.155182 784.722900,394.466003 
	C785.210876,396.166504 784.946960,398.082855 784.945801,400.810669 
	C784.890991,411.569580 784.921692,421.417023 784.952393,431.264435 
	C784.704590,443.885284 780.298523,455.418671 775.605347,466.869934 
	C774.584595,469.360474 773.397217,471.782654 772.169800,474.582153 
z"/>
<path fill="#FF7EB7" opacity="1.000000" stroke="none" 
	d="
M288.576416,358.080170 
	C293.154877,358.815369 295.346893,361.255371 296.827667,365.272156 
	C298.939972,371.001984 301.766846,376.485016 304.509430,381.962860 
	C313.412048,399.743988 315.754883,418.490509 312.566040,438.407104 
	C304.360291,439.810089 296.622925,440.828735 288.885559,441.847412 
	C288.885559,441.847382 288.605896,442.019287 288.017853,441.927338 
	C285.495789,442.180359 283.561768,442.525360 281.627747,442.870331 
	C281.627747,442.870331 281.538696,442.987305 281.050354,442.881897 
	C278.913818,443.141357 277.265625,443.506195 275.617462,443.871063 
	C275.617462,443.871063 275.534760,443.980408 274.997559,443.873474 
	C266.832001,445.135529 259.203613,446.504486 251.575241,447.873474 
	C251.575241,447.873474 251.514877,447.958588 251.005768,447.870728 
	C245.975082,448.899353 241.453506,450.015839 236.931946,451.132355 
	C236.931946,451.132355 236.784119,451.054108 236.993774,451.207275 
	C236.897797,451.509491 236.592178,451.658508 236.286545,451.807556 
	C232.997742,452.617249 229.574799,453.087311 226.453171,454.320251 
	C222.300934,455.960236 219.556290,454.440338 217.029190,451.390472 
	C204.186646,435.891296 200.446426,417.801025 202.057968,398.267426 
	C202.361450,394.589050 203.475616,390.974060 204.262573,387.339966 
	C205.075729,383.584930 207.504837,381.982056 211.203766,380.864532 
	C222.157440,377.555237 232.848114,373.367676 243.820648,370.130371 
	C258.515564,365.794800 273.378326,362.028259 288.576416,358.080170 
z"/>
<path fill="#FEE8F2" opacity="1.000000" stroke="none" 
	d="
M289.342346,441.902893 
	C296.622925,440.828735 304.360291,439.810089 312.557129,438.824097 
	C312.427307,441.647766 311.837952,444.438751 311.107574,447.569214 
	C310.966553,445.372498 310.966553,442.836334 310.966553,439.880005 
	C304.163452,440.547974 296.981323,441.253143 289.342346,441.902893 
z"/>
<path fill="#FFEDF5" opacity="1.000000" stroke="none" 
	d="
M252.044434,447.931580 
	C259.203613,446.504486 266.832001,445.135529 274.942932,443.832062 
	C270.496033,444.937286 265.581329,446.055908 260.631073,446.985046 
	C257.956635,447.487030 255.221420,447.665344 252.044434,447.931580 
z"/>
<path fill="#FEE8F2" opacity="1.000000" stroke="none" 
	d="
M616.950439,111.358643 
	C615.978455,103.820412 615.006287,95.846970 614.259399,87.432861 
	C614.484680,86.992203 614.844421,87.004974 614.844421,87.004974 
	C615.546387,94.977798 616.248352,102.950623 616.950439,111.358643 
z"/>
<path fill="#FFD0E5" opacity="1.000000" stroke="none" 
	d="
M785.351318,431.037415 
	C784.921692,421.417023 784.890991,411.569580 784.909851,401.236145 
	C785.314758,401.239502 785.981079,401.729858 785.979553,402.218079 
	C785.949646,411.748993 785.841980,421.279663 785.351318,431.037415 
z"/>
<path fill="#FFFEFE" opacity="1.000000" stroke="none" 
	d="
M614.916870,86.540131 
	C614.844421,87.004974 614.484680,86.992203 614.305054,86.982239 
	C614.184448,78.206139 614.243469,69.439995 614.568237,60.353996 
	C614.885742,68.714523 614.937561,77.394913 614.916870,86.540131 
z"/>
<path fill="#FFEDF5" opacity="1.000000" stroke="none" 
	d="
M237.361984,451.065369 
	C241.453506,450.015839 245.975082,448.899353 250.963364,447.840332 
	C246.884048,448.931335 242.338043,449.964844 237.361984,451.065369 
z"/>
<path fill="#FDF3F7" opacity="1.000000" stroke="none" 
	d="
M296.591858,487.049255 
	C296.465210,488.505707 296.005707,490.116028 295.202850,491.864838 
	C295.326050,490.403259 295.792542,488.803223 296.591858,487.049255 
z"/>
<path fill="#FDF3F7" opacity="1.000000" stroke="none" 
	d="
M299.593475,480.048767 
	C299.470398,481.513153 299.014282,483.130524 298.208221,484.872681 
	C298.325653,483.398834 298.793060,481.800293 299.593475,480.048767 
z"/>
<path fill="#FDF3F7" opacity="1.000000" stroke="none" 
	d="
M305.702271,464.923920 
	C305.545929,466.410339 305.053558,468.077759 304.208496,469.871002 
	C304.359283,468.366180 304.862762,466.735565 305.702271,464.923920 
z"/>
<path fill="#FFEDF5" opacity="1.000000" stroke="none" 
	d="
M282.082336,442.924500 
	C283.561768,442.525360 285.495789,442.180359 287.858795,441.886780 
	C286.370850,442.285004 284.453888,442.631836 282.082336,442.924500 
z"/>
<path fill="#FFEDF5" opacity="1.000000" stroke="none" 
	d="
M732.384521,822.996948 
	C732.514893,822.059265 732.952881,820.992859 733.773193,819.978455 
	C733.667603,820.976440 733.179871,821.922363 732.384521,822.996948 
z"/>
<path fill="#FFEDF5" opacity="1.000000" stroke="none" 
	d="
M730.390259,825.993225 
	C730.517395,825.039368 730.950684,823.957336 731.768188,822.958618 
	C731.667114,823.983032 731.181763,824.924011 730.390259,825.993225 
z"/>
<path fill="#FFEDF5" opacity="1.000000" stroke="none" 
	d="
M728.365906,829.009094 
	C728.506409,828.030090 728.955627,826.923828 729.775391,825.935791 
	C729.655457,826.996704 729.165039,827.939270 728.365906,829.009094 
z"/>
<path fill="#FFEDF5" opacity="1.000000" stroke="none" 
	d="
M276.068268,443.925903 
	C277.265625,443.506195 278.913818,443.141357 280.991882,442.837311 
	C279.787537,443.259003 278.153320,443.619904 276.068268,443.925903 
z"/>
<path fill="#FFEDF5" opacity="1.000000" stroke="none" 
	d="
M725.362000,834.011719 
	C725.507996,833.004333 725.962280,831.870483 726.777222,830.903442 
	C726.648621,832.008606 726.159485,832.946899 725.362000,834.011719 
z"/>
<path fill="#FFEDF5" opacity="1.000000" stroke="none" 
	d="
M721.363281,840.987061 
	C721.516907,839.952759 721.982849,838.809265 722.788452,837.875061 
	C722.643921,839.015503 722.159790,839.946716 721.363281,840.987061 
z"/>
<path fill="#FDF3F7" opacity="1.000000" stroke="none" 
	d="
M303.600281,470.041992 
	C303.790314,470.824768 303.653076,471.756104 303.185669,472.850464 
	C302.994690,472.072540 303.133850,471.131531 303.600281,470.041992 
z"/>
<path fill="#FDF3F7" opacity="1.000000" stroke="none" 
	d="
M301.593201,475.045837 
	C301.785126,475.824036 301.650574,476.751190 301.186707,477.847137 
	C300.993805,477.075531 301.130219,476.135162 301.593201,475.045837 
z"/>
<path fill="#FDF3F7" opacity="1.000000" stroke="none" 
	d="
M292.604401,496.037170 
	C292.655670,496.616699 292.382507,497.339783 292.069244,498.293335 
	C292.112732,497.742767 292.196350,496.961761 292.604401,496.037170 
z"/>
<path fill="#FDF3F7" opacity="1.000000" stroke="none" 
	d="
M300.639160,478.001282 
	C300.798248,478.515289 300.654755,479.152863 300.184082,479.890442 
	C300.016785,479.368561 300.176666,478.746704 300.639160,478.001282 
z"/>
<path fill="#FDF3F7" opacity="1.000000" stroke="none" 
	d="
M297.636719,485.006775 
	C297.798248,485.522766 297.657471,486.160034 297.186798,486.892761 
	C297.016052,486.368164 297.175232,485.748108 297.636719,485.006775 
z"/>
<path fill="#FDF3F7" opacity="1.000000" stroke="none" 
	d="
M294.638428,492.002075 
	C294.797424,492.515015 294.653809,493.151428 294.183838,493.889587 
	C294.016876,493.369415 294.176331,492.747498 294.638428,492.002075 
z"/>
<path fill="#FDF3F7" opacity="1.000000" stroke="none" 
	d="
M293.632629,494.009491 
	C293.796967,494.525940 293.659363,495.162689 293.189453,495.893494 
	C293.015015,495.368286 293.172852,494.749054 293.632629,494.009491 
z"/>
<path fill="#FFEDF5" opacity="1.000000" stroke="none" 
	d="
M735.405334,818.975281 
	C735.192688,818.469604 735.272949,817.839966 735.739685,817.116455 
	C735.983521,817.632141 735.840881,818.241760 735.405334,818.975281 
z"/>
<path fill="#FFEDF5" opacity="1.000000" stroke="none" 
	d="
M727.401428,830.978943 
	C727.184570,830.425964 727.263916,829.745544 727.756836,829.033813 
	C728.012817,829.618835 727.855286,830.235168 727.401428,830.978943 
z"/>
<path fill="#FFEDF5" opacity="1.000000" stroke="none" 
	d="
M724.377686,835.997314 
	C724.177795,835.430420 724.277405,834.735229 724.772339,834.023560 
	C725.004150,834.627686 724.840698,835.248291 724.377686,835.997314 
z"/>
<path fill="#FFEDF5" opacity="1.000000" stroke="none" 
	d="
M723.407349,837.974487 
	C723.180725,837.411072 723.248474,836.721741 723.743713,836.021973 
	C724.014648,836.623901 723.858154,837.236206 723.407349,837.974487 
z"/>
<path fill="#FDF3F7" opacity="1.000000" stroke="none" 
	d="
M302.636230,473.003540 
	C302.799438,473.521973 302.661011,474.163147 302.189301,474.894989 
	C302.015533,474.365875 302.175079,473.746094 302.636230,473.003540 
z"/>
<path fill="#FFD0E5" opacity="1.000000" stroke="none" 
	d="
M667.416016,943.983398 
	C667.195190,943.499146 667.265625,942.907166 667.686829,942.203613 
	C667.927490,942.686584 667.817444,943.281128 667.416016,943.983398 
z"/>
<path fill="#FFD0E5" opacity="1.000000" stroke="none" 
	d="
M655.356079,955.054932 
	C655.554138,954.572083 656.065613,954.054749 656.830566,953.835876 
	C656.612549,954.429688 656.140991,954.725037 655.356079,955.054932 
z"/>
<path fill="#FFD0E5" opacity="1.000000" stroke="none" 
	d="
M664.313599,947.059082 
	C664.179016,946.743958 664.312378,946.347046 664.793396,945.997803 
	C664.954590,946.356079 664.768066,946.666748 664.313599,947.059082 
z"/>
<path fill="#FFEDF5" opacity="1.000000" stroke="none" 
	d="
M372.959167,199.304535 
	C373.239136,199.189301 373.602234,199.337616 373.962280,199.805328 
	C373.653564,199.939178 373.347931,199.753632 372.959167,199.304535 
z"/>
<path fill="#FFEDF5" opacity="1.000000" stroke="none" 
	d="
M371.959229,198.304260 
	C372.238312,198.189377 372.600464,198.338226 372.961334,198.805847 
	C372.654114,198.939087 372.348206,198.753555 371.959229,198.304260 
z"/>
<path fill="#FFEDF5" opacity="1.000000" stroke="none" 
	d="
M370.959198,197.303085 
	C371.237976,197.188995 371.599457,197.339111 371.960754,197.806885 
	C371.654327,197.938782 371.348145,197.753021 370.959198,197.303085 
z"/>
<path fill="#FFEDF5" opacity="1.000000" stroke="none" 
	d="
M369.958435,196.298248 
	C370.234985,196.187866 370.593384,196.343262 370.957397,196.811661 
	C370.655457,196.937790 370.347870,196.750900 369.958435,196.298248 
z"/>
<path fill="#FFEDF5" opacity="1.000000" stroke="none" 
	d="
M368.957214,195.291809 
	C369.222107,195.188934 369.568756,195.354965 369.944000,195.823456 
	C369.661407,195.937531 369.350189,195.749130 368.957214,195.291809 
z"/>
<path fill="#FFEDF5" opacity="1.000000" stroke="none" 
	d="
M367.956299,194.285736 
	C368.208801,194.190720 368.543121,194.367966 368.930359,194.836182 
	C368.668213,194.937424 368.353149,194.747696 367.956299,194.285736 
z"/>
<path fill="#FFD0E5" opacity="1.000000" stroke="none" 
	d="
M666.320557,945.058350 
	C666.176025,944.702881 666.292480,944.267517 666.771118,943.953491 
	C666.949341,944.376099 666.765442,944.677307 666.320557,945.058350 
z"/>
<path fill="#FFD0E5" opacity="1.000000" stroke="none" 
	d="
M665.311951,946.060303 
	C665.175598,945.725708 665.305115,945.310852 665.786255,944.978027 
	C665.951172,945.366760 665.764465,945.673401 665.311951,946.060303 
z"/>
<path fill="#FFEDF5" opacity="1.000000" stroke="none" 
	d="
M373.959106,200.304993 
	C374.240479,200.189178 374.605072,200.336578 374.963776,200.804443 
	C374.652710,200.939346 374.347473,200.753784 373.959106,200.304993 
z"/>
<path fill="#FFD0E5" opacity="1.000000" stroke="none" 
	d="
M663.313599,948.059082 
	C663.179016,947.743958 663.312378,947.347046 663.793335,946.997803 
	C663.954529,947.356079 663.768005,947.666687 663.313599,948.059082 
z"/>
<path fill="#FFD0E5" opacity="1.000000" stroke="none" 
	d="
M662.313660,949.059082 
	C662.179016,948.743958 662.312317,948.346985 662.793335,947.997803 
	C662.954590,948.356079 662.768127,948.666687 662.313660,949.059082 
z"/>
<path fill="#FFD0E5" opacity="1.000000" stroke="none" 
	d="
M661.313599,950.059082 
	C661.178955,949.743896 661.312317,949.346924 661.793335,948.997681 
	C661.954590,949.356079 661.768066,949.666687 661.313599,950.059082 
z"/>
<path fill="#FFD0E5" opacity="1.000000" stroke="none" 
	d="
M660.313721,951.059082 
	C660.179077,950.743896 660.312317,950.346924 660.793335,949.997742 
	C660.954529,950.356140 660.768066,950.666687 660.313721,951.059082 
z"/>
<path fill="#FFD0E5" opacity="1.000000" stroke="none" 
	d="
M659.320801,952.056763 
	C659.181091,951.741516 659.307434,951.344177 659.787292,950.996399 
	C659.956177,951.355530 659.771484,951.665039 659.320801,952.056763 
z"/>
<path fill="#FFD0E5" opacity="1.000000" stroke="none" 
	d="
M658.331299,953.053040 
	C658.181458,952.727478 658.293762,952.320007 658.772522,951.983521 
	C658.957214,952.359985 658.775330,952.665527 658.331299,953.053040 
z"/>
<path fill="#FFD0E5" opacity="1.000000" stroke="none" 
	d="
M657.338989,954.050232 
	C657.179810,953.706665 657.278687,953.282227 657.756836,952.962646 
	C657.956482,953.368042 657.776794,953.668762 657.338989,954.050232 
z"/>
<path fill="#FFEDF5" opacity="1.000000" stroke="none" 
	d="
M366.792725,193.223022 
	C366.980896,193.166122 367.356995,193.363266 367.875946,193.846985 
	C367.672760,193.914719 367.326660,193.695892 366.792725,193.223022 
z"/>
<path fill="#FFEDF5" opacity="1.000000" stroke="none" 
	d="
M379.959167,206.309998 
	C380.247070,206.189713 380.619110,206.330185 380.971405,206.798111 
	C380.648865,206.940628 380.346069,206.755692 379.959167,206.309998 
z"/>
<path fill="#FFEDF5" opacity="1.000000" stroke="none" 
	d="
M387.958191,214.288742 
	C388.185608,214.217529 388.501801,214.429001 388.920166,214.923630 
	C388.697235,214.994995 388.372070,214.783203 387.958191,214.288742 
z"/>
<path fill="#FFEDF5" opacity="1.000000" stroke="none" 
	d="
M386.957825,213.296967 
	C387.215546,213.193069 387.556854,213.357468 387.938110,213.823257 
	C387.665802,213.938187 387.353607,213.751740 386.957825,213.296967 
z"/>
<path fill="#FFEDF5" opacity="1.000000" stroke="none" 
	d="
M385.959351,212.304199 
	C386.230042,212.191422 386.584290,212.343323 386.952850,212.809509 
	C386.659058,212.938812 386.351013,212.753845 385.959351,212.304199 
z"/>
<path fill="#FFEDF5" opacity="1.000000" stroke="none" 
	d="
M384.959473,211.307434 
	C385.237030,211.190933 385.598541,211.337296 385.960449,211.804108 
	C385.655029,211.939789 385.349243,211.755051 384.959473,211.307434 
z"/>
<path fill="#FFEDF5" opacity="1.000000" stroke="none" 
	d="
M383.959229,210.308182 
	C384.241852,210.190445 384.608246,210.334457 384.965576,210.801849 
	C384.651978,210.940109 384.347504,210.755020 383.959229,210.308182 
z"/>
<path fill="#FFEDF5" opacity="1.000000" stroke="none" 
	d="
M382.959167,209.308823 
	C383.243713,209.190308 383.612152,209.333084 383.967651,209.800644 
	C383.650818,209.940323 383.346924,209.755219 382.959167,209.308823 
z"/>
<path fill="#FFEDF5" opacity="1.000000" stroke="none" 
	d="
M381.959137,208.309357 
	C382.244934,208.190231 382.614685,208.332077 382.968994,208.799744 
	C382.650055,208.940475 382.346588,208.755402 381.959137,208.309357 
z"/>
<path fill="#FFEDF5" opacity="1.000000" stroke="none" 
	d="
M380.959137,207.309830 
	C381.245911,207.190216 381.616760,207.331299 381.970093,207.799011 
	C381.649475,207.940613 381.346313,207.755569 380.959137,207.309830 
z"/>
<path fill="#FFEDF5" opacity="1.000000" stroke="none" 
	d="
M236.507843,451.759888 
	C236.592178,451.658508 236.897797,451.509491 237.031540,451.132629 
	C237.058807,451.212921 237.015305,451.482025 236.507843,451.759888 
z"/>
<path fill="#FFEDF5" opacity="1.000000" stroke="none" 
	d="
M378.959137,205.309875 
	C379.247131,205.189667 379.619263,205.330231 379.971497,205.798187 
	C379.648804,205.940598 379.346039,205.755630 378.959137,205.309875 
z"/>
<path fill="#FFEDF5" opacity="1.000000" stroke="none" 
	d="
M377.958923,204.308060 
	C378.246826,204.189331 378.618286,204.331741 378.970856,204.799911 
	C378.648773,204.940186 378.345642,204.754684 377.958923,204.308060 
z"/>
<path fill="#FFEDF5" opacity="1.000000" stroke="none" 
	d="
M734.294556,820.060059 
	C734.159790,819.697998 734.286072,819.242981 734.778320,818.924744 
	C734.948059,819.363342 734.751831,819.665283 734.294556,820.060059 
z"/>
<path fill="#FFEDF5" opacity="1.000000" stroke="none" 
	d="
M376.959045,203.307709 
	C377.244537,203.189667 377.613586,203.333191 377.968353,203.801071 
	C377.650238,203.940048 377.346436,203.754669 376.959045,203.307709 
z"/>
<path fill="#FFEDF5" opacity="1.000000" stroke="none" 
	d="
M375.959015,202.306549 
	C376.243774,202.189362 376.611786,202.334213 376.967346,202.802216 
	C376.650696,202.939774 376.346497,202.754181 375.959015,202.306549 
z"/>
<path fill="#FFEDF5" opacity="1.000000" stroke="none" 
	d="
M374.959045,201.305817 
	C375.241791,201.189224 375.607910,201.335388 375.965302,201.803345 
	C375.651886,201.939606 375.347137,201.754089 374.959045,201.305817 
z"/>
<path fill="#F18DB7" opacity="1.000000" stroke="none" 
	d="
M745.301697,640.870728 
	C744.519592,639.636169 743.966187,638.642639 743.412842,637.649048 
	C741.254883,648.649475 742.921082,658.563293 746.385925,667.816956 
	C750.148254,677.865417 755.037537,687.595215 760.442017,696.877869 
	C762.802795,700.932678 767.540039,703.693726 771.442627,706.727661 
	C773.841309,708.592346 777.191650,709.979614 775.285889,713.639893 
	C773.373291,717.313232 769.635803,716.711609 767.022095,714.804932 
	C762.099182,711.213806 756.842102,707.609131 753.145081,702.895508 
	C740.978821,687.384033 735.252686,669.080505 733.232544,649.772034 
	C732.400513,641.819580 733.868652,633.630676 734.218933,625.546204 
	C734.281433,624.104370 734.330750,622.510986 733.811218,621.218811 
	C729.523743,610.554810 725.328796,599.842590 720.608948,589.368774 
	C718.656982,585.037354 715.882324,580.906067 712.728088,577.352722 
	C710.919800,575.315552 707.696289,573.798767 704.941711,573.474060 
	C696.373474,572.463745 693.259766,576.377869 695.201233,584.699707 
	C702.077637,614.174805 696.840454,641.655334 680.846313,667.052124 
	C676.579651,673.827026 675.578796,680.480103 678.765686,687.371765 
	C682.174500,694.743408 686.243896,701.858154 690.556580,708.752502 
	C697.954712,720.579468 705.678528,732.207275 713.499939,743.760010 
	C714.648865,745.457031 716.942017,746.975159 718.950684,747.389832 
	C727.001038,749.052246 734.865601,748.028564 742.329834,744.468628 
	C745.362183,743.022461 748.598206,741.748169 750.488403,745.676697 
	C752.395386,749.640076 749.751404,751.802429 746.415649,753.386108 
	C739.036194,756.889648 731.285950,758.434143 723.132019,758.035522 
	C722.495850,758.004395 721.847778,758.219116 720.944458,758.360413 
	C722.086975,764.810608 724.102234,771.105896 724.078430,777.393494 
	C724.051331,784.579163 722.471802,791.814270 720.944885,798.893799 
	C720.625610,800.373840 716.937378,802.616211 715.953064,802.137878 
	C714.185730,801.279053 712.857910,798.762817 712.187378,796.669800 
	C711.754761,795.319275 712.780457,793.477600 713.221436,791.875061 
	C716.940125,778.359253 713.423279,765.963135 707.186340,752.410767 
	C705.786682,755.395264 705.164734,757.394226 704.026733,759.035461 
	C697.987366,767.745239 691.910767,776.432983 685.638367,784.975037 
	C683.754883,787.540100 680.980164,789.243286 677.986877,786.397156 
	C675.004150,783.561096 677.034363,781.191040 678.907776,778.592346 
	C684.721252,770.528198 690.908203,762.640503 695.796204,754.029297 
	C700.215271,746.244446 700.172791,738.432312 693.952942,730.396179 
	C686.030884,720.160767 679.439514,708.870667 672.613525,697.825623 
	C670.373779,694.201416 669.190857,689.924011 667.466064,685.805481 
	C648.445618,699.186951 630.966309,713.546143 621.989441,736.079224 
	C611.634033,762.072205 608.009888,789.048462 607.759033,816.757874 
	C607.489258,846.554565 610.446777,875.953186 617.662170,904.892517 
	C618.105225,906.669495 619.069153,908.627136 618.676575,910.227417 
	C618.117676,912.505554 617.036560,915.531372 615.260437,916.436829 
	C612.351929,917.919434 610.291992,915.436157 609.516113,912.603149 
	C608.196838,907.786072 606.848267,902.950073 605.991516,898.038330 
	C603.221863,882.160706 600.670288,866.245056 597.918884,849.645569 
	C596.727783,851.167603 595.548401,852.595764 594.453430,854.085999 
	C585.048279,866.886780 573.608276,877.399597 559.648987,885.081848 
	C558.628601,885.643372 557.567505,886.138367 556.498779,886.603271 
	C553.279175,888.003540 549.809448,889.201233 547.934143,885.009338 
	C546.141846,881.003113 549.396301,879.455261 552.307922,877.967224 
	C571.998474,867.903809 586.434387,852.704956 596.015320,832.873352 
	C597.134827,830.556152 597.937439,827.794128 597.896851,825.254089 
	C597.557861,804.017944 599.208313,782.989075 603.724976,762.210388 
	C603.889771,761.452454 603.745972,760.627380 603.745972,758.660767 
	C600.213928,761.465271 597.421204,763.647278 594.666260,765.876160 
	C582.169067,775.987244 568.889282,785.033875 553.967102,790.984375 
	C544.590698,794.723450 540.451172,801.350830 539.127747,810.445984 
	C538.316284,816.022583 538.225525,821.709106 537.919006,827.352173 
	C537.736389,830.715271 537.277100,834.188354 533.156982,834.302979 
	C528.697510,834.426941 527.768799,830.865173 528.064636,827.283203 
	C528.666077,820.001953 529.547974,812.743164 530.375549,805.482056 
	C530.556580,803.893921 530.994019,802.335083 531.381653,800.426331 
	C523.705811,801.867859 516.575867,803.237061 509.433105,804.535400 
	C505.939911,805.170410 502.758423,804.546509 502.243286,800.453430 
	C501.752167,796.551086 504.692444,795.491882 507.963837,795.037720 
	C539.292480,790.688843 566.092529,776.486267 590.396667,756.952942 
	C594.414490,753.723755 598.066711,750.043274 601.950623,746.642944 
	C607.924438,741.412842 612.351746,735.237854 615.594604,727.877258 
	C622.668274,711.821899 633.909058,699.180298 648.123962,688.800659 
	C669.685913,673.056213 682.833801,651.672913 687.040161,625.304688 
	C691.399414,597.977783 684.768677,573.216797 668.447571,550.779968 
	C654.651794,531.814697 636.550720,517.881042 617.437378,504.934326 
	C610.211609,500.039856 603.648254,494.393555 599.686401,486.343353 
	C598.880310,484.705444 597.644897,482.909271 597.771667,481.276428 
	C597.925842,479.289703 598.840271,476.615021 600.320557,475.723572 
	C601.427734,475.056793 605.156067,476.243561 605.659424,477.457916 
	C610.945190,490.210693 622.204834,496.738800 632.712402,504.005219 
	C655.967468,520.087158 675.471008,539.524536 688.074829,565.201904 
	C689.346741,567.793030 690.823730,567.938538 693.246521,566.884644 
	C709.200745,559.944824 719.009338,566.995789 725.526794,578.598022 
	C729.908386,586.398010 732.852844,594.996277 736.596375,603.165894 
	C740.683228,612.084534 744.546631,621.141968 749.253784,629.729797 
	C753.828674,638.076294 761.033752,643.659851 770.542358,645.840393 
	C773.670227,646.557678 776.723450,647.652039 775.718140,651.664917 
	C774.713257,655.675903 771.490112,655.714844 768.072388,655.014709 
	C758.848816,653.125366 751.570312,648.135559 745.301697,640.870728 
M604.529602,757.532837 
	C604.529602,757.532837 604.480957,757.559998 604.529602,757.532837 
z"/>
<path fill="#F18DB7" opacity="1.000000" stroke="none" 
	d="
M559.424011,627.629028 
	C553.122681,629.765259 547.121033,631.689941 541.245178,633.574219 
	C544.531494,640.292236 547.881226,647.109497 551.194153,653.944641 
	C551.700867,654.990112 552.098145,656.099304 552.441467,657.211365 
	C553.335144,660.106384 553.652222,663.085571 550.282837,664.480408 
	C546.686890,665.969116 544.777222,663.686401 543.388916,660.633972 
	C540.910767,655.185120 538.505798,649.689392 535.721985,644.396484 
	C532.083557,637.478882 526.788818,633.548157 518.639343,631.392212 
	C509.530060,628.982300 501.267365,623.359375 492.656586,619.093689 
	C491.485687,618.513550 490.433014,617.694763 489.394409,617.030396 
	C488.945129,617.328064 488.463745,617.491882 488.456970,617.673401 
	C487.779846,635.841248 487.182007,654.088745 494.080475,671.357849 
	C496.509674,677.439026 500.508026,682.934387 504.108856,688.490540 
	C506.127686,691.605652 507.432037,694.673401 504.390656,697.413330 
	C501.171844,700.313110 498.593994,698.021606 496.479889,695.324646 
	C493.725739,691.811218 490.994324,688.279968 488.215790,684.708313 
	C483.685791,689.802307 479.260956,694.888977 474.696136,699.846680 
	C473.243988,701.423828 471.610168,703.325684 469.713531,703.867004 
	C467.699463,704.442017 465.274506,703.577454 463.029053,703.341553 
	C463.349426,701.103455 462.913696,698.252502 464.135559,696.745300 
	C467.464722,692.638977 471.761139,689.326660 475.186707,685.286377 
	C481.017029,678.409668 483.992432,671.114807 481.005554,661.453308 
	C478.739716,654.124268 479.047852,645.998657 478.220581,638.226440 
	C478.066711,636.781128 477.959900,635.330811 477.755005,633.022034 
	C475.625427,634.195618 473.978516,634.870544 472.596588,635.900940 
	C459.117828,645.950562 445.682098,656.058044 432.240295,666.157227 
	C431.575684,666.656494 430.985107,667.253296 430.331909,667.769043 
	C427.865875,669.715942 425.205444,670.647888 422.793060,667.957031 
	C420.336853,665.217285 421.607971,662.602112 423.962585,660.568604 
	C428.877136,656.324402 433.706451,651.930725 438.964386,648.145142 
	C450.853058,639.585815 463.009460,631.398987 474.970520,622.938477 
	C476.313843,621.988281 478.045013,620.219116 477.998108,618.885986 
	C477.607025,607.772522 477.257141,596.626160 476.034454,585.584961 
	C475.280090,578.772949 471.377441,573.200378 465.611664,569.164368 
	C462.792480,567.190979 460.585205,564.796082 463.244354,561.323059 
	C465.737274,558.067200 468.513214,559.684387 471.152802,561.412048 
	C479.504272,566.878357 483.682434,575.084839 485.785858,584.429871 
	C486.913330,589.439148 487.166901,594.640259 487.969452,599.730408 
	C488.242676,601.463379 488.461761,603.718811 489.599396,604.723145 
	C502.765961,616.346985 517.148804,625.543457 535.721863,623.827576 
	C541.953125,623.251953 548.005188,620.922180 554.218079,619.851440 
	C556.168457,619.515381 559.217224,620.027893 560.218750,621.335205 
	C561.136475,622.533203 559.971191,625.326843 559.424011,627.629028 
z"/>
<path fill="#E34189" opacity="1.000000" stroke="none" 
	d="
M347.010498,307.102661 
	C333.793762,311.183838 320.774017,313.709381 307.339600,311.025360 
	C302.187195,309.996002 296.198364,309.119598 295.089508,302.591614 
	C294.015198,296.266815 298.890259,292.850342 303.423279,290.124908 
	C320.654266,279.764923 339.357971,275.462708 359.353455,278.250824 
	C364.323334,278.943848 370.097229,280.251831 371.640900,286.156738 
	C373.229462,292.233490 368.623474,295.877228 364.292480,298.566345 
	C358.968079,301.872253 353.049896,304.221863 347.010498,307.102661 
z"/>
<path fill="#E34088" opacity="1.000000" stroke="none" 
	d="
M604.505249,757.546387 
	C604.480957,757.559998 604.529602,757.532837 604.505249,757.546387 
z"/>
</svg>