<svg version="1.1" id="Layer_1" xmlns="http://www.w3.org/2000/svg" xmlns:xlink="http://www.w3.org/1999/xlink" x="0px" y="0px"
	 width="100%" viewBox="0 0 1080 1080" enable-background="new 0 0 1080 1080" xml:space="preserve">
<path fill="#000000" opacity="1.000000" stroke="none" 
	d="
M571.000000,1081.000000 
	C380.688568,1081.000000 190.877151,1081.000000 1.032859,1081.000000 
	C1.032859,721.063477 1.032859,361.126892 1.032859,1.095172 
	C360.894989,1.095172 720.790039,1.095172 1080.842529,1.095172 
	C1080.842529,360.999939 1080.842529,720.999939 1080.842529,1081.000000 
	C911.126465,1081.000000 741.313232,1081.000000 571.000000,1081.000000 
M369.871216,883.317566 
	C369.252289,883.173218 368.633362,883.028870 368.015930,882.957153 
	C368.015930,882.957153 368.081787,882.926636 367.875031,882.322327 
	C367.066132,882.276855 366.257263,882.231384 364.723694,881.940247 
	C361.472473,880.104126 358.189514,878.321716 354.975311,876.422974 
	C336.983856,865.794800 318.997833,855.157288 301.031677,844.486511 
	C285.312317,835.150208 269.701355,825.628418 253.892258,816.447327 
	C241.848648,809.453064 229.634445,802.743286 217.357895,796.164978 
	C213.437622,794.064270 208.361862,793.413391 205.570618,797.200439 
	C200.102264,804.619507 195.507111,812.701294 190.818497,820.666565 
	C188.968781,823.808838 189.372284,826.483093 193.122742,828.792053 
	C211.995300,840.410828 230.426559,852.763977 249.499908,864.035034 
	C277.232788,880.423218 305.222351,896.395569 333.409576,911.990173 
	C352.611542,922.613647 371.878204,933.351685 391.976532,942.049988 
	C407.954926,948.965271 425.236969,952.868347 441.673706,958.650391 
	C440.560638,960.420654 439.335388,962.131042 438.353119,963.971069 
	C432.885284,974.213440 427.433807,984.465149 422.071472,994.762939 
	C420.307465,998.150513 418.826416,1001.685364 416.502899,1005.035156 
	C416.294983,1005.689087 416.087067,1006.343079 415.991364,1006.997253 
	C415.991364,1006.997253 415.990753,1006.885071 415.125916,1006.968384 
	C411.975403,1007.311340 408.827698,1007.682861 405.673676,1007.989746 
	C402.092926,1008.338196 398.506531,1008.628906 394.016785,1008.945679 
	C386.767975,1009.297058 379.518860,1009.642700 372.270416,1010.001343 
	C365.942230,1010.314453 359.553894,1010.194214 353.298126,1011.044922 
	C331.801636,1013.968262 311.333466,1029.505371 308.046295,1053.122925 
	C307.271362,1058.690796 308.097748,1059.816528 313.768280,1060.040649 
	C315.876526,1060.123901 317.961914,1060.939087 320.065094,1060.973877 
	C341.030457,1061.319702 361.997314,1061.572144 383.899292,1062.015503 
	C400.606354,1061.960327 417.313446,1061.905029 434.948639,1061.965820 
	C442.310364,1061.697998 449.672119,1061.430054 457.486938,1061.886597 
	C468.671509,1061.932861 479.856140,1062.002563 491.040619,1061.985352 
	C492.033173,1061.983765 493.024872,1061.417725 494.948334,1061.024170 
	C514.783447,1060.682129 534.618286,1060.320312 554.453918,1060.011108 
	C559.859497,1059.926880 565.274109,1060.173706 570.673340,1059.970581 
	C586.104248,1059.390015 601.532959,1058.725708 616.955627,1057.956787 
	C626.320435,1057.489868 635.672546,1056.767700 645.481201,1056.886963 
	C663.297302,1056.869019 681.113342,1056.851074 699.863953,1056.961670 
	C705.791565,1057.321533 711.714844,1057.810913 717.647827,1058.010742 
	C726.424377,1058.306152 735.208984,1058.349365 743.988037,1058.583008 
	C760.562988,1059.024048 777.135620,1059.555786 793.710938,1059.979614 
	C798.657532,1060.106201 803.610168,1059.999268 809.115295,1059.999268 
	C808.996704,1044.441650 801.039734,1033.024536 790.965332,1023.752258 
	C779.034485,1012.771484 763.624817,1008.674805 747.518738,1008.045532 
	C733.419373,1007.494751 719.300049,1007.450073 705.202087,1006.874817 
	C703.108704,1006.789368 700.463745,1005.529602 699.138550,1003.930847 
	C694.224792,998.002502 689.942078,991.553772 685.076721,985.582153 
	C678.007263,976.905457 670.767822,968.358459 663.359253,959.969482 
	C656.480347,952.180115 649.284668,944.670532 642.371277,936.303528 
	C643.169189,936.134460 644.007996,936.071167 644.759033,935.780762 
	C664.603149,928.107117 684.110413,919.773132 702.533508,908.962646 
	C723.477112,896.673218 742.926392,882.339844 760.560669,865.791992 
	C771.595581,855.436951 781.445557,843.745056 791.228149,832.147766 
	C804.802734,816.055054 816.283203,798.367310 825.053223,779.296814 
	C832.958008,762.107910 839.842957,744.330505 845.584961,726.305237 
	C850.006042,712.426453 853.011719,697.884094 854.706604,683.409607 
	C856.397461,668.969360 856.525818,654.200256 855.740967,639.661621 
	C855.102966,627.842834 853.163818,615.844177 849.877197,604.481934 
	C845.792542,590.361084 839.966064,576.717163 834.466736,563.038208 
	C823.864563,536.666687 809.909363,512.064636 794.152222,488.463928 
	C781.191895,469.052277 767.747192,449.999786 752.134094,432.577576 
	C740.619568,419.728790 729.485474,406.516327 717.533325,394.089691 
	C708.128540,384.311523 697.951477,375.236298 687.722656,366.300751 
	C675.155640,355.322632 662.278870,344.689392 649.283020,334.221191 
	C647.008667,332.389191 646.759155,331.285370 648.035828,329.099915 
	C650.565430,324.769714 652.944153,320.350159 655.520142,316.048309 
	C668.590881,294.220490 681.708008,272.420441 694.802490,250.606857 
	C701.721680,239.080490 708.605530,227.532837 715.559082,216.027267 
	C716.960449,213.708527 718.363464,212.345169 721.672180,214.064819 
	C730.368286,218.584518 739.357239,222.540680 749.113098,227.137695 
	C755.769592,212.736954 762.431396,198.324692 769.229614,183.617386 
	C762.034119,179.923386 755.221802,176.615585 748.594238,172.971619 
	C741.638489,169.147186 734.859863,165.000534 728.221313,160.308624 
	C732.050903,152.115112 735.895569,143.928635 739.706543,135.726486 
	C746.053467,122.066582 752.333008,108.375099 758.755127,94.750771 
	C759.906067,92.309303 761.608459,90.127800 763.663513,88.202454 
	C765.093018,88.977989 766.780762,89.488235 767.902527,90.579971 
	C770.982178,93.577194 772.819214,91.719933 774.388550,89.114479 
	C777.249207,84.365067 780.094482,79.595863 782.667236,74.688644 
	C783.725586,72.670036 783.875488,70.727104 781.213318,68.952141 
	C770.588379,61.868198 760.338379,54.218254 749.664551,47.212139 
	C735.114319,37.661602 720.296875,28.518333 705.612000,19.172245 
	C703.405029,17.767651 701.718018,18.041391 700.259399,20.262444 
	C695.032471,28.221611 689.763306,36.153065 684.193542,44.573460 
	C690.243774,47.285114 695.543762,49.660500 700.705322,52.719372 
	C694.111694,63.319725 687.575806,73.956551 680.908813,84.510574 
	C673.649170,96.002846 666.267883,107.418297 658.301636,119.143135 
	C657.026489,120.708504 656.120850,121.126724 653.910034,119.769608 
	C640.936035,111.805519 627.697571,104.273392 614.669617,96.394981 
	C611.664001,94.577347 609.208313,95.024109 607.267212,97.321518 
	C604.331787,100.795700 601.813843,104.625092 599.154724,108.329597 
	C594.694458,114.543388 590.406555,120.887596 585.764343,126.961632 
	C583.036621,130.530716 583.202881,134.782135 587.112183,137.413239 
	C591.718506,140.513412 596.534485,143.302017 601.314087,146.259430 
	C594.121338,158.227066 587.215576,169.591812 580.436157,181.031418 
	C573.234497,193.183655 566.064941,205.356613 559.042969,217.613129 
	C551.781128,230.288269 544.765381,243.104172 537.547729,255.805008 
	C528.401184,271.900269 519.094238,287.904572 509.980469,304.018188 
	C503.103577,316.176880 496.458405,328.466400 489.643677,340.660553 
	C480.449860,357.111755 471.121033,373.487823 461.986115,389.971497 
	C455.525116,401.630157 449.349304,413.446503 442.940002,425.134277 
	C431.999390,445.085052 421.019989,465.014923 409.970245,484.905426 
	C403.045410,497.370819 395.962280,509.748260 388.259186,521.989807 
	C383.403137,518.954163 378.514374,515.969360 373.699219,512.870178 
	C367.425354,508.832184 366.096344,511.027313 363.027954,516.061584 
	C359.678101,521.557678 356.895142,527.403259 353.944031,533.137207 
	C351.457733,537.968140 349.017242,542.825317 346.685394,547.732117 
	C345.187134,550.884888 345.831848,553.255554 349.155396,555.143982 
	C358.784088,560.615051 368.264801,566.346558 377.738647,572.682495 
	C370.123779,585.907776 362.438721,599.093445 354.924377,612.375610 
	C351.287109,618.804749 347.535553,625.230591 344.657837,632.007019 
	C342.674133,636.678284 343.925262,641.352905 348.668182,644.342896 
	C353.014618,647.083252 357.391876,649.774658 361.094574,652.076660 
	C356.253784,662.404053 351.424072,672.494812 346.813721,682.684814 
	C345.573944,685.424988 344.580566,688.361450 348.113739,690.715637 
	C363.529633,700.987427 378.847351,711.406372 394.235229,721.720398 
	C397.066254,723.617920 399.919617,723.708191 401.988464,720.564575 
	C404.843262,716.226807 407.724915,711.884277 410.221649,707.338684 
	C413.662598,701.073792 416.754883,694.617432 420.122040,687.996277 
	C422.453033,689.403564 424.419220,690.760010 426.529358,691.833496 
	C433.668671,695.465576 434.718384,695.443481 438.759705,688.638855 
	C446.723297,675.229980 454.514648,661.706055 461.915405,647.980652 
	C466.112640,640.196411 469.394379,631.918579 473.683533,624.246033 
	C484.146301,629.514160 494.626526,634.748108 505.058105,640.077332 
	C507.328705,641.237244 508.613708,641.256165 510.241211,638.743469 
	C516.604004,628.919800 523.388672,619.369507 529.770264,609.557495 
	C530.406494,608.579285 529.936890,605.760986 529.020142,605.068787 
	C520.812195,598.871582 512.388733,592.959778 504.233643,586.282166 
	C515.825256,564.169800 527.416809,542.057495 538.989258,519.981628 
	C544.857788,521.066589 550.100586,522.019104 555.336731,523.006775 
	C578.864685,527.445068 600.550537,536.402771 620.752014,549.223938 
	C639.386536,561.050659 655.032043,576.025757 668.680969,593.247498 
	C682.308350,610.441956 690.063599,630.181213 694.243530,651.546448 
	C694.243530,651.546448 694.241760,651.562866 694.591431,652.064209 
	C694.766602,652.168274 694.941772,652.272278 695.063477,653.192627 
	C696.098267,661.128540 697.133057,669.064453 697.998596,677.924133 
	C698.051575,687.948853 698.104492,697.973511 698.017761,708.854858 
	C697.336304,713.188721 696.566284,717.510864 695.989136,721.858582 
	C693.751404,738.714050 688.370850,754.652710 681.364380,770.010315 
	C673.775391,786.644958 664.366150,802.286438 651.677673,815.557800 
	C641.694702,825.999451 631.550659,836.452209 620.364014,845.526489 
	C611.085022,853.053345 600.267212,858.720032 589.960510,864.927551 
	C584.844177,868.009033 579.344482,870.453918 573.409668,872.816345 
	C572.341431,872.090332 571.291992,871.334839 570.202209,870.642761 
	C555.268921,861.158325 539.978760,853.223816 521.255615,856.907959 
	C511.136566,858.898926 502.428680,863.412048 495.257477,870.568359 
	C489.480743,876.333130 484.372009,882.767334 478.135345,889.019226 
	C469.162170,892.200134 461.759979,888.292786 454.959106,883.295532 
	C449.735809,879.457397 446.516296,874.231079 448.495972,867.091919 
	C450.526337,867.808960 452.336060,868.491516 454.173370,869.089355 
	C461.969147,871.626221 465.877045,870.371765 469.816437,863.431580 
	C473.821442,856.375793 477.444550,849.103271 481.594025,841.245605 
	C478.979553,839.983765 476.706543,838.929443 474.470795,837.801331 
	C437.652618,819.222717 400.498993,801.277039 365.124084,779.970520 
	C337.998016,763.632202 310.784210,747.436462 283.797577,730.870789 
	C265.137756,719.416565 246.706543,707.581482 228.354935,695.637329 
	C219.285538,689.734436 209.762299,685.831604 198.809494,685.967590 
	C190.423523,686.071716 181.957489,691.878418 180.317322,699.289856 
	C179.577652,702.632202 179.429993,706.380371 180.159042,709.692322 
	C180.827408,712.728638 182.357269,716.313538 184.696198,718.103088 
	C191.250137,723.117249 198.302628,727.518616 205.366577,731.819946 
	C224.436432,743.431702 243.502823,755.056946 262.781830,766.315186 
	C280.892670,776.891296 299.191986,787.152588 317.554901,797.286987 
	C343.575775,811.647583 369.733521,825.760071 395.825500,839.992004 
	C398.891327,841.664307 401.911163,843.421021 404.680176,844.984863 
	C396.945679,858.570496 389.480286,871.683350 381.475952,885.005493 
	C381.281464,885.321777 381.086975,885.638000 380.974518,885.984741 
	C380.974518,885.984741 380.921997,885.914612 380.231689,886.190186 
	C378.833893,886.422974 377.436066,886.655823 376.018799,886.963989 
	C376.018799,886.963989 376.088348,886.929016 375.833221,886.280334 
	C374.572937,885.817688 373.312683,885.355103 372.006104,884.982361 
	C372.006104,884.982361 372.080017,884.913391 371.864441,884.308899 
	C371.250427,884.166809 370.636444,884.024780 370.020660,883.955750 
	C370.020660,883.955750 370.088287,883.928101 369.871216,883.317566 
M431.430054,772.979309 
	C412.440735,762.888428 393.416779,752.861938 374.478546,742.676086 
	C366.557617,738.415771 358.799530,733.850342 351.000702,729.365784 
	C331.264954,718.017273 311.738708,706.286926 291.765869,695.373352 
	C274.411346,685.890381 256.535919,677.363403 238.946854,668.305054 
	C234.882828,666.212036 231.411179,666.590759 228.478973,669.995361 
	C226.486557,672.308716 225.136566,675.233765 222.952347,677.309875 
	C219.658325,680.440857 220.867706,682.272095 224.067139,684.079102 
	C234.408554,689.919800 244.674683,695.897400 255.089478,701.603882 
	C278.017944,714.167053 300.986572,726.657898 324.002930,739.059265 
	C339.820404,747.581787 355.732727,755.928894 371.625885,764.310303 
	C392.077118,775.095398 412.518707,785.899658 433.031921,796.565918 
	C441.391876,800.912842 450.033997,804.723206 458.336182,809.172485 
	C461.878204,811.070618 463.783447,809.249146 465.457550,807.041016 
	C467.947968,803.756104 469.992828,800.133362 472.639587,796.012512 
	C458.919556,788.384521 445.480957,780.912903 431.430054,772.979309 
z"/>
<path fill="#E03D86" opacity="1.000000" stroke="none" 
	d="
M574.018188,873.186829 
	C579.344482,870.453918 584.844177,868.009033 589.960510,864.927551 
	C600.267212,858.720032 611.085022,853.053345 620.364014,845.526489 
	C631.550659,836.452209 641.694702,825.999451 651.677673,815.557800 
	C664.366150,802.286438 673.775391,786.644958 681.364380,770.010315 
	C688.370850,754.652710 693.751404,738.714050 695.989136,721.858582 
	C696.566284,717.510864 697.336304,713.188721 698.410339,708.187256 
	C698.814148,697.346741 698.825378,687.173828 698.884033,676.563599 
	C697.659973,668.209656 696.388489,660.293030 695.116943,652.376343 
	C694.941772,652.272278 694.766602,652.168274 694.443848,651.820557 
	C694.296326,651.576904 694.249695,651.502991 694.249695,651.502991 
	C690.063599,630.181213 682.308350,610.441956 668.680969,593.247498 
	C655.032043,576.025757 639.386536,561.050659 620.752014,549.223938 
	C600.550537,536.402771 578.864685,527.445068 555.336731,523.006775 
	C550.100586,522.019104 544.857788,521.066589 538.989258,519.981628 
	C527.416809,542.057495 515.825256,564.169800 503.897217,586.739258 
	C491.884216,580.529175 480.295868,573.701355 468.512482,567.228699 
	C445.327484,554.493164 422.001678,542.013916 398.820282,529.271973 
	C395.293610,527.333496 392.228638,524.555115 388.950134,522.165161 
	C395.962280,509.748260 403.045410,497.370819 409.970245,484.905426 
	C421.019989,465.014923 431.999390,445.085052 442.940002,425.134277 
	C449.349304,413.446503 455.525116,401.630157 461.986115,389.971497 
	C471.121033,373.487823 480.449860,357.111755 489.643677,340.660553 
	C496.458405,328.466400 503.103577,316.176880 509.980469,304.018188 
	C519.094238,287.904572 528.401184,271.900269 537.547729,255.805008 
	C544.765381,243.104172 551.781128,230.288269 559.042969,217.613129 
	C566.064941,205.356613 573.234497,193.183655 580.436157,181.031418 
	C587.215576,169.591812 594.121338,158.227066 601.314087,146.259430 
	C596.534485,143.302017 591.718506,140.513412 587.112183,137.413239 
	C583.202881,134.782135 583.036621,130.530716 585.764343,126.961632 
	C590.406555,120.887596 594.694458,114.543388 599.154724,108.329597 
	C601.813843,104.625092 604.331787,100.795700 607.267212,97.321518 
	C609.208313,95.024109 611.664001,94.577347 614.669617,96.394981 
	C627.697571,104.273392 640.936035,111.805519 653.910034,119.769608 
	C656.120850,121.126724 657.026489,120.708504 658.635620,119.389618 
	C660.552795,121.538628 661.773193,124.050011 663.778137,125.244804 
	C676.730286,132.962967 689.785156,140.516235 702.945862,147.874084 
	C711.172363,152.473343 719.642822,156.636078 728.003845,160.994690 
	C734.859863,165.000534 741.638489,169.147186 748.594238,172.971619 
	C755.221802,176.615585 762.034119,179.923386 769.229614,183.617386 
	C762.431396,198.324692 755.769592,212.736954 749.113098,227.137695 
	C739.357239,222.540680 730.368286,218.584518 721.672180,214.064819 
	C718.363464,212.345169 716.960449,213.708527 715.559082,216.027267 
	C708.605530,227.532837 701.721680,239.080490 694.802490,250.606857 
	C681.708008,272.420441 668.590881,294.220490 655.520142,316.048309 
	C652.944153,320.350159 650.565430,324.769714 648.035828,329.099915 
	C646.759155,331.285370 647.008667,332.389191 649.283020,334.221191 
	C662.278870,344.689392 675.155640,355.322632 687.722656,366.300751 
	C697.951477,375.236298 708.128540,384.311523 717.533325,394.089691 
	C729.485474,406.516327 740.619568,419.728790 752.134094,432.577576 
	C767.747192,449.999786 781.191895,469.052277 794.152222,488.463928 
	C809.909363,512.064636 823.864563,536.666687 834.466736,563.038208 
	C839.966064,576.717163 845.792542,590.361084 849.877197,604.481934 
	C853.163818,615.844177 855.102966,627.842834 855.740967,639.661621 
	C856.525818,654.200256 856.397461,668.969360 854.706604,683.409607 
	C853.011719,697.884094 850.006042,712.426453 845.584961,726.305237 
	C839.842957,744.330505 832.958008,762.107910 825.053223,779.296814 
	C816.283203,798.367310 804.802734,816.055054 791.228149,832.147766 
	C781.445557,843.745056 771.595581,855.436951 760.560669,865.791992 
	C742.926392,882.339844 723.477112,896.673218 702.533508,908.962646 
	C684.110413,919.773132 664.603149,928.107117 644.759033,935.780762 
	C644.007996,936.071167 643.169189,936.134460 641.952759,936.599976 
	C630.191833,925.621216 619.064941,914.117981 607.444397,903.137207 
	C596.574463,892.865784 585.181152,883.148132 574.018188,873.186829 
M529.439941,365.948334 
	C519.773987,375.749817 512.713318,387.187317 509.433136,400.548248 
	C505.144012,418.019135 504.338196,435.752258 508.143646,453.447144 
	C511.697357,469.971466 520.033936,483.817993 533.402527,494.189087 
	C554.411011,510.487030 578.126526,516.008179 604.339966,511.086182 
	C626.117371,506.997131 646.066833,498.522888 661.958130,483.188629 
	C684.626465,461.314819 691.188171,433.534241 686.455505,403.026550 
	C682.623474,378.324280 669.076172,359.858551 647.702026,347.130951 
	C628.246765,335.546021 607.215332,331.350098 584.871582,334.989746 
	C563.003418,338.551971 545.346375,350.051514 529.439941,365.948334 
z"/>
<path fill="#B31164" opacity="1.000000" stroke="none" 
	d="
M573.713928,873.001587 
	C585.181152,883.148132 596.574463,892.865784 607.444397,903.137207 
	C619.064941,914.117981 630.191833,925.621216 641.881348,936.967163 
	C649.284668,944.670532 656.480347,952.180115 663.359253,959.969482 
	C670.767822,968.358459 678.007263,976.905457 685.076721,985.582153 
	C689.942078,991.553772 694.224792,998.002502 699.138550,1003.930847 
	C700.463745,1005.529602 703.108704,1006.789368 705.202087,1006.874817 
	C719.300049,1007.450073 733.419373,1007.494751 747.518738,1008.045532 
	C763.624817,1008.674805 779.034485,1012.771484 790.965332,1023.752258 
	C801.039734,1033.024536 808.996704,1044.441650 809.115295,1059.999268 
	C803.610168,1059.999268 798.657532,1060.106201 793.710938,1059.979614 
	C777.135620,1059.555786 760.562988,1059.024048 743.988037,1058.583008 
	C735.208984,1058.349365 726.424377,1058.306152 717.647827,1058.010742 
	C711.714844,1057.810913 705.791565,1057.321533 699.129578,1056.580566 
	C680.606934,1056.186401 662.818604,1056.173340 645.030334,1056.160278 
	C635.672546,1056.767700 626.320435,1057.489868 616.955627,1057.956787 
	C601.532959,1058.725708 586.104248,1059.390015 570.673340,1059.970581 
	C565.274109,1060.173706 559.859497,1059.926880 554.453918,1060.011108 
	C534.618286,1060.320312 514.783447,1060.682129 494.016113,1061.001709 
	C481.067230,1061.040283 469.050537,1061.101318 457.033844,1061.162354 
	C449.672119,1061.430054 442.310364,1061.697998 434.202972,1061.588867 
	C417.182037,1061.134399 400.906769,1061.048340 384.631378,1061.016724 
	C384.076050,1061.015625 383.519653,1061.560425 382.963745,1061.850952 
	C361.997314,1061.572144 341.030457,1061.319702 320.065094,1060.973877 
	C317.961914,1060.939087 315.876526,1060.123901 313.768280,1060.040649 
	C308.097748,1059.816528 307.271362,1058.690796 308.046295,1053.122925 
	C311.333466,1029.505371 331.801636,1013.968262 353.298126,1011.044922 
	C359.553894,1010.194214 365.942230,1010.314453 372.270416,1010.001343 
	C379.518860,1009.642700 386.767975,1009.297058 394.938538,1009.017090 
	C401.447815,1009.036987 407.040466,1009.096619 412.618774,1008.842407 
	C413.770111,1008.789856 414.868134,1007.567993 415.990753,1006.885071 
	C415.990753,1006.885071 415.991364,1006.997253 416.277222,1007.032593 
	C416.780701,1006.429565 416.998322,1005.791199 417.215942,1005.152893 
	C418.826416,1001.685364 420.307465,998.150513 422.071472,994.762939 
	C427.433807,984.465149 432.885284,974.213440 438.353119,963.971069 
	C439.335388,962.131042 440.560638,960.420654 442.070496,958.140259 
	C453.351288,937.527710 464.255890,917.436401 475.094849,897.309692 
	C476.554688,894.599060 477.684326,891.710571 478.966888,888.904480 
	C484.372009,882.767334 489.480743,876.333130 495.257477,870.568359 
	C502.428680,863.412048 511.136566,858.898926 521.255615,856.907959 
	C539.978760,853.223816 555.268921,861.158325 570.202209,870.642761 
	C571.291992,871.334839 572.341431,872.090332 573.713928,873.001587 
M477.937469,918.484375 
	C477.582733,935.429626 485.301514,948.075500 498.848114,957.561707 
	C511.513763,966.430969 525.747131,967.621643 540.408569,965.254883 
	C550.349426,963.650146 560.300476,960.747070 567.119568,952.930115 
	C578.512085,939.870667 583.236389,924.433594 579.960999,907.089355 
	C575.947266,885.835144 559.046570,862.988831 530.342773,864.609070 
	C501.800079,866.220276 477.007233,887.987793 477.937469,918.484375 
M649.536865,1004.962036 
	C641.895447,1005.128174 634.248230,1005.557312 626.614075,1005.390076 
	C618.133301,1005.204224 609.667725,1004.129089 601.189819,1004.049133 
	C579.552002,1003.845032 557.909485,1003.811462 536.271729,1004.018677 
	C506.297943,1004.305786 476.325226,1004.795105 446.355743,1005.384521 
	C439.361542,1005.522095 432.297852,1006.081848 425.492065,1010.356750 
	C511.486877,1009.773254 596.676941,1009.195190 681.866943,1008.617188 
	C680.114502,1007.500183 678.275146,1006.651672 676.383362,1006.511841 
	C667.772400,1005.875977 659.146667,1005.439331 649.536865,1004.962036 
z"/>
<path fill="#E34189" opacity="1.000000" stroke="none" 
	d="
M478.551117,888.961853 
	C477.684326,891.710571 476.554688,894.599060 475.094849,897.309692 
	C464.255890,917.436401 453.351288,937.527710 442.203766,957.869446 
	C425.236969,952.868347 407.954926,948.965271 391.976532,942.049988 
	C371.878204,933.351685 352.611542,922.613647 333.409576,911.990173 
	C305.222351,896.395569 277.232788,880.423218 249.499908,864.035034 
	C230.426559,852.763977 211.995300,840.410828 193.122742,828.792053 
	C189.372284,826.483093 188.968781,823.808838 190.818497,820.666565 
	C195.507111,812.701294 200.102264,804.619507 205.570618,797.200439 
	C208.361862,793.413391 213.437622,794.064270 217.357895,796.164978 
	C229.634445,802.743286 241.848648,809.453064 253.892258,816.447327 
	C269.701355,825.628418 285.312317,835.150208 301.031677,844.486511 
	C318.997833,855.157288 336.983856,865.794800 354.975311,876.422974 
	C358.189514,878.321716 361.472473,880.104126 365.282043,882.296997 
	C366.587524,882.744690 367.334656,882.835693 368.081787,882.926636 
	C368.081787,882.926636 368.015930,882.957153 368.035950,883.306152 
	C368.733398,883.746094 369.410858,883.837097 370.088287,883.928101 
	C370.088287,883.928101 370.020660,883.955750 370.020874,884.325195 
	C370.707367,884.767517 371.393707,884.840454 372.080017,884.913391 
	C372.080017,884.913391 372.006104,884.982361 371.913635,885.320496 
	C373.243561,886.082092 374.665955,886.505554 376.088348,886.929016 
	C376.088348,886.929016 376.018799,886.963989 375.966095,887.292603 
	C379.600769,889.344116 380.044617,889.192932 380.921997,885.914612 
	C380.921997,885.914612 380.974518,885.984741 381.290588,886.054321 
	C381.742737,885.681396 381.878815,885.238831 382.014893,884.796265 
	C389.480286,871.683350 396.945679,858.570496 404.680176,844.984863 
	C401.911163,843.421021 398.891327,841.664307 395.825500,839.992004 
	C369.733521,825.760071 343.575775,811.647583 317.554901,797.286987 
	C299.191986,787.152588 280.892670,776.891296 262.781830,766.315186 
	C243.502823,755.056946 224.436432,743.431702 205.366577,731.819946 
	C198.302628,727.518616 191.250137,723.117249 184.696198,718.103088 
	C182.357269,716.313538 180.827408,712.728638 180.159042,709.692322 
	C179.429993,706.380371 179.577652,702.632202 180.317322,699.289856 
	C181.957489,691.878418 190.423523,686.071716 198.809494,685.967590 
	C209.762299,685.831604 219.285538,689.734436 228.354935,695.637329 
	C246.706543,707.581482 265.137756,719.416565 283.797577,730.870789 
	C310.784210,747.436462 337.998016,763.632202 365.124084,779.970520 
	C400.498993,801.277039 437.652618,819.222717 474.470795,837.801331 
	C476.706543,838.929443 478.979553,839.983765 481.594025,841.245605 
	C477.444550,849.103271 473.821442,856.375793 469.816437,863.431580 
	C465.877045,870.371765 461.969147,871.626221 454.173370,869.089355 
	C452.336060,868.491516 450.526337,867.808960 448.495972,867.091919 
	C446.516296,874.231079 449.735809,879.457397 454.959106,883.295532 
	C461.759979,888.292786 469.162170,892.200134 478.551117,888.961853 
M427.688477,857.813293 
	C433.469269,861.314209 439.250092,864.815125 446.177338,869.010254 
	C444.054016,862.221619 415.658936,844.768372 408.805481,846.180054 
	C414.897064,849.924927 420.988647,853.669800 427.688477,857.813293 
z"/>
<path fill="#E34188" opacity="1.000000" stroke="none" 
	d="
M473.088440,623.863037 
	C469.394379,631.918579 466.112640,640.196411 461.915405,647.980652 
	C454.514648,661.706055 446.723297,675.229980 438.759705,688.638855 
	C434.718384,695.443481 433.668671,695.465576 426.529358,691.833496 
	C424.419220,690.760010 422.453033,689.403564 420.122040,687.996277 
	C416.754883,694.617432 413.662598,701.073792 410.221649,707.338684 
	C407.724915,711.884277 404.843262,716.226807 401.988464,720.564575 
	C399.919617,723.708191 397.066254,723.617920 394.235229,721.720398 
	C378.847351,711.406372 363.529633,700.987427 348.113739,690.715637 
	C344.580566,688.361450 345.573944,685.424988 346.813721,682.684814 
	C351.424072,672.494812 356.253784,662.404053 361.094574,652.076660 
	C357.391876,649.774658 353.014618,647.083252 348.668182,644.342896 
	C343.925262,641.352905 342.674133,636.678284 344.657837,632.007019 
	C347.535553,625.230591 351.287109,618.804749 354.924377,612.375610 
	C362.438721,599.093445 370.123779,585.907776 378.147217,572.361084 
	C379.480438,572.401245 380.456879,572.667542 381.322327,573.137939 
	C409.216736,588.301025 437.109924,603.466431 464.971222,618.690063 
	C467.780457,620.224976 470.387543,622.129822 473.088440,623.863037 
M386.364685,667.136292 
	C395.282379,672.655579 404.200104,678.174805 413.117798,683.694092 
	C413.354950,683.305847 413.592072,682.917664 413.829224,682.529419 
	C400.172791,671.872620 385.473450,662.872681 370.214905,654.761108 
	C369.891571,655.260681 369.568237,655.760193 369.244934,656.259766 
	C374.738251,659.769836 380.231567,663.279846 386.364685,667.136292 
M365.531189,653.435730 
	C365.531189,653.435730 365.583771,653.522339 365.531189,653.435730 
M367.529877,654.404236 
	C367.529877,654.404236 367.608307,654.519043 367.529877,654.404236 
M415.457825,684.577698 
	C415.457825,684.577698 415.404877,684.491150 415.457825,684.577698 
z"/>
<path fill="#B31165" opacity="1.000000" stroke="none" 
	d="
M473.385986,624.054565 
	C470.387543,622.129822 467.780457,620.224976 464.971222,618.690063 
	C437.109924,603.466431 409.216736,588.301025 381.322327,573.137939 
	C380.456879,572.667542 379.480438,572.401245 378.179688,572.007812 
	C368.264801,566.346558 358.784088,560.615051 349.155396,555.143982 
	C345.831848,553.255554 345.187134,550.884888 346.685394,547.732117 
	C349.017242,542.825317 351.457733,537.968140 353.944031,533.137207 
	C356.895142,527.403259 359.678101,521.557678 363.027954,516.061584 
	C366.096344,511.027313 367.425354,508.832184 373.699219,512.870178 
	C378.514374,515.969360 383.403137,518.954163 388.604675,522.077515 
	C392.228638,524.555115 395.293610,527.333496 398.820282,529.271973 
	C422.001678,542.013916 445.327484,554.493164 468.512482,567.228699 
	C480.295868,573.701355 491.884216,580.529175 503.794739,587.080200 
	C512.388733,592.959778 520.812195,598.871582 529.020142,605.068787 
	C529.936890,605.760986 530.406494,608.579285 529.770264,609.557495 
	C523.388672,619.369507 516.604004,628.919800 510.241211,638.743469 
	C508.613708,641.256165 507.328705,641.237244 505.058105,640.077332 
	C494.626526,634.748108 484.146301,629.514160 473.385986,624.054565 
z"/>
<path fill="#E34189" opacity="1.000000" stroke="none" 
	d="
M728.112549,160.651657 
	C719.642822,156.636078 711.172363,152.473343 702.945862,147.874084 
	C689.785156,140.516235 676.730286,132.962967 663.778137,125.244804 
	C661.773193,124.050011 660.552795,121.538628 658.954590,119.251671 
	C666.267883,107.418297 673.649170,96.002846 680.908813,84.510574 
	C687.575806,73.956551 694.111694,63.319725 701.007202,52.212322 
	C719.108521,61.850174 736.925903,71.963692 754.689209,82.171288 
	C757.600159,83.844017 760.273193,85.930817 763.056152,87.826248 
	C761.608459,90.127800 759.906067,92.309303 758.755127,94.750771 
	C752.333008,108.375099 746.053467,122.066582 739.706543,135.726486 
	C735.895569,143.928635 732.050903,152.115112 728.112549,160.651657 
z"/>
<path fill="#F8A5C5" opacity="1.000000" stroke="none" 
	d="
M431.736206,773.210327 
	C445.480957,780.912903 458.919556,788.384521 472.639587,796.012512 
	C469.992828,800.133362 467.947968,803.756104 465.457550,807.041016 
	C463.783447,809.249146 461.878204,811.070618 458.336182,809.172485 
	C450.033997,804.723206 441.391876,800.912842 433.031921,796.565918 
	C412.518707,785.899658 392.077118,775.095398 371.625885,764.310303 
	C355.732727,755.928894 339.820404,747.581787 324.002930,739.059265 
	C300.986572,726.657898 278.017944,714.167053 255.089478,701.603882 
	C244.674683,695.897400 234.408554,689.919800 224.067139,684.079102 
	C220.867706,682.272095 219.658325,680.440857 222.952347,677.309875 
	C225.136566,675.233765 226.486557,672.308716 228.478973,669.995361 
	C231.411179,666.590759 234.882828,666.212036 238.946854,668.305054 
	C256.535919,677.363403 274.411346,685.890381 291.765869,695.373352 
	C311.738708,706.286926 331.264954,718.017273 351.000702,729.365784 
	C358.799530,733.850342 366.557617,738.415771 374.478546,742.676086 
	C393.416779,752.861938 412.440735,762.888428 431.736206,773.210327 
z"/>
<path fill="#B41265" opacity="1.000000" stroke="none" 
	d="
M763.359863,88.014343 
	C760.273193,85.930817 757.600159,83.844017 754.689209,82.171288 
	C736.925903,71.963692 719.108521,61.850174 701.076416,51.870579 
	C695.543762,49.660500 690.243774,47.285114 684.193542,44.573460 
	C689.763306,36.153065 695.032471,28.221611 700.259399,20.262444 
	C701.718018,18.041391 703.405029,17.767651 705.612000,19.172245 
	C720.296875,28.518333 735.114319,37.661602 749.664551,47.212139 
	C760.338379,54.218254 770.588379,61.868198 781.213318,68.952141 
	C783.875488,70.727104 783.725586,72.670036 782.667236,74.688644 
	C780.094482,79.595863 777.249207,84.365067 774.388550,89.114479 
	C772.819214,91.719933 770.982178,93.577194 767.902527,90.579971 
	C766.780762,89.488235 765.093018,88.977989 763.359863,88.014343 
z"/>
<path fill="#FCE9F0" opacity="1.000000" stroke="none" 
	d="
M645.255737,1056.523682 
	C662.818604,1056.173340 680.606934,1056.186401 698.662354,1056.516357 
	C681.113342,1056.851074 663.297302,1056.869019 645.255737,1056.523682 
z"/>
<path fill="#FCE9F0" opacity="1.000000" stroke="none" 
	d="
M698.836670,677.000854 
	C698.825378,687.173828 698.814148,697.346741 698.480164,707.758972 
	C698.104492,697.973511 698.051575,687.948853 698.250366,677.462158 
	C698.502197,677.000183 698.836670,677.000854 698.836670,677.000854 
z"/>
<path fill="#DB8EB6" opacity="1.000000" stroke="none" 
	d="
M383.431519,1061.933228 
	C383.519653,1061.560425 384.076050,1061.015625 384.631378,1061.016724 
	C400.906769,1061.048340 417.182037,1061.134399 433.738892,1061.530762 
	C417.313446,1061.905029 400.606354,1061.960327 383.431519,1061.933228 
z"/>
<path fill="#FCE9F0" opacity="1.000000" stroke="none" 
	d="
M457.260376,1061.524414 
	C469.050537,1061.101318 481.067230,1061.040283 493.550446,1061.046631 
	C493.024872,1061.417725 492.033173,1061.983765 491.040619,1061.985352 
	C479.856140,1062.002563 468.671509,1061.932861 457.260376,1061.524414 
z"/>
<path fill="#FCE9F0" opacity="1.000000" stroke="none" 
	d="
M698.884033,676.563599 
	C698.836670,677.000854 698.502197,677.000183 698.335022,677.000244 
	C697.133057,669.064453 696.098267,661.128540 695.090210,652.784485 
	C696.388489,660.293030 697.659973,668.209656 698.884033,676.563599 
z"/>
<path fill="#FCE9F0" opacity="1.000000" stroke="none" 
	d="
M415.558350,1006.926758 
	C414.868134,1007.567993 413.770111,1008.789856 412.618774,1008.842407 
	C407.040466,1009.096619 401.447815,1009.036987 395.391418,1009.016602 
	C398.506531,1008.628906 402.092926,1008.338196 405.673676,1007.989746 
	C408.827698,1007.682861 411.975403,1007.311340 415.558350,1006.926758 
z"/>
<path fill="#FCE9F0" opacity="1.000000" stroke="none" 
	d="
M380.576843,886.052368 
	C380.044617,889.192932 379.600769,889.344116 375.975830,887.254883 
	C377.436066,886.655823 378.833893,886.422974 380.576843,886.052368 
z"/>
<path fill="#FCE9F0" opacity="1.000000" stroke="none" 
	d="
M375.960785,886.604675 
	C374.665955,886.505554 373.243561,886.082092 371.936768,885.275513 
	C373.312683,885.355103 374.572937,885.817688 375.960785,886.604675 
z"/>
<path fill="#FCE9F0" opacity="1.000000" stroke="none" 
	d="
M367.978394,882.624512 
	C367.334656,882.835693 366.587524,882.744690 365.644379,882.419800 
	C366.257263,882.231384 367.066132,882.276855 367.978394,882.624512 
z"/>
<path fill="#FCE9F0" opacity="1.000000" stroke="none" 
	d="
M371.972229,884.611145 
	C371.393707,884.840454 370.707367,884.767517 370.021729,884.288635 
	C370.636444,884.024780 371.250427,884.166809 371.972229,884.611145 
z"/>
<path fill="#FCE9F0" opacity="1.000000" stroke="none" 
	d="
M416.859436,1005.093994 
	C416.998322,1005.791199 416.780701,1006.429565 416.221130,1007.032471 
	C416.087067,1006.343079 416.294983,1005.689087 416.859436,1005.093994 
z"/>
<path fill="#FCE9F0" opacity="1.000000" stroke="none" 
	d="
M369.979736,883.622803 
	C369.410858,883.837097 368.733398,883.746094 368.035217,883.269836 
	C368.633362,883.028870 369.252289,883.173218 369.979736,883.622803 
z"/>
<path fill="#FCE9F0" opacity="1.000000" stroke="none" 
	d="
M381.745422,884.900879 
	C381.878815,885.238831 381.742737,885.681396 381.249542,886.039062 
	C381.086975,885.638000 381.281464,885.321777 381.745422,884.900879 
z"/>
<path fill="#FCE9F0" opacity="1.000000" stroke="none" 
	d="
M694.246582,651.524719 
	C694.249695,651.502991 694.296326,651.576904 694.269043,651.569885 
	C694.241760,651.562866 694.243530,651.546448 694.246582,651.524719 
z"/>
<path fill="#B31164" opacity="1.000000" stroke="none" 
	d="
M529.689514,365.695740 
	C545.346375,350.051514 563.003418,338.551971 584.871582,334.989746 
	C607.215332,331.350098 628.246765,335.546021 647.702026,347.130951 
	C669.076172,359.858551 682.623474,378.324280 686.455505,403.026550 
	C691.188171,433.534241 684.626465,461.314819 661.958130,483.188629 
	C646.066833,498.522888 626.117371,506.997131 604.339966,511.086182 
	C578.126526,516.008179 554.411011,510.487030 533.402527,494.189087 
	C520.033936,483.817993 511.697357,469.971466 508.143646,453.447144 
	C504.338196,435.752258 505.144012,418.019135 509.433136,400.548248 
	C512.713318,387.187317 519.773987,375.749817 529.689514,365.695740 
M623.139832,380.316956 
	C601.098022,364.461578 572.231323,371.340179 559.945190,395.517090 
	C553.662231,407.880951 551.810730,421.130310 553.399902,434.814850 
	C554.449585,443.853455 557.065735,452.458313 563.083435,459.554138 
	C574.351318,472.841034 588.909424,474.616760 604.868347,471.083588 
	C625.140503,466.595520 638.744934,453.743073 641.505737,435.704590 
	C642.402588,429.844849 642.394958,423.701874 641.804504,417.787964 
	C640.358887,403.310211 635.538696,390.265991 623.139832,380.316956 
z"/>
<path fill="#E34088" opacity="1.000000" stroke="none" 
	d="
M477.939087,918.000732 
	C477.007233,887.987793 501.800079,866.220276 530.342773,864.609070 
	C559.046570,862.988831 575.947266,885.835144 579.960999,907.089355 
	C583.236389,924.433594 578.512085,939.870667 567.119568,952.930115 
	C560.300476,960.747070 550.349426,963.650146 540.408569,965.254883 
	C525.747131,967.621643 511.513763,966.430969 498.848114,957.561707 
	C485.301514,948.075500 477.582733,935.429626 477.939087,918.000732 
M511.432068,936.063293 
	C515.369446,938.028748 519.138428,941.164368 523.273010,941.759216 
	C542.244019,944.488770 559.291992,928.708923 553.715271,908.042969 
	C550.515320,896.184998 538.665100,887.813354 526.132202,889.163452 
	C513.352722,890.539978 503.973724,900.898010 503.811157,913.677795 
	C503.707886,921.796936 506.184113,929.023193 511.432068,936.063293 
z"/>
<path fill="#F498BD" opacity="1.000000" stroke="none" 
	d="
M650.031555,1004.946533 
	C659.146667,1005.439331 667.772400,1005.875977 676.383362,1006.511841 
	C678.275146,1006.651672 680.114502,1007.500183 681.866943,1008.617188 
	C596.676941,1009.195190 511.486877,1009.773254 425.492065,1010.356750 
	C432.297852,1006.081848 439.361542,1005.522095 446.355743,1005.384521 
	C476.325226,1004.795105 506.297943,1004.305786 536.271729,1004.018677 
	C557.909485,1003.811462 579.552002,1003.845032 601.189819,1004.049133 
	C609.667725,1004.129089 618.133301,1005.204224 626.614075,1005.390076 
	C634.248230,1005.557312 641.895447,1005.128174 650.031555,1004.946533 
z"/>
<path fill="#B41265" opacity="1.000000" stroke="none" 
	d="
M427.384338,857.614014 
	C420.988647,853.669800 414.897064,849.924927 408.805481,846.180054 
	C415.658936,844.768372 444.054016,862.221619 446.177338,869.010254 
	C439.250092,864.815125 433.469269,861.314209 427.384338,857.614014 
z"/>
<path fill="#B41265" opacity="1.000000" stroke="none" 
	d="
M386.044800,666.963074 
	C380.231567,663.279846 374.738251,659.769836 369.244934,656.259766 
	C369.568237,655.760193 369.891571,655.260681 370.214905,654.761108 
	C385.473450,662.872681 400.172791,671.872620 413.829224,682.529419 
	C413.592072,682.917664 413.354950,683.305847 413.117798,683.694092 
	C404.200104,678.174805 395.282379,672.655579 386.044800,666.963074 
z"/>
<path fill="#B41265" opacity="1.000000" stroke="none" 
	d="
M365.557495,653.479004 
	C365.583771,653.522339 365.531189,653.435730 365.557495,653.479004 
z"/>
<path fill="#B41265" opacity="1.000000" stroke="none" 
	d="
M367.569092,654.461670 
	C367.608307,654.519043 367.529877,654.404236 367.569092,654.461670 
z"/>
<path fill="#B41265" opacity="1.000000" stroke="none" 
	d="
M415.431335,684.534424 
	C415.404877,684.491150 415.457825,684.577698 415.431335,684.534424 
z"/>
<path fill="#FCE9F0" opacity="1.000000" stroke="none" 
	d="
M623.418396,380.543884 
	C635.538696,390.265991 640.358887,403.310211 641.804504,417.787964 
	C642.394958,423.701874 642.402588,429.844849 641.505737,435.704590 
	C638.744934,453.743073 625.140503,466.595520 604.868347,471.083588 
	C588.909424,474.616760 574.351318,472.841034 563.083435,459.554138 
	C557.065735,452.458313 554.449585,443.853455 553.399902,434.814850 
	C551.810730,421.130310 553.662231,407.880951 559.945190,395.517090 
	C572.231323,371.340179 601.098022,364.461578 623.418396,380.543884 
z"/>
<path fill="#FCE9F0" opacity="1.000000" stroke="none" 
	d="
M511.186218,935.797241 
	C506.184113,929.023193 503.707886,921.796936 503.811157,913.677795 
	C503.973724,900.898010 513.352722,890.539978 526.132202,889.163452 
	C538.665100,887.813354 550.515320,896.184998 553.715271,908.042969 
	C559.291992,928.708923 542.244019,944.488770 523.273010,941.759216 
	C519.138428,941.164368 515.369446,938.028748 511.186218,935.797241 
z"/>
</svg>