<svg version="1.1" id="Layer_1" xmlns="http://www.w3.org/2000/svg" xmlns:xlink="http://www.w3.org/1999/xlink" x="0px" y="0px"
	 width="100%" viewBox="0 0 1080 1080" enable-background="new 0 0 1080 1080" xml:space="preserve">
<path fill="#000000" opacity="1.000000" stroke="none" 
	d="
M1081.000000,380.000000 
	C1081.000000,613.972961 1081.000000,847.445984 1081.000000,1080.959473 
	C721.068604,1080.959473 361.137268,1080.959473 1.102942,1080.959473 
	C1.102942,721.110291 1.102942,361.220520 1.102942,1.165384 
	C360.999939,1.165384 720.999939,1.165384 1081.000000,1.165384 
	C1081.000000,127.196190 1081.000000,253.348099 1081.000000,380.000000 
M77.976402,691.652466 
	C78.295280,692.146667 78.614159,692.640808 78.959190,693.024719 
	C78.959190,693.024719 78.846642,693.011780 78.974724,693.654724 
	C79.294701,694.148010 79.614677,694.641357 79.962593,695.023804 
	C79.962593,695.023804 79.849350,695.008057 79.979897,695.651306 
	C80.298012,696.145264 80.616127,696.639160 80.968224,697.038025 
	C80.968224,697.038025 80.869499,697.016479 81.046059,697.562866 
	C81.359489,697.768860 81.672920,697.974854 81.950836,698.915100 
	C91.344406,715.191040 100.109955,731.873352 110.306946,747.629333 
	C120.650223,763.611450 131.807327,779.158203 143.695633,794.026001 
	C158.817261,812.937439 174.409439,831.556519 190.930695,849.244385 
	C212.754425,872.609192 236.027863,894.566833 261.478851,914.062500 
	C273.813812,923.511169 285.925446,933.286987 298.651031,942.180969 
	C314.112457,952.986938 329.922607,963.328796 345.953766,973.271973 
	C355.878021,979.427368 366.493805,984.467773 377.024139,990.541626 
	C377.343353,990.737061 377.662537,990.932434 377.958710,991.032593 
	C377.958710,991.032593 377.867493,991.068420 378.125275,991.668396 
	C378.746887,991.828491 379.368500,991.988586 379.974426,992.038574 
	C379.974426,992.038574 379.866821,992.067017 380.126465,992.666077 
	C380.747681,992.826965 381.368866,992.987854 381.974274,993.038452 
	C381.974274,993.038452 381.866577,993.067078 382.126038,993.666443 
	C382.747375,993.827820 383.368744,993.989197 383.974823,994.038879 
	C383.974823,994.038879 383.865662,994.066956 384.125549,994.666321 
	C384.747131,994.827454 385.368683,994.988586 385.974823,995.038574 
	C385.974823,995.038574 385.866180,995.066711 386.125580,995.666321 
	C386.747162,995.827576 387.368744,995.988831 387.975128,996.038513 
	C387.975128,996.038513 387.866089,996.066467 388.125702,996.666199 
	C388.747375,996.827820 389.369019,996.989502 389.975586,997.038513 
	C389.975586,997.038513 389.865417,997.066223 390.125763,997.665833 
	C390.747589,997.827881 391.369385,997.989868 391.976349,998.038330 
	C391.976349,998.038330 391.865112,998.065613 392.125671,998.665283 
	C392.747589,998.826904 393.369476,998.988525 393.976074,999.037781 
	C393.976074,999.037781 393.865997,999.065369 394.126068,999.665161 
	C394.748016,999.827271 395.369934,999.989441 395.976929,1000.037720 
	C395.976929,1000.037720 395.865417,1000.064819 396.125854,1000.664673 
	C396.747864,1000.827087 397.369873,1000.989502 397.976868,1001.037720 
	C397.976868,1001.037720 397.864990,1001.065063 398.125397,1001.664795 
	C398.747314,1001.826599 399.369202,1001.988403 399.975616,1002.038025 
	C399.975616,1002.038025 399.865814,1002.065857 400.125366,1002.665466 
	C400.746857,1002.826538 401.368378,1002.987610 401.972870,1003.041016 
	C401.972870,1003.041016 401.868256,1003.071655 402.141785,1003.685181 
	C402.788574,1003.749512 403.435364,1003.813904 404.707947,1004.244202 
	C429.756226,1016.973755 455.913208,1027.051147 482.828674,1034.834717 
	C503.499756,1040.812500 524.576050,1045.531006 545.666260,1049.864868 
	C558.534546,1052.509155 571.770691,1053.363525 585.279785,1055.797485 
	C591.475220,1056.202881 597.666382,1056.851440 603.867004,1056.960083 
	C614.790833,1057.151245 625.720703,1057.050293 636.647278,1056.968872 
	C638.144470,1056.957764 639.637329,1056.357300 642.045105,1056.022949 
	C651.798218,1055.025146 661.555176,1054.062744 671.303711,1053.022095 
	C689.157410,1051.116211 706.375610,1046.447266 723.494873,1041.220337 
	C744.225220,1034.890625 764.530701,1027.569824 783.466858,1016.880066 
	C798.238770,1008.541077 812.083679,999.149414 823.026917,985.743774 
	C835.798645,970.098389 841.702942,952.778137 840.166077,932.498901 
	C838.837280,914.965271 834.440796,898.318542 826.346558,882.979248 
	C817.170654,865.590515 806.847595,848.783325 796.513367,832.037964 
	C789.406189,820.521606 781.162292,809.710999 773.923218,798.270569 
	C767.485962,788.097168 761.837891,777.427917 755.644836,767.095398 
	C750.215454,758.036682 747.849060,747.926270 744.971802,737.044861 
	C744.647705,732.814514 743.888916,728.563171 744.092163,724.358276 
	C744.485352,716.220276 745.420349,708.108459 746.019592,700.021667 
	C746.019592,700.021667 746.062500,700.130371 746.757385,699.773193 
	C747.219116,697.511902 747.680847,695.250610 748.024170,693.015686 
	C748.024170,693.015686 748.058289,693.132141 748.721924,692.813721 
	C749.200012,691.214478 749.678101,689.615234 750.044067,688.022644 
	C750.044067,688.022644 750.064270,688.133240 750.663147,687.873291 
	C750.823120,687.252136 750.983032,686.631042 751.036804,686.028259 
	C751.036804,686.028259 751.067871,686.131531 751.665283,685.872375 
	C751.823975,685.252747 751.982727,684.633118 752.039978,684.032471 
	C752.039978,684.032471 752.072876,684.130310 752.668152,683.870422 
	C752.825378,683.251831 752.982605,682.633179 753.040283,682.033386 
	C753.040283,682.033386 753.073120,682.129272 753.669373,681.869080 
	C753.828125,681.249329 753.986816,680.629639 754.036682,680.026184 
	C754.036682,680.026184 754.065369,680.132446 754.664734,679.871338 
	C754.825806,679.249146 754.986877,678.627014 755.032898,678.021057 
	C755.032898,678.021057 755.059875,678.134033 755.657471,677.875366 
	C755.818604,677.257812 755.979675,676.640259 756.780029,675.748779 
	C763.359802,664.619202 772.608826,656.099548 783.617249,648.832092 
	C783.783752,648.549011 783.950317,648.265991 783.980469,648.012756 
	C783.980469,648.012756 784.007568,648.149780 784.646973,648.015076 
	C785.141418,647.698975 785.635864,647.382874 786.031616,647.049377 
	C786.031616,647.049377 786.030640,647.149536 786.688110,647.014832 
	C787.502075,646.363953 788.316101,645.713074 789.024170,645.035278 
	C789.024170,645.035278 789.008789,645.143494 789.648682,645.015381 
	C790.142334,644.699524 790.635986,644.383728 791.029602,644.036987 
	C791.029602,644.036987 791.011658,644.140198 791.650635,644.015381 
	C792.143250,643.700256 792.635864,643.385132 793.031738,643.038269 
	C793.031738,643.038269 793.013123,643.138428 793.651245,643.015259 
	C794.143127,642.701050 794.635010,642.386902 795.034241,642.039612 
	C795.034241,642.039612 795.014832,642.136169 795.652527,642.015076 
	C796.144043,641.701294 796.635498,641.387512 797.034729,641.039734 
	C797.034729,641.039734 797.014709,641.136047 797.653809,641.015076 
	C798.145508,640.699707 798.637207,640.384277 799.030518,640.036926 
	C799.030518,640.036926 799.011475,640.138611 799.652039,640.015259 
	C800.145203,639.698669 800.638367,639.382019 801.026917,639.034973 
	C801.026917,639.034973 801.008545,639.142395 801.650391,639.015015 
	C802.144592,638.696716 802.638794,638.378418 803.022278,638.032166 
	C803.022278,638.032166 803.005188,638.145020 803.648438,638.014099 
	C804.132690,637.690369 804.617004,637.366577 805.872009,636.996033 
	C810.572998,635.282410 815.273926,633.568848 820.751038,631.999451 
	C821.911133,631.666199 823.071289,631.332886 824.588501,631.037964 
	C824.588501,631.037964 824.909119,630.876221 825.701660,630.998413 
	C826.874634,630.666809 828.047607,630.335205 829.609131,630.033142 
	C829.609131,630.033142 829.959961,629.863586 830.867615,629.983582 
	C846.576782,629.606323 862.285889,629.229065 878.376221,629.026611 
	C878.376221,629.026611 878.795105,629.007568 879.251953,629.774902 
	C883.483826,629.874023 887.715637,629.973145 892.354919,630.842102 
	C901.025757,631.567871 909.708008,633.010925 918.364990,632.872437 
	C937.375427,632.568237 956.585999,635.232788 975.350281,630.844849 
	C985.901550,628.377502 996.564453,625.346497 1006.313843,620.741760 
	C1019.943054,614.304565 1030.390137,603.442749 1039.820923,591.762573 
	C1053.223145,575.163757 1059.845947,555.977539 1059.820312,534.855042 
	C1059.803955,521.422852 1059.102783,507.808411 1056.804810,494.607117 
	C1053.727417,476.928741 1049.440796,459.391235 1044.533813,442.116974 
	C1036.722778,414.619476 1025.300049,388.408630 1012.866821,362.750305 
	C1004.582458,345.654022 994.677063,329.334412 985.291199,312.783997 
	C979.570618,302.696716 973.656921,292.705933 967.456604,282.908142 
	C962.971619,275.820923 957.945679,269.069580 953.030273,262.262848 
	C946.035400,252.576462 939.165771,242.784500 931.797668,233.386505 
	C921.676697,220.477249 911.471619,207.604233 900.684875,195.255234 
	C890.371216,183.447708 879.329224,172.270813 868.455688,160.962494 
	C866.357422,158.780319 863.338318,157.505112 861.120300,155.412659 
	C851.786499,146.607147 842.959595,137.227615 833.253479,128.863159 
	C822.697937,119.766586 811.701111,111.096046 800.301636,103.086731 
	C786.303406,93.251564 771.929871,83.892342 757.262390,75.087105 
	C746.144409,68.412682 734.301636,62.948112 722.800598,56.908588 
	C702.714722,46.360867 681.391113,39.074577 659.558838,33.253624 
	C647.892029,30.142988 636.050232,27.683681 624.273193,24.992901 
	C618.146118,23.593019 611.988037,22.328823 605.700012,20.200363 
	C603.787170,20.179058 601.874268,20.157753 599.612000,19.967581 
	C599.612000,19.967581 599.225037,19.997234 598.769348,19.239981 
	C591.540955,18.884918 584.312561,18.529856 576.152039,17.991859 
	C567.776855,17.971050 559.401733,17.950241 550.590942,17.180618 
	C540.033020,17.110353 529.470764,16.839787 518.919189,17.065771 
	C514.534607,17.159676 510.172699,18.313595 505.386658,18.980433 
	C505.386658,18.980433 505.008148,19.147837 504.272614,19.021862 
	C503.532867,19.069887 502.793091,19.117912 501.196259,19.016441 
	C492.199493,20.335924 483.123199,21.261768 474.223083,23.059608 
	C457.447540,26.448303 440.603668,29.710108 424.095917,34.164948 
	C397.439148,41.358639 371.673279,51.300468 346.755005,63.137108 
	C316.837769,77.348343 288.511292,94.313805 261.486176,113.584442 
	C239.526627,129.242981 218.533997,146.054581 199.147079,164.672226 
	C182.696198,180.470337 167.207169,197.345749 152.160858,214.505844 
	C140.916031,227.330383 130.669388,241.089188 120.659592,254.924896 
	C101.648880,281.201874 85.350426,309.139954 72.016754,338.724487 
	C66.288727,351.433746 60.731983,364.270233 56.038864,377.385803 
	C45.251263,407.533203 36.932926,438.370789 34.100208,470.382477 
	C32.776566,485.340668 31.972965,500.413269 32.161999,515.418518 
	C32.369129,531.859863 33.420181,548.345581 35.192863,564.693787 
	C36.458984,576.370361 38.946804,588.003357 41.936493,599.380676 
	C45.321136,612.260986 49.296253,625.056824 54.074451,637.481750 
	C59.477516,651.531555 66.058235,665.128479 71.994453,679.585815 
	C72.305573,680.101196 72.616692,680.616577 72.956566,681.027039 
	C72.956566,681.027039 72.848778,681.012329 72.973984,681.655334 
	C73.293777,682.148315 73.613571,682.641235 73.959923,683.024719 
	C73.959923,683.024719 73.848068,683.011169 73.974899,683.654419 
	C74.294724,684.148315 74.614548,684.642212 74.960693,685.023315 
	C74.960693,685.023315 74.845634,685.009583 74.976410,685.652771 
	C75.295807,686.147400 75.615204,686.641968 75.960564,687.023010 
	C75.960564,687.023010 75.844772,687.009583 75.976334,687.652588 
	C76.295692,688.147217 76.615051,688.641846 76.960609,689.023132 
	C76.960609,689.023132 76.845062,689.009644 76.976372,689.652527 
	C77.295586,690.147095 77.614799,690.641724 77.960274,691.023499 
	C77.960274,691.023499 77.845253,691.010071 77.976402,691.652466 
z"/>
<path fill="#FAA6CC" opacity="1.000000" stroke="none" 
	d="
M599.225037,19.997234 
	C599.225037,19.997234 599.612000,19.967581 600.065063,20.309689 
	C602.293396,20.768974 604.068665,20.886156 605.843994,21.003338 
	C611.988037,22.328823 618.146118,23.593019 624.273193,24.992901 
	C636.050232,27.683681 647.892029,30.142988 659.558838,33.253624 
	C681.391113,39.074577 702.714722,46.360867 722.800598,56.908588 
	C734.301636,62.948112 746.144409,68.412682 757.262390,75.087105 
	C771.929871,83.892342 786.303406,93.251564 800.301636,103.086731 
	C811.701111,111.096046 822.697937,119.766586 833.253479,128.863159 
	C842.959595,137.227615 851.786499,146.607147 861.120300,155.412659 
	C863.338318,157.505112 866.357422,158.780319 868.455688,160.962494 
	C879.329224,172.270813 890.371216,183.447708 900.684875,195.255234 
	C911.471619,207.604233 921.676697,220.477249 931.797668,233.386505 
	C939.165771,242.784500 946.035400,252.576462 953.030273,262.262848 
	C957.945679,269.069580 962.971619,275.820923 967.456604,282.908142 
	C973.656921,292.705933 979.570618,302.696716 985.291199,312.783997 
	C994.677063,329.334412 1004.582458,345.654022 1012.866821,362.750305 
	C1025.300049,388.408630 1036.722778,414.619476 1044.533813,442.116974 
	C1049.440796,459.391235 1053.727417,476.928741 1056.804810,494.607117 
	C1059.102783,507.808411 1059.803955,521.422852 1059.820312,534.855042 
	C1059.845947,555.977539 1053.223145,575.163757 1039.820923,591.762573 
	C1030.390137,603.442749 1019.943054,614.304565 1006.313843,620.741760 
	C996.564453,625.346497 985.901550,628.377502 975.350281,630.844849 
	C956.585999,635.232788 937.375427,632.568237 918.364990,632.872437 
	C909.708008,633.010925 901.025757,631.567871 891.863770,630.168945 
	C887.180176,629.333008 882.987610,629.170288 878.795105,629.007568 
	C878.795105,629.007568 878.376221,629.026611 877.862427,628.679932 
	C871.558899,627.974792 865.745544,627.105652 859.984558,627.371155 
	C849.959351,627.833069 839.966431,628.995117 829.959961,629.863647 
	C829.959961,629.863586 829.609131,630.033142 829.030151,629.979248 
	C827.270447,630.242371 826.089783,630.559326 824.909119,630.876221 
	C824.909119,630.876221 824.588501,631.037964 824.028320,630.985779 
	C822.303711,631.240845 821.139343,631.548096 819.974915,631.855286 
	C815.273926,633.568848 810.572998,635.282410 805.155762,637.002686 
	C803.961426,637.387878 803.483337,637.766418 803.005188,638.145020 
	C803.005188,638.145020 803.022278,638.032166 802.741333,638.010864 
	C801.976379,638.373840 801.492493,638.758118 801.008545,639.142395 
	C801.008545,639.142395 801.026917,639.034973 800.742065,639.002319 
	C799.975281,639.359375 799.493408,639.749023 799.011475,640.138611 
	C799.011475,640.138611 799.030518,640.036926 798.742004,639.995239 
	C797.973877,640.347778 797.494263,640.741882 797.014709,641.135986 
	C797.014709,641.136047 797.034729,641.039734 796.743591,640.987183 
	C795.973267,641.335083 795.494080,641.735657 795.014893,642.136230 
	C795.014832,642.136169 795.034241,642.039612 794.743774,641.989136 
	C793.973267,642.338623 793.493164,642.738525 793.013123,643.138428 
	C793.013123,643.138428 793.031738,643.038269 792.743286,642.994507 
	C791.973816,643.347229 791.492737,643.743713 791.011658,644.140198 
	C791.011658,644.140198 791.029602,644.036987 790.743164,643.998779 
	C789.974121,644.354858 789.491455,644.749146 789.008789,645.143494 
	C789.008789,645.143494 789.024170,645.035278 788.726318,645.007446 
	C787.629211,645.702881 786.829956,646.426208 786.030640,647.149536 
	C786.030640,647.149536 786.031616,647.049377 785.745850,647.007446 
	C784.975891,647.360291 784.491760,647.755066 784.007568,648.149780 
	C784.007568,648.149780 783.980469,648.012756 783.868164,648.125244 
	C783.459778,648.336487 783.247131,648.527832 783.117920,648.811890 
	C772.608826,656.099548 763.359802,664.619202 756.159607,676.021484 
	C755.379395,676.907410 755.219604,677.520752 755.059814,678.134033 
	C755.059875,678.134033 755.032898,678.021057 754.780334,678.142395 
	C754.373657,678.886658 754.219482,679.509521 754.065308,680.132446 
	C754.065369,680.132446 754.036682,680.026184 753.773315,680.138123 
	C753.364380,680.876465 753.218750,681.502869 753.073120,682.129272 
	C753.073120,682.129272 753.040283,682.033386 752.768433,682.136047 
	C752.355347,682.869263 752.214111,683.499817 752.072876,684.130310 
	C752.072876,684.130310 752.039978,684.032471 751.771851,684.137085 
	C751.358398,684.871582 751.213135,685.501587 751.067871,686.131531 
	C751.067871,686.131531 751.036804,686.028259 750.775635,686.139648 
	C750.364319,686.878418 750.214294,687.505859 750.064270,688.133240 
	C750.064270,688.133240 750.044067,688.022644 749.741699,688.133667 
	C748.978943,689.873840 748.518616,691.502991 748.058228,693.132141 
	C748.058289,693.132141 748.024170,693.015686 747.753052,693.188721 
	C747.008789,695.617981 746.535645,697.874207 746.062500,700.130371 
	C746.062500,700.130371 746.019592,700.021667 745.750549,700.208069 
	C744.776062,703.438110 743.412659,706.497925 743.487305,709.522339 
	C743.721008,719.002319 744.496643,728.468872 745.062378,737.940674 
	C747.849060,747.926270 750.215454,758.036682 755.644836,767.095398 
	C761.837891,777.427917 767.485962,788.097168 773.923218,798.270569 
	C781.162292,809.710999 789.406189,820.521606 796.513367,832.037964 
	C806.847595,848.783325 817.170654,865.590515 826.346558,882.979248 
	C834.440796,898.318542 838.837280,914.965271 840.166077,932.498901 
	C841.702942,952.778137 835.798645,970.098389 823.026917,985.743774 
	C812.083679,999.149414 798.238770,1008.541077 783.466858,1016.880066 
	C764.530701,1027.569824 744.225220,1034.890625 723.494873,1041.220337 
	C706.375610,1046.447266 689.157410,1051.116211 671.303711,1053.022095 
	C661.555176,1054.062744 651.798218,1055.025146 641.112183,1055.995117 
	C621.733398,1055.652100 603.287537,1055.336914 584.841614,1055.021729 
	C571.770691,1053.363525 558.534546,1052.509155 545.666260,1049.864868 
	C524.576050,1045.531006 503.499756,1040.812500 482.828674,1034.834717 
	C455.913208,1027.051147 429.756226,1016.973755 404.201782,1003.805176 
	C403.086487,1003.267944 402.477356,1003.169800 401.868256,1003.071655 
	C401.868256,1003.071655 401.972870,1003.041016 401.855774,1002.783691 
	C401.114410,1002.372803 400.490112,1002.219299 399.865814,1002.065796 
	C399.865814,1002.065857 399.975616,1002.038025 399.855713,1001.783997 
	C399.112244,1001.375000 398.488617,1001.220032 397.864990,1001.065063 
	C397.864990,1001.065063 397.976868,1001.037720 397.855347,1000.785400 
	C397.110992,1000.377014 396.488220,1000.220947 395.865417,1000.064819 
	C395.865417,1000.064819 395.976929,1000.037720 395.855591,999.785034 
	C395.111481,999.376709 394.488739,999.221008 393.865997,999.065369 
	C393.865997,999.065369 393.976074,999.037781 393.855774,998.783936 
	C393.112000,998.375244 392.488556,998.220398 391.865112,998.065552 
	C391.865112,998.065613 391.976349,998.038330 391.856018,997.784668 
	C391.112274,997.376099 390.488831,997.221191 389.865417,997.066284 
	C389.865417,997.066223 389.975586,997.038513 389.856262,996.783936 
	C389.113342,996.375061 388.489716,996.220764 387.866089,996.066467 
	C387.866089,996.066467 387.975128,996.038513 387.856567,995.783081 
	C387.114075,995.374023 386.490112,995.220398 385.866180,995.066772 
	C385.866180,995.066711 385.974823,995.038574 385.856567,994.782776 
	C385.114075,994.373657 384.489868,994.220276 383.865662,994.066956 
	C383.865662,994.066956 383.974823,994.038879 383.856628,993.783203 
	C383.114502,993.374023 382.490540,993.220520 381.866577,993.067078 
	C381.866577,993.067078 381.974274,993.038452 381.856476,992.782227 
	C381.114716,992.372986 380.490784,992.220032 379.866821,992.067017 
	C379.866821,992.067017 379.974426,992.038574 379.856567,991.782104 
	C379.114960,991.373291 378.491211,991.220886 377.867493,991.068420 
	C377.867493,991.068420 377.958710,991.032593 377.878601,990.804626 
	C377.465393,990.387329 377.132294,990.197998 376.799194,990.008667 
	C366.493805,984.467773 355.878021,979.427368 345.953766,973.271973 
	C329.922607,963.328796 314.112457,952.986938 298.651031,942.180969 
	C285.925446,933.286987 273.813812,923.511169 261.478851,914.062500 
	C236.027863,894.566833 212.754425,872.609192 190.930695,849.244385 
	C174.409439,831.556519 158.817261,812.937439 143.695633,794.026001 
	C131.807327,779.158203 120.650223,763.611450 110.306946,747.629333 
	C100.109955,731.873352 91.344406,715.191040 81.860435,698.283081 
	C81.469856,697.439514 81.169678,697.228027 80.869499,697.016479 
	C80.869499,697.016479 80.968224,697.038025 80.984955,696.751892 
	C80.617569,695.979858 80.233459,695.493958 79.849350,695.008057 
	C79.849350,695.008057 79.962593,695.023804 79.982712,694.743774 
	C79.617432,693.979797 79.232033,693.495789 78.846634,693.011780 
	C78.846642,693.011780 78.959190,693.024719 78.979584,692.744995 
	C78.615074,691.980225 78.230164,691.495117 77.845261,691.010071 
	C77.845253,691.010071 77.960274,691.023499 77.979057,690.744934 
	C77.613579,689.980774 77.229324,689.495239 76.845062,689.009644 
	C76.845062,689.009644 76.960609,689.023132 76.978546,688.744873 
	C76.612579,687.980896 76.228676,687.495239 75.844772,687.009583 
	C75.844772,687.009583 75.960564,687.023010 75.978149,686.744873 
	C75.612381,685.981018 75.229012,685.495300 74.845642,685.009583 
	C74.845634,685.009583 74.960693,685.023315 74.979210,684.744385 
	C74.614510,683.980713 74.231293,683.495972 73.848068,683.011169 
	C73.848068,683.011169 73.959923,683.024719 73.980301,682.744141 
	C73.616707,681.979858 73.232750,681.496094 72.848785,681.012329 
	C72.848778,681.012329 72.956566,681.027039 72.990387,680.764404 
	C72.725090,679.975281 72.425980,679.448792 72.126869,678.922302 
	C66.058235,665.128479 59.477516,651.531555 54.074451,637.481750 
	C49.296253,625.056824 45.321136,612.260986 41.936493,599.380676 
	C38.946804,588.003357 36.458984,576.370361 35.192863,564.693787 
	C33.420181,548.345581 32.369129,531.859863 32.161999,515.418518 
	C31.972965,500.413269 32.776566,485.340668 34.100208,470.382477 
	C36.932926,438.370789 45.251263,407.533203 56.038864,377.385803 
	C60.731983,364.270233 66.288727,351.433746 72.016754,338.724487 
	C85.350426,309.139954 101.648880,281.201874 120.659592,254.924896 
	C130.669388,241.089188 140.916031,227.330383 152.160858,214.505844 
	C167.207169,197.345749 182.696198,180.470337 199.147079,164.672226 
	C218.533997,146.054581 239.526627,129.242981 261.486176,113.584442 
	C288.511292,94.313805 316.837769,77.348343 346.755005,63.137108 
	C371.673279,51.300468 397.439148,41.358639 424.095917,34.164948 
	C440.603668,29.710108 457.447540,26.448303 474.223083,23.059608 
	C483.123199,21.261768 492.199493,20.335924 501.810913,19.315029 
	C503.286407,19.458357 504.147278,19.303097 505.008148,19.147835 
	C505.008148,19.147837 505.386658,18.980433 506.071289,19.022079 
	C521.512756,18.685629 536.269653,18.307531 551.026550,17.929432 
	C559.401733,17.950241 567.776855,17.971050 576.938843,18.319189 
	C584.892151,19.096758 592.058594,19.546997 599.225037,19.997234 
M532.871521,73.395752 
	C532.282715,73.327766 531.693848,73.259773 530.313416,72.964073 
	C524.036499,71.769440 518.428345,73.334564 513.575562,77.356453 
	C509.740875,80.534584 505.994873,83.840622 502.421021,87.307899 
	C496.715607,92.843147 490.777832,98.220146 485.714294,104.309372 
	C481.847992,108.958893 483.379578,111.552269 489.204102,112.069542 
	C491.505402,112.273911 493.800293,112.550926 496.930420,112.932587 
	C511.519623,113.605583 526.109009,114.729721 540.697937,114.723091 
	C546.306458,114.720543 552.163086,112.752754 557.460571,110.588593 
	C564.614502,107.666046 568.653687,99.408417 568.042114,91.295898 
	C567.559875,84.898659 562.454773,78.052078 555.602051,76.613213 
	C548.209412,75.060966 540.553284,74.763603 532.996582,73.983719 
	C532.996582,73.983719 533.061035,73.966583 532.871521,73.395752 
M235.413193,350.062683 
	C228.972672,350.426575 222.413528,350.137054 216.114502,351.280426 
	C199.226898,354.345856 183.789474,361.189331 170.156876,371.617218 
	C161.842026,377.977448 158.278275,386.981964 160.415817,397.222198 
	C162.331848,406.401123 164.808197,415.622589 168.398010,424.259766 
	C176.091583,442.770630 189.301514,451.203766 209.156738,451.844147 
	C215.297241,452.163116 221.436981,452.498077 227.578415,452.797852 
	C242.338226,453.518280 250.828430,446.149902 250.842773,431.498596 
	C250.853378,420.674164 255.309631,412.750580 263.619324,406.408936 
	C267.710205,403.286865 271.826080,400.134186 275.518951,396.568939 
	C280.871277,391.401550 284.830414,385.098724 282.466400,377.445618 
	C280.585541,371.356659 277.442810,365.580566 274.297455,359.981812 
	C271.425537,354.869781 266.399872,352.531891 260.638092,352.046417 
	C252.533859,351.363617 244.416382,350.838043 235.413193,350.062683 
M891.720093,551.652771 
	C894.346252,551.893494 896.995728,552.483459 899.594360,552.310608 
	C908.048889,551.748169 916.484802,550.906799 925.647949,549.823975 
	C943.614624,545.047668 958.583435,535.641113 969.746460,520.670776 
	C977.970276,509.642151 983.817932,497.357056 984.877014,483.537689 
	C986.363403,464.142212 981.767822,446.226318 970.070618,430.278595 
	C952.934631,406.915741 929.901611,394.697845 901.092773,394.137512 
	C884.838562,393.821350 869.355713,398.359467 854.907410,405.689392 
	C842.666809,411.899323 831.010925,419.428528 824.158020,431.748016 
	C819.560486,440.012970 816.709412,449.249420 812.488708,458.587402 
	C811.436279,465.768463 809.989685,472.956573 813.035461,480.400421 
	C813.035461,480.400421 813.000061,480.770081 812.919922,481.540466 
	C813.239136,482.723663 813.558289,483.906891 814.038513,485.411194 
	C814.038513,485.411194 814.000549,485.768372 813.930298,486.518036 
	C814.233765,487.669647 814.537231,488.821259 815.156555,490.655975 
	C820.228027,499.711182 824.291138,509.568268 830.667114,517.586060 
	C836.523743,524.950806 844.402405,531.025635 852.272339,536.369629 
	C858.470764,540.578613 865.892517,543.123901 872.993103,545.823608 
	C878.857300,548.053284 885.046814,549.427307 891.720093,551.652771 
M701.554260,152.140564 
	C698.643860,152.777527 695.747192,153.487549 692.820740,154.039337 
	C676.166138,157.179642 661.944458,164.885956 649.817993,176.660492 
	C637.188965,188.923065 627.955078,203.341675 622.169128,219.940536 
	C616.166382,237.161285 615.117554,254.449738 620.447083,272.202850 
	C625.740662,289.836426 633.943970,305.865509 645.695007,319.855255 
	C656.113708,332.258820 668.611633,342.701691 685.133423,345.244110 
	C695.627319,346.858948 706.539307,345.756592 718.154236,345.877045 
	C744.781128,346.655975 768.089050,337.507507 788.842896,321.523651 
	C806.962219,307.568817 817.829163,289.376678 819.281616,266.071747 
	C820.675415,243.706436 815.403687,222.804016 805.284668,203.105194 
	C793.379883,179.930084 775.422668,163.360321 750.266724,155.412064 
	C734.613464,150.466248 718.558777,150.001343 701.554260,152.140564 
M463.347992,937.588745 
	C465.808411,937.989746 468.259125,938.468323 470.731018,938.777893 
	C479.706299,939.902222 488.781525,942.989441 497.485474,937.692505 
	C501.316193,935.361389 505.200165,933.093384 508.864349,930.518372 
	C514.580444,926.501343 520.088989,922.190369 525.759644,918.106873 
	C534.647156,911.706909 545.384827,911.152771 555.571716,909.060730 
	C571.453247,905.799133 580.671570,895.982239 583.999146,880.591309 
	C587.473633,864.520752 584.711548,848.696960 579.925903,833.359253 
	C563.920654,782.063293 533.723938,762.616821 490.320862,759.642029 
	C484.087799,758.786865 477.874359,757.397034 471.618347,757.167786 
	C442.567139,756.103027 413.728821,757.910889 385.669800,766.115295 
	C358.243896,774.134705 335.430878,788.691162 320.648529,814.037781 
	C302.370544,845.378296 310.993896,884.572693 340.464264,904.070801 
	C352.197876,911.833923 365.425507,914.524902 379.932037,915.901550 
	C391.602203,916.811279 403.272400,917.721008 415.765198,918.825867 
	C422.913666,922.070679 430.371063,924.782288 437.130493,928.698608 
	C445.138428,933.338257 452.992615,937.698730 463.347992,937.588745 
M198.122696,699.809387 
	C203.027420,700.202515 207.927505,700.858459 212.837646,700.945190 
	C239.587616,701.417664 264.924744,695.661011 288.899048,683.692688 
	C320.312256,668.010681 334.337555,642.571045 331.754425,607.815308 
	C330.137390,586.057983 324.486664,565.247925 315.700714,545.337646 
	C309.106171,530.393311 300.185547,517.029175 286.881348,507.095673 
	C268.530853,493.394318 247.063354,491.558441 224.290588,491.050262 
	C213.725662,491.395386 202.982620,490.643127 192.634354,492.322968 
	C173.412689,495.443268 154.686691,500.860992 137.646393,510.733917 
	C121.811333,519.908569 109.050690,532.229370 100.225540,548.460876 
	C88.052895,570.849121 85.882759,594.731567 91.220810,619.062744 
	C97.200470,646.318359 110.211815,669.828918 134.148376,685.569519 
	C153.244553,698.127136 175.209671,699.687317 198.122696,699.809387 
M458.189575,121.137497 
	C455.361664,121.068703 452.499603,121.258308 449.711365,120.889519 
	C430.500549,118.348564 412.589355,122.817383 395.859894,131.766373 
	C386.216492,136.924850 377.359680,143.553543 368.147644,149.518677 
	C359.111725,155.369797 349.717896,160.428833 338.563782,160.173279 
	C330.425293,159.986832 322.223480,159.777420 314.182220,158.641647 
	C287.329529,154.848892 262.313110,167.248917 250.674622,191.771866 
	C235.911255,222.879135 238.050613,254.052765 252.782410,284.597809 
	C261.108887,301.861969 275.211548,311.723480 294.932587,314.912598 
	C311.362427,317.610077 327.734283,319.421692 344.416016,316.266724 
	C357.111084,313.865723 370.015045,312.568909 383.569794,310.984406 
	C393.177917,313.660187 400.252167,320.104614 407.189606,326.787323 
	C415.002869,334.313660 423.795258,339.814972 435.941467,339.955017 
	C440.510101,340.640717 445.068848,341.403442 449.650208,341.989716 
	C453.910858,342.534912 458.284851,343.677704 462.455048,343.203583 
	C488.167999,340.280060 503.190887,319.852753 499.815918,293.961182 
	C498.424927,283.290131 497.964905,272.398285 498.231537,261.635376 
	C498.575989,247.730515 503.502502,235.385284 513.677673,225.389832 
	C517.580627,221.555786 521.493103,217.572357 524.576111,213.089508 
	C540.673462,189.683136 534.434021,156.353363 510.709900,138.941620 
	C495.398682,127.704330 477.974243,122.310638 458.189575,121.137497 
M105.130524,331.635834 
	C101.265839,338.808533 97.121834,345.846680 93.590179,353.179779 
	C83.980583,373.132965 76.169952,393.787476 70.441338,415.198944 
	C64.077438,438.984833 59.968815,463.136658 59.054543,487.774567 
	C58.976887,489.867340 59.309925,492.143951 60.099800,494.069458 
	C62.700195,500.408722 69.032959,503.214233 77.215355,501.980621 
	C84.463135,500.887939 89.235802,495.518402 90.063156,488.145233 
	C91.596275,474.482422 92.638191,460.710602 95.157700,447.221954 
	C104.533730,397.025696 124.765717,351.584442 156.114822,311.153076 
	C159.134140,307.259033 162.011581,303.042389 163.899246,298.533508 
	C166.709930,291.819946 162.486847,282.526733 155.831314,278.997986 
	C149.313828,275.542419 142.836807,276.898895 137.955093,283.793549 
	C126.920624,299.377991 116.283310,315.243591 105.130524,331.635834 
M763.166077,935.635498 
	C756.556824,945.864502 747.809509,953.503662 736.174377,957.459900 
	C731.637817,959.002441 726.858093,959.838013 722.341003,961.427307 
	C715.827637,963.718933 712.753174,969.014709 712.910767,976.768188 
	C713.040222,983.136169 716.620178,988.412048 722.982361,989.994507 
	C726.720947,990.924377 730.956421,991.143982 734.727173,990.422302 
	C747.634338,987.952393 759.320312,982.521301 769.812317,974.531189 
	C782.188660,965.105957 791.129944,953.125244 796.196960,938.458191 
	C799.104614,930.041565 794.988892,921.803955 787.157104,918.912048 
	C779.104980,915.938782 770.661072,919.791077 767.152283,927.934265 
	C766.106323,930.361755 764.770020,932.664124 763.166077,935.635498 
M777.966858,393.454102 
	C771.757507,402.058228 765.209717,410.447571 759.534912,419.390900 
	C757.715515,422.258209 757.171936,426.795074 757.850708,430.208984 
	C759.278259,437.389832 764.972168,440.785339 771.819336,441.904816 
	C778.564941,443.007660 783.605469,439.663940 786.817932,434.150024 
	C797.037231,416.609314 810.567566,402.197815 827.145020,390.628693 
	C833.075684,386.489746 834.848206,380.904480 833.967651,374.157959 
	C832.549500,363.292145 821.244141,357.302063 812.438416,363.170868 
	C799.835144,371.570648 788.031372,381.018616 777.966858,393.454102 
M202.843246,228.795044 
	C197.400513,223.427490 190.907562,220.712128 183.979782,224.756332 
	C178.953354,227.690552 174.355637,231.892593 170.642487,236.412949 
	C165.592926,242.560196 167.441208,251.876236 173.811005,257.367462 
	C179.511063,262.281311 188.069504,262.054047 193.795166,256.793732 
	C195.507004,255.221054 197.047287,253.457321 198.796616,251.930573 
	C206.651764,245.075027 207.911240,238.799973 202.843246,228.795044 
M766.465454,485.998871 
	C761.476257,491.368866 760.686035,497.369202 763.966370,503.854034 
	C765.611145,507.105591 767.353333,510.329803 769.327087,513.388550 
	C773.465942,519.802917 782.646179,522.268311 789.171814,518.897339 
	C796.550659,515.085571 799.918701,507.235382 796.966919,499.608490 
	C795.485840,495.781860 793.339722,492.161072 791.130798,488.677734 
	C785.339294,479.545135 775.179504,478.269989 766.465454,485.998871 
z"/>
<path fill="#FEF3F8" opacity="1.000000" stroke="none" 
	d="
M830.413818,629.923584 
	C839.966431,628.995117 849.959351,627.833069 859.984558,627.371155 
	C865.745544,627.105652 871.558899,627.974792 877.671875,628.592529 
	C862.285889,629.229065 846.576782,629.606323 830.413818,629.923584 
z"/>
<path fill="#FEF2F7" opacity="1.000000" stroke="none" 
	d="
M585.060669,1055.409668 
	C603.287537,1055.336914 621.733398,1055.652100 640.655762,1055.998535 
	C639.637329,1056.357300 638.144470,1056.957764 636.647278,1056.968872 
	C625.720703,1057.050293 614.790833,1057.151245 603.867004,1056.960083 
	C597.666382,1056.851440 591.475220,1056.202881 585.060669,1055.409668 
z"/>
<path fill="#FDE2EE" opacity="1.000000" stroke="none" 
	d="
M550.808716,17.555027 
	C536.269653,18.307531 521.512756,18.685629 506.278198,19.024605 
	C510.172699,18.313595 514.534607,17.159676 518.919189,17.065771 
	C529.470764,16.839787 540.033020,17.110353 550.808716,17.555027 
z"/>
<path fill="#FEF4F9" opacity="1.000000" stroke="none" 
	d="
M745.017090,737.492798 
	C744.496643,728.468872 743.721008,719.002319 743.487305,709.522339 
	C743.412659,706.497925 744.776062,703.438110 745.806152,700.190125 
	C745.420349,708.108459 744.485352,716.220276 744.092163,724.358276 
	C743.888916,728.563171 744.647705,732.814514 745.017090,737.492798 
z"/>
<path fill="#FEF0F7" opacity="1.000000" stroke="none" 
	d="
M598.997192,19.618607 
	C592.058594,19.546997 584.892151,19.096758 577.404907,18.410656 
	C584.312561,18.529856 591.540955,18.884918 598.997192,19.618607 
z"/>
<path fill="#FEF3F8" opacity="1.000000" stroke="none" 
	d="
M879.023560,629.391235 
	C882.987610,629.170288 887.180176,629.333008 891.660095,629.783997 
	C887.715637,629.973145 883.483826,629.874023 879.023560,629.391235 
z"/>
<path fill="#FEF4F9" opacity="1.000000" stroke="none" 
	d="
M746.409973,699.951782 
	C746.535645,697.874207 747.008789,695.617981 747.812256,693.175537 
	C747.680847,695.250610 747.219116,697.511902 746.409973,699.951782 
z"/>
<path fill="#FEF4F9" opacity="1.000000" stroke="none" 
	d="
M748.390076,692.972900 
	C748.518616,691.502991 748.978943,689.873840 749.797729,688.130371 
	C749.678101,689.615234 749.200012,691.214478 748.390076,692.972900 
z"/>
<path fill="#FEF0F7" opacity="1.000000" stroke="none" 
	d="
M605.771973,20.601849 
	C604.068665,20.886156 602.293396,20.768974 600.239746,20.394123 
	C601.874268,20.157753 603.787170,20.179058 605.771973,20.601849 
z"/>
<path fill="#FEF3F8" opacity="1.000000" stroke="none" 
	d="
M820.362976,631.927368 
	C821.139343,631.548096 822.303711,631.240845 823.849731,630.966614 
	C823.071289,631.332886 821.911133,631.666199 820.362976,631.927368 
z"/>
<path fill="#FEF3F8" opacity="1.000000" stroke="none" 
	d="
M825.305420,630.937317 
	C826.089783,630.559326 827.270447,630.242371 828.835815,629.964478 
	C828.047607,630.335205 826.874634,630.666809 825.305420,630.937317 
z"/>
<path fill="#FFF8FB" opacity="1.000000" stroke="none" 
	d="
M786.359375,647.082153 
	C786.829956,646.426208 787.629211,645.702881 788.779297,645.020874 
	C788.316101,645.713074 787.502075,646.363953 786.359375,647.082153 
z"/>
<path fill="#FDE2EE" opacity="1.000000" stroke="none" 
	d="
M504.640381,19.084848 
	C504.147278,19.303097 503.286407,19.458357 502.239441,19.389778 
	C502.793091,19.117912 503.532867,19.069887 504.640381,19.084848 
z"/>
<path fill="#FFF8FB" opacity="1.000000" stroke="none" 
	d="
M799.331787,640.076904 
	C799.493408,639.749023 799.975281,639.359375 800.794373,639.017578 
	C800.638367,639.382019 800.145203,639.698669 799.331787,640.076904 
z"/>
<path fill="#FFF8FB" opacity="1.000000" stroke="none" 
	d="
M803.326782,638.079590 
	C803.483337,637.766418 803.961426,637.387878 804.770447,637.026001 
	C804.617004,637.366577 804.132690,637.690369 803.326782,638.079590 
z"/>
<path fill="#FEECF4" opacity="1.000000" stroke="none" 
	d="
M79.914619,695.329712 
	C80.233459,695.493958 80.617569,695.979858 80.967964,696.799438 
	C80.616127,696.639160 80.298012,696.145264 79.914619,695.329712 
z"/>
<path fill="#FEEFF6" opacity="1.000000" stroke="none" 
	d="
M377.996399,991.368408 
	C378.491211,991.220886 379.114960,991.373291 379.864410,991.837158 
	C379.368500,991.988586 378.746887,991.828491 377.996399,991.368408 
z"/>
<path fill="#FEEFF6" opacity="1.000000" stroke="none" 
	d="
M379.996643,992.366577 
	C380.490784,992.220032 381.114716,992.372986 381.864380,992.837402 
	C381.368866,992.987854 380.747681,992.826965 379.996643,992.366577 
z"/>
<path fill="#FEEFF6" opacity="1.000000" stroke="none" 
	d="
M381.996307,993.366760 
	C382.490540,993.220520 383.114502,993.374023 383.864258,993.839050 
	C383.368744,993.989197 382.747375,993.827820 381.996307,993.366760 
z"/>
<path fill="#FEEFF6" opacity="1.000000" stroke="none" 
	d="
M383.995605,994.366638 
	C384.489868,994.220276 385.114075,994.373657 385.864258,994.838379 
	C385.368683,994.988586 384.747131,994.827454 383.995605,994.366638 
z"/>
<path fill="#FEEFF6" opacity="1.000000" stroke="none" 
	d="
M385.995880,995.366577 
	C386.490112,995.220398 387.114075,995.374023 387.864197,995.838867 
	C387.368744,995.988831 386.747162,995.827576 385.995880,995.366577 
z"/>
<path fill="#FEEFF6" opacity="1.000000" stroke="none" 
	d="
M387.995911,996.366333 
	C388.489716,996.220764 389.113342,996.375061 389.863831,996.840210 
	C389.369019,996.989502 388.747375,996.827820 387.995911,996.366333 
z"/>
<path fill="#FEEFF6" opacity="1.000000" stroke="none" 
	d="
M389.995605,997.366089 
	C390.488831,997.221191 391.112274,997.376099 391.863464,997.841492 
	C391.369385,997.989868 390.747589,997.827881 389.995605,997.366089 
z"/>
<path fill="#FEEFF6" opacity="1.000000" stroke="none" 
	d="
M391.995392,998.365417 
	C392.488556,998.220398 393.112000,998.375244 393.863403,998.840088 
	C393.369476,998.988525 392.747589,998.826904 391.995392,998.365417 
z"/>
<path fill="#FEEFF6" opacity="1.000000" stroke="none" 
	d="
M393.996033,999.365234 
	C394.488739,999.221008 395.111481,999.376709 395.863037,999.841980 
	C395.369934,999.989441 394.748016,999.827271 393.996033,999.365234 
z"/>
<path fill="#FEEFF6" opacity="1.000000" stroke="none" 
	d="
M395.995636,1000.364746 
	C396.488220,1000.220947 397.110992,1000.377014 397.862854,1000.842529 
	C397.369873,1000.989502 396.747864,1000.827087 395.995636,1000.364746 
z"/>
<path fill="#FEEFF6" opacity="1.000000" stroke="none" 
	d="
M397.995178,1001.364929 
	C398.488617,1001.220032 399.112244,1001.375000 399.863464,1001.840088 
	C399.369202,1001.988403 398.747314,1001.826599 397.995178,1001.364929 
z"/>
<path fill="#FEEFF6" opacity="1.000000" stroke="none" 
	d="
M399.995605,1002.365601 
	C400.490112,1002.219299 401.114410,1002.372803 401.864288,1002.837524 
	C401.368378,1002.987610 400.746857,1002.826538 399.995605,1002.365601 
z"/>
<path fill="#FEEFF6" opacity="1.000000" stroke="none" 
	d="
M402.005005,1003.378418 
	C402.477356,1003.169800 403.086487,1003.267944 403.888855,1003.622192 
	C403.435364,1003.813904 402.788574,1003.749512 402.005005,1003.378418 
z"/>
<path fill="#FEECF4" opacity="1.000000" stroke="none" 
	d="
M72.911385,681.333862 
	C73.232750,681.496094 73.616707,681.979858 73.967026,682.798950 
	C73.613571,682.641235 73.293777,682.148315 72.911385,681.333862 
z"/>
<path fill="#FFF8FB" opacity="1.000000" stroke="none" 
	d="
M797.334229,641.075562 
	C797.494263,640.741882 797.973877,640.347778 798.791199,640.011230 
	C798.637207,640.384277 798.145508,640.699707 797.334229,641.075562 
z"/>
<path fill="#FFF8FB" opacity="1.000000" stroke="none" 
	d="
M795.333740,642.075684 
	C795.494080,641.735657 795.973267,641.335083 796.789734,641.004150 
	C796.635498,641.387512 796.144043,641.701294 795.333740,642.075684 
z"/>
<path fill="#FFF8FB" opacity="1.000000" stroke="none" 
	d="
M793.332153,643.076843 
	C793.493164,642.738525 793.973267,642.338623 794.790161,642.005737 
	C794.635010,642.386902 794.143127,642.701050 793.332153,643.076843 
z"/>
<path fill="#FFF8FB" opacity="1.000000" stroke="none" 
	d="
M791.331177,644.077759 
	C791.492737,643.743713 791.973816,643.347229 792.791626,643.010376 
	C792.635864,643.385132 792.143250,643.700256 791.331177,644.077759 
z"/>
<path fill="#FFF8FB" opacity="1.000000" stroke="none" 
	d="
M789.328735,645.079468 
	C789.491455,644.749146 789.974121,644.354858 790.793213,644.014160 
	C790.635986,644.383728 790.142334,644.699524 789.328735,645.079468 
z"/>
<path fill="#FFF8FB" opacity="1.000000" stroke="none" 
	d="
M784.327271,648.082397 
	C784.491760,647.755066 784.975891,647.360291 785.795166,647.016113 
	C785.635864,647.382874 785.141418,647.698975 784.327271,648.082397 
z"/>
<path fill="#FEF4F9" opacity="1.000000" stroke="none" 
	d="
M755.358643,678.004700 
	C755.219604,677.520752 755.379395,676.907410 755.839966,676.158447 
	C755.979675,676.640259 755.818604,677.257812 755.358643,678.004700 
z"/>
<path fill="#FEF4F9" opacity="1.000000" stroke="none" 
	d="
M754.364990,680.001892 
	C754.219482,679.509521 754.373657,678.886658 754.837891,678.134277 
	C754.986877,678.627014 754.825806,679.249146 754.364990,680.001892 
z"/>
<path fill="#FEECF4" opacity="1.000000" stroke="none" 
	d="
M72.060669,679.254028 
	C72.425980,679.448792 72.725090,679.975281 72.976006,680.816895 
	C72.616692,680.616577 72.305573,680.101196 72.060669,679.254028 
z"/>
<path fill="#FEF4F9" opacity="1.000000" stroke="none" 
	d="
M753.371277,681.999146 
	C753.218750,681.502869 753.364380,680.876465 753.827759,680.130005 
	C753.986816,680.629639 753.828125,681.249329 753.371277,681.999146 
z"/>
<path fill="#FEECF4" opacity="1.000000" stroke="none" 
	d="
M78.910675,693.333252 
	C79.232033,693.495789 79.617432,693.979797 79.968750,694.799194 
	C79.614677,694.641357 79.294701,694.148010 78.910675,693.333252 
z"/>
<path fill="#FEF4F9" opacity="1.000000" stroke="none" 
	d="
M752.370544,684.000366 
	C752.214111,683.499817 752.355347,682.869263 752.818176,682.126648 
	C752.982605,682.633179 752.825378,683.251831 752.370544,684.000366 
z"/>
<path fill="#FEECF4" opacity="1.000000" stroke="none" 
	d="
M73.911484,683.332764 
	C74.231293,683.495972 74.614510,683.980713 74.966049,684.800781 
	C74.614548,684.642212 74.294724,684.148315 73.911484,683.332764 
z"/>
<path fill="#FEF4F9" opacity="1.000000" stroke="none" 
	d="
M751.366577,686.001953 
	C751.213135,685.501587 751.358398,684.871582 751.822510,684.127563 
	C751.982727,684.633118 751.823975,685.252747 751.366577,686.001953 
z"/>
<path fill="#FEECF4" opacity="1.000000" stroke="none" 
	d="
M74.911026,685.331177 
	C75.229012,685.495300 75.612381,685.981018 75.965164,686.801697 
	C75.615204,686.641968 75.295807,686.147400 74.911026,685.331177 
z"/>
<path fill="#FEF4F9" opacity="1.000000" stroke="none" 
	d="
M750.363708,688.003296 
	C750.214294,687.505859 750.364319,686.878418 750.828735,686.130493 
	C750.983032,686.631042 750.823120,687.252136 750.363708,688.003296 
z"/>
<path fill="#FEECF4" opacity="1.000000" stroke="none" 
	d="
M75.910553,687.331055 
	C76.228676,687.495239 76.612579,687.980896 76.965446,688.801514 
	C76.615051,688.641846 76.295692,688.147217 75.910553,687.331055 
z"/>
<path fill="#FFF8FB" opacity="1.000000" stroke="none" 
	d="
M801.329468,639.078735 
	C801.492493,638.758118 801.976379,638.373840 802.796631,638.024780 
	C802.638794,638.378418 802.144592,638.696716 801.329468,639.078735 
z"/>
<path fill="#FEECF4" opacity="1.000000" stroke="none" 
	d="
M76.910721,689.331055 
	C77.229324,689.495239 77.613579,689.980774 77.965927,690.801331 
	C77.614799,690.641724 77.295586,690.147095 76.910721,689.331055 
z"/>
<path fill="#FEECF4" opacity="1.000000" stroke="none" 
	d="
M77.910828,691.331299 
	C78.230164,691.495117 78.615074,691.980225 78.966507,692.800171 
	C78.614159,692.640808 78.295280,692.146667 77.910828,691.331299 
z"/>
<path fill="#FEEFF6" opacity="1.000000" stroke="none" 
	d="
M376.911682,990.275146 
	C377.132294,990.197998 377.465393,990.387329 377.890137,990.852295 
	C377.662537,990.932434 377.343353,990.737061 376.911682,990.275146 
z"/>
<path fill="#FFF8FB" opacity="1.000000" stroke="none" 
	d="
M783.367554,648.822021 
	C783.247131,648.527832 783.459778,648.336487 783.936401,648.110352 
	C783.950317,648.265991 783.783752,648.549011 783.367554,648.822021 
z"/>
<path fill="#FEECF4" opacity="1.000000" stroke="none" 
	d="
M80.957779,697.289673 
	C81.169678,697.228027 81.469856,697.439514 81.878189,697.916016 
	C81.672920,697.974854 81.359489,697.768860 80.957779,697.289673 
z"/>
<path fill="#C82B71" opacity="1.000000" stroke="none" 
	d="
M294.122467,314.727783 
	C275.211548,311.723480 261.108887,301.861969 252.782410,284.597809 
	C238.050613,254.052765 235.911255,222.879135 250.674622,191.771866 
	C262.313110,167.248917 287.329529,154.848892 314.182220,158.641647 
	C322.223480,159.777420 330.425293,159.986832 338.563782,160.173279 
	C349.717896,160.428833 359.111725,155.369797 368.147644,149.518677 
	C377.359680,143.553543 386.216492,136.924850 395.859894,131.766373 
	C412.589355,122.817383 430.500549,118.348564 449.711365,120.889519 
	C452.499603,121.258308 455.361664,121.068703 458.725433,121.596260 
	C460.251556,122.579628 461.189636,123.266777 462.240051,123.604027 
	C474.388153,127.504326 484.892365,133.931778 493.226074,143.690918 
	C504.313812,156.675110 508.739960,171.572922 506.339935,188.559677 
	C504.523926,201.412506 497.907227,211.373779 488.626312,220.012650 
	C480.390137,227.679016 475.103088,237.031738 472.877838,248.210526 
	C469.806641,263.638916 471.855743,278.921844 473.611755,294.219910 
	C475.087036,307.072723 472.157501,318.016785 461.979980,326.864532 
	C454.102722,333.712585 445.385895,338.209991 435.130402,339.832153 
	C423.795258,339.814972 415.002869,334.313660 407.189606,326.787323 
	C400.252167,320.104614 393.177917,313.660187 382.937866,310.656952 
	C370.300934,305.868286 357.904175,306.257263 345.522003,307.730072 
	C336.022369,308.860077 326.611755,310.718872 317.131531,312.037842 
	C309.485107,313.101685 301.793823,313.843231 294.122467,314.727783 
M284.380554,216.088287 
	C275.203979,207.498795 259.194550,213.008789 258.015564,227.393646 
	C256.776672,242.509064 259.852905,256.137238 269.486877,268.023743 
	C275.581421,275.543304 284.453735,277.011169 291.511810,271.797760 
	C298.641571,266.531433 299.820526,257.229706 294.004120,249.196381 
	C289.996185,243.660812 288.086121,237.800690 289.014374,230.970001 
	C289.738312,225.642761 288.740845,220.689606 284.380554,216.088287 
M304.731781,177.975296 
	C296.577087,179.159836 290.526581,184.692505 289.792297,191.636200 
	C288.896149,200.110535 295.384888,208.312500 303.403229,208.840836 
	C312.174225,209.418762 320.641541,202.374176 321.063843,194.147751 
	C321.532074,185.025818 314.927002,178.097412 304.731781,177.975296 
z"/>
<path fill="#FF7DB7" opacity="1.000000" stroke="none" 
	d="
M197.309402,699.847168 
	C175.209671,699.687317 153.244553,698.127136 134.148376,685.569519 
	C110.211815,669.828918 97.200470,646.318359 91.220810,619.062744 
	C85.882759,594.731567 88.052895,570.849121 100.225540,548.460876 
	C109.050690,532.229370 121.811333,519.908569 137.646393,510.733917 
	C154.686691,500.860992 173.412689,495.443268 192.634354,492.322968 
	C202.982620,490.643127 213.725662,491.395386 225.013245,491.361755 
	C245.765350,494.395844 262.783539,502.983673 274.902161,519.280334 
	C297.517090,549.691895 306.705566,584.538818 305.649536,621.995483 
	C305.177704,638.733032 299.088593,653.976135 286.435577,665.696838 
	C269.889679,681.023621 249.988007,690.031738 228.205994,694.862732 
	C218.038757,697.117737 207.616211,698.221497 197.309402,699.847168 
M155.008423,592.377014 
	C154.993652,591.378967 155.079681,590.367493 154.947922,589.385132 
	C154.034882,582.577698 147.794922,576.378601 140.707672,575.182007 
	C134.896652,574.200989 129.836380,576.854370 126.720222,582.516541 
	C113.155281,607.164490 117.513725,643.101379 136.561951,663.664673 
	C143.150833,670.777710 151.106796,670.792053 157.759598,663.702942 
	C163.240997,657.862061 164.062057,648.880615 159.036560,642.204895 
	C151.983643,632.835999 148.555893,622.474670 150.167480,610.922058 
	C151.005264,604.916626 153.334457,599.119324 155.008423,592.377014 
M196.979324,521.309998 
	C192.725418,518.595886 188.259323,518.375488 183.661407,520.267090 
	C179.064331,522.158386 174.360626,523.854675 169.944794,526.108765 
	C161.332718,530.504944 158.071625,539.687317 162.079529,547.334412 
	C166.313400,555.412659 175.452301,558.058105 184.324402,553.861572 
	C187.316162,552.446411 190.401566,551.225952 193.463211,549.962646 
	C199.365875,547.527222 203.706314,543.423767 204.799301,537.090881 
	C205.918137,530.608337 202.819122,525.539490 196.979324,521.309998 
z"/>
<path fill="#C82B71" opacity="1.000000" stroke="none" 
	d="
M379.118652,915.730408 
	C365.425507,914.524902 352.197876,911.833923 340.464264,904.070801 
	C310.993896,884.572693 302.370544,845.378296 320.648529,814.037781 
	C335.430878,788.691162 358.243896,774.134705 385.669800,766.115295 
	C413.728821,757.910889 442.567139,756.103027 471.618347,757.167786 
	C477.874359,757.397034 484.087799,758.786865 490.906433,760.105469 
	C505.672577,764.357727 517.982300,771.649231 527.655701,782.464661 
	C548.926575,806.247070 558.888733,834.693237 558.826660,866.359253 
	C558.789734,885.167053 549.572998,901.823792 528.238281,905.201050 
	C516.475098,907.063171 504.689606,909.125244 494.880310,917.003113 
	C484.942047,924.984497 474.934021,932.975159 462.608429,937.194153 
	C452.992615,937.698730 445.138428,933.338257 437.130493,928.698608 
	C430.371063,924.782288 422.913666,922.070679 415.253143,918.398315 
	C403.109985,913.359558 391.177063,913.547180 379.118652,915.730408 
M342.901978,864.023071 
	C353.984741,867.620544 360.947876,863.747681 363.923248,852.540771 
	C364.812653,849.190796 365.925537,845.833862 367.446289,842.730225 
	C372.005219,833.425842 379.759033,827.870178 389.217102,824.000916 
	C397.484283,820.618774 400.696777,811.204041 397.268036,802.544861 
	C394.358978,795.198120 387.754425,791.743530 380.349579,794.388367 
	C356.333496,802.966309 339.984894,818.926819 333.656281,844.141907 
	C331.355469,853.308899 333.961731,859.042053 342.901978,864.023071 
z"/>
<path fill="#FF7DB7" opacity="1.000000" stroke="none" 
	d="
M717.263794,345.872772 
	C706.539307,345.756592 695.627319,346.858948 685.133423,345.244110 
	C668.611633,342.701691 656.113708,332.258820 645.695007,319.855255 
	C633.943970,305.865509 625.740662,289.836426 620.447083,272.202850 
	C615.117554,254.449738 616.166382,237.161285 622.169128,219.940536 
	C627.955078,203.341675 637.188965,188.923065 649.817993,176.660492 
	C661.944458,164.885956 676.166138,157.179642 692.820740,154.039337 
	C695.747192,153.487549 698.643860,152.777527 702.223999,152.415680 
	C705.023621,153.038895 707.141296,153.549820 709.285278,153.710419 
	C736.732727,155.766373 757.579468,169.420624 773.560974,190.985458 
	C786.739502,208.768127 793.614502,229.213486 795.782043,251.071304 
	C797.611267,269.516998 794.994019,287.272797 784.148743,303.035645 
	C773.669373,318.266541 759.460022,329.070862 742.886841,336.669373 
	C734.667114,340.437958 725.824585,342.848053 717.263794,345.872772 
M672.187622,246.572189 
	C672.904602,236.254150 676.714966,227.374908 683.640259,219.563660 
	C689.064087,213.445877 687.813721,204.113968 681.538452,198.441010 
	C674.855652,192.399612 666.776489,192.310852 660.668091,198.906769 
	C643.770691,217.152847 637.605042,238.595016 643.218994,262.922516 
	C644.019775,266.392700 646.953369,270.158173 649.977173,272.158661 
	C655.699036,275.944183 661.830994,274.346710 667.209900,270.524261 
	C672.421387,266.820770 674.543945,261.740601 673.302734,255.330521 
	C672.798096,252.724472 672.556091,250.067566 672.187622,246.572189 
z"/>
<path fill="#000000" opacity="1.000000" stroke="none" 
	d="
M813.077026,458.051208 
	C816.709412,449.249420 819.560486,440.012970 824.158020,431.748016 
	C831.010925,419.428528 842.666809,411.899323 854.907410,405.689392 
	C869.355713,398.359467 884.838562,393.821350 901.092773,394.137512 
	C929.901611,394.697845 952.934631,406.915741 970.070618,430.278595 
	C981.767822,446.226318 986.363403,464.142212 984.877014,483.537689 
	C983.817932,497.357056 977.970276,509.642151 969.746460,520.670776 
	C958.583435,535.641113 943.614624,545.047668 924.854126,549.930603 
	C913.070923,550.418335 902.081543,550.799438 891.092163,551.180542 
	C885.046814,549.427307 878.857300,548.053284 872.993103,545.823608 
	C865.892517,543.123901 858.470764,540.578613 852.272339,536.369629 
	C844.402405,531.025635 836.523743,524.950806 830.667114,517.586060 
	C824.291138,509.568268 820.228027,499.711182 815.066162,489.930908 
	C814.650696,488.060028 814.325623,486.914215 814.000488,485.768372 
	C814.000549,485.768372 814.038513,485.411194 814.019165,484.852844 
	C813.666565,483.119659 813.333252,481.944885 813.000000,480.770081 
	C813.000061,480.770081 813.035461,480.400421 813.014160,479.759583 
	C813.020874,472.096222 813.048950,465.073700 813.077026,458.051208 
z"/>
<path fill="#FFFEFF" opacity="1.000000" stroke="none" 
	d="
M105.307495,331.315308 
	C116.283310,315.243591 126.920624,299.377991 137.955093,283.793549 
	C142.836807,276.898895 149.313828,275.542419 155.831314,278.997986 
	C162.486847,282.526733 166.709930,291.819946 163.899246,298.533508 
	C162.011581,303.042389 159.134140,307.259033 156.114822,311.153076 
	C124.765717,351.584442 104.533730,397.025696 95.157700,447.221954 
	C92.638191,460.710602 91.596275,474.482422 90.063156,488.145233 
	C89.235802,495.518402 84.463135,500.887939 77.215355,501.980621 
	C69.032959,503.214233 62.700195,500.408722 60.099800,494.069458 
	C59.309925,492.143951 58.976887,489.867340 59.054543,487.774567 
	C59.968815,463.136658 64.077438,438.984833 70.441338,415.198944 
	C76.169952,393.787476 83.980583,373.132965 93.590179,353.179779 
	C97.121834,345.846680 101.265839,338.808533 105.307495,331.315308 
z"/>
<path fill="#FE7DB7" opacity="1.000000" stroke="none" 
	d="
M208.263855,451.856995 
	C189.301514,451.203766 176.091583,442.770630 168.398010,424.259766 
	C164.808197,415.622589 162.331848,406.401123 160.415817,397.222198 
	C158.278275,386.981964 161.842026,377.977448 170.156876,371.617218 
	C183.789474,361.189331 199.226898,354.345856 216.114502,351.280426 
	C222.413528,350.137054 228.972672,350.426575 235.900864,350.472290 
	C246.626678,353.831482 251.603394,361.597778 255.251526,370.887909 
	C258.676453,379.609680 257.308441,387.239655 250.813156,393.745728 
	C246.961624,397.603668 242.595215,400.960876 238.357254,404.416809 
	C231.068024,410.360992 224.916428,416.982605 225.159790,427.192963 
	C225.454224,439.546326 220.878479,448.417847 208.263855,451.856995 
z"/>
<path fill="#7C0557" opacity="1.000000" stroke="none" 
	d="
M435.535950,339.893585 
	C445.385895,338.209991 454.102722,333.712585 461.979980,326.864532 
	C472.157501,318.016785 475.087036,307.072723 473.611755,294.219910 
	C471.855743,278.921844 469.806641,263.638916 472.877838,248.210526 
	C475.103088,237.031738 480.390137,227.679016 488.626312,220.012650 
	C497.907227,211.373779 504.523926,201.412506 506.339935,188.559677 
	C508.739960,171.572922 504.313812,156.675110 493.226074,143.690918 
	C484.892365,133.931778 474.388153,127.504326 462.240051,123.604027 
	C461.189636,123.266777 460.251556,122.579628 459.173584,121.737198 
	C477.974243,122.310638 495.398682,127.704330 510.709900,138.941620 
	C534.434021,156.353363 540.673462,189.683136 524.576111,213.089508 
	C521.493103,217.572357 517.580627,221.555786 513.677673,225.389832 
	C503.502502,235.385284 498.575989,247.730515 498.231537,261.635376 
	C497.964905,272.398285 498.424927,283.290131 499.815918,293.961182 
	C503.190887,319.852753 488.167999,340.280060 462.455048,343.203583 
	C458.284851,343.677704 453.910858,342.534912 449.650208,341.989716 
	C445.068848,341.403442 440.510101,340.640717 435.535950,339.893585 
z"/>
<path fill="#7D0658" opacity="1.000000" stroke="none" 
	d="
M197.716049,699.828247 
	C207.616211,698.221497 218.038757,697.117737 228.205994,694.862732 
	C249.988007,690.031738 269.889679,681.023621 286.435577,665.696838 
	C299.088593,653.976135 305.177704,638.733032 305.649536,621.995483 
	C306.705566,584.538818 297.517090,549.691895 274.902161,519.280334 
	C262.783539,502.983673 245.765350,494.395844 225.494003,491.399292 
	C247.063354,491.558441 268.530853,493.394318 286.881348,507.095673 
	C300.185547,517.029175 309.106171,530.393311 315.700714,545.337646 
	C324.486664,565.247925 330.137390,586.057983 331.754425,607.815308 
	C334.337555,642.571045 320.312256,668.010681 288.899048,683.692688 
	C264.924744,695.661011 239.587616,701.417664 212.837646,700.945190 
	C207.927505,700.858459 203.027420,700.202515 197.716049,699.828247 
z"/>
<path fill="#7C0557" opacity="1.000000" stroke="none" 
	d="
M462.978210,937.391479 
	C474.934021,932.975159 484.942047,924.984497 494.880310,917.003113 
	C504.689606,909.125244 516.475098,907.063171 528.238281,905.201050 
	C549.572998,901.823792 558.789734,885.167053 558.826660,866.359253 
	C558.888733,834.693237 548.926575,806.247070 527.655701,782.464661 
	C517.982300,771.649231 505.672577,764.357727 491.255188,760.303955 
	C533.723938,762.616821 563.920654,782.063293 579.925903,833.359253 
	C584.711548,848.696960 587.473633,864.520752 583.999146,880.591309 
	C580.671570,895.982239 571.453247,905.799133 555.571716,909.060730 
	C545.384827,911.152771 534.647156,911.706909 525.759644,918.106873 
	C520.088989,922.190369 514.580444,926.501343 508.864349,930.518372 
	C505.200165,933.093384 501.316193,935.361389 497.485474,937.692505 
	C488.781525,942.989441 479.706299,939.902222 470.731018,938.777893 
	C468.259125,938.468323 465.808411,937.989746 462.978210,937.391479 
z"/>
<path fill="#7D0658" opacity="1.000000" stroke="none" 
	d="
M717.708984,345.874908 
	C725.824585,342.848053 734.667114,340.437958 742.886841,336.669373 
	C759.460022,329.070862 773.669373,318.266541 784.148743,303.035645 
	C794.994019,287.272797 797.611267,269.516998 795.782043,251.071304 
	C793.614502,229.213486 786.739502,208.768127 773.560974,190.985458 
	C757.579468,169.420624 736.732727,155.766373 709.285278,153.710419 
	C707.141296,153.549820 705.023621,153.038895 702.634644,152.454407 
	C718.558777,150.001343 734.613464,150.466248 750.266724,155.412064 
	C775.422668,163.360321 793.379883,179.930084 805.284668,203.105194 
	C815.403687,222.804016 820.675415,243.706436 819.281616,266.071747 
	C817.829163,289.376678 806.962219,307.568817 788.842896,321.523651 
	C768.089050,337.507507 744.781128,346.655975 717.708984,345.874908 
z"/>
<path fill="#FFFEFF" opacity="1.000000" stroke="none" 
	d="
M763.366455,935.329651 
	C764.770020,932.664124 766.106323,930.361755 767.152283,927.934265 
	C770.661072,919.791077 779.104980,915.938782 787.157104,918.912048 
	C794.988892,921.803955 799.104614,930.041565 796.196960,938.458191 
	C791.129944,953.125244 782.188660,965.105957 769.812317,974.531189 
	C759.320312,982.521301 747.634338,987.952393 734.727173,990.422302 
	C730.956421,991.143982 726.720947,990.924377 722.982361,989.994507 
	C716.620178,988.412048 713.040222,983.136169 712.910767,976.768188 
	C712.753174,969.014709 715.827637,963.718933 722.341003,961.427307 
	C726.858093,959.838013 731.637817,959.002441 736.174377,957.459900 
	C747.809509,953.503662 756.556824,945.864502 763.366455,935.329651 
z"/>
<path fill="#FFFEFF" opacity="1.000000" stroke="none" 
	d="
M778.211304,393.196655 
	C788.031372,381.018616 799.835144,371.570648 812.438416,363.170868 
	C821.244141,357.302063 832.549500,363.292145 833.967651,374.157959 
	C834.848206,380.904480 833.075684,386.489746 827.145020,390.628693 
	C810.567566,402.197815 797.037231,416.609314 786.817932,434.150024 
	C783.605469,439.663940 778.564941,443.007660 771.819336,441.904816 
	C764.972168,440.785339 759.278259,437.389832 757.850708,430.208984 
	C757.171936,426.795074 757.715515,422.258209 759.534912,419.390900 
	C765.209717,410.447571 771.757507,402.058228 778.211304,393.196655 
z"/>
<path fill="#7D0657" opacity="1.000000" stroke="none" 
	d="
M208.710297,451.850586 
	C220.878479,448.417847 225.454224,439.546326 225.159790,427.192963 
	C224.916428,416.982605 231.068024,410.360992 238.357254,404.416809 
	C242.595215,400.960876 246.961624,397.603668 250.813156,393.745728 
	C257.308441,387.239655 258.676453,379.609680 255.251526,370.887909 
	C251.603394,361.597778 246.626678,353.831482 236.346558,350.563568 
	C244.416382,350.838043 252.533859,351.363617 260.638092,352.046417 
	C266.399872,352.531891 271.425537,354.869781 274.297455,359.981812 
	C277.442810,365.580566 280.585541,371.356659 282.466400,377.445618 
	C284.830414,385.098724 280.871277,391.401550 275.518951,396.568939 
	C271.826080,400.134186 267.710205,403.286865 263.619324,406.408936 
	C255.309631,412.750580 250.853378,420.674164 250.842773,431.498596 
	C250.828430,446.149902 242.338226,453.518280 227.578415,452.797852 
	C221.436981,452.498077 215.297241,452.163116 208.710297,451.850586 
z"/>
<path fill="#C82C71" opacity="1.000000" stroke="none" 
	d="
M496.098083,112.794861 
	C493.800293,112.550926 491.505402,112.273911 489.204102,112.069542 
	C483.379578,111.552269 481.847992,108.958893 485.714294,104.309372 
	C490.777832,98.220146 496.715607,92.843147 502.421021,87.307899 
	C505.994873,83.840622 509.740875,80.534584 513.575562,77.356453 
	C518.428345,73.334564 524.036499,71.769440 530.897583,73.277184 
	C532.008118,73.715721 532.534607,73.841156 533.061035,73.966583 
	C533.061035,73.966583 532.996582,73.983719 533.115723,74.276299 
	C533.568481,74.937584 533.841125,75.401001 534.244873,75.660866 
	C540.919922,79.957237 543.176453,86.343918 541.775574,93.735573 
	C540.317566,101.428459 535.805176,107.250488 527.880981,109.057571 
	C521.322327,110.553268 514.555481,111.185303 507.856323,111.997429 
	C503.961945,112.469543 500.019104,112.542358 496.098083,112.794861 
z"/>
<path fill="#7D0657" opacity="1.000000" stroke="none" 
	d="
M496.514252,112.863724 
	C500.019104,112.542358 503.961945,112.469543 507.856323,111.997429 
	C514.555481,111.185303 521.322327,110.553268 527.880981,109.057571 
	C535.805176,107.250488 540.317566,101.428459 541.775574,93.735573 
	C543.176453,86.343918 540.919922,79.957237 534.244873,75.660866 
	C533.841125,75.401001 533.568481,74.937584 533.123413,74.243851 
	C540.553284,74.763603 548.209412,75.060966 555.602051,76.613213 
	C562.454773,78.052078 567.559875,84.898659 568.042114,91.295898 
	C568.653687,99.408417 564.614502,107.666046 557.460571,110.588593 
	C552.163086,112.752754 546.306458,114.720543 540.697937,114.723091 
	C526.109009,114.729721 511.519623,113.605583 496.514252,112.863724 
z"/>
<path fill="#FFFEFE" opacity="1.000000" stroke="none" 
	d="
M203.030579,229.123322 
	C207.911240,238.799973 206.651764,245.075027 198.796616,251.930573 
	C197.047287,253.457321 195.507004,255.221054 193.795166,256.793732 
	C188.069504,262.054047 179.511063,262.281311 173.811005,257.367462 
	C167.441208,251.876236 165.592926,242.560196 170.642487,236.412949 
	C174.355637,231.892593 178.953354,227.690552 183.979782,224.756332 
	C190.907562,220.712128 197.400513,223.427490 203.030579,229.123322 
z"/>
<path fill="#FFFEFE" opacity="1.000000" stroke="none" 
	d="
M766.727661,485.735474 
	C775.179504,478.269989 785.339294,479.545135 791.130798,488.677734 
	C793.339722,492.161072 795.485840,495.781860 796.966919,499.608490 
	C799.918701,507.235382 796.550659,515.085571 789.171814,518.897339 
	C782.646179,522.268311 773.465942,519.802917 769.327087,513.388550 
	C767.353333,510.329803 765.611145,507.105591 763.966370,503.854034 
	C760.686035,497.369202 761.476257,491.368866 766.727661,485.735474 
z"/>
<path fill="#7F0859" opacity="1.000000" stroke="none" 
	d="
M294.527527,314.820190 
	C301.793823,313.843231 309.485107,313.101685 317.131531,312.037842 
	C326.611755,310.718872 336.022369,308.860077 345.522003,307.730072 
	C357.904175,306.257263 370.300934,305.868286 382.566010,310.555145 
	C370.015045,312.568909 357.111084,313.865723 344.416016,316.266724 
	C327.734283,319.421692 311.362427,317.610077 294.527527,314.820190 
z"/>
<path fill="#820B5B" opacity="1.000000" stroke="none" 
	d="
M379.525330,915.815979 
	C391.177063,913.547180 403.109985,913.359558 414.841827,918.300720 
	C403.272400,917.721008 391.602203,916.811279 379.525330,915.815979 
z"/>
<path fill="#FEEFF6" opacity="1.000000" stroke="none" 
	d="
M891.406128,551.416626 
	C902.081543,550.799438 913.070923,550.418335 924.494141,550.104980 
	C916.484802,550.906799 908.048889,551.748169 899.594360,552.310608 
	C896.995728,552.483459 894.346252,551.893494 891.406128,551.416626 
z"/>
<path fill="#FEF3F8" opacity="1.000000" stroke="none" 
	d="
M812.782837,458.319305 
	C813.048950,465.073700 813.020874,472.096222 812.931641,479.593201 
	C809.989685,472.956573 811.436279,465.768463 812.782837,458.319305 
z"/>
<path fill="#FEF3F8" opacity="1.000000" stroke="none" 
	d="
M813.965393,486.143188 
	C814.325623,486.914215 814.650696,488.060028 814.908203,489.589355 
	C814.537231,488.821259 814.233765,487.669647 813.965393,486.143188 
z"/>
<path fill="#FEF3F8" opacity="1.000000" stroke="none" 
	d="
M812.959961,481.155273 
	C813.333252,481.944885 813.666565,483.119659 813.938599,484.692291 
	C813.558289,483.906891 813.239136,482.723663 812.959961,481.155273 
z"/>
<path fill="#7D0657" opacity="1.000000" stroke="none" 
	d="
M532.966309,73.681168 
	C532.534607,73.841156 532.008118,73.715721 531.293335,73.391037 
	C531.693848,73.259773 532.282715,73.327766 532.966309,73.681168 
z"/>
<path fill="#FEFDFD" opacity="1.000000" stroke="none" 
	d="
M284.651215,216.343689 
	C288.740845,220.689606 289.738312,225.642761 289.014374,230.970001 
	C288.086121,237.800690 289.996185,243.660812 294.004120,249.196381 
	C299.820526,257.229706 298.641571,266.531433 291.511810,271.797760 
	C284.453735,277.011169 275.581421,275.543304 269.486877,268.023743 
	C259.852905,256.137238 256.776672,242.509064 258.015564,227.393646 
	C259.194550,213.008789 275.203979,207.498795 284.651215,216.343689 
z"/>
<path fill="#FEFCFD" opacity="1.000000" stroke="none" 
	d="
M305.158081,177.942932 
	C314.927002,178.097412 321.532074,185.025818 321.063843,194.147751 
	C320.641541,202.374176 312.174225,209.418762 303.403229,208.840836 
	C295.384888,208.312500 288.896149,200.110535 289.792297,191.636200 
	C290.526581,184.692505 296.577087,179.159836 305.158081,177.942932 
z"/>
<path fill="#FFFEFE" opacity="1.000000" stroke="none" 
	d="
M154.999176,592.802490 
	C153.334457,599.119324 151.005264,604.916626 150.167480,610.922058 
	C148.555893,622.474670 151.983643,632.835999 159.036560,642.204895 
	C164.062057,648.880615 163.240997,657.862061 157.759598,663.702942 
	C151.106796,670.792053 143.150833,670.777710 136.561951,663.664673 
	C117.513725,643.101379 113.155281,607.164490 126.720222,582.516541 
	C129.836380,576.854370 134.896652,574.200989 140.707672,575.182007 
	C147.794922,576.378601 154.034882,582.577698 154.947922,589.385132 
	C155.079681,590.367493 154.993652,591.378967 154.999176,592.802490 
z"/>
<path fill="#FFFDFE" opacity="1.000000" stroke="none" 
	d="
M197.284821,521.528564 
	C202.819122,525.539490 205.918137,530.608337 204.799301,537.090881 
	C203.706314,543.423767 199.365875,547.527222 193.463211,549.962646 
	C190.401566,551.225952 187.316162,552.446411 184.324402,553.861572 
	C175.452301,558.058105 166.313400,555.412659 162.079529,547.334412 
	C158.071625,539.687317 161.332718,530.504944 169.944794,526.108765 
	C174.360626,523.854675 179.064331,522.158386 183.661407,520.267090 
	C188.259323,518.375488 192.725418,518.595886 197.284821,521.528564 
z"/>
<path fill="#FFFDFE" opacity="1.000000" stroke="none" 
	d="
M342.533447,863.876526 
	C333.961731,859.042053 331.355469,853.308899 333.656281,844.141907 
	C339.984894,818.926819 356.333496,802.966309 380.349579,794.388367 
	C387.754425,791.743530 394.358978,795.198120 397.268036,802.544861 
	C400.696777,811.204041 397.484283,820.618774 389.217102,824.000916 
	C379.759033,827.870178 372.005219,833.425842 367.446289,842.730225 
	C365.925537,845.833862 364.812653,849.190796 363.923248,852.540771 
	C360.947876,863.747681 353.984741,867.620544 342.533447,863.876526 
z"/>
<path fill="#FFFEFE" opacity="1.000000" stroke="none" 
	d="
M672.191162,247.002991 
	C672.556091,250.067566 672.798096,252.724472 673.302734,255.330521 
	C674.543945,261.740601 672.421387,266.820770 667.209900,270.524261 
	C661.830994,274.346710 655.699036,275.944183 649.977173,272.158661 
	C646.953369,270.158173 644.019775,266.392700 643.218994,262.922516 
	C637.605042,238.595016 643.770691,217.152847 660.668091,198.906769 
	C666.776489,192.310852 674.855652,192.399612 681.538452,198.441010 
	C687.813721,204.113968 689.064087,213.445877 683.640259,219.563660 
	C676.714966,227.374908 672.904602,236.254150 672.191162,247.002991 
z"/>
</svg>