<svg version="1.1" id="Layer_1" xmlns="http://www.w3.org/2000/svg" xmlns:xlink="http://www.w3.org/1999/xlink" x="0px" y="0px"
	 width="100%" viewBox="0 0 1080 1080" enable-background="new 0 0 1080 1080" xml:space="preserve">
<path fill="#000000" opacity="1.000000" stroke="none" 
	d="
M570.000000,1081.000000 
	C380.021881,1081.000000 190.543732,1081.000000 1.032801,1081.000000 
	C1.032801,721.063416 1.032801,361.126831 1.032801,1.095114 
	C360.895050,1.095114 720.790100,1.095114 1080.842529,1.095114 
	C1080.842529,360.999939 1080.842529,720.999939 1080.842529,1081.000000 
	C910.793030,1081.000000 740.646545,1081.000000 570.000000,1081.000000 
M629.419617,768.948425 
	C629.777344,768.805237 629.904419,768.548279 629.981567,767.372559 
	C630.155457,766.584900 630.209167,765.745789 630.521057,765.017212 
	C636.206665,751.735535 638.630249,737.766418 636.811829,723.553955 
	C634.619690,706.420776 628.390869,690.401123 621.127991,674.729126 
	C617.905029,667.774719 616.184814,660.123840 613.787659,652.383911 
	C613.621094,652.167236 613.406372,652.021606 613.123291,651.863953 
	C613.123291,651.863953 613.042725,651.835571 612.960205,650.958008 
	C613.003418,641.332581 613.046692,631.707153 613.000000,622.000000 
	C613.000000,622.000000 613.089905,622.080322 613.466736,621.908508 
	C613.773987,621.769958 613.879517,621.538818 613.974731,620.374878 
	C614.530273,617.851074 614.648132,615.123474 615.712952,612.836792 
	C622.222656,598.858154 628.491516,584.738098 635.706970,571.124268 
	C646.463928,550.828552 657.543457,530.680176 669.213135,510.898163 
	C682.515381,488.348724 693.047607,464.626862 700.974976,439.772827 
	C709.576904,412.803589 717.710510,385.681122 725.711792,358.526306 
	C728.356262,349.551361 729.954895,340.268280 732.742859,331.287781 
	C739.162781,346.257874 744.930664,361.551575 752.160583,376.119659 
	C762.187256,396.323181 772.791504,416.284515 784.131409,435.777740 
	C793.233276,451.423859 803.688965,466.330688 816.709290,479.117432 
	C824.709595,486.974274 832.704712,494.931702 841.440063,501.921906 
	C853.787537,511.802673 867.668518,517.609863 883.967346,519.419434 
	C902.895020,521.520874 919.428040,517.315186 935.520569,508.141815 
	C944.107117,503.247131 949.956726,494.248993 960.932190,492.074219 
	C963.930481,489.933441 967.945251,488.418274 969.724670,485.527283 
	C973.986206,478.603485 979.026855,471.353088 980.376831,463.643372 
	C982.144043,453.550690 988.112000,449.778442 995.962036,445.281342 
	C1007.699768,438.557098 1018.789246,430.487823 1029.347290,421.988068 
	C1037.229858,415.642120 1045.314941,408.664612 1050.710938,400.293243 
	C1062.767944,381.588348 1068.534302,360.488007 1069.836548,337.705322 
	C1069.903564,327.749481 1069.990356,317.793671 1069.993652,307.837830 
	C1069.993896,307.176056 1069.360840,306.514099 1069.033936,304.963776 
	C1066.927734,293.984772 1065.666748,282.754059 1062.491821,272.093323 
	C1058.889404,259.996735 1053.043945,248.651245 1045.042969,238.706665 
	C1037.060059,228.784424 1027.312378,220.601379 1015.394897,216.246628 
	C999.659546,210.496750 983.065247,209.517319 966.385376,210.999405 
	C963.307129,211.272934 960.163513,211.510178 957.206116,212.328140 
	C941.235779,216.745193 925.365417,221.529266 909.360291,225.812393 
	C896.892029,229.149017 884.345215,232.269180 871.705505,234.862930 
	C862.167358,236.820236 852.427002,237.792877 841.913208,239.086655 
	C834.273315,239.782074 826.633362,240.477509 818.068970,241.013321 
	C797.736877,240.730286 777.404846,240.447250 756.301575,239.984329 
	C755.246704,239.972549 754.191833,239.960785 752.731140,239.194290 
	C750.118469,238.944946 747.317078,239.216766 744.927490,238.351395 
	C736.799316,235.407822 728.598999,232.513199 720.830750,228.762222 
	C710.103882,223.582687 699.556946,217.960953 689.287537,211.925354 
	C681.207886,207.176743 673.596130,201.613739 665.897156,196.239609 
	C647.607422,183.472870 627.225159,175.105240 606.287109,168.003372 
	C600.001038,165.871246 593.394165,164.443222 586.819763,163.452652 
	C572.989319,161.368744 559.126587,159.217712 545.196228,158.151031 
	C529.249390,156.929977 513.354736,158.339157 497.686157,161.938889 
	C479.982574,166.006119 462.694031,171.153061 446.146637,178.840942 
	C426.675903,187.887009 409.335938,200.322891 391.305023,211.721573 
	C380.094238,218.808746 367.729828,224.051804 356.014923,230.366928 
	C346.595795,235.444489 336.776093,238.851532 325.361908,239.167206 
	C324.834198,239.512878 324.306458,239.858566 322.893585,240.088959 
	C317.169586,240.383499 311.443848,240.957901 305.721954,240.921448 
	C286.554840,240.799423 267.389069,240.459213 247.324356,239.997452 
	C239.746857,238.997803 232.121857,238.267059 224.602448,236.938599 
	C211.709686,234.660812 198.741592,232.571732 186.061188,229.384705 
	C166.467133,224.460037 147.228714,218.080780 127.569740,213.467926 
	C114.421677,210.382812 100.982948,209.183075 87.166405,210.761765 
	C65.488998,213.238617 48.364639,223.362335 35.528076,240.090942 
	C20.452410,259.737579 13.741068,283.019653 12.211901,307.438812 
	C11.121454,324.852051 10.998869,342.463745 15.037978,359.685699 
	C18.235096,373.317596 21.429804,387.233978 30.081976,398.496063 
	C36.814140,407.258942 44.863583,415.168243 53.134659,422.552948 
	C65.285927,433.402008 78.806839,442.479462 93.702660,449.265839 
	C96.998619,450.767426 98.021652,453.121948 99.141983,456.348267 
	C102.134521,464.966156 105.177071,473.705627 109.542519,481.659882 
	C112.547348,487.134918 117.014587,492.561310 125.096481,492.663300 
	C127.226540,494.113800 129.647858,495.273193 131.437439,497.063965 
	C140.289429,505.921661 150.906433,511.793060 162.549927,516.011902 
	C172.836304,519.739075 183.565689,518.691772 194.192245,519.078613 
	C204.240738,519.444397 213.461746,516.703857 222.177139,512.303101 
	C237.618866,504.506042 251.487167,494.467896 262.470825,480.947327 
	C272.381500,468.747620 282.483032,456.639191 291.461945,443.766174 
	C298.864014,433.153839 305.258728,421.744965 311.185608,410.218933 
	C320.856659,391.411591 329.835297,372.246399 338.997467,353.179993 
	C342.482819,345.926941 345.668030,338.529663 348.983154,332.012329 
	C348.988861,332.512024 348.885254,333.042419 349.015900,333.506989 
	C356.613525,360.521484 363.919861,387.623047 371.927399,414.515778 
	C381.139923,445.455505 392.143921,475.682129 408.725525,503.663147 
	C417.982697,519.284363 426.378784,535.420593 435.000641,551.412231 
	C443.868652,567.860413 453.092438,584.153870 461.060730,601.034241 
	C464.986694,609.351196 467.563385,618.694641 468.730591,627.831604 
	C470.420441,641.060303 468.639130,654.254944 463.612854,666.881653 
	C456.792694,684.014709 447.970123,700.466187 445.425415,719.092041 
	C443.937012,729.986145 442.884735,740.760559 446.694000,751.566406 
	C450.221283,761.572266 453.626251,771.717041 455.849640,782.066040 
	C460.036560,801.554932 463.562195,821.195740 466.939941,840.846008 
	C470.545593,861.821777 473.943939,882.841980 476.905151,903.916992 
	C479.336243,921.218994 481.000000,938.628906 482.988464,955.992798 
	C483.276489,958.507568 483.922363,960.290466 487.152863,960.064148 
	C491.464783,959.762207 495.808807,959.918640 500.779114,960.025146 
	C501.209229,959.960266 501.639343,959.895386 502.686493,959.926758 
	C503.100433,959.895081 503.514343,959.863403 504.383270,960.002380 
	C504.383270,960.002380 504.868744,960.023743 505.283386,960.813171 
	C535.361633,960.871155 565.439941,960.933350 595.518188,960.945251 
	C595.963318,960.945435 596.408752,960.319885 597.022705,959.169128 
	C597.348022,957.927429 597.821228,956.703796 597.974915,955.441223 
	C599.040588,946.685059 599.961182,937.910828 601.081665,929.162048 
	C602.301453,919.637024 603.697266,910.134766 604.997131,900.619934 
	C606.032532,893.040710 606.914673,885.438232 608.089172,877.880981 
	C609.610229,868.094604 611.348267,858.341919 613.003662,848.576477 
	C614.847534,837.699158 616.651550,826.814697 618.571289,815.950684 
	C619.978088,807.988892 621.543457,800.055237 623.720398,791.819458 
	C623.775879,790.841858 623.831360,789.864319 624.053284,788.599121 
	C624.053284,788.599121 623.984802,788.273865 624.655823,787.882446 
	C624.736938,786.869202 624.818054,785.855957 625.060669,784.591003 
	C625.060669,784.591003 624.979187,784.303223 625.644714,783.893127 
	C625.729675,782.875610 625.814575,781.858032 626.060974,780.590820 
	C626.060974,780.590820 625.978577,780.305115 626.642212,779.895935 
	C626.726379,778.882751 626.810547,777.869507 627.057922,776.590332 
	C627.057922,776.590332 626.982544,776.287537 627.672791,775.867615 
	C628.161682,773.573181 628.650574,771.278809 629.005127,768.954468 
	C629.005127,768.954468 628.965820,769.086304 629.419617,768.948425 
z"/>
<path fill="#E34088" opacity="1.000000" stroke="none" 
	d="
M502.069458,959.830505 
	C501.639343,959.895386 501.209229,959.960266 500.447998,959.491028 
	C499.428955,942.516968 498.967010,926.063660 497.992188,909.640747 
	C496.930664,891.756409 496.050781,873.821533 493.922943,856.048645 
	C489.808563,821.682617 482.402069,787.987854 470.647797,755.346313 
	C467.966400,747.900146 466.879578,740.346191 467.960510,732.419556 
	C469.348755,722.239197 476.253357,713.642334 485.344910,711.350708 
	C492.625061,709.515625 496.412903,711.454468 498.991150,718.325928 
	C499.808990,720.505676 500.574951,722.708313 501.484528,724.849548 
	C505.342255,733.931091 511.581268,740.882568 520.469177,745.214905 
	C526.587280,748.197021 530.869995,746.671326 534.112732,740.665649 
	C534.969543,739.078674 535.741211,737.322815 536.011902,735.561462 
	C538.515869,719.271179 536.605774,703.078247 534.411377,686.955994 
	C532.714661,674.490417 528.913818,662.357300 529.837891,649.495056 
	C531.146790,631.274780 532.462097,613.019165 532.631775,594.768005 
	C532.716858,585.613159 530.776001,576.328918 528.867310,567.289856 
	C525.305054,550.420410 520.106384,534.147278 508.229736,520.889771 
	C490.910919,501.557404 481.188690,478.452118 474.948669,453.619843 
	C467.459534,423.816742 466.558807,393.232574 463.950012,362.837494 
	C462.617920,347.317383 461.233002,331.750336 458.704498,316.396759 
	C455.095154,294.480530 442.203125,279.490479 421.669983,271.046326 
	C403.708130,263.659576 384.830444,261.126068 365.627136,261.119080 
	C354.360748,261.114990 343.097382,262.367706 331.823456,262.831024 
	C330.208679,262.897369 328.541962,261.699097 326.977966,260.689117 
	C327.406555,257.969574 327.756500,255.647034 328.536499,253.267090 
	C339.268646,251.481186 349.523163,249.357147 359.883392,248.113464 
	C376.999237,246.058792 394.188202,244.619263 411.337372,242.834183 
	C432.156006,240.667130 452.940369,241.793747 473.380981,245.507629 
	C496.350739,249.681046 519.322876,252.254807 542.666931,252.163132 
	C559.652344,252.096436 576.480286,251.101318 593.268372,248.279312 
	C606.980591,245.974365 620.830139,243.826782 634.688721,243.227859 
	C650.443237,242.546982 666.306213,243.171906 682.064392,244.154526 
	C694.943481,244.957657 707.767456,246.913574 720.560669,248.744156 
	C731.389832,250.293716 742.140015,252.395889 752.935913,254.641083 
	C753.273193,257.661438 753.599609,260.294250 753.477539,262.951477 
	C736.959229,262.640350 720.890686,262.175507 704.819092,262.007294 
	C690.186584,261.854126 676.081970,265.061157 662.462219,270.105591 
	C639.807922,278.496277 624.858398,293.804932 622.108887,318.610626 
	C619.058594,346.129883 616.900818,373.747223 613.964844,401.280334 
	C612.401917,415.937225 610.602783,430.617004 607.872986,445.090820 
	C602.905212,471.429688 593.272400,496.096436 576.107605,516.914917 
	C564.916687,530.488037 556.787292,545.122253 553.436951,562.302124 
	C551.379944,572.850159 548.572815,583.493347 548.449219,594.121094 
	C548.256592,610.682739 549.572998,627.313843 551.146423,643.830139 
	C552.838867,661.596313 546.523010,678.322205 545.616089,695.696472 
	C544.992737,707.638367 544.041565,719.598694 544.248230,731.533203 
	C544.348938,737.346497 545.846985,744.090149 552.402893,746.416443 
	C558.669800,748.640259 563.439697,744.357483 567.920105,740.530823 
	C574.288086,735.092285 578.597656,728.371643 581.119019,720.338318 
	C583.405640,713.052429 586.505859,710.476746 592.193726,711.082458 
	C598.319824,711.734924 603.550293,714.176086 607.379272,719.485352 
	C613.508606,727.984192 614.635437,737.539795 612.281982,747.105469 
	C609.230042,759.510437 604.503296,771.493103 601.106873,783.825439 
	C589.914917,824.464294 583.525085,865.864624 582.060425,908.017029 
	C581.460144,925.293152 580.621155,942.560974 579.432373,959.879761 
	C554.272217,959.959229 529.570496,959.991455 504.868744,960.023743 
	C504.868744,960.023743 504.383270,960.002380 504.009094,959.740234 
	C503.113098,959.595520 502.591278,959.713013 502.069458,959.830505 
z"/>
<path fill="#EE8CB8" opacity="1.000000" stroke="none" 
	d="
M579.890747,959.832581 
	C580.621155,942.560974 581.460144,925.293152 582.060425,908.017029 
	C583.525085,865.864624 589.914917,824.464294 601.106873,783.825439 
	C604.503296,771.493103 609.230042,759.510437 612.281982,747.105469 
	C614.635437,737.539795 613.508606,727.984192 607.379272,719.485352 
	C603.550293,714.176086 598.319824,711.734924 592.193726,711.082458 
	C586.505859,710.476746 583.405640,713.052429 581.119019,720.338318 
	C578.597656,728.371643 574.288086,735.092285 567.920105,740.530823 
	C563.439697,744.357483 558.669800,748.640259 552.402893,746.416443 
	C545.846985,744.090149 544.348938,737.346497 544.248230,731.533203 
	C544.041565,719.598694 544.992737,707.638367 545.616089,695.696472 
	C546.523010,678.322205 552.838867,661.596313 551.146423,643.830139 
	C549.572998,627.313843 548.256592,610.682739 548.449219,594.121094 
	C548.572815,583.493347 551.379944,572.850159 553.436951,562.302124 
	C556.787292,545.122253 564.916687,530.488037 576.107605,516.914917 
	C593.272400,496.096436 602.905212,471.429688 607.872986,445.090820 
	C610.602783,430.617004 612.401917,415.937225 613.964844,401.280334 
	C616.900818,373.747223 619.058594,346.129883 622.108887,318.610626 
	C624.858398,293.804932 639.807922,278.496277 662.462219,270.105591 
	C676.081970,265.061157 690.186584,261.854126 704.819092,262.007294 
	C720.890686,262.175507 736.959229,262.640350 753.766846,263.213318 
	C755.341492,267.611115 756.178345,271.771545 756.556030,275.960449 
	C752.391541,276.353302 748.686096,276.717651 744.992554,277.034058 
	C745.004333,276.986115 745.100769,277.007233 744.774658,277.114197 
	C744.302063,277.874084 744.155640,278.526978 744.015808,279.598450 
	C743.046570,284.358551 742.070740,288.700104 740.789551,293.286377 
	C740.321228,295.111877 740.158325,296.692627 740.022644,298.435181 
	C740.049927,298.597015 739.891174,298.884277 739.599670,299.118652 
	C736.882629,309.944031 734.457153,320.535034 732.031677,331.126068 
	C729.954895,340.268280 728.356262,349.551361 725.711792,358.526306 
	C717.710510,385.681122 709.576904,412.803589 700.974976,439.772827 
	C693.047607,464.626862 682.515381,488.348724 669.213135,510.898163 
	C657.543457,530.680176 646.463928,550.828552 635.706970,571.124268 
	C628.491516,584.738098 622.222656,598.858154 615.712952,612.836792 
	C614.648132,615.123474 614.530273,617.851074 613.736450,620.916138 
	C613.426575,621.707275 613.290466,621.914917 613.089905,622.080322 
	C613.089905,622.080322 613.000000,622.000000 612.747009,622.290894 
	C612.106079,625.018372 611.293701,627.475281 611.409546,629.887695 
	C611.761292,637.212891 612.471863,644.520874 613.042725,651.835571 
	C613.042725,651.835571 613.123291,651.863953 613.241150,652.041748 
	C613.416931,652.471191 613.558044,652.661011 613.782471,652.789124 
	C616.184814,660.123840 617.905029,667.774719 621.127991,674.729126 
	C628.390869,690.401123 634.619690,706.420776 636.811829,723.553955 
	C638.630249,737.766418 636.206665,751.735535 630.521057,765.017212 
	C630.209167,765.745789 630.155457,766.584900 629.723267,767.897827 
	C629.373291,768.700378 629.206909,768.921448 628.965820,769.086304 
	C628.965820,769.086304 629.005127,768.954468 628.739868,769.160889 
	C627.977295,771.674072 627.479919,773.980835 626.982544,776.287537 
	C626.982544,776.287537 627.057922,776.590332 626.686462,776.968994 
	C626.202881,778.333435 626.090759,779.319275 625.978577,780.305115 
	C625.978577,780.305115 626.060974,780.590820 625.686890,780.960632 
	C625.201538,782.321350 625.090393,783.312317 624.979187,784.303223 
	C624.979187,784.303223 625.060669,784.591003 624.688416,784.958862 
	C624.205750,786.309082 624.095276,787.291504 623.984802,788.273865 
	C623.984802,788.273865 624.053284,788.599121 623.696655,788.972900 
	C623.239380,790.267395 623.138733,791.188232 623.038086,792.109009 
	C621.543457,800.055237 619.978088,807.988892 618.571289,815.950684 
	C616.651550,826.814697 614.847534,837.699158 613.003662,848.576477 
	C611.348267,858.341919 609.610229,868.094604 608.089172,877.880981 
	C606.914673,885.438232 606.032532,893.040710 604.997131,900.619934 
	C603.697266,910.134766 602.301453,919.637024 601.081665,929.162048 
	C599.961182,937.910828 599.040588,946.685059 597.974915,955.441223 
	C597.821228,956.703796 597.348022,957.927429 596.480225,959.579224 
	C590.588806,959.937134 585.239746,959.884827 579.890747,959.832581 
z"/>
<path fill="#EE8CB8" opacity="1.000000" stroke="none" 
	d="
M326.899261,261.086090 
	C328.541962,261.699097 330.208679,262.897369 331.823456,262.831024 
	C343.097382,262.367706 354.360748,261.114990 365.627136,261.119080 
	C384.830444,261.126068 403.708130,263.659576 421.669983,271.046326 
	C442.203125,279.490479 455.095154,294.480530 458.704498,316.396759 
	C461.233002,331.750336 462.617920,347.317383 463.950012,362.837494 
	C466.558807,393.232574 467.459534,423.816742 474.948669,453.619843 
	C481.188690,478.452118 490.910919,501.557404 508.229736,520.889771 
	C520.106384,534.147278 525.305054,550.420410 528.867310,567.289856 
	C530.776001,576.328918 532.716858,585.613159 532.631775,594.768005 
	C532.462097,613.019165 531.146790,631.274780 529.837891,649.495056 
	C528.913818,662.357300 532.714661,674.490417 534.411377,686.955994 
	C536.605774,703.078247 538.515869,719.271179 536.011902,735.561462 
	C535.741211,737.322815 534.969543,739.078674 534.112732,740.665649 
	C530.869995,746.671326 526.587280,748.197021 520.469177,745.214905 
	C511.581268,740.882568 505.342255,733.931091 501.484528,724.849548 
	C500.574951,722.708313 499.808990,720.505676 498.991150,718.325928 
	C496.412903,711.454468 492.625061,709.515625 485.344910,711.350708 
	C476.253357,713.642334 469.348755,722.239197 467.960510,732.419556 
	C466.879578,740.346191 467.966400,747.900146 470.647797,755.346313 
	C482.402069,787.987854 489.808563,821.682617 493.922943,856.048645 
	C496.050781,873.821533 496.930664,891.756409 497.992188,909.640747 
	C498.967010,926.063660 499.428955,942.516968 500.127930,959.417542 
	C495.808807,959.918640 491.464783,959.762207 487.152863,960.064148 
	C483.922363,960.290466 483.276489,958.507568 482.988464,955.992798 
	C481.000000,938.628906 479.336243,921.218994 476.905151,903.916992 
	C473.943939,882.841980 470.545593,861.821777 466.939941,840.846008 
	C463.562195,821.195740 460.036560,801.554932 455.849640,782.066040 
	C453.626251,771.717041 450.221283,761.572266 446.694000,751.566406 
	C442.884735,740.760559 443.937012,729.986145 445.425415,719.092041 
	C447.970123,700.466187 456.792694,684.014709 463.612854,666.881653 
	C468.639130,654.254944 470.420441,641.060303 468.730591,627.831604 
	C467.563385,618.694641 464.986694,609.351196 461.060730,601.034241 
	C453.092438,584.153870 443.868652,567.860413 435.000641,551.412231 
	C426.378784,535.420593 417.982697,519.284363 408.725525,503.663147 
	C392.143921,475.682129 381.139923,445.455505 371.927399,414.515778 
	C363.919861,387.623047 356.613525,360.521484 349.015900,333.506989 
	C348.885254,333.042419 348.988861,332.512024 349.030701,331.170837 
	C346.437622,319.219818 343.796997,308.110291 340.974091,296.643555 
	C339.138275,289.486664 337.484711,282.686981 336.063538,276.842896 
	C331.427216,276.842896 327.714294,276.842896 324.010590,276.441650 
	C324.979614,271.055634 325.939453,266.070862 326.899261,261.086090 
z"/>
<path fill="#EE8DB8" opacity="1.000000" stroke="none" 
	d="
M752.925171,254.253510 
	C742.140015,252.395889 731.389832,250.293716 720.560669,248.744156 
	C707.767456,246.913574 694.943481,244.957657 682.064392,244.154526 
	C666.306213,243.171906 650.443237,242.546982 634.688721,243.227859 
	C620.830139,243.826782 606.980591,245.974365 593.268372,248.279312 
	C576.480286,251.101318 559.652344,252.096436 542.666931,252.163132 
	C519.322876,252.254807 496.350739,249.681046 473.380981,245.507629 
	C452.940369,241.793747 432.156006,240.667130 411.337372,242.834183 
	C394.188202,244.619263 376.999237,246.058792 359.883392,248.113464 
	C349.523163,249.357147 339.268646,251.481186 328.495422,252.805756 
	C328.460419,248.407852 328.896637,244.413895 329.316711,240.567825 
	C328.027496,240.010574 327.013153,239.572128 325.998810,239.133682 
	C336.776093,238.851532 346.595795,235.444489 356.014923,230.366928 
	C367.729828,224.051804 380.094238,218.808746 391.305023,211.721573 
	C409.335938,200.322891 426.675903,187.887009 446.146637,178.840942 
	C462.694031,171.153061 479.982574,166.006119 497.686157,161.938889 
	C513.354736,158.339157 529.249390,156.929977 545.196228,158.151031 
	C559.126587,159.217712 572.989319,161.368744 586.819763,163.452652 
	C593.394165,164.443222 600.001038,165.871246 606.287109,168.003372 
	C627.225159,175.105240 647.607422,183.472870 665.897156,196.239609 
	C673.596130,201.613739 681.207886,207.176743 689.287537,211.925354 
	C699.556946,217.960953 710.103882,223.582687 720.830750,228.762222 
	C728.598999,232.513199 736.799316,235.407822 744.927490,238.351395 
	C747.317078,239.216766 750.118469,238.944946 752.629211,239.838196 
	C752.659912,245.072586 752.792542,249.663040 752.925171,254.253510 
z"/>
<path fill="#EB7BAD" opacity="1.000000" stroke="none" 
	d="
M752.935974,254.641083 
	C752.792542,249.663040 752.659912,245.072586 752.832153,240.215576 
	C754.191833,239.960785 755.246704,239.972549 756.999146,240.312103 
	C778.078491,243.493103 798.513733,243.582336 819.420410,241.871658 
	C827.496338,241.014267 835.136475,240.109009 842.776672,239.203766 
	C852.427002,237.792877 862.167358,236.820236 871.705505,234.862930 
	C884.345215,232.269180 896.892029,229.149017 909.360291,225.812393 
	C925.365417,221.529266 941.235779,216.745193 957.206116,212.328140 
	C960.163513,211.510178 963.307129,211.272934 966.385376,210.999405 
	C983.065247,209.517319 999.659546,210.496750 1015.394897,216.246628 
	C1027.312378,220.601379 1037.060059,228.784424 1045.042969,238.706665 
	C1053.043945,248.651245 1058.889404,259.996735 1062.491821,272.093323 
	C1065.666748,282.754059 1066.927734,293.984772 1068.981689,305.884613 
	C1068.966919,317.237946 1069.004272,327.670471 1069.041748,338.102966 
	C1068.534302,360.488007 1062.767944,381.588348 1050.710938,400.293243 
	C1045.314941,408.664612 1037.229858,415.642120 1029.347290,421.988068 
	C1018.789246,430.487823 1007.699768,438.557098 995.962036,445.281342 
	C988.112000,449.778442 982.144043,453.550690 980.376831,463.643372 
	C979.026855,471.353088 973.986206,478.603485 969.724670,485.527283 
	C967.945251,488.418274 963.930481,489.933441 960.114380,492.011810 
	C958.464478,491.963379 957.632324,491.985626 956.800110,491.990082 
	C948.344788,492.035339 946.523804,489.297516 950.128357,481.693207 
	C952.265381,477.184845 954.820923,472.867523 956.805481,468.298035 
	C957.500000,466.698883 957.049561,464.602448 957.122070,462.733093 
	C955.106812,462.834869 952.933289,462.490326 951.110962,463.136322 
	C947.851379,464.291870 944.882996,466.252502 941.645203,467.490387 
	C938.210388,468.803558 935.584595,467.378052 933.588257,464.358765 
	C931.620239,461.382477 931.896790,458.680511 934.313171,456.255890 
	C936.063721,454.499329 938.122559,453.054077 939.933899,451.352844 
	C941.711304,449.683472 943.349792,447.866119 945.049194,446.113678 
	C944.705933,445.621338 944.362732,445.128998 944.019531,444.636658 
	C942.048767,445.204163 940.029968,445.644897 938.118591,446.369232 
	C935.328735,447.426422 932.697266,449.012085 929.836975,449.727173 
	C928.362549,450.095825 925.616455,449.551544 925.098389,448.557831 
	C924.387024,447.193268 924.666748,444.635590 925.558594,443.262817 
	C927.068848,440.938354 929.463379,439.206055 931.343567,437.097687 
	C932.451111,435.855743 933.284119,434.369019 934.240601,432.992401 
	C933.982666,432.565857 933.724670,432.139343 933.466736,431.712799 
	C930.825684,432.246033 928.117737,432.565002 925.559875,433.364380 
	C922.023926,434.469421 918.917969,434.403809 916.749390,431.029480 
	C914.555176,427.615265 915.305664,424.462311 917.896484,421.490967 
	C918.797119,420.458130 919.293274,419.072601 919.993652,417.887177 
	C920.013000,417.926178 919.926575,417.937439 920.289551,418.039368 
	C921.109009,417.613861 921.565491,417.086487 922.211182,416.272583 
	C931.586243,411.363739 941.046692,408.590790 951.586670,409.907074 
	C961.148560,411.101227 969.304077,414.210785 974.870728,423.742249 
	C986.627869,414.354065 998.099670,405.193695 1009.891602,395.940735 
	C1010.472351,395.537170 1010.732910,395.226196 1010.989014,394.951508 
	C1010.984680,394.987823 1010.913025,394.973297 1011.216919,394.960022 
	C1011.670959,394.602753 1011.821167,394.258789 1011.978210,393.950104 
	C1011.985046,393.985352 1011.914795,393.970184 1012.223022,393.966583 
	C1012.676941,393.614075 1012.822632,393.265137 1012.977173,392.951111 
	C1012.986023,392.986023 1012.916260,392.968231 1013.227478,392.970764 
	C1013.680786,392.620605 1013.822815,392.267883 1013.975220,391.950317 
	C1013.985535,391.985474 1013.915222,391.964966 1014.229126,391.975098 
	C1014.683167,391.628418 1014.823364,391.271637 1014.974487,390.950134 
	C1014.985413,390.985382 1014.914856,390.963593 1015.230103,390.976959 
	C1015.684326,390.631744 1015.823303,390.273132 1015.973816,389.949982 
	C1015.985352,389.985413 1015.914673,389.961945 1016.231750,389.980011 
	C1016.686462,389.636932 1016.824158,389.275787 1016.973633,388.950073 
	C1016.985535,388.985474 1016.914673,388.961761 1017.232056,388.980286 
	C1017.686707,388.637421 1017.824036,388.276001 1017.973511,387.950073 
	C1017.985657,387.985565 1017.914795,387.960999 1018.233398,387.982117 
	C1018.688232,387.640411 1018.824463,387.277588 1018.973267,386.950256 
	C1018.985779,386.985779 1018.914795,386.960449 1019.234131,386.983337 
	C1019.689087,386.642395 1019.824646,386.278595 1019.973022,385.950348 
	C1019.985901,385.985901 1019.914856,385.959991 1020.234924,385.984375 
	C1020.689941,385.644165 1020.824890,385.279510 1020.972900,384.950378 
	C1020.986023,384.985901 1020.914978,384.959564 1021.235596,384.985382 
	C1021.690552,384.645782 1021.824951,384.280334 1021.972778,383.950500 
	C1021.986145,383.986084 1021.914978,383.959412 1022.235779,383.985718 
	C1022.690857,383.646301 1022.825073,383.280640 1022.972595,382.952698 
	C1022.985840,382.990448 1022.918335,382.947449 1023.286011,383.041016 
	C1024.414795,381.732544 1025.175781,380.330475 1025.964966,378.959717 
	C1025.993042,378.990997 1025.914551,378.960785 1026.227539,378.981323 
	C1026.683838,378.639496 1026.827026,378.277161 1026.977295,377.950378 
	C1026.984375,377.985901 1026.911865,377.987915 1027.247925,377.909485 
	C1027.705078,377.195282 1027.826172,376.559448 1027.965332,375.955872 
	C1027.983643,375.988098 1027.909912,375.980774 1028.254395,375.923035 
	C1028.715332,375.217896 1028.831787,374.570496 1028.965820,373.955383 
	C1028.983398,373.987671 1028.910034,373.981476 1029.252197,373.921936 
	C1029.713013,373.215485 1029.831787,372.568542 1029.966797,371.954163 
	C1029.983276,371.986664 1029.910522,371.983368 1030.249023,371.918457 
	C1030.709839,371.207520 1030.832031,370.561493 1030.968994,369.948547 
	C1030.983887,369.981598 1030.913086,369.996704 1031.233887,369.887695 
	C1031.695923,369.138000 1031.837280,368.497345 1031.979492,367.459839 
	C1033.388184,361.304718 1034.796143,355.546478 1036.359131,349.652740 
	C1036.549316,349.192566 1036.727295,348.997070 1037.027832,348.989502 
	C1037.007690,349.048309 1036.886841,349.019958 1037.187012,348.764099 
	C1038.266968,337.142914 1039.397705,325.785614 1039.660034,314.408325 
	C1039.770386,309.629547 1038.044067,304.808411 1037.077148,299.604858 
	C1034.232300,288.069824 1031.768066,276.821991 1024.969238,266.872559 
	C1024.603394,266.378601 1024.258789,266.204681 1023.949707,266.022766 
	C1023.985046,266.014801 1023.965393,266.084656 1023.974976,265.768188 
	C1023.627747,265.314697 1023.271057,265.177673 1022.954956,265.024841 
	C1022.995544,265.009064 1022.932800,265.069611 1023.087158,264.745667 
	C1022.797974,263.952118 1022.354431,263.482483 1021.947021,263.013000 
	C1021.983154,263.013153 1021.969055,263.084076 1021.968994,262.772430 
	C1021.617554,262.319550 1021.266174,262.178314 1020.950073,262.025848 
	C1020.985474,262.014648 1020.962708,262.085236 1020.978760,261.768158 
	C1020.634705,261.313751 1020.274597,261.176422 1019.950073,261.026611 
	C1019.985718,261.014191 1019.959595,261.084991 1019.985535,260.763428 
	C1019.645996,260.308472 1019.280457,260.175140 1018.950806,260.027649 
	C1018.986572,260.013489 1018.957764,260.084839 1018.989502,259.761627 
	C1018.652527,259.306366 1018.283813,259.174316 1017.950806,259.027893 
	C1017.986450,259.013550 1017.958191,259.085022 1017.988037,258.763733 
	C1017.650269,258.308380 1017.282654,258.174316 1016.950500,258.027191 
	C1016.985962,258.014130 1016.960571,258.085297 1016.982666,257.766479 
	C1016.641418,257.311554 1016.278015,257.175446 1015.950073,257.026978 
	C1015.985474,257.014557 1015.961487,257.085602 1015.979736,256.770935 
	C1015.637085,256.315613 1015.276245,256.174988 1014.951172,256.025391 
	C1014.986938,256.016449 1014.961243,256.085602 1014.992493,255.711853 
	C1013.992126,254.913788 1012.960571,254.489502 1011.960144,254.035187 
	C1011.991333,254.005173 1011.959167,254.085510 1011.984619,253.768127 
	C1011.645142,253.312408 1011.280151,253.174088 1010.951111,253.025696 
	C1010.987061,253.015625 1010.958923,253.084778 1010.999878,252.716370 
	C1010.001099,251.915527 1008.961365,251.483078 1007.953979,251.033569 
	C1007.986206,251.016510 1007.983215,251.089417 1007.918823,250.748230 
	C1007.210388,250.288330 1006.566345,250.169632 1005.954712,250.033813 
	C1005.987061,250.016678 1005.982544,250.089737 1005.919800,249.750000 
	C1005.210693,249.289215 1004.564270,249.168182 1003.950562,249.031769 
	C1003.983154,249.016388 1003.991516,249.087982 1003.899902,248.760803 
	C1003.169739,248.301498 1002.531250,248.169388 1001.492676,248.027618 
	C985.795654,242.911041 970.519287,244.314301 955.324463,248.382767 
	C937.408630,253.179794 919.649292,258.599792 901.634094,262.975861 
	C884.341248,267.176483 866.874023,270.753479 849.358337,273.910217 
	C836.685181,276.194244 823.849243,278.042389 811.009705,278.809235 
	C797.065430,279.642029 783.032654,279.038239 769.039246,278.946442 
	C767.322571,278.935181 765.610535,278.217896 763.615479,277.612000 
	C761.228149,276.908112 759.121643,276.420044 757.015198,275.931976 
	C756.178345,271.771545 755.341492,267.611115 754.215271,263.188843 
	C753.599609,260.294250 753.273193,257.661438 752.935974,254.641083 
z"/>
<path fill="#EB7BAD" opacity="1.000000" stroke="none" 
	d="
M325.680359,239.150452 
	C327.013153,239.572128 328.027496,240.010574 329.316711,240.567825 
	C328.896637,244.413895 328.460419,248.407852 328.065308,252.863144 
	C327.756500,255.647034 327.406555,257.969574 326.977966,260.689117 
	C325.939453,266.070862 324.979614,271.055634 323.596436,276.511108 
	C319.853119,277.325958 316.533203,277.670105 312.731995,277.962463 
	C298.100861,277.946167 283.951019,277.981598 269.356018,278.026184 
	C263.329132,277.676086 257.684967,277.723236 252.178024,276.877106 
	C238.691391,274.804840 225.146713,272.861328 211.847153,269.877533 
	C190.745331,265.143219 169.808548,259.665466 148.834045,254.374969 
	C139.445801,252.006958 130.135284,249.330643 120.658157,246.637955 
	C120.222214,246.427124 120.020859,246.252823 119.981934,245.978912 
	C120.041122,245.999008 120.010277,246.120178 119.773643,245.812897 
	C115.483055,244.734970 111.420006,243.290237 107.377190,243.344833 
	C100.569504,243.436737 93.774681,244.480423 86.959976,245.059692 
	C86.945511,244.995621 87.070114,244.953949 86.953903,245.125244 
	C86.554749,245.366379 86.348419,245.531631 85.815704,245.885223 
	C73.753853,248.620300 64.655457,254.791901 57.690174,264.664673 
	C47.588715,278.982819 44.170979,295.206421 42.441040,312.271027 
	C39.799000,326.445496 41.501545,340.232147 45.349976,354.064819 
	C48.365383,366.487274 51.839073,378.213684 62.216766,386.653290 
	C71.588257,394.274567 80.558800,402.387299 89.767197,410.211456 
	C93.650391,413.510925 97.620628,416.717682 101.678268,419.799377 
	C105.775757,422.911316 105.437546,422.317413 109.753387,418.825836 
	C114.162498,415.258759 119.180244,411.337891 124.479134,410.257385 
	C131.070587,408.913300 138.410049,409.425415 145.077271,410.813385 
	C150.869339,412.019165 156.175156,415.560638 161.814392,418.369476 
	C162.314392,418.761444 162.695847,418.853790 163.034332,418.935364 
	C162.991379,418.924561 163.029694,418.844666 162.936859,419.219543 
	C164.782562,423.200562 167.795105,426.826782 164.322754,430.947235 
	C160.923294,434.981110 156.761002,432.715637 152.793213,431.787292 
	C151.045929,431.378510 149.210098,431.348297 147.414474,431.146210 
	C147.145981,431.645569 146.877487,432.144958 146.608994,432.644348 
	C148.782700,434.970032 150.961258,437.291199 153.128738,439.622681 
	C155.378922,442.043121 158.697784,444.666504 156.424164,448.112335 
	C153.928543,451.894592 150.413422,448.795746 147.483963,447.765076 
	C144.187943,446.605438 141.019867,445.082153 137.796143,443.717041 
	C137.449280,444.171204 137.102402,444.625366 136.755524,445.079529 
	C137.677322,446.438171 138.410522,447.990417 139.562637,449.112610 
	C141.575989,451.073730 143.969604,452.644958 145.978775,454.609772 
	C148.471924,457.047852 150.290970,459.861603 147.978226,463.425171 
	C145.662186,466.993835 142.273972,467.947174 138.426697,466.547821 
	C135.632843,465.531677 133.093781,463.830322 130.326660,462.719666 
	C128.580811,462.018890 126.624062,461.843536 124.761902,461.432526 
	C124.694603,463.647949 123.953499,466.126404 124.695053,468.026093 
	C126.439468,472.494751 128.947922,476.659973 131.045273,480.997253 
	C134.689438,488.533295 133.120193,491.248413 124.790375,491.999298 
	C117.014587,492.561310 112.547348,487.134918 109.542519,481.659882 
	C105.177071,473.705627 102.134521,464.966156 99.141983,456.348267 
	C98.021652,453.121948 96.998619,450.767426 93.702660,449.265839 
	C78.806839,442.479462 65.285927,433.402008 53.134659,422.552948 
	C44.863583,415.168243 36.814140,407.258942 30.081976,398.496063 
	C21.429804,387.233978 18.235096,373.317596 15.037978,359.685699 
	C10.998869,342.463745 11.121454,324.852051 12.211901,307.438812 
	C13.741068,283.019653 20.452410,259.737579 35.528076,240.090942 
	C48.364639,223.362335 65.488998,213.238617 87.166405,210.761765 
	C100.982948,209.183075 114.421677,210.382812 127.569740,213.467926 
	C147.228714,218.080780 166.467133,224.460037 186.061188,229.384705 
	C198.741592,232.571732 211.709686,234.660812 224.602448,236.938599 
	C232.121857,238.267059 239.746857,238.997803 248.102112,240.292419 
	C258.147400,241.244720 267.425476,242.559952 276.680176,242.412384 
	C292.387421,242.161972 308.079987,240.989288 323.778717,240.204224 
	C324.306458,239.858566 324.834198,239.512878 325.680359,239.150452 
z"/>
<path fill="#F9DAE7" opacity="1.000000" stroke="none" 
	d="
M919.974243,417.848175 
	C919.293274,419.072601 918.797119,420.458130 917.896484,421.490967 
	C915.305664,424.462311 914.555176,427.615265 916.749390,431.029480 
	C918.917969,434.403809 922.023926,434.469421 925.559875,433.364380 
	C928.117737,432.565002 930.825684,432.246033 933.466736,431.712799 
	C933.724670,432.139343 933.982666,432.565857 934.240601,432.992401 
	C933.284119,434.369019 932.451111,435.855743 931.343567,437.097687 
	C929.463379,439.206055 927.068848,440.938354 925.558594,443.262817 
	C924.666748,444.635590 924.387024,447.193268 925.098389,448.557831 
	C925.616455,449.551544 928.362549,450.095825 929.836975,449.727173 
	C932.697266,449.012085 935.328735,447.426422 938.118591,446.369232 
	C940.029968,445.644897 942.048767,445.204163 944.019531,444.636658 
	C944.362732,445.128998 944.705933,445.621338 945.049194,446.113678 
	C943.349792,447.866119 941.711304,449.683472 939.933899,451.352844 
	C938.122559,453.054077 936.063721,454.499329 934.313171,456.255890 
	C931.896790,458.680511 931.620239,461.382477 933.588257,464.358765 
	C935.584595,467.378052 938.210388,468.803558 941.645203,467.490387 
	C944.882996,466.252502 947.851379,464.291870 951.110962,463.136322 
	C952.933289,462.490326 955.106812,462.834869 957.122070,462.733093 
	C957.049561,464.602448 957.500000,466.698883 956.805481,468.298035 
	C954.820923,472.867523 952.265381,477.184845 950.128357,481.693207 
	C946.523804,489.297516 948.344788,492.035339 956.800110,491.990082 
	C957.632324,491.985626 958.464478,491.963379 959.756348,491.973938 
	C949.956726,494.248993 944.107117,503.247131 935.520569,508.141815 
	C919.428040,517.315186 902.895020,521.520874 883.967346,519.419434 
	C867.668518,517.609863 853.787537,511.802673 841.440063,501.921906 
	C832.704712,494.931702 824.709595,486.974274 816.709290,479.117432 
	C803.688965,466.330688 793.233276,451.423859 784.131409,435.777740 
	C772.791504,416.284515 762.187256,396.323181 752.160583,376.119659 
	C744.930664,361.551575 739.162781,346.257874 732.387268,331.206909 
	C734.457153,320.535034 736.882629,309.944031 739.658997,299.516846 
	C740.464294,301.040375 740.767944,302.474579 741.396667,303.748260 
	C747.283936,315.674286 753.004272,327.690460 759.212708,339.448273 
	C766.253601,352.782867 773.470703,366.040802 781.106628,379.041046 
	C792.665833,398.720337 806.585510,416.683777 822.592529,432.951263 
	C831.412415,441.914673 840.711304,450.405029 849.706421,459.198547 
	C852.502258,461.931793 854.104309,462.357971 856.367920,458.290619 
	C865.170227,442.473969 877.937439,430.952667 895.209534,425.027832 
	C903.329834,422.242310 911.711121,420.217621 919.974243,417.848175 
z"/>
<path fill="#F9D9E7" opacity="1.000000" stroke="none" 
	d="
M124.943428,492.331299 
	C133.120193,491.248413 134.689438,488.533295 131.045273,480.997253 
	C128.947922,476.659973 126.439468,472.494751 124.695053,468.026093 
	C123.953499,466.126404 124.694603,463.647949 124.761902,461.432526 
	C126.624062,461.843536 128.580811,462.018890 130.326660,462.719666 
	C133.093781,463.830322 135.632843,465.531677 138.426697,466.547821 
	C142.273972,467.947174 145.662186,466.993835 147.978226,463.425171 
	C150.290970,459.861603 148.471924,457.047852 145.978775,454.609772 
	C143.969604,452.644958 141.575989,451.073730 139.562637,449.112610 
	C138.410522,447.990417 137.677322,446.438171 136.755524,445.079529 
	C137.102402,444.625366 137.449280,444.171204 137.796143,443.717041 
	C141.019867,445.082153 144.187943,446.605438 147.483963,447.765076 
	C150.413422,448.795746 153.928543,451.894592 156.424164,448.112335 
	C158.697784,444.666504 155.378922,442.043121 153.128738,439.622681 
	C150.961258,437.291199 148.782700,434.970032 146.608994,432.644348 
	C146.877487,432.144958 147.145981,431.645569 147.414474,431.146210 
	C149.210098,431.348297 151.045929,431.378510 152.793213,431.787292 
	C156.761002,432.715637 160.923294,434.981110 164.322754,430.947235 
	C167.795105,426.826782 164.782562,423.200562 163.346741,419.277863 
	C174.983063,421.329773 186.212921,423.747864 195.828735,430.092926 
	C202.451035,434.462708 208.788269,439.518188 214.361862,445.149139 
	C219.476654,450.316589 223.398254,456.665070 227.897202,462.560883 
	C233.421066,457.701782 239.532257,452.945496 244.907089,447.466797 
	C255.534912,436.633698 266.173218,425.759125 276.042114,414.245880 
	C289.360687,398.708069 299.626984,381.012146 309.313354,363.066956 
	C319.288025,344.587708 328.791534,325.851196 338.276428,307.113434 
	C339.830475,304.043274 340.225616,300.386475 341.156372,297.000793 
	C343.796997,308.110291 346.437622,319.219818 349.034149,330.763733 
	C345.668030,338.529663 342.482819,345.926941 338.997467,353.179993 
	C329.835297,372.246399 320.856659,391.411591 311.185608,410.218933 
	C305.258728,421.744965 298.864014,433.153839 291.461945,443.766174 
	C282.483032,456.639191 272.381500,468.747620 262.470825,480.947327 
	C251.487167,494.467896 237.618866,504.506042 222.177139,512.303101 
	C213.461746,516.703857 204.240738,519.444397 194.192245,519.078613 
	C183.565689,518.691772 172.836304,519.739075 162.549927,516.011902 
	C150.906433,511.793060 140.289429,505.921661 131.437439,497.063965 
	C129.647858,495.273193 127.226540,494.113800 124.943428,492.331299 
z"/>
<path fill="#FBE7F0" opacity="1.000000" stroke="none" 
	d="
M323.336151,240.146591 
	C308.079987,240.989288 292.387421,242.161972 276.680176,242.412384 
	C267.425476,242.559952 258.147400,241.244720 248.551331,240.394958 
	C267.389069,240.459213 286.554840,240.799423 305.721954,240.921448 
	C311.443848,240.957901 317.169586,240.383499 323.336151,240.146591 
z"/>
<path fill="#FDEFF5" opacity="1.000000" stroke="none" 
	d="
M818.984619,241.823792 
	C798.513733,243.582336 778.078491,243.493103 757.384705,240.402039 
	C777.404846,240.447250 797.736877,240.730286 818.529968,241.255859 
	C818.990967,241.498383 818.984619,241.823792 818.984619,241.823792 
z"/>
<path fill="#FBE7F0" opacity="1.000000" stroke="none" 
	d="
M579.432373,959.879761 
	C585.239746,959.884827 590.588806,959.937134 596.395935,959.987793 
	C596.408752,960.319885 595.963318,960.945435 595.518188,960.945251 
	C565.439941,960.933350 535.361633,960.871155 505.076050,960.418457 
	C529.570496,959.991455 554.272217,959.959229 579.432373,959.879761 
z"/>
<path fill="#FBE7F0" opacity="1.000000" stroke="none" 
	d="
M613.001465,651.396790 
	C612.471863,644.520874 611.761292,637.212891 611.409546,629.887695 
	C611.293701,627.475281 612.106079,625.018372 612.791992,622.331787 
	C613.046692,631.707153 613.003418,641.332581 613.001465,651.396790 
z"/>
<path fill="#F9D9E7" opacity="1.000000" stroke="none" 
	d="
M1069.439209,337.904144 
	C1069.004272,327.670471 1068.966919,317.237946 1068.976074,306.328857 
	C1069.360840,306.514099 1069.993896,307.176056 1069.993652,307.837830 
	C1069.990356,317.793671 1069.903564,327.749481 1069.439209,337.904144 
z"/>
<path fill="#FBE7F0" opacity="1.000000" stroke="none" 
	d="
M819.420410,241.871658 
	C818.984619,241.823792 818.990967,241.498383 818.992188,241.335663 
	C826.633362,240.477509 834.273315,239.782074 842.344971,239.145203 
	C835.136475,240.109009 827.496338,241.014267 819.420410,241.871658 
z"/>
<path fill="#FDEFF5" opacity="1.000000" stroke="none" 
	d="
M627.327637,776.077576 
	C627.479919,773.980835 627.977295,771.674072 628.807068,769.175903 
	C628.650574,771.278809 628.161682,773.573181 627.327637,776.077576 
z"/>
<path fill="#FDEFF5" opacity="1.000000" stroke="none" 
	d="
M626.310425,780.100525 
	C626.090759,779.319275 626.202881,778.333435 626.604858,777.101929 
	C626.810547,777.869507 626.726379,778.882751 626.310425,780.100525 
z"/>
<path fill="#FDEFF5" opacity="1.000000" stroke="none" 
	d="
M623.379272,791.964233 
	C623.138733,791.188232 623.239380,790.267395 623.613403,789.116699 
	C623.831360,789.864319 623.775879,790.841858 623.379272,791.964233 
z"/>
<path fill="#FDEFF5" opacity="1.000000" stroke="none" 
	d="
M624.320312,788.078125 
	C624.095276,787.291504 624.205750,786.309082 624.607666,785.084717 
	C624.818054,785.855957 624.736938,786.869202 624.320312,788.078125 
z"/>
<path fill="#FDEFF5" opacity="1.000000" stroke="none" 
	d="
M625.311951,784.098145 
	C625.090393,783.312317 625.201538,782.321350 625.606079,781.085449 
	C625.814575,781.858032 625.729675,782.875610 625.311951,784.098145 
z"/>
<path fill="#EE8CB8" opacity="1.000000" stroke="none" 
	d="
M502.377991,959.878601 
	C502.591278,959.713013 503.113098,959.595520 503.781616,959.654907 
	C503.514343,959.863403 503.100433,959.895081 502.377991,959.878601 
z"/>
<path fill="#FBE7F0" opacity="1.000000" stroke="none" 
	d="
M613.278320,621.994385 
	C613.290466,621.914917 613.426575,621.707275 613.640747,621.336304 
	C613.879517,621.538818 613.773987,621.769958 613.278320,621.994385 
z"/>
<path fill="#FBE7F0" opacity="1.000000" stroke="none" 
	d="
M613.785034,652.586548 
	C613.558044,652.661011 613.416931,652.471191 613.251343,652.083252 
	C613.406372,652.021606 613.621094,652.167236 613.785034,652.586548 
z"/>
<path fill="#FDEFF5" opacity="1.000000" stroke="none" 
	d="
M629.192749,769.017334 
	C629.206909,768.921448 629.373291,768.700378 629.632874,768.300354 
	C629.904419,768.548279 629.777344,768.805237 629.192749,769.017334 
z"/>
<path fill="#000000" opacity="1.000000" stroke="none" 
	d="
M919.993591,417.887177 
	C911.711121,420.217621 903.329834,422.242310 895.209534,425.027832 
	C877.937439,430.952667 865.170227,442.473969 856.367920,458.290619 
	C854.104309,462.357971 852.502258,461.931793 849.706421,459.198547 
	C840.711304,450.405029 831.412415,441.914673 822.592529,432.951263 
	C806.585510,416.683777 792.665833,398.720337 781.106628,379.041046 
	C773.470703,366.040802 766.253601,352.782867 759.212708,339.448273 
	C753.004272,327.690460 747.283936,315.674286 741.396667,303.748260 
	C740.767944,302.474579 740.464294,301.040375 739.950500,299.282471 
	C739.891174,298.884277 740.049927,298.597015 740.378784,298.229248 
	C740.836792,296.254883 740.965881,294.648285 741.094971,293.041656 
	C742.070740,288.700104 743.046570,284.358551 744.324219,279.463867 
	C744.784302,278.276245 744.942566,277.641754 745.100769,277.007233 
	C745.100769,277.007233 745.004333,276.986115 745.427490,276.989502 
	C751.865845,277.271210 757.881104,277.549500 763.896362,277.827789 
	C765.610535,278.217896 767.322571,278.935181 769.039246,278.946442 
	C783.032654,279.038239 797.065430,279.642029 811.009705,278.809235 
	C823.849243,278.042389 836.685181,276.194244 849.358337,273.910217 
	C866.874023,270.753479 884.341248,267.176483 901.634094,262.975861 
	C919.649292,258.599792 937.408630,253.179794 955.324463,248.382767 
	C970.519287,244.314301 985.795654,242.911041 1001.603760,248.336182 
	C1002.740479,248.798935 1003.366028,248.943451 1003.991516,249.087982 
	C1003.991516,249.087982 1003.983154,249.016388 1004.053101,249.340073 
	C1004.742859,249.805756 1005.362732,249.947754 1005.982544,250.089752 
	C1005.982544,250.089737 1005.987061,250.016678 1006.056396,250.341721 
	C1006.744873,250.807648 1007.364075,250.948532 1007.983215,251.089417 
	C1007.983215,251.089417 1007.986206,251.016510 1008.057678,251.350037 
	C1009.072388,252.150620 1010.015686,252.617691 1010.958923,253.084778 
	C1010.958923,253.084778 1010.987061,253.015625 1011.015320,253.291245 
	C1011.348755,253.739746 1011.653931,253.912643 1011.959167,254.085526 
	C1011.959167,254.085510 1011.991333,254.005173 1012.064087,254.350006 
	C1013.078369,255.158417 1014.019775,255.622009 1014.961243,256.085602 
	C1014.961243,256.085602 1014.986938,256.016449 1015.015076,256.291565 
	C1015.349304,256.739655 1015.655396,256.912628 1015.961487,257.085602 
	C1015.961487,257.085602 1015.985474,257.014557 1016.015015,257.291931 
	C1016.349854,257.741272 1016.655212,257.913269 1016.960571,258.085297 
	C1016.960571,258.085297 1016.985962,258.014130 1017.015137,258.291687 
	C1017.348938,258.741180 1017.653564,258.913116 1017.958191,259.085022 
	C1017.958191,259.085022 1017.986450,259.013550 1018.015747,259.291901 
	C1018.349243,259.741760 1018.653503,259.913300 1018.957764,260.084839 
	C1018.957764,260.084839 1018.986572,260.013489 1019.015869,260.291992 
	C1019.349915,260.742004 1019.654785,260.913513 1019.959595,261.084991 
	C1019.959595,261.084991 1019.985718,261.014191 1020.015259,261.291901 
	C1020.350708,261.741486 1020.656738,261.913361 1020.962708,262.085236 
	C1020.962708,262.085236 1020.985474,262.014648 1021.015259,262.292236 
	C1021.353027,262.741241 1021.661011,262.912659 1021.969055,263.084076 
	C1021.969055,263.084076 1021.983154,263.013153 1021.980530,263.334442 
	C1022.296204,264.127014 1022.614502,264.598297 1022.932800,265.069611 
	C1022.932800,265.069611 1022.995544,265.009064 1023.020630,265.289978 
	C1023.352295,265.742126 1023.658813,265.913391 1023.965393,266.084656 
	C1023.965393,266.084656 1023.985046,266.014801 1024.019531,266.298523 
	C1024.366333,266.785706 1024.678467,266.989105 1024.990723,267.192535 
	C1031.768066,276.821991 1034.232300,288.069824 1036.998169,300.044495 
	C1036.958740,316.930511 1036.922852,332.975220 1036.886841,349.019958 
	C1036.886841,349.019958 1037.007690,349.048309 1036.809204,349.056519 
	C1036.272461,349.192322 1036.136963,349.433502 1036.204102,349.788239 
	C1034.796143,355.546478 1033.388184,361.304718 1031.670166,367.582520 
	C1031.211060,368.733612 1031.062134,369.365143 1030.913086,369.996704 
	C1030.913086,369.996704 1030.983887,369.981598 1030.660645,370.051849 
	C1030.195068,370.742523 1030.052856,371.362946 1029.910645,371.983368 
	C1029.910522,371.983368 1029.983276,371.986664 1029.658936,372.055603 
	C1029.192993,372.743530 1029.051514,373.362518 1028.910034,373.981476 
	C1028.910034,373.981476 1028.983398,373.987671 1028.658203,374.056763 
	C1028.191895,374.744171 1028.050903,375.362457 1027.909912,375.980774 
	C1027.909912,375.980774 1027.983643,375.988098 1027.657593,376.058197 
	C1027.191650,376.748169 1027.051758,377.368042 1026.911865,377.987915 
	C1026.911865,377.987915 1026.984375,377.985901 1026.710205,378.014282 
	C1026.262329,378.348694 1026.088379,378.654755 1025.914551,378.960785 
	C1025.914551,378.960785 1025.993042,378.990997 1025.646606,379.066193 
	C1024.506226,380.410065 1023.712219,381.678741 1022.918335,382.947449 
	C1022.918335,382.947449 1022.985840,382.990448 1022.708008,383.017578 
	C1022.258484,383.349609 1022.086731,383.654510 1021.914978,383.959412 
	C1021.914978,383.959412 1021.986145,383.986084 1021.708252,384.015411 
	C1021.258545,384.349670 1021.086792,384.654633 1020.915039,384.959595 
	C1020.914978,384.959564 1020.986023,384.985901 1020.708191,385.015259 
	C1020.258545,385.349762 1020.086670,385.654877 1019.914856,385.959991 
	C1019.914856,385.959991 1019.985901,385.985901 1019.708191,386.015259 
	C1019.258606,386.349884 1019.086670,386.655182 1018.914795,386.960449 
	C1018.914795,386.960449 1018.985779,386.985779 1018.708191,387.015167 
	C1018.258667,387.350037 1018.086731,387.655518 1017.914795,387.960999 
	C1017.914795,387.960999 1017.985657,387.985565 1017.708313,388.014984 
	C1017.258850,388.350189 1017.086792,388.655975 1016.914673,388.961761 
	C1016.914673,388.961761 1016.985535,388.985474 1016.708252,389.014893 
	C1016.258850,389.350189 1016.086731,389.656036 1015.914673,389.961914 
	C1015.914673,389.961945 1015.985352,389.985413 1015.708252,390.014862 
	C1015.259033,390.350739 1015.086914,390.657166 1014.914856,390.963593 
	C1014.914856,390.963593 1014.985413,390.985382 1014.708435,391.014801 
	C1014.259399,391.351135 1014.087341,391.658051 1013.915222,391.964966 
	C1013.915222,391.964966 1013.985535,391.985474 1013.708496,392.014954 
	C1013.259766,392.352356 1013.088013,392.660309 1012.916260,392.968231 
	C1012.916260,392.968231 1012.986023,392.986023 1012.709106,393.015137 
	C1012.259766,393.352936 1012.087280,393.661560 1011.914795,393.970184 
	C1011.914795,393.970184 1011.985046,393.985352 1011.709229,394.014709 
	C1011.259949,394.353821 1011.086487,394.663574 1010.913086,394.973328 
	C1010.913025,394.973297 1010.984680,394.987823 1010.685913,395.032867 
	C1010.115295,395.396393 1009.843384,395.714844 1009.571472,396.033325 
	C998.099670,405.193695 986.627869,414.354065 974.870728,423.742249 
	C969.304077,414.210785 961.148560,411.101227 951.586670,409.907074 
	C941.046692,408.590790 931.586243,411.363739 921.921204,416.458984 
	C920.936890,417.267059 920.431702,417.602234 919.926514,417.937408 
	C919.926575,417.937439 920.013000,417.926178 919.993591,417.887177 
z"/>
<path fill="#FDEFF5" opacity="1.000000" stroke="none" 
	d="
M763.615479,277.612000 
	C757.881104,277.549500 751.865845,277.271210 745.415649,277.037445 
	C748.686096,276.717651 752.391541,276.353302 756.556030,275.960449 
	C759.121643,276.420044 761.228149,276.908112 763.615479,277.612000 
z"/>
<path fill="#F9DAE7" opacity="1.000000" stroke="none" 
	d="
M740.789551,293.286377 
	C740.965881,294.648285 740.836792,296.254883 740.351562,298.067444 
	C740.158325,296.692627 740.321228,295.111877 740.789551,293.286377 
z"/>
<path fill="#FDEFF5" opacity="1.000000" stroke="none" 
	d="
M744.774658,277.114197 
	C744.942566,277.641754 744.784302,278.276245 744.317627,279.045319 
	C744.155640,278.526978 744.302063,277.874084 744.774658,277.114197 
z"/>
<path fill="#000000" opacity="1.000000" stroke="none" 
	d="
M340.974121,296.643555 
	C340.225616,300.386475 339.830475,304.043274 338.276428,307.113434 
	C328.791534,325.851196 319.288025,344.587708 309.313354,363.066956 
	C299.626984,381.012146 289.360687,398.708069 276.042114,414.245880 
	C266.173218,425.759125 255.534912,436.633698 244.907089,447.466797 
	C239.532257,452.945496 233.421066,457.701782 227.897202,462.560883 
	C223.398254,456.665070 219.476654,450.316589 214.361862,445.149139 
	C208.788269,439.518188 202.451035,434.462708 195.828735,430.092926 
	C186.212921,423.747864 174.983063,421.329773 163.439590,418.902954 
	C163.029694,418.844666 162.991379,418.924561 162.944244,418.626648 
	C162.496689,418.242432 162.096268,418.156158 161.695862,418.069855 
	C156.175156,415.560638 150.869339,412.019165 145.077271,410.813385 
	C138.410049,409.425415 131.070587,408.913300 124.479134,410.257385 
	C119.180244,411.337891 114.162498,415.258759 109.753387,418.825836 
	C105.437546,422.317413 105.775757,422.911316 101.678268,419.799377 
	C97.620628,416.717682 93.650391,413.510925 89.767197,410.211456 
	C80.558800,402.387299 71.588257,394.274567 62.216766,386.653290 
	C51.839073,378.213684 48.365383,366.487274 45.336269,353.630157 
	C44.321671,344.873383 43.555717,336.729492 43.086445,328.568542 
	C42.772701,323.112335 42.880749,317.631897 42.800049,312.162292 
	C44.170979,295.206421 47.588715,278.982819 57.690174,264.664673 
	C64.655457,254.791901 73.753853,248.620300 86.038979,245.863831 
	C86.903008,245.536728 87.037971,245.271545 87.070114,244.953949 
	C87.070114,244.953949 86.945511,244.995621 87.429321,244.993988 
	C98.612183,245.368301 109.311234,245.744247 120.010277,246.120178 
	C120.010277,246.120178 120.041122,245.999008 120.051254,246.197311 
	C120.191483,246.734833 120.434189,246.867706 120.789505,246.794220 
	C130.135284,249.330643 139.445801,252.006958 148.834045,254.374969 
	C169.808548,259.665466 190.745331,265.143219 211.847153,269.877533 
	C225.146713,272.861328 238.691391,274.804840 252.178024,276.877106 
	C257.684967,277.723236 263.329132,277.676086 269.566345,278.427399 
	C275.690125,278.965942 281.160828,279.290527 286.626251,279.218201 
	C295.412140,279.101929 304.194611,278.724518 312.977875,278.437622 
	C313.060852,278.434906 313.135010,278.161346 313.213257,278.014252 
	C316.533203,277.670105 319.853119,277.325958 323.587219,276.912354 
	C327.714294,276.842896 331.427216,276.842896 336.063538,276.842896 
	C337.484711,282.686981 339.138275,289.486664 340.974121,296.643555 
z"/>
<path fill="#FDEFF5" opacity="1.000000" stroke="none" 
	d="
M1037.187012,348.764099 
	C1036.922852,332.975220 1036.958740,316.930511 1037.073730,300.446167 
	C1038.044067,304.808411 1039.770386,309.629547 1039.660034,314.408325 
	C1039.397705,325.785614 1038.266968,337.142914 1037.187012,348.764099 
z"/>
<path fill="#FDEFF5" opacity="1.000000" stroke="none" 
	d="
M1023.286011,383.041016 
	C1023.712219,381.678741 1024.506226,380.410065 1025.618530,379.034912 
	C1025.175781,380.330475 1024.414795,381.732544 1023.286011,383.041016 
z"/>
<path fill="#FDEFF5" opacity="1.000000" stroke="none" 
	d="
M1014.992493,255.711853 
	C1014.019775,255.622009 1013.078369,255.158417 1012.032959,254.380005 
	C1012.960571,254.489502 1013.992126,254.913788 1014.992493,255.711853 
z"/>
<path fill="#FDEFF5" opacity="1.000000" stroke="none" 
	d="
M1010.999878,252.716370 
	C1010.015686,252.617691 1009.072388,252.150620 1008.025391,251.367096 
	C1008.961365,251.483078 1010.001099,251.915527 1010.999878,252.716370 
z"/>
<path fill="#FDEFF5" opacity="1.000000" stroke="none" 
	d="
M1029.252197,373.921936 
	C1029.051514,373.362518 1029.192993,372.743530 1029.642456,372.023102 
	C1029.831787,372.568542 1029.713013,373.215485 1029.252197,373.921936 
z"/>
<path fill="#FDEFF5" opacity="1.000000" stroke="none" 
	d="
M1031.233887,369.887695 
	C1031.062134,369.365143 1031.211060,368.733612 1031.669434,367.979370 
	C1031.837280,368.497345 1031.695923,369.138000 1031.233887,369.887695 
z"/>
<path fill="#FDEFF5" opacity="1.000000" stroke="none" 
	d="
M1030.249146,371.918457 
	C1030.052856,371.362946 1030.195068,370.742523 1030.645752,370.018799 
	C1030.832031,370.561493 1030.709839,371.207520 1030.249146,371.918457 
z"/>
<path fill="#FDEFF5" opacity="1.000000" stroke="none" 
	d="
M1028.254395,375.923035 
	C1028.050903,375.362457 1028.191895,374.744171 1028.640625,374.024475 
	C1028.831787,374.570496 1028.715332,375.217896 1028.254395,375.923035 
z"/>
<path fill="#FDEFF5" opacity="1.000000" stroke="none" 
	d="
M1027.247925,377.909485 
	C1027.051758,377.368042 1027.191650,376.748169 1027.639404,376.025940 
	C1027.826172,376.559448 1027.705078,377.195282 1027.247925,377.909485 
z"/>
<path fill="#F9DAE7" opacity="1.000000" stroke="none" 
	d="
M920.289551,418.039307 
	C920.431702,417.602234 920.936890,417.267059 921.731934,416.745483 
	C921.565491,417.086487 921.109009,417.613861 920.289551,418.039307 
z"/>
<path fill="#FDEFF5" opacity="1.000000" stroke="none" 
	d="
M1003.899902,248.760788 
	C1003.366028,248.943451 1002.740479,248.798935 1002.003845,248.345856 
	C1002.531250,248.169388 1003.169739,248.301498 1003.899902,248.760788 
z"/>
<path fill="#FDEFF5" opacity="1.000000" stroke="none" 
	d="
M1005.919800,249.750000 
	C1005.362732,249.947754 1004.742859,249.805756 1004.020508,249.355453 
	C1004.564270,249.168182 1005.210693,249.289215 1005.919800,249.750000 
z"/>
<path fill="#FDEFF5" opacity="1.000000" stroke="none" 
	d="
M1007.918823,250.748215 
	C1007.364075,250.948532 1006.744873,250.807648 1006.024048,250.358856 
	C1006.566345,250.169632 1007.210388,250.288330 1007.918823,250.748215 
z"/>
<path fill="#FDEFF5" opacity="1.000000" stroke="none" 
	d="
M1023.087158,264.745667 
	C1022.614502,264.598297 1022.296204,264.127014 1021.944397,263.334290 
	C1022.354431,263.482483 1022.797974,263.952118 1023.087158,264.745667 
z"/>
<path fill="#FDEFF5" opacity="1.000000" stroke="none" 
	d="
M1021.968994,262.772430 
	C1021.661011,262.912659 1021.353027,262.741241 1020.979858,262.303436 
	C1021.266174,262.178314 1021.617554,262.319550 1021.968994,262.772430 
z"/>
<path fill="#FDEFF5" opacity="1.000000" stroke="none" 
	d="
M1020.978760,261.768158 
	C1020.656738,261.913361 1020.350708,261.741486 1019.979614,261.304321 
	C1020.274597,261.176422 1020.634705,261.313751 1020.978760,261.768158 
z"/>
<path fill="#FDEFF5" opacity="1.000000" stroke="none" 
	d="
M1019.985535,260.763428 
	C1019.654785,260.913513 1019.349915,260.742004 1018.980042,260.306152 
	C1019.280457,260.175140 1019.645996,260.308472 1019.985535,260.763428 
z"/>
<path fill="#FDEFF5" opacity="1.000000" stroke="none" 
	d="
M1018.989502,259.761627 
	C1018.653503,259.913300 1018.349243,259.741760 1017.980103,259.306244 
	C1018.283813,259.174316 1018.652527,259.306366 1018.989502,259.761627 
z"/>
<path fill="#FDEFF5" opacity="1.000000" stroke="none" 
	d="
M1017.988037,258.763733 
	C1017.653564,258.913116 1017.348938,258.741180 1016.979736,258.304749 
	C1017.282654,258.174316 1017.650269,258.308380 1017.988037,258.763733 
z"/>
<path fill="#FDEFF5" opacity="1.000000" stroke="none" 
	d="
M1016.982666,257.766479 
	C1016.655212,257.913269 1016.349854,257.741272 1015.979614,257.304321 
	C1016.278015,257.175446 1016.641418,257.311554 1016.982666,257.766479 
z"/>
<path fill="#FDEFF5" opacity="1.000000" stroke="none" 
	d="
M1015.979736,256.770935 
	C1015.655396,256.912628 1015.349304,256.739655 1014.979248,256.300507 
	C1015.276245,256.174988 1015.637085,256.315613 1015.979736,256.770935 
z"/>
<path fill="#FDEFF5" opacity="1.000000" stroke="none" 
	d="
M1011.984619,253.768143 
	C1011.653931,253.912643 1011.348755,253.739746 1010.979370,253.301300 
	C1011.280151,253.174088 1011.645142,253.312408 1011.984619,253.768143 
z"/>
<path fill="#FDEFF5" opacity="1.000000" stroke="none" 
	d="
M1036.359131,349.652740 
	C1036.136963,349.433502 1036.272461,349.192322 1036.829346,348.997742 
	C1036.727295,348.997070 1036.549316,349.192566 1036.359131,349.652740 
z"/>
<path fill="#FDEFF5" opacity="1.000000" stroke="none" 
	d="
M1018.233398,387.982117 
	C1018.086731,387.655518 1018.258667,387.350037 1018.695679,386.979645 
	C1018.824463,387.277588 1018.688232,387.640411 1018.233398,387.982117 
z"/>
<path fill="#FDEFF5" opacity="1.000000" stroke="none" 
	d="
M1024.969238,266.872559 
	C1024.678467,266.989105 1024.366333,266.785706 1023.984192,266.306519 
	C1024.258789,266.204681 1024.603394,266.378601 1024.969238,266.872559 
z"/>
<path fill="#FDEFF5" opacity="1.000000" stroke="none" 
	d="
M1023.974976,265.768188 
	C1023.658813,265.913391 1023.352295,265.742126 1022.979980,265.305786 
	C1023.271057,265.177673 1023.627747,265.314697 1023.974976,265.768188 
z"/>
<path fill="#FDEFF5" opacity="1.000000" stroke="none" 
	d="
M1026.227539,378.981323 
	C1026.088379,378.654755 1026.262329,378.348694 1026.703247,377.978760 
	C1026.827026,378.277161 1026.683838,378.639496 1026.227539,378.981323 
z"/>
<path fill="#FDEFF5" opacity="1.000000" stroke="none" 
	d="
M1022.235779,383.985718 
	C1022.086731,383.654510 1022.258484,383.349609 1022.694824,382.979828 
	C1022.825073,383.280640 1022.690857,383.646301 1022.235779,383.985718 
z"/>
<path fill="#FDEFF5" opacity="1.000000" stroke="none" 
	d="
M1021.235596,384.985413 
	C1021.086792,384.654633 1021.258545,384.349670 1021.694824,383.979828 
	C1021.824951,384.280334 1021.690552,384.645782 1021.235596,384.985413 
z"/>
<path fill="#FDEFF5" opacity="1.000000" stroke="none" 
	d="
M1020.234924,385.984375 
	C1020.086670,385.654877 1020.258545,385.349762 1020.695068,384.979736 
	C1020.824890,385.279510 1020.689941,385.644165 1020.234924,385.984375 
z"/>
<path fill="#FDEFF5" opacity="1.000000" stroke="none" 
	d="
M1019.234131,386.983337 
	C1019.086670,386.655182 1019.258606,386.349884 1019.695312,385.979706 
	C1019.824646,386.278595 1019.689087,386.642395 1019.234131,386.983337 
z"/>
<path fill="#FDEFF5" opacity="1.000000" stroke="none" 
	d="
M1009.891602,395.940735 
	C1009.843384,395.714844 1010.115295,395.396393 1010.690308,394.996552 
	C1010.732910,395.226196 1010.472351,395.537170 1009.891602,395.940735 
z"/>
<path fill="#FDEFF5" opacity="1.000000" stroke="none" 
	d="
M1017.232056,388.980286 
	C1017.086792,388.655975 1017.258850,388.350189 1017.696167,387.979492 
	C1017.824036,388.276001 1017.686707,388.637421 1017.232056,388.980286 
z"/>
<path fill="#FDEFF5" opacity="1.000000" stroke="none" 
	d="
M1016.231689,389.979980 
	C1016.086731,389.656036 1016.258850,389.350189 1016.696411,388.979492 
	C1016.824158,389.275787 1016.686462,389.636932 1016.231689,389.979980 
z"/>
<path fill="#FDEFF5" opacity="1.000000" stroke="none" 
	d="
M1015.230103,390.976959 
	C1015.086914,390.657166 1015.259033,390.350739 1015.696716,389.979431 
	C1015.823303,390.273132 1015.684326,390.631744 1015.230103,390.976959 
z"/>
<path fill="#FDEFF5" opacity="1.000000" stroke="none" 
	d="
M1014.229126,391.975098 
	C1014.087341,391.658051 1014.259399,391.351135 1014.697510,390.979553 
	C1014.823364,391.271637 1014.683167,391.628418 1014.229126,391.975098 
z"/>
<path fill="#FDEFF5" opacity="1.000000" stroke="none" 
	d="
M1013.227478,392.970764 
	C1013.088013,392.660309 1013.259766,392.352356 1013.698120,391.979797 
	C1013.822815,392.267883 1013.680786,392.620605 1013.227478,392.970764 
z"/>
<path fill="#FDEFF5" opacity="1.000000" stroke="none" 
	d="
M1012.223022,393.966583 
	C1012.087280,393.661560 1012.259766,393.352936 1012.700317,392.980255 
	C1012.822632,393.265137 1012.676941,393.614075 1012.223022,393.966583 
z"/>
<path fill="#FDEFF5" opacity="1.000000" stroke="none" 
	d="
M1011.216919,394.960022 
	C1011.086487,394.663574 1011.259949,394.353821 1011.702393,393.979462 
	C1011.821167,394.258789 1011.670959,394.602753 1011.216919,394.960022 
z"/>
<path fill="#F9DAE7" opacity="1.000000" stroke="none" 
	d="
M42.441044,312.271027 
	C42.880749,317.631897 42.772701,323.112335 43.086445,328.568542 
	C43.555717,336.729492 44.321671,344.873383 44.975143,353.459167 
	C41.501545,340.232147 39.799000,326.445496 42.441044,312.271027 
z"/>
<path fill="#F4B3D0" opacity="1.000000" stroke="none" 
	d="
M312.731995,277.962463 
	C313.135010,278.161346 313.060852,278.434906 312.977875,278.437622 
	C304.194611,278.724518 295.412140,279.101929 286.626251,279.218201 
	C281.160828,279.290527 275.690125,278.965942 270.011475,278.418274 
	C283.951019,277.981598 298.100861,277.946167 312.731995,277.962463 
z"/>
<path fill="#FBE7F0" opacity="1.000000" stroke="none" 
	d="
M119.773643,245.812897 
	C109.311234,245.744247 98.612183,245.368301 87.443787,245.058075 
	C93.774681,244.480423 100.569504,243.436737 107.377190,243.344833 
	C111.420006,243.290237 115.483055,244.734970 119.773643,245.812897 
z"/>
<path fill="#FBE7F0" opacity="1.000000" stroke="none" 
	d="
M120.658157,246.637955 
	C120.434189,246.867706 120.191483,246.734833 119.992058,246.177216 
	C120.020859,246.252823 120.222214,246.427124 120.658157,246.637955 
z"/>
<path fill="#F9D9E7" opacity="1.000000" stroke="none" 
	d="
M161.814392,418.369476 
	C162.096268,418.156158 162.496689,418.242432 162.987198,418.637421 
	C162.695847,418.853790 162.314392,418.761444 161.814392,418.369476 
z"/>
<path fill="#FBE7F0" opacity="1.000000" stroke="none" 
	d="
M86.953903,245.125244 
	C87.037971,245.271545 86.903008,245.536728 86.441971,245.770905 
	C86.348419,245.531631 86.554749,245.366379 86.953903,245.125244 
z"/>
</svg>