<?xml version="1.0" encoding="UTF-8"?>
<svg version="1.1" xmlns="http://www.w3.org/2000/svg" width="2048" height="2048">
<path d="M0 0 C1.70680947 1.62553283 3.37660195 3.29115995 5 5 C5.7528125 5.72832031 6.505625 6.45664062 7.28125 7.20703125 C12.6571164 12.72965263 17.27604453 18.91974296 22 25 C22.68964844 25.88300781 23.37929687 26.76601563 24.08984375 27.67578125 C38.40239523 46.98636658 43.68996026 71.36341138 44 95 C44.0107959 95.71961914 44.0215918 96.43923828 44.03271484 97.18066406 C44.12451764 116.89640743 38.86784186 136.6268668 32 155 C31.58878906 156.134375 31.17757812 157.26875 30.75390625 158.4375 C28.56045206 164.34137669 26.1456642 170.01192639 23.2109375 175.5859375 C21.97164994 178.05651721 20.89773437 180.57682155 19.82128906 183.12158203 C18.39296429 186.38838667 16.79062998 189.5662265 15.1875 192.75 C14.8356665 193.4502832 14.48383301 194.15056641 14.12133789 194.87207031 C9.11057207 204.79568652 3.64757326 214.42585954 -2 224 C5.82676983 220.40148513 13.61245234 216.73837119 21.3125 212.875 C22.32630737 212.36682739 22.32630737 212.36682739 23.3605957 211.84838867 C26.17363546 210.43445244 28.97975756 209.01052037 31.7734375 207.55859375 C37.32642353 204.69224659 42.98437421 202.38012325 48.8359375 200.1875 C51.61732625 199.14362076 54.37294236 198.05579644 57.125 196.9375 C67.9117911 192.62278356 78.82032237 189.12970104 90 186 C90.65097656 185.81405273 91.30195312 185.62810547 91.97265625 185.43652344 C136.14588205 172.94194057 180.92298524 178.48158077 221.109375 200.65234375 C227.58347522 204.41699731 233.27382873 209.20479335 239 214 C239.72058594 214.57878906 240.44117188 215.15757812 241.18359375 215.75390625 C245.64250737 219.39849712 249.33263024 223.57222528 253 228 C253.62777344 228.75152344 254.25554688 229.50304687 254.90234375 230.27734375 C268.15030789 246.46347023 281.24345196 265.34381241 282 287 C282.02578125 287.62503418 282.0515625 288.25006836 282.078125 288.89404297 C282.86146384 310.28408922 278.16499752 331.68387713 265 349 C264.34 349 263.68 349 263 349 C262.773125 349.680625 262.54625 350.36125 262.3125 351.0625 C260.68773854 354.6988709 258.67196743 358.02829263 256 361 C255.34 361 254.68 361 254 361 C253.7525 361.61875 253.505 362.2375 253.25 362.875 C251.76259631 365.40358627 250.56321991 365.71839004 248 367 C247.73703125 367.56460937 247.4740625 368.12921875 247.203125 368.7109375 C245.55795954 371.84102504 243.23064649 374.15192739 240.75 376.625 C240.22349854 377.15061523 239.69699707 377.67623047 239.15454102 378.21777344 C233.775217 383.44182612 227.8457392 387.66349546 221.65332031 391.859375 C219.15278933 393.58449029 216.74002163 395.42417176 214.3125 397.25 C209.12347002 401.03350941 203.6872879 404.03971436 198 407 C196.1023636 408.03837833 194.20651306 409.08002728 192.3125 410.125 C176.02736465 419.09068882 158.82114082 426.29003456 141.21875 432.21875 C137.44426372 433.49046153 133.70314671 434.83371426 129.96875 436.21875 C111.07862775 443.21633889 92.08997133 448.43744402 72.43359375 452.78125 C67.97622254 453.76947462 63.54166051 454.83418499 59.1081543 455.92382812 C48.39536053 458.54712387 37.6414314 460.64437119 26.77392578 462.51611328 C24.04254181 462.99257896 21.31610789 463.49123002 18.58984375 463.99609375 C2.46921467 466.94469242 -13.73843635 469.00911473 -30 471 C-28.35064453 471.94359375 -28.35064453 471.94359375 -26.66796875 472.90625 C-18.95044177 477.36011571 -11.49344018 481.86419665 -4.3828125 487.24609375 C-2.09076639 488.93318998 0.24577863 490.41592259 2.6875 491.875 C3.780625 492.57625 4.87375 493.2775 6 494 C6 494.66 6 495.32 6 496 C6.66 496.20625 7.32 496.4125 8 496.625 C12.07180186 498.49124252 15.68796998 500.97561527 19 504 C19 504.66 19 505.32 19 506 C19.68835937 506.226875 20.37671875 506.45375 21.0859375 506.6875 C24.68280212 508.30753554 27.5737379 510.54515546 30.625 513 C31.23746582 513.48694336 31.84993164 513.97388672 32.48095703 514.47558594 C38.2134505 519.0800582 43.60834037 524.0020171 49 529 C50.41097758 530.2564182 51.8271462 531.50704726 53.25 532.75 C54.19939453 533.57951172 54.19939453 533.57951172 55.16796875 534.42578125 C56.36795222 535.45689711 57.57863983 536.47571474 58.80078125 537.48046875 C63.38620225 541.27284577 67.16871417 545.45708697 71 550 C72.46955171 551.71911805 73.9421245 553.43561802 75.41503906 555.15185547 C76.47177199 556.38405945 77.52711164 557.61745968 78.58105469 558.85205078 C81.32597687 562.06542814 84.10467737 565.23843927 86.9375 568.375 C89.52696184 571.31841706 91.55304305 574.36550774 93.55078125 577.73046875 C95.40310654 580.63128006 97.47429621 583.32705523 99.5625 586.0625 C102.75803804 590.27048573 105.47004801 594.37629465 108 599 C108.93004549 600.35929725 109.86832806 601.71297676 110.8125 603.0625 C114.84100816 609.04453097 117.90197126 615.50618382 121 622 C121.30615234 622.6384082 121.61230469 623.27681641 121.92773438 623.93457031 C124.0001968 628.26849331 126.01808948 632.62390184 128 637 C128.57041016 638.25490234 128.57041016 638.25490234 129.15234375 639.53515625 C135.07054057 653.39181789 138.10676123 668.01125713 139 683 C139.06791748 684.08982178 139.06791748 684.08982178 139.13720703 685.20166016 C140.68472793 714.28080806 130.81605621 743.14855754 111.6875 765.0625 C107.08225805 770.05151211 102.17683012 774.61113257 97 779 C96.36707031 779.54398438 95.73414063 780.08796875 95.08203125 780.6484375 C89.96626009 784.77159635 84.21108208 787.57246425 78.3203125 790.40234375 C75.80230659 791.61394895 73.33883238 792.87311244 70.875 794.1875 C61.43246942 798.84900244 51.3054381 800.99538099 40.98632812 802.67529297 C39.13925273 802.97723622 37.29597196 803.30214594 35.453125 803.62890625 C3.7024449 808.67373653 -27.20115549 802.59498526 -56 789 C-56 788.34 -56 787.68 -56 787 C-56.804375 786.938125 -57.60875 786.87625 -58.4375 786.8125 C-63.1635451 785.73463007 -66.87513427 783.48408581 -71 781 C-71 780.34 -71 779.68 -71 779 C-72.02287109 778.64035156 -72.02287109 778.64035156 -73.06640625 778.2734375 C-91.36468436 770.33037669 -106.41595643 754.09714125 -120 740 C-120.68578125 739.29617188 -121.3715625 738.59234375 -122.078125 737.8671875 C-162.79861721 693.78626632 -184.33196684 626.16706462 -193 568 C-193.45890625 569.07378906 -193.9178125 570.14757813 -194.390625 571.25390625 C-195.01020142 572.69019704 -195.63000526 574.12638974 -196.25 575.5625 C-196.55035156 576.26697266 -196.85070312 576.97144531 -197.16015625 577.69726562 C-198.63556008 581.10325105 -200.16660847 584.38712309 -202.046875 587.58984375 C-203.99143346 590.98504283 -205.46046625 594.4064554 -207 598 C-208.49460956 600.91347165 -210.08425127 603.77014331 -211.6875 606.625 C-212.3527771 607.81512695 -212.3527771 607.81512695 -213.03149414 609.02929688 C-216.49654498 615.18883398 -220.13375955 621.22351606 -223.89013672 627.20996094 C-225.16554552 629.26699951 -226.41379302 631.33929941 -227.66015625 633.4140625 C-232.17702167 640.91973072 -236.71227083 648.29664659 -241.984375 655.3046875 C-243.47006784 657.29136978 -244.91137455 659.28561771 -246.328125 661.3203125 C-251.39856246 668.58924815 -256.74860518 675.46307901 -262.5546875 682.16015625 C-264.1552169 684.01891803 -265.70540009 685.92254282 -267.1953125 687.87109375 C-267.79085938 688.57363281 -268.38640625 689.27617188 -269 690 C-269.66 690 -270.32 690 -271 690 C-271.24492188 690.56074219 -271.48984375 691.12148437 -271.7421875 691.69921875 C-276.45790938 700.32518206 -285.07158639 707.10311482 -292.6875 713.125 C-295.0649559 714.98189336 -295.0649559 714.98189336 -297.2421875 717.2734375 C-300.18751648 720.18539165 -303.26105462 722.84738947 -306.4375 725.5 C-306.98470703 725.96019531 -307.53191406 726.42039062 -308.09570312 726.89453125 C-309.18896909 727.81313342 -310.283841 728.72982793 -311.38037109 729.64453125 C-312.46603016 730.5531202 -313.54706205 731.46726503 -314.62353516 732.38671875 C-317.14162391 734.52603551 -319.55142822 736.49680655 -322.5 738 C-324.99575806 739.3573421 -326.76269519 740.63557932 -329 742.5 C-331.61022027 744.67518355 -334.16439533 746.29147547 -337.1171875 747.94238281 C-338.88596051 748.93594151 -340.63147945 749.97057921 -342.375 751.0078125 C-378.42028148 772.24065011 -424.36720477 785.65896826 -466 775 C-475.51113123 772.52272169 -484.83030517 769.5450872 -494 766 C-494 765.34 -494 764.68 -494 764 C-495.2065625 763.9071875 -495.2065625 763.9071875 -496.4375 763.8125 C-501.21518981 762.72285145 -504.80640846 760.47885181 -509 758 C-510.8732202 756.92546356 -512.7499906 755.85729074 -514.62695312 754.78930664 C-517.42128214 753.19863978 -520.21049325 751.59910558 -523 750 C-523 749.34 -523 748.68 -523 748 C-523.68578125 747.77441406 -524.3715625 747.54882812 -525.078125 747.31640625 C-528.71502985 745.6778542 -531.65883361 743.41464739 -534.75 740.9375 C-535.37124756 740.44072754 -535.99249512 739.94395508 -536.63256836 739.43212891 C-546.94944011 731.07622681 -554.724249 721.44421474 -562.60961914 710.83544922 C-563.75488913 709.32357218 -564.95635686 707.85443585 -566.171875 706.3984375 C-569.56512198 701.94661347 -571.75409114 696.77448228 -574.16259766 691.74414062 C-574.89210864 690.22471599 -575.63801579 688.71318506 -576.38671875 687.203125 C-590.64989462 657.50692287 -592.7245082 623.38719166 -581.90039062 592.38085938 C-579.73706883 586.66049219 -576.96186264 581.27634647 -574.03662109 575.91455078 C-572.98149245 573.96581814 -571.96562753 572.00051603 -570.95703125 570.02734375 C-563.21894758 554.99473709 -563.21894758 554.99473709 -558 549 C-557.34 549 -556.68 549 -556 549 C-555.7525 548.278125 -555.505 547.55625 -555.25 546.8125 C-552.9597009 541.65932702 -549.11143061 537.79516671 -545 534 C-544.01 533.67 -543.02 533.34 -542 533 C-541.3033853 531.68206594 -540.64096555 530.34587718 -540 529 C-537.41633133 525.9881305 -534.56480023 523.23299314 -531.75 520.4375 C-530.53860352 519.23130005 -530.53860352 519.23130005 -529.30273438 518.00073242 C-522.59228069 511.41010827 -515.60502156 505.51961942 -508 500 C-506.66388672 499.02353516 -506.66388672 499.02353516 -505.30078125 498.02734375 C-500.20296817 494.3860487 -494.94713855 491.01128172 -489.640625 487.68359375 C-487.27786003 486.17715632 -484.98456094 484.60368884 -482.6875 483 C-477.35793069 479.42482628 -471.61172538 476.69524411 -465.84814453 473.90429688 C-464.00233215 473.00114112 -462.16980068 472.07544637 -460.33984375 471.140625 C-454.48554393 468.15368886 -448.64553544 465.29195083 -442.49682617 462.95678711 C-440.16816608 462.06444147 -437.85971765 461.13336904 -435.55078125 460.19140625 C-429.24126185 457.66282649 -422.84385331 455.39449771 -416.4375 453.125 C-415.20257812 452.68663818 -413.96765625 452.24827637 -412.6953125 451.79663086 C-410.24354195 450.92647695 -407.79156238 450.0569117 -405.33935547 449.18798828 C-402.49449459 448.17591831 -399.65410042 447.15303445 -396.81640625 446.12109375 C-390.11752461 443.69379288 -383.4688509 441.45781829 -376.515625 439.85546875 C-373.50450727 439.12276344 -370.53038612 438.32417004 -367.546875 437.48828125 C-366.56420654 437.21371094 -365.58153809 436.93914062 -364.5690918 436.65625 C-362.59528001 436.10233254 -360.62273342 435.54388266 -358.65161133 434.98046875 C-357.73661865 434.72523438 -356.82162598 434.47 -355.87890625 434.20703125 C-355.0597876 433.9747583 -354.24066895 433.74248535 -353.39672852 433.50317383 C-350.86694906 432.97206703 -348.57745663 432.91141874 -346 433 C-346 432.34 -346 431.68 -346 431 C-346.69657715 430.95536621 -347.3931543 430.91073242 -348.11083984 430.86474609 C-356.37575779 430.26383379 -364.47427435 429.10068567 -372.625 427.625 C-373.31698486 427.50017242 -374.00896973 427.37534485 -374.72192383 427.24673462 C-407.74401664 421.20209626 -442.42184719 413.09918388 -472.10644531 397.01806641 C-474.09718215 395.94775018 -476.1043259 394.91477301 -478.1171875 393.88671875 C-485.92373983 389.87348482 -493.54476664 385.59444051 -501.0625 381.0625 C-501.8551123 380.58965576 -502.64772461 380.11681152 -503.46435547 379.62963867 C-504.55127686 378.96411987 -504.55127686 378.96411987 -505.66015625 378.28515625 C-506.30605713 377.89207275 -506.95195801 377.49898926 -507.61743164 377.09399414 C-508.30180298 376.55246704 -508.30180298 376.55246704 -509 376 C-509 375.34 -509 374.68 -509 374 C-510.0828125 373.61328125 -510.0828125 373.61328125 -511.1875 373.21875 C-514.1463554 371.93657933 -516.41508642 370.42292351 -519 368.5 C-519.96035156 367.78585937 -520.92070313 367.07171875 -521.91015625 366.3359375 C-523.43962891 365.17964844 -523.43962891 365.17964844 -525 364 C-526.05058594 363.20851563 -527.10117187 362.41703125 -528.18359375 361.6015625 C-537.49888926 354.53512523 -546.80622899 347.36231377 -555 339 C-555.80953125 338.21753906 -556.6190625 337.43507813 -557.453125 336.62890625 C-560.43645266 333.54948981 -563.09399535 330.29900589 -565.75 326.9375 C-566.53117188 325.95330078 -566.53117188 325.95330078 -567.328125 324.94921875 C-580.88587229 307.802656 -580.88587229 307.802656 -585 300 C-585.44730469 299.21625 -585.89460937 298.4325 -586.35546875 297.625 C-592.42016453 286.89875142 -596.88751865 275.99456344 -600.3125 264.1875 C-600.56708984 263.31625488 -600.82167969 262.44500977 -601.08398438 261.54736328 C-606.3824653 242.57317104 -605.45780333 221.06422275 -601 202 C-600.73461426 200.86159668 -600.73461426 200.86159668 -600.46386719 199.70019531 C-595.91020032 180.78556867 -587.58887686 162.93691457 -575 148 C-574.236875 147.030625 -573.47375 146.06125 -572.6875 145.0625 C-570.04988036 141.90231903 -566.99041293 139.43423759 -563.6875 137 C-563.11427002 136.56993652 -562.54104004 136.13987305 -561.95043945 135.69677734 C-560.81527554 134.84568448 -559.67821134 133.99711897 -558.5390625 133.15136719 C-557.23146814 132.17316049 -555.94179398 131.17107195 -554.65625 130.1640625 C-532.02131547 112.46929225 -501.05088312 109.54464401 -473.4375 112.8125 C-460.06157256 114.87616697 -447.53473979 117.81568385 -434.75 122.1875 C-434.03010895 122.43121338 -433.3102179 122.67492676 -432.56851196 122.92602539 C-414.55543171 129.03230634 -397.88918769 136.22248516 -381.35302734 145.66699219 C-379.14009525 146.92063498 -376.91317409 148.1422447 -374.67578125 149.3515625 C-366.73588534 153.66740037 -359.35739773 158.40026538 -352.0859375 163.765625 C-349.48614274 165.64800804 -346.87876123 167.35740558 -344.125 169 C-343.09375 169.66 -342.0625 170.32 -341 171 C-341 171.66 -341 172.32 -341 173 C-340.28457031 173.2578125 -339.56914063 173.515625 -338.83203125 173.78125 C-335.82839889 175.07384765 -333.36494628 176.6277709 -330.6875 178.5 C-329.36298828 179.41265625 -329.36298828 179.41265625 -328.01171875 180.34375 C-327.01591797 181.16359375 -327.01591797 181.16359375 -326 182 C-326 182.66 -326 183.32 -326 184 C-325.195625 184.37125 -325.195625 184.37125 -324.375 184.75 C-321.4176018 186.30652537 -318.70275949 188.03435673 -316 190 C-316 190.66 -316 191.32 -316 192 C-315.319375 192.20625 -314.63875 192.4125 -313.9375 192.625 C-310.76403549 194.11045147 -308.67827649 195.84516357 -306.0859375 198.16015625 C-303.6110869 200.3430301 -301.06132866 202.41935905 -298.5 204.5 C-280.65052253 219.07299804 -266.64174504 236.2363726 -252.7109375 254.47265625 C-250.65199316 257.16241611 -248.56836691 259.83181317 -246.4765625 262.49609375 C-245.55206299 263.67594849 -245.55206299 263.67594849 -244.60888672 264.87963867 C-243.40735739 266.41177004 -242.20341886 267.94201647 -240.99658203 269.4699707 C-237.06862611 274.48626718 -233.46172661 279.65177388 -230 285 C-230.03552979 283.89301758 -230.07105957 282.78603516 -230.10766602 281.64550781 C-231.27432508 244.57584065 -231.27432508 244.57584065 -230.6875 233.25 C-230.65277588 232.55293945 -230.61805176 231.85587891 -230.58227539 231.13769531 C-230.31971643 227.1969021 -229.74734147 223.34645913 -229.08251953 219.45410156 C-228.07942787 213.50815656 -227.1467716 207.55357423 -226.23046875 201.59375 C-225.72340494 198.33933678 -225.21471671 195.08518028 -224.70581055 191.83105469 C-224.36257277 189.62514975 -224.02236139 187.41877161 -223.68530273 185.21191406 C-220.72812328 165.88262187 -217.11603334 147.20884661 -209.79589844 129.01708984 C-208.96649436 126.91508479 -208.18636892 124.79938758 -207.4140625 122.67578125 C-203.56743794 112.21250384 -198.83167097 102.5002987 -193.47900391 92.73144531 C-191.84281367 89.70970607 -190.25382903 86.66562884 -188.66796875 83.6171875 C-180.62221205 68.2440852 -172.22955084 53.20076333 -160.3046875 40.4453125 C-158.77734462 38.82394779 -158.77734462 38.82394779 -157 36 C-156.34 36 -155.68 36 -155 36 C-154.62875 35.071875 -154.62875 35.071875 -154.25 34.125 C-152.76259631 31.59641373 -151.56321991 31.28160996 -149 30 C-148.71125 29.401875 -148.4225 28.80375 -148.125 28.1875 C-146.79626379 25.60384627 -145.01260569 24.19736684 -142.73046875 22.44140625 C-140.85311375 20.9299961 -140.85311375 20.9299961 -138.78515625 18.7109375 C-135.48231851 15.49611367 -131.95178468 12.79729675 -128.25 10.0625 C-127.5398877 9.53470947 -126.82977539 9.00691895 -126.09814453 8.46313477 C-89.19820785 -18.82191094 -38.80359954 -30.31106278 0 0 Z M-126.859375 53.9921875 C-128.60545612 55.96958706 -130.30845566 57.97589476 -132 60 C-132.76570313 60.87591797 -132.76570313 60.87591797 -133.546875 61.76953125 C-136.18064144 64.49060322 -136.18064144 64.49060322 -137 68 C-137.66 68 -138.32 68 -139 68 C-140.39358194 69.8872724 -141.64159859 71.75994226 -142.875 73.75 C-143.26357178 74.36762207 -143.65214355 74.98524414 -144.05249023 75.62158203 C-145.3785624 77.7415339 -146.69012315 79.87000625 -148 82 C-148.48388184 82.78149414 -148.96776367 83.56298828 -149.46630859 84.36816406 C-170.78971 118.90093474 -184.52441009 154.64021258 -190.51708984 194.86865234 C-190.9730079 197.82497439 -191.46095635 200.77486362 -191.95559692 203.72491455 C-195.490808 224.98493824 -196.70616169 245.46657595 -196 267 C-195.97631348 267.93553711 -195.95262695 268.87107422 -195.92822266 269.83496094 C-195.80177478 274.58293614 -195.48784412 279.27243841 -195 284 C-194.88527344 285.31484375 -194.77054688 286.6296875 -194.65234375 287.984375 C-192.69851924 305.3273343 -184.95244227 322.14561306 -178 338 C-176.19015625 337.98259766 -176.19015625 337.98259766 -174.34375 337.96484375 C-172.72916823 337.95545665 -171.11458476 337.94635744 -169.5 337.9375 C-168.70851563 337.92912109 -167.91703125 337.92074219 -167.1015625 337.91210938 C-161.97238283 337.89108815 -157.07663894 338.26062713 -152 339 C-150.9171875 337.39125 -150.9171875 337.39125 -149.8125 335.75 C-147.53733766 332.55836381 -145.14822417 330.36116813 -142 328 C-140.8553125 326.8553125 -140.8553125 326.8553125 -139.6875 325.6875 C-135.69402414 321.69402414 -131.41262985 318.04451726 -127.10546875 314.39453125 C-123.57280513 311.40061808 -120.2354711 308.32061508 -117 305 C-114.24983323 302.17746042 -111.46175667 299.52128861 -108.4375 297 C-105.55772117 294.56804854 -103.30342609 291.99445392 -101 289 C-99.3545622 287.31237149 -97.68711423 285.6459651 -96 284 C-95.236875 283.236875 -94.47375 282.47375 -93.6875 281.6875 C-92.10542535 280.10542535 -90.51510841 278.53139208 -88.90625 276.9765625 C-88.1740625 276.26242187 -87.441875 275.54828125 -86.6875 274.8125 C-85.64142578 273.80123047 -85.64142578 273.80123047 -84.57421875 272.76953125 C-82.77844303 271.14569097 -82.77844303 271.14569097 -83 269 C-82.34 269 -81.68 269 -81 269 C-79.64617851 267.51261765 -78.36860114 265.95569449 -77.125 264.375 C-73.44516569 259.76777611 -69.67426557 255.26801353 -65.8125 250.8125 C-58.06161508 243.10689084 -58.06161508 243.10689084 -54 234 C-53.34 234 -52.68 234 -52 234 C-50.3507189 231.90749345 -48.8208765 229.81601787 -47.3125 227.625 C-46.86261719 226.98232178 -46.41273438 226.33964355 -45.94921875 225.67749023 C-45.04234279 224.38081955 -44.13817674 223.08224911 -43.23681641 221.78173828 C-41.6740651 219.5304633 -40.08500114 217.298146 -38.5 215.0625 C-37.32997105 213.3773295 -36.16361826 211.68960348 -35 210 C-34.63438965 209.47390137 -34.2687793 208.94780273 -33.89208984 208.40576172 C-12.48972458 177.50680868 4.51728997 141.64457628 9 104 C9.1340625 103.14019531 9.268125 102.28039062 9.40625 101.39453125 C12.31269971 79.56313062 4.06749023 57.39462926 -8.55859375 39.83203125 C-12.19644801 35.36604756 -16.56217841 31.64775487 -21 28 C-21.639375 27.46117187 -22.27875 26.92234375 -22.9375 26.3671875 C-56.11349982 -0.25387687 -102.58143828 27.98011244 -126.859375 53.9921875 Z M-527 153 C-527.99 153.433125 -528.98 153.86625 -530 154.3125 C-547.47595956 164.14272725 -559.14767164 181.12674729 -565 200 C-572.70061166 229.30492617 -570.76470532 256.90331557 -555.5078125 283.54296875 C-553.54603355 286.73975361 -551.49019774 289.85891461 -549.359375 292.9453125 C-548.13390815 294.7975986 -547.1271613 296.64705007 -546.125 298.625 C-543.79511037 302.32541294 -541.28000972 304.61415244 -537.9453125 307.3828125 C-534.9264979 309.89242946 -532.231854 312.70606317 -529.52734375 315.546875 C-515.7033074 329.79576353 -498.59949421 341.24275903 -482 352 C-481.01128906 352.64839844 -480.02257812 353.29679688 -479.00390625 353.96484375 C-472.8309657 357.96631018 -466.51485817 361.58564368 -460 365 C-459.18917969 365.43183594 -458.37835937 365.86367188 -457.54296875 366.30859375 C-452.00167155 369.18219052 -446.34661804 371.52028683 -440.49609375 373.69140625 C-438.18220823 374.55749748 -435.88189905 375.46084758 -433.59765625 376.40234375 C-420.45799782 381.68905798 -406.76360982 384.77446126 -393 388 C-392.03739258 388.23074219 -391.07478516 388.46148438 -390.08300781 388.69921875 C-358.61383155 396.21084853 -326.35230362 400.01268638 -294.28738403 403.96702576 C-288.33318829 404.70307659 -282.38386403 405.46886345 -276.4375 406.265625 C-275.71416473 406.36193207 -274.99082947 406.45823914 -274.24557495 406.5574646 C-270.97031029 406.99355281 -267.69584316 407.43391498 -264.42236328 407.88330078 C-258.21577222 408.70605352 -252.26119838 409.17281439 -246 409 C-244.42594042 405.41424992 -243.42931687 401.82232713 -242.50390625 398.02270508 C-239.34380945 385.34281668 -233.10086886 367.19584639 -221.6875 359.5625 C-220.800625 359.046875 -219.91375 358.53125 -219 358 C-221.32137859 354.32562856 -223.65700811 350.66062536 -226 347 C-226.45503906 346.28328125 -226.91007812 345.5665625 -227.37890625 344.828125 C-233.66640882 335.14349418 -240.82297496 325.97466112 -248 316.9375 C-249.91653996 314.50866296 -251.33336074 312.37925932 -252.8125 309.625 C-254.62219579 306.25973592 -257.01480593 303.71818886 -259.625 300.9375 C-264.95538582 295.22301285 -269.39220975 289.08856415 -273.8359375 282.67382812 C-280.58921276 272.96316219 -287.50328756 263.26707156 -296 255 C-297.66666667 253 -299.33333333 251 -301 249 C-304.2218158 245.47266338 -304.2218158 245.47266338 -308.1875 242.9375 C-310 242 -310 242 -310.89453125 240.14453125 C-312.13176379 237.74438756 -313.44076846 236.47766036 -315.5 234.75 C-316.1084375 234.22921875 -316.716875 233.7084375 -317.34375 233.171875 C-318.93395821 231.80747003 -318.93395821 231.80747003 -321 232 C-321 231.34 -321 230.68 -321 230 C-322.64356886 228.4922621 -322.64356886 228.4922621 -324.8125 226.9375 C-328.38322987 224.2427148 -331.8700259 221.48205336 -335.3125 218.625 C-341.07202128 213.89367778 -347.00267034 209.42400421 -353 205 C-354.03382813 204.2265625 -355.06765625 203.453125 -356.1328125 202.65625 C-357.12023437 201.9240625 -358.10765625 201.191875 -359.125 200.4375 C-360.01445313 199.77621094 -360.90390625 199.11492187 -361.8203125 198.43359375 C-363.84368399 196.81683117 -363.84368399 196.81683117 -366 197 C-366 196.34 -366 195.68 -366 195 C-368.41119256 193.29798288 -368.41119256 193.29798288 -371.51953125 191.55078125 C-372.09273605 191.21507614 -372.66594086 190.87937103 -373.2565155 190.53349304 C-375.10451694 189.45280242 -376.95815729 188.38226682 -378.8125 187.3125 C-381.21672177 185.91597027 -383.61836676 184.51505941 -386.01953125 183.11328125 C-386.61421204 182.76759094 -387.20889282 182.42190063 -387.82159424 182.06573486 C-391.53106001 179.89849663 -395.15584483 177.63182841 -398.75390625 175.28515625 C-403.70200505 172.10633649 -408.757032 169.51601657 -414.125 167.125 C-415.05513916 166.70718262 -415.98527832 166.28936523 -416.94360352 165.85888672 C-448.67125249 151.8834561 -493.58709217 134.92900129 -527 153 Z M108 217 C107.21979492 217.17660156 106.43958984 217.35320312 105.63574219 217.53515625 C84.72970702 222.3288968 64.55589369 230.28473115 45 239 C44.28440918 239.31791504 43.56881836 239.63583008 42.83154297 239.96337891 C32.21413878 244.72057455 22.06187268 250.16201101 11.94775391 255.90283203 C9.42186586 257.32566243 6.86885822 258.69532175 4.3125 260.0625 C-0.75313152 262.81062467 -5.68524512 265.76653778 -10.61206055 268.75415039 C-14.11949988 270.88094653 -17.65218074 272.94912277 -21.21826172 274.97705078 C-31.95133171 281.13922716 -41.72045372 287.77779332 -51 296 C-51.72574219 296.62777344 -52.45148437 297.25554687 -53.19921875 297.90234375 C-55.14504526 299.58821702 -57.07404137 301.29148831 -59 303 C-59.763125 303.6703125 -60.52625 304.340625 -61.3125 305.03125 C-67.80264413 310.75282443 -73.72514807 316.75173882 -79.484375 323.20703125 C-81.62959523 325.58875868 -83.80772499 327.93455393 -85.99829102 330.27441406 C-90.50296621 335.10262063 -94.67676648 340.06581572 -98.6875 345.3125 C-102.66023177 350.50733923 -106.76769941 355.01205743 -112 359 C-111.03745688 362.15014113 -110.32586344 363.74341025 -107.703125 365.80859375 C-101.0531853 371.19965758 -95.91933687 379.43162535 -92 387 C-91.55269531 387.78761719 -91.10539062 388.57523438 -90.64453125 389.38671875 C-83.34777186 402.83601563 -79.56400667 417.84986311 -78 433 C-77.67583716 435.6678782 -77.33760629 438.33377599 -77 441 C-58.62303525 439.99750896 -40.60941799 438.18405785 -22.39794922 435.48925781 C-18.14197337 434.876456 -13.87895363 434.3356905 -9.61230469 433.80322266 C0.34858108 432.5576962 10.16368387 431.01884958 20 429 C21.03898437 428.78972168 22.07796875 428.57944336 23.1484375 428.36279297 C39.14798095 425.12235091 55.11188407 421.75113595 71 418 C72.13429443 417.73340576 72.13429443 417.73340576 73.29150391 417.46142578 C80.93018822 415.653202 88.42343528 413.62786115 95.84375 411.0546875 C98.81663839 410.06127182 101.8063797 409.16306581 104.81860352 408.29711914 C107.77608731 407.44623344 110.72614816 406.5712009 113.67529297 405.69189453 C115.20945472 405.23528726 116.74492267 404.78304307 118.28173828 404.33544922 C157.8135722 392.67510015 198.59318491 372.2687744 227 342 C227.85658203 341.11441406 227.85658203 341.11441406 228.73046875 340.2109375 C240.76668832 327.10985132 248.67041179 309.50926278 248.171875 291.63671875 C247.24066004 277.35103465 238.64706322 264.97655223 230 254 C229.525625 253.39542969 229.05125 252.79085937 228.5625 252.16796875 C223.96103096 246.4880304 218.67650082 241.57709947 213 237 C212.32710937 236.4534375 211.65421875 235.906875 210.9609375 235.34375 C181.93712555 213.40134922 142.40627737 208.92328351 108 217 Z M-195 379 C-198.40189941 382.76191637 -201.24167637 386.75022372 -204 391 C-204.44214844 391.64195312 -204.88429688 392.28390625 -205.33984375 392.9453125 C-213.33138864 405.43021659 -212.83703329 423.4744079 -209.91870117 437.53637695 C-207.24080876 448.46397139 -202.08129663 460.94372286 -194 469 C-193.34 469 -192.68 469 -192 469 C-191.67 469.99 -191.34 470.98 -191 472 C-190.34 472 -189.68 472 -189 472 C-189 472.66 -189 473.32 -189 474 C-182.68747339 479.54446254 -175.93919749 483.37525713 -168 486 C-167.07445312 486.35707031 -166.14890625 486.71414063 -165.1953125 487.08203125 C-156.40425607 489.60757925 -145.18778902 489.13131585 -137 485 C-136.11957031 484.58234375 -135.23914062 484.1646875 -134.33203125 483.734375 C-123.78421942 477.97308744 -117.28853499 467.25744415 -113.71875 455.953125 C-109.30535729 437.81983756 -111.41165953 420.48840848 -120.66796875 404.03515625 C-122.37007358 401.29600741 -124.15254242 398.64277564 -126 396 C-126.47179688 395.28070312 -126.94359375 394.56140625 -127.4296875 393.8203125 C-135.06532802 382.73353502 -147.26333844 375.75781398 -160 372 C-172.3611502 369.85324562 -184.87156134 371.10042434 -195 379 Z M-322.2578125 461.7890625 C-327.45470281 463.14221507 -332.69358535 464.28317916 -337.9375 465.4375 C-352.08257459 468.58640353 -365.94471847 472.67973398 -379.76953125 477.0078125 C-382.19975746 477.75421813 -384.63138895 478.47688588 -387.07421875 479.1796875 C-413.17669417 486.6909582 -437.78043232 497.38847198 -461.26904297 511.01123047 C-463.87827541 512.5016947 -466.5340306 513.90273397 -469.1875 515.3125 C-472.78595429 517.25920478 -475.85084122 519.37570102 -479 522 C-480.0725 522.5775 -481.145 523.155 -482.25 523.75 C-486.19368677 525.93052659 -489.30023052 528.82208631 -492.609375 531.85546875 C-495.02641398 534.0236949 -497.51476124 536.05009898 -500.0625 538.0625 C-506.67203092 543.31124514 -512.84336873 548.53304566 -518.30078125 554.99609375 C-519.37454182 556.2623907 -520.47352517 557.50808906 -521.60546875 558.72265625 C-527.40270455 564.98807737 -532.06915194 572.07008331 -536.77978516 579.1640625 C-537.77303541 580.65850867 -538.78087903 582.14324772 -539.79296875 583.625 C-547.34475853 595.28674508 -551.87907122 609.36309074 -554 623 C-554.165 623.96808594 -554.33 624.93617188 -554.5 625.93359375 C-555.66960172 634.9127236 -553.870587 643.2511087 -552 652 C-551.690625 653.57974609 -551.690625 653.57974609 -551.375 655.19140625 C-549.10116117 665.63685338 -544.64242406 675.93562065 -539 685 C-538.58363281 685.76957031 -538.16726563 686.53914063 -537.73828125 687.33203125 C-523.19364977 712.6357052 -493.78931517 730.7303188 -466.43359375 739.08984375 C-457.41819925 741.47958996 -448.33433868 743.53679222 -439 744 C-437.96746094 744.05285156 -436.93492187 744.10570312 -435.87109375 744.16015625 C-405.08437502 744.96572454 -372.93237103 731.3152372 -348 714 C-347.00613281 713.33871094 -346.01226563 712.67742187 -344.98828125 711.99609375 C-338.79040588 707.81682676 -332.84484448 703.40622061 -327 698.75 C-326.37706055 698.2547583 -325.75412109 697.7595166 -325.11230469 697.24926758 C-321.52127642 694.35140714 -318.23571961 691.29860462 -315 688 C-314.21625 687.401875 -313.4325 686.80375 -312.625 686.1875 C-309.76463614 683.80386345 -307.49332276 681.22474432 -305.08203125 678.3984375 C-303.09567564 676.11021546 -301.05425419 673.88192289 -298.9909668 671.66308594 C-284.03254329 655.55676768 -270.7836039 637.48655233 -259.15478516 618.84716797 C-258.29017803 617.46416216 -257.42208823 616.08333253 -256.55224609 614.70361328 C-247.57673932 600.46254877 -239.4688998 586.07147427 -232.00756836 570.99462891 C-229.67762079 566.30032646 -227.24105831 561.6730512 -224.75 557.0625 C-222.25243041 552.43412426 -219.89957641 547.79526497 -217.859375 542.9453125 C-217.01294762 541.0293087 -216.02663504 539.26175149 -215 537.4375 C-210.01745866 527.511805 -206.75698518 513.02674436 -208 502 C-209.82779986 498.82145069 -212.07355785 497.12528688 -215 495 C-227.95636501 482.6986171 -236.09596623 467.03506466 -241 450 C-265.13697871 444.4829763 -298.74888599 455.63547202 -322.2578125 461.7890625 Z M-88 482 C-88.38929688 482.66644531 -88.77859375 483.33289063 -89.1796875 484.01953125 C-100.14180313 502.07923788 -115.38424502 514.80547906 -136 520 C-136.76699219 520.20625 -137.53398438 520.4125 -138.32421875 520.625 C-144.87311022 522.18374442 -151.19376619 522.05348345 -157.875 521.77734375 C-158.90625 521.85082031 -159.9375 521.92429687 -161 522 C-163.19377868 525.29066802 -163.21276668 525.85713423 -162.8984375 529.59375 C-162.82262451 530.52783691 -162.74681152 531.46192383 -162.66870117 532.42431641 C-162.57177979 533.43929199 -162.4748584 534.45426758 -162.375 535.5 C-162.23058472 537.09013916 -162.23058472 537.09013916 -162.08325195 538.71240234 C-160.15388125 558.76789586 -156.87194666 578.45484813 -152 598 C-151.69449219 599.27101563 -151.38898438 600.54203125 -151.07421875 601.8515625 C-150.13226239 605.59449042 -149.10199208 609.3017893 -148 613 C-147.75475586 613.82564453 -147.50951172 614.65128906 -147.25683594 615.50195312 C-139.66554353 640.57920951 -128.76349664 664.99845845 -115.5625 687.625 C-115.08514404 688.44476318 -114.60778809 689.26452637 -114.1159668 690.10913086 C-108.48127339 699.69715946 -102.07612619 708.42672934 -95 717 C-94.44699219 717.68964844 -93.89398437 718.37929687 -93.32421875 719.08984375 C-88.52766017 724.87089885 -82.88145936 729.36393162 -77 734 C-75.58460938 735.16208984 -75.58460938 735.16208984 -74.140625 736.34765625 C-72.80257812 737.44400391 -72.80257812 737.44400391 -71.4375 738.5625 C-70.63183594 739.22378906 -69.82617188 739.88507813 -68.99609375 740.56640625 C-67.13885027 742.19444708 -67.13885027 742.19444708 -65 742 C-65 742.66 -65 743.32 -65 744 C-63.39053636 745.29355932 -63.39053636 745.29355932 -61.2578125 746.5390625 C-60.44779785 747.03341797 -59.6377832 747.52777344 -58.80322266 748.03710938 C-57.91940918 748.56111328 -57.0355957 749.08511719 -56.125 749.625 C-55.22185059 750.16189453 -54.31870117 750.69878906 -53.38818359 751.25195312 C-24.0388804 768.38049981 7.532072 775.25046282 40.84423828 767.49951172 C42.60805596 767.09081739 44.37936084 766.71455606 46.15234375 766.34765625 C67.17082411 761.51182543 83.63468261 747.84242672 95 730 C97.09057103 726.41752146 98.65343522 722.91877833 100 719 C100.58201172 717.45119141 100.58201172 717.45119141 101.17578125 715.87109375 C109.30368194 690.87291122 103.02573145 660.66709005 91.4609375 637.69140625 C87.77504964 630.82231489 83.66615739 624.18469027 79.21484375 617.78515625 C78 616 78 616 76.1875 612.75 C68.97322437 599.88848403 59.341513 586.73801232 48.6171875 576.578125 C46.75748761 574.7633454 45.07244494 572.84199629 43.375 570.875 C39.98363771 566.95373736 36.55859344 563.24687475 32.5 560 C29.79307091 557.83445673 27.45072238 555.45072238 25 553 C23.78256198 551.88291478 22.55294113 550.77898547 21.3125 549.6875 C20.73113281 549.17574219 20.14976562 548.66398437 19.55078125 548.13671875 C18.05161728 546.8029375 18.05161728 546.8029375 16 547 C16 546.34 16 545.68 16 545 C14.28502228 543.41173778 14.28502228 543.41173778 12.125 541.875 C11.40570312 541.33617187 10.68640625 540.79734375 9.9453125 540.2421875 C8.10373994 538.82060368 8.10373994 538.82060368 6 539 C6 538.34 6 537.68 6 537 C4.26451831 535.55473264 2.46024037 534.1912778 0.625 532.875 C-0.87160156 531.78832031 -0.87160156 531.78832031 -2.3984375 530.6796875 C-4.76392238 528.81919528 -4.76392238 528.81919528 -7 529 C-7 528.34 -7 527.68 -7 527 C-8.83924379 525.48089762 -10.67135478 524.11066596 -12.625 522.75 C-13.23819092 522.31888916 -13.85138184 521.88777832 -14.4831543 521.44360352 C-29.07374221 511.30853667 -44.05993518 501.86054047 -60 494 C-60.95213379 493.52868652 -61.90426758 493.05737305 -62.88525391 492.57177734 C-66.00143796 491.03648666 -69.12390189 489.51499474 -72.25 488 C-73.2392749 487.51829346 -74.2285498 487.03658691 -75.24780273 486.5402832 C-76.18180908 486.09386475 -77.11581543 485.64744629 -78.078125 485.1875 C-79.32190918 484.59001953 -79.32190918 484.59001953 -80.59082031 483.98046875 C-83.05551371 482.97740747 -85.38006924 482.43412661 -88 482 Z " fill="#F82388" transform="translate(1178,524)"/>
</svg>
