<?xml version="1.0" encoding="UTF-8"?>
<svg version="1.1" xmlns="http://www.w3.org/2000/svg" width="2048" height="2048">
<path d="M0 0 C18.83424005 -0.77709134 36.97004389 5.48168074 53.03515625 14.9140625 C53.70466309 15.3069043 54.37416992 15.69974609 55.06396484 16.10449219 C56.67539139 17.08580151 58.23613299 18.14944114 59.78515625 19.2265625 C59.78515625 19.8865625 59.78515625 20.5465625 59.78515625 21.2265625 C60.50703125 21.4740625 61.22890625 21.7215625 61.97265625 21.9765625 C65.06122207 23.34925842 67.29527043 24.95009546 69.78515625 27.2265625 C69.78515625 27.8865625 69.78515625 28.5465625 69.78515625 29.2265625 C70.40390625 29.4740625 71.02265625 29.7215625 71.66015625 29.9765625 C74.18874252 31.46396619 74.50354629 32.66334259 75.78515625 35.2265625 C77.10923294 35.91142975 78.44424866 36.57526453 79.78515625 37.2265625 C83.95878938 41.12341019 87.56501804 45.42301306 91.16015625 49.8515625 C91.73451416 50.55869385 92.30887207 51.2658252 92.90063477 51.99438477 C97.31095242 57.49370058 101.14185662 63.19294988 104.78515625 69.2265625 C105.7976261 70.75297644 106.81826446 72.27400895 107.84765625 73.7890625 C112.68258094 81.0092167 117.00288837 88.40668376 120.78515625 96.2265625 C121.10097656 96.83757812 121.41679688 97.44859375 121.7421875 98.078125 C124.25538062 102.9443077 126.37651805 107.93237341 128.44140625 113.00390625 C129.49185782 115.52315783 130.58871334 118.00102062 131.71875 120.484375 C133.86440554 125.29070381 135.63557592 130.1894111 137.34765625 135.1640625 C137.63833984 135.99357422 137.92902344 136.82308594 138.22851562 137.67773438 C139.99417898 142.76142283 141.61154457 147.87163007 143.11547852 153.03881836 C143.92395297 155.67999212 144.92553884 158.23691378 145.91015625 160.81640625 C150.02513631 172.15097187 152.94707843 183.71438901 155.6640625 195.44921875 C156.48363547 198.9820491 157.36449693 202.48501833 158.34765625 205.9765625 C162.25110456 220.01143281 164.92735349 234.16760619 167.328125 248.52587891 C167.85586088 251.64436943 168.41399202 254.75660946 168.97827148 257.86865234 C172.41478154 276.89778735 174.7585575 295.9988539 176.78515625 315.2265625 C177.90033906 313.49210657 179.01315866 311.75613106 180.125 310.01953125 C180.7449585 309.05297607 181.36491699 308.0864209 182.00366211 307.09057617 C183.54598619 304.61106352 184.97695236 302.11599768 186.34765625 299.5390625 C188.35120861 295.85278807 190.65625599 292.59331839 193.234375 289.2890625 C195.49758299 286.27905288 197.48542542 283.10140297 199.48828125 279.9140625 C199.91625 279.3571875 200.34421875 278.8003125 200.78515625 278.2265625 C201.44515625 278.2265625 202.10515625 278.2265625 202.78515625 278.2265625 C202.99140625 277.5665625 203.19765625 276.9065625 203.41015625 276.2265625 C205.27639877 272.15476064 207.76077152 268.53859252 210.78515625 265.2265625 C211.44515625 265.2265625 212.10515625 265.2265625 212.78515625 265.2265625 C213.01847656 264.52144531 213.25179687 263.81632812 213.4921875 263.08984375 C215.03703068 259.6687862 217.03302096 257.26466239 219.47265625 254.4140625 C219.92108887 253.88707764 220.36952148 253.36009277 220.83154297 252.81713867 C222.14231692 251.28086279 223.46352845 249.75351106 224.78515625 248.2265625 C225.74228516 247.11667969 225.74228516 247.11667969 226.71875 245.984375 C227.82481061 244.71227758 228.9365804 243.44511601 230.0546875 242.18359375 C231.35567096 240.71227837 232.6423677 239.22831078 233.921875 237.73828125 C234.63988281 236.90941406 235.35789062 236.08054687 236.09765625 235.2265625 C237.08185547 234.081875 237.08185547 234.081875 238.0859375 232.9140625 C239.78515625 231.2265625 239.78515625 231.2265625 241.78515625 231.2265625 C242.01203125 230.6696875 242.23890625 230.1128125 242.47265625 229.5390625 C245.18669756 224.75718019 249.55517344 221.61054875 253.78515625 218.2265625 C254.54828125 217.453125 255.31140625 216.6796875 256.09765625 215.8828125 C259.54519449 212.47536191 263.28078232 209.52780462 267.06640625 206.5078125 C269.8015484 204.21280817 272.26791657 201.75594321 274.78515625 199.2265625 C279.25108503 195.43131207 283.80528196 192.09598334 288.96484375 189.32421875 C292.04522868 187.46673341 294.78370393 185.17178288 297.57421875 182.91015625 C299.88960356 181.14702754 302.27656735 179.6992472 304.78515625 178.2265625 C306.43198516 177.14474319 308.0777665 176.061328 309.72265625 174.9765625 C315.59580642 171.23410001 321.68250794 168.10877194 327.96142578 165.10595703 C329.76465781 164.23644675 331.55435612 163.3390495 333.34375 162.44140625 C345.99564314 156.18482501 362.47166311 148.81760555 376.78515625 149.2265625 C377.77515625 148.8965625 378.76515625 148.5665625 379.78515625 148.2265625 C408.19075054 143.74655765 437.895056 149.94976844 461.66015625 166.19140625 C463.76077873 167.81300165 465.78154887 169.48750068 467.78515625 171.2265625 C468.40132812 171.71253906 469.0175 172.19851563 469.65234375 172.69921875 C471.07329526 173.82222881 472.4372238 175.01687953 473.78515625 176.2265625 C473.78515625 176.8865625 473.78515625 177.5465625 473.78515625 178.2265625 C474.38513428 178.48848389 474.9851123 178.75040527 475.60327148 179.02026367 C477.919843 180.30102678 479.06630503 181.463783 480.6953125 183.52734375 C481.21029297 184.17509766 481.72527344 184.82285156 482.25585938 185.49023438 C482.78115234 186.16634766 483.30644531 186.84246094 483.84765625 187.5390625 C484.64139648 188.53583008 484.64139648 188.53583008 485.45117188 189.55273438 C488.15943274 192.98818197 490.64366722 196.40060954 492.78515625 200.2265625 C493.19636719 200.94457031 493.60757813 201.66257812 494.03125 202.40234375 C495.29570041 204.67006301 496.54267254 206.94674037 497.78515625 209.2265625 C498.12675781 209.83113281 498.46835938 210.43570313 498.8203125 211.05859375 C515.73876198 242.49814158 514.76775332 283.33642042 505.17578125 316.734375 C502.26983304 326.34731828 498.90698831 335.56113733 493.78515625 344.2265625 C492.71670396 346.16078643 491.6536871 348.09802893 490.59765625 350.0390625 C489.83388672 351.44091797 489.83388672 351.44091797 489.0546875 352.87109375 C488.27796847 354.31220629 487.51728982 355.76229537 486.78515625 357.2265625 C486.12515625 357.2265625 485.46515625 357.2265625 484.78515625 357.2265625 C484.42550781 358.24556641 484.42550781 358.24556641 484.05859375 359.28515625 C482.51383324 362.85326871 480.51988626 366.03828571 478.41015625 369.2890625 C478.0234375 369.90072266 477.63671875 370.51238281 477.23828125 371.14257812 C475.03551421 374.56130214 472.74153572 377.44221373 469.78515625 380.2265625 C469.24890625 380.9690625 468.71265625 381.7115625 468.16015625 382.4765625 C467.47953125 383.3428125 467.47953125 383.3428125 466.78515625 384.2265625 C466.12515625 384.2265625 465.46515625 384.2265625 464.78515625 384.2265625 C464.55828125 384.7834375 464.33140625 385.3403125 464.09765625 385.9140625 C462.42085124 388.86843322 460.21191273 390.85758593 457.78515625 393.2265625 C457.18703125 394.0309375 456.58890625 394.8353125 455.97265625 395.6640625 C453.54023555 398.5134696 450.93849067 400.46319527 447.8828125 402.6015625 C445.65077153 404.25794025 445.65077153 404.25794025 443.40234375 406.62890625 C440.70373431 409.30737682 437.90227779 411.52856394 434.84765625 413.7890625 C433.84863281 414.53285156 432.84960938 415.27664063 431.8203125 416.04296875 C428.85238639 418.17819487 425.8377741 420.21479683 422.78515625 422.2265625 C422.02332031 422.7421875 421.26148438 423.2578125 420.4765625 423.7890625 C416.0150347 426.80161705 411.50840574 429.639793 406.78515625 432.2265625 C405.56892578 432.90332031 405.56892578 432.90332031 404.328125 433.59375 C394.68870816 438.91680422 384.89969939 443.87101761 374.78515625 448.2265625 C373.24794922 448.90332031 373.24794922 448.90332031 371.6796875 449.59375 C341.40183901 462.79968166 304.31647106 477.0863398 270.78515625 476.2265625 C270.78515625 476.8865625 270.78515625 477.5465625 270.78515625 478.2265625 C271.78289062 478.35611328 271.78289062 478.35611328 272.80078125 478.48828125 C276.70714651 479.45464648 279.98037661 481.18637192 283.53515625 483.0390625 C284.97837417 483.77759239 286.42237804 484.51458855 287.8671875 485.25 C288.89513428 485.77352051 288.89513428 485.77352051 289.94384766 486.30761719 C292.00707586 487.33731633 294.09716506 488.27043752 296.22265625 489.1640625 C300.82755466 491.14784915 305.23111047 493.50807635 309.66015625 495.8515625 C310.41095459 496.24851318 311.16175293 496.64546387 311.93530273 497.05444336 C314.98811972 498.68203587 317.90182724 500.30434316 320.78515625 502.2265625 C320.78515625 502.8865625 320.78515625 503.5465625 320.78515625 504.2265625 C321.4503125 504.46890625 322.11546875 504.71125 322.80078125 504.9609375 C326.53810241 506.54587475 330.00742572 508.47499855 333.53515625 510.4765625 C334.59379883 511.07609741 334.59379883 511.07609741 335.67382812 511.68774414 C347.49200242 518.43652939 347.49200242 518.43652939 350.78515625 521.2265625 C350.78515625 521.8865625 350.78515625 522.5465625 350.78515625 523.2265625 C351.85830078 523.61328125 351.85830078 523.61328125 352.953125 524.0078125 C355.95675736 525.30041015 358.42020997 526.8543334 361.09765625 528.7265625 C361.98066406 529.335 362.86367187 529.9434375 363.7734375 530.5703125 C364.43730469 531.116875 365.10117188 531.6634375 365.78515625 532.2265625 C365.78515625 532.8865625 365.78515625 533.5465625 365.78515625 534.2265625 C366.46578125 534.4534375 367.14640625 534.6803125 367.84765625 534.9140625 C371.48402715 536.53882396 374.81344888 538.55459507 377.78515625 541.2265625 C377.78515625 541.8865625 377.78515625 542.5465625 377.78515625 543.2265625 C378.32140625 543.4740625 378.85765625 543.7215625 379.41015625 543.9765625 C385.24628187 547.04820756 391.61550777 550.71761707 393.78515625 557.2265625 C395.0969597 557.93465425 396.43442167 558.59589752 397.78515625 559.2265625 C405.02191979 564.93828243 411.08865565 571.45688431 416.72265625 578.7265625 C418.75349006 581.27201538 418.75349006 581.27201538 421.13671875 583.5625 C424.37603172 586.82092396 427.26623888 590.28678824 430.16015625 593.8515625 C430.73451416 594.55869385 431.30887207 595.2658252 431.90063477 595.99438477 C436.31070003 601.49338587 440.14474349 607.19139546 443.78515625 613.2265625 C444.77622787 614.73247652 445.77605451 616.23267037 446.78515625 617.7265625 C447.27242187 618.45875 447.7596875 619.1909375 448.26171875 619.9453125 C449.30945756 621.5142342 450.36735363 623.07640512 451.43359375 624.6328125 C458.27512567 634.91058896 463.46810674 646.28577914 467.8527832 657.8137207 C468.45493152 659.37199036 469.07648208 660.92296345 469.72119141 662.46411133 C476.87787167 679.61977797 479.85863274 697.75625607 480.78515625 716.2265625 C480.89150391 717.86044922 480.89150391 717.86044922 481 719.52734375 C481.73888027 740.42287784 475.34929202 761.03887144 467.78515625 780.2265625 C467.12515625 780.2265625 466.46515625 780.2265625 465.78515625 780.2265625 C465.72328125 781.0309375 465.66140625 781.8353125 465.59765625 782.6640625 C464.5080077 787.44175231 462.26400806 791.03297096 459.78515625 795.2265625 C458.71061981 797.0997827 457.64244699 798.9765531 456.57446289 800.85351562 C454.98379603 803.64784464 453.38426183 806.43705575 451.78515625 809.2265625 C451.12515625 809.2265625 450.46515625 809.2265625 449.78515625 809.2265625 C449.53765625 809.9484375 449.29015625 810.6703125 449.03515625 811.4140625 C447.63771861 814.55829718 446.03247082 816.61481854 443.78515625 819.2265625 C442.97304687 820.17595703 442.97304687 820.17595703 442.14453125 821.14453125 C437.06414948 827.03114752 431.96870811 832.17054785 425.68359375 836.76171875 C423.61499 838.28682491 423.61499 838.28682491 421.41015625 840.6640625 C417.58407214 844.39904937 413.21300395 847.25024983 408.78515625 850.2265625 C407.82351563 850.88011719 406.861875 851.53367187 405.87109375 852.20703125 C377.79575689 870.58038461 343.78275669 877.95878937 310.78515625 871.2265625 C289.41458734 866.55474793 268.06695893 855.56847234 250.78515625 842.2265625 C250.78515625 841.5665625 250.78515625 840.9065625 250.78515625 840.2265625 C250.06328125 839.9790625 249.34140625 839.7315625 248.59765625 839.4765625 C243.44448327 837.1862634 239.58032296 833.33799311 235.78515625 829.2265625 C235.45515625 828.2365625 235.12515625 827.2465625 234.78515625 826.2265625 C233.46624318 825.53180315 232.13034616 824.86896917 230.78515625 824.2265625 C218.72991357 813.63783388 207.77146849 799.83455694 199.14453125 786.3359375 C197.57124489 783.89463108 195.90255906 781.53315621 194.22265625 779.1640625 C185.77686742 767.12510913 179.1802538 754.18502233 172.6784668 741.02587891 C171.85141317 739.36001794 171.01029024 737.70116203 170.16796875 736.04296875 C168.94276583 733.54756959 167.85923758 731.06412675 166.84765625 728.4765625 C166.54988281 727.71859375 166.25210937 726.960625 165.9453125 726.1796875 C165.56246094 725.20515625 165.17960937 724.230625 164.78515625 723.2265625 C164.51815918 722.58372314 164.25116211 721.94088379 163.97607422 721.27856445 C160.86209668 713.70443769 158.21808134 705.98057359 155.57617188 698.23266602 C154.78991139 695.92800063 153.99877528 693.62505215 153.20703125 691.32226562 C149.27808454 679.85990666 145.48881164 668.39942378 142.640625 656.61328125 C141.36450113 651.5612292 139.93497801 646.55272089 138.49829102 641.54418945 C137.34069718 637.45408463 136.38772786 633.44456377 135.78515625 629.2265625 C133.76432367 637.33855709 132.16798847 645.43734651 130.87573242 653.69287109 C125.69330033 686.40353034 116.54076295 721.9790857 100.78515625 751.2265625 C100.2128125 752.32742188 99.64046875 753.42828125 99.05078125 754.5625 C93.96019731 764.31208619 88.46398365 773.80907851 82.78515625 783.2265625 C82.34220215 783.97953613 81.89924805 784.73250977 81.44287109 785.50830078 C81.00281738 786.24161621 80.56276367 786.97493164 80.109375 787.73046875 C79.71194092 788.40021729 79.31450684 789.06996582 78.9050293 789.76000977 C78.53547119 790.24397217 78.16591309 790.72793457 77.78515625 791.2265625 C77.12515625 791.2265625 76.46515625 791.2265625 75.78515625 791.2265625 C75.78515625 792.2165625 75.78515625 793.2065625 75.78515625 794.2265625 C75.12515625 794.2265625 74.46515625 794.2265625 73.78515625 794.2265625 C73.51703125 794.95230469 73.24890625 795.67804687 72.97265625 796.42578125 C71.79845244 799.19520274 70.44572385 801.53575684 68.78515625 804.0390625 C68.26953125 804.82925781 67.75390625 805.61945312 67.22265625 806.43359375 C66.51109375 807.32111328 66.51109375 807.32111328 65.78515625 808.2265625 C65.12515625 808.2265625 64.46515625 808.2265625 63.78515625 808.2265625 C63.53765625 808.9484375 63.29015625 809.6703125 63.03515625 810.4140625 C60.70959897 815.64656638 56.78276498 819.22895377 52.78515625 823.2265625 C50.98389763 825.32206645 49.19945491 827.42926186 47.43359375 829.5546875 C45.78515625 831.2265625 45.78515625 831.2265625 42.78515625 832.2265625 C42.07874168 833.53926989 41.41636017 834.87607969 40.78515625 836.2265625 C34.7177201 843.76800856 26.35943523 849.19107713 18.62207031 854.86376953 C16.28104286 856.6005605 13.99984105 858.40716227 11.72265625 860.2265625 C8.25658985 862.9303549 4.69525223 865.21763524 0.78515625 867.2265625 C-0.0759375 867.67644531 -0.93703125 868.12632812 -1.82421875 868.58984375 C-35.41154491 885.78335595 -69.54979253 891.13508368 -106.14355469 879.61962891 C-115.98012992 876.40372861 -125.32635804 872.52183058 -134.21484375 867.2265625 C-134.21484375 866.5665625 -134.21484375 865.9065625 -134.21484375 865.2265625 C-134.99859375 865.0409375 -135.78234375 864.8553125 -136.58984375 864.6640625 C-146.78448028 860.62136181 -154.08078093 852.92468046 -160.65234375 844.4140625 C-161.13388916 843.7938623 -161.61543457 843.17366211 -162.11157227 842.53466797 C-163.05911019 841.31231687 -164.00505519 840.08872892 -164.94921875 838.86376953 C-165.9975397 837.50766608 -167.05778718 836.16079181 -168.12109375 834.81640625 C-171.46877281 830.52078746 -174.00664331 826.20145765 -176.21484375 821.2265625 C-176.63894531 820.28425781 -177.06304688 819.34195313 -177.5 818.37109375 C-180.10655033 812.37526806 -182.14555455 806.67374741 -183.21484375 800.2265625 C-183.38757813 799.21722656 -183.5603125 798.20789062 -183.73828125 797.16796875 C-184.27611242 793.85913784 -184.75816382 790.54750693 -185.21484375 787.2265625 C-185.40433594 785.91751953 -185.40433594 785.91751953 -185.59765625 784.58203125 C-187.33729792 770.06271425 -185.16078527 755.43757162 -182.21484375 741.2265625 C-182.01616699 740.21674316 -182.01616699 740.21674316 -181.81347656 739.18652344 C-176.52715535 712.57572006 -164.72400816 687.57070962 -151.41015625 664.1171875 C-149.61345023 660.94725186 -147.8714784 657.75187152 -146.15234375 654.5390625 C-143.85240349 650.31284173 -141.44757764 646.15980816 -138.96484375 642.0390625 C-138.2996875 640.93175781 -137.63453125 639.82445312 -136.94921875 638.68359375 C-136.376875 637.87277344 -135.80453125 637.06195312 -135.21484375 636.2265625 C-134.55484375 636.2265625 -133.89484375 636.2265625 -133.21484375 636.2265625 C-132.94671875 635.50082031 -132.67859375 634.77507813 -132.40234375 634.02734375 C-131.22813994 631.25792226 -129.87541135 628.91736816 -128.21484375 626.4140625 C-127.69921875 625.62386719 -127.18359375 624.83367188 -126.65234375 624.01953125 C-126.17796875 623.42785156 -125.70359375 622.83617187 -125.21484375 622.2265625 C-124.55484375 622.2265625 -123.89484375 622.2265625 -123.21484375 622.2265625 C-122.828125 621.15341797 -122.828125 621.15341797 -122.43359375 620.05859375 C-121.1409961 617.05496139 -119.58707285 614.59150878 -117.71484375 611.9140625 C-117.10640625 611.03105469 -116.49796875 610.14804688 -115.87109375 609.23828125 C-115.32453125 608.57441406 -114.77796875 607.91054687 -114.21484375 607.2265625 C-113.55484375 607.2265625 -112.89484375 607.2265625 -112.21484375 607.2265625 C-111.84359375 606.4221875 -111.84359375 606.4221875 -111.46484375 605.6015625 C-108.96145116 600.84511658 -106.06627096 596.95375013 -102.21484375 593.2265625 C-101.67859375 592.4840625 -101.14234375 591.7415625 -100.58984375 590.9765625 C-100.13609375 590.3990625 -99.68234375 589.8215625 -99.21484375 589.2265625 C-98.55484375 589.2265625 -97.89484375 589.2265625 -97.21484375 589.2265625 C-96.96734375 588.5046875 -96.71984375 587.7828125 -96.46484375 587.0390625 C-94.17454465 581.88588952 -90.32627436 578.02172921 -86.21484375 574.2265625 C-85.22484375 573.8965625 -84.23484375 573.5665625 -83.21484375 573.2265625 C-82.75078125 572.2675 -82.75078125 572.2675 -82.27734375 571.2890625 C-80.95700157 568.72604532 -79.73337635 568.4858288 -77.21484375 567.2265625 C-76.5299765 565.90248581 -75.86614172 564.56747009 -75.21484375 563.2265625 C-71.40960431 559.15354695 -67.23075889 555.6546175 -62.90234375 552.1640625 C-62.20375244 551.59824463 -61.50516113 551.03242676 -60.78540039 550.44946289 C-55.33788617 546.06594965 -49.77835563 541.8501289 -44.16040039 537.68847656 C-39.46606096 534.20042963 -34.88540448 530.59339047 -30.33984375 526.9140625 C-23.25859819 521.19243815 -16.03859004 515.89739555 -8.21484375 511.2265625 C-9.2320752 511.25685547 -10.24930664 511.28714844 -11.29736328 511.31835938 C-15.14040319 511.43225099 -18.98351863 511.54340371 -22.82666016 511.65380859 C-24.47707193 511.7015862 -26.12746354 511.75006648 -27.77783203 511.79931641 C-56.76637007 512.66280477 -56.76637007 512.66280477 -67.52734375 511.4140625 C-68.33526367 511.32423096 -69.14318359 511.23439941 -69.97558594 511.1418457 C-75.67087539 510.47873376 -81.30806032 509.59790625 -86.9453125 508.54370117 C-91.86847376 507.62566186 -96.80261256 506.80351537 -101.75 506.02734375 C-102.42584137 505.92080978 -103.10168274 505.81427582 -103.79800415 505.70451355 C-106.54240965 505.27229363 -109.2868002 504.84029897 -112.03283691 504.41854858 C-120.56318405 503.10709303 -128.88196308 501.47522922 -137.21484375 499.2265625 C-138.13620117 498.98566895 -139.05755859 498.74477539 -140.00683594 498.49658203 C-152.40572053 495.24292161 -164.49740604 491.44345541 -176.21484375 486.2265625 C-177.5296875 485.66001953 -177.5296875 485.66001953 -178.87109375 485.08203125 C-185.65459543 482.09928566 -192.14597925 478.64851625 -198.66015625 475.12890625 C-201.46212845 473.61884811 -204.28980827 472.18177757 -207.15234375 470.7890625 C-222.19866717 463.32848949 -237.93738282 454.7977978 -250.21484375 443.2265625 C-250.21484375 442.5665625 -250.21484375 441.9065625 -250.21484375 441.2265625 C-251.30345703 440.87078125 -251.30345703 440.87078125 -252.4140625 440.5078125 C-255.64968284 439.0276403 -257.5449266 437.26249776 -260.02734375 434.7265625 C-260.81753906 433.9325 -261.60773437 433.1384375 -262.421875 432.3203125 C-264.21484375 430.2265625 -264.21484375 430.2265625 -264.21484375 428.2265625 C-265.08109375 427.88625 -265.08109375 427.88625 -265.96484375 427.5390625 C-268.81075756 425.87894611 -270.21326296 423.83468293 -272.21484375 421.2265625 C-273.33246094 420.12828125 -273.33246094 420.12828125 -274.47265625 419.0078125 C-277.59427785 415.84172336 -280.37979219 412.51004307 -283.15234375 409.0390625 C-283.68085937 408.37777344 -284.209375 407.71648437 -284.75390625 407.03515625 C-288.71694933 402.00551639 -292.13589945 396.84537668 -295.21484375 391.2265625 C-295.89546875 390.1128125 -296.57609375 388.9990625 -297.27734375 387.8515625 C-304.97336685 374.17681071 -309.57013512 358.74731867 -311.21484375 343.2265625 C-311.39853516 341.90205078 -311.39853516 341.90205078 -311.5859375 340.55078125 C-314.07309899 321.29830894 -307.67005091 302.63866193 -297.52734375 286.5390625 C-296.9382019 285.60102783 -296.9382019 285.60102783 -296.3371582 284.64404297 C-295.35327244 283.13294695 -294.29031516 281.67390614 -293.21484375 280.2265625 C-292.55484375 280.2265625 -291.89484375 280.2265625 -291.21484375 280.2265625 C-290.87453125 279.39125 -290.87453125 279.39125 -290.52734375 278.5390625 C-286.7748472 271.92752095 -279.64867014 267.2522617 -273.80566406 262.51855469 C-272.31646961 261.30909842 -270.83939999 260.08475576 -269.36328125 258.859375 C-244.79018538 239.29567057 -213.45443167 234.58203466 -182.96484375 237.9765625 C-180.36944255 238.36027685 -177.79619238 238.76743428 -175.21484375 239.2265625 C-174.4784668 239.35546875 -173.74208984 239.484375 -172.98339844 239.6171875 C-161.01106895 241.7767058 -149.63790241 245.07122593 -138.21484375 249.2265625 C-136.40113281 249.88011719 -136.40113281 249.88011719 -134.55078125 250.546875 C-128.64375996 252.74644499 -122.99915973 255.21621144 -117.40234375 258.11328125 C-115.58440966 259.03847985 -113.71652958 259.86473335 -111.83984375 260.6640625 C-104.82019331 263.6897739 -97.56659895 266.94552603 -91.21484375 271.2265625 C-91.21484375 271.8865625 -91.21484375 272.5465625 -91.21484375 273.2265625 C-90.32539062 273.32453125 -89.4359375 273.4225 -88.51953125 273.5234375 C-84.98032888 274.27645928 -83.20297058 275.31748325 -80.33984375 277.4765625 C-76.07083754 280.61363525 -71.73459922 283.46448971 -67.21484375 286.2265625 C-68.02736003 284.60152995 -68.83990781 282.97651314 -69.65258789 281.3515625 C-70.3710431 279.91432183 -71.08896474 278.47681433 -71.80639648 277.0390625 C-73.61927094 273.40779735 -75.43856331 269.78030188 -77.28125 266.1640625 C-85.04187725 250.88839747 -91.96966367 235.28306715 -97.2734375 218.9765625 C-98.03349732 216.75630478 -98.85985318 214.6664792 -99.83984375 212.5390625 C-101.23099783 209.18764584 -101.96848996 206.05708065 -102.69140625 202.51953125 C-103.19203838 200.32646363 -103.83918162 198.28286689 -104.58984375 196.1640625 C-118.79001942 154.42415219 -114.82447299 110.92906792 -96.21484375 71.2265625 C-92.87279241 64.72275469 -89.271331 58.31129338 -85.21484375 52.2265625 C-84.55484375 52.2265625 -83.89484375 52.2265625 -83.21484375 52.2265625 C-82.96734375 51.5046875 -82.71984375 50.7828125 -82.46484375 50.0390625 C-79.18290285 42.65469547 -72.49355259 37.11000271 -66.21484375 32.2265625 C-65.55484375 32.2265625 -64.89484375 32.2265625 -64.21484375 32.2265625 C-63.99957031 31.65679687 -63.78429687 31.08703125 -63.5625 30.5 C-61.75539974 27.45150044 -59.5120443 25.93333685 -56.65234375 23.8515625 C-56.11005127 23.45654541 -55.56775879 23.06152832 -55.0090332 22.65454102 C-53.41790349 21.50224643 -51.81655804 20.3640984 -50.21484375 19.2265625 C-49.4671875 18.68644531 -48.71953125 18.14632813 -47.94921875 17.58984375 C-33.0119284 7.18505181 -18.15990578 1.27979895 0 0 Z M-50.390625 62.62890625 C-56.36272003 69.71462777 -60.93507455 77.05352308 -65.21484375 85.2265625 C-65.67632813 86.10699219 -66.1378125 86.98742187 -66.61328125 87.89453125 C-79.54665935 114.46150219 -82.85406459 144.51399851 -76.21484375 173.2265625 C-75.88591688 174.73810698 -75.55781442 176.24983105 -75.23046875 177.76171875 C-73.82664374 184.06953666 -72.33897305 190.13425804 -69.99560547 196.16625977 C-68.62343721 199.78718783 -67.4727044 203.48186525 -66.27734375 207.1640625 C-64.48600388 212.60704344 -62.65202754 217.93010007 -60.19921875 223.1171875 C-59.01164862 225.66198064 -57.96187462 228.25089581 -56.90234375 230.8515625 C-50.27543924 246.81270445 -42.716193 262.58101613 -33.8671875 277.4296875 C-30.61610912 282.93269487 -27.62907172 288.58437073 -24.61328125 294.21875 C-24.08992188 295.19070313 -23.5665625 296.16265625 -23.02734375 297.1640625 C-22.55941406 298.03933594 -22.09148437 298.91460938 -21.609375 299.81640625 C-20.28571634 302.10407401 -18.81572293 304.1284075 -17.21484375 306.2265625 C-16.63734375 307.2578125 -16.05984375 308.2890625 -15.46484375 309.3515625 C-11.20993419 316.88928617 -5.90155814 323.72630856 -0.58984375 330.5390625 C-0.13472412 331.1256665 0.32039551 331.71227051 0.78930664 332.31665039 C3.5847789 335.86582128 6.55192698 339.06047696 9.78515625 342.2265625 C11.29655968 343.88289503 12.79677431 345.54951242 14.28515625 347.2265625 C17.36153988 350.66457401 20.47603328 354.00935962 23.78515625 357.2265625 C24.61015625 358.0721875 25.43515625 358.9178125 26.28515625 359.7890625 C28.71279329 362.23553143 28.71279329 362.23553143 31.28515625 364.2265625 C33.78515625 366.2265625 33.78515625 366.2265625 36.34765625 368.8515625 C38.56524742 371.26160219 38.56524742 371.26160219 40.97265625 372.2890625 C43.34038327 373.51374889 43.64104897 374.86684124 44.78515625 377.2265625 C47.41962336 379.64941723 47.41962336 379.64941723 50.78515625 380.2265625 C50.78515625 380.8865625 50.78515625 381.5465625 50.78515625 382.2265625 C51.79578125 382.9071875 52.80640625 383.5878125 53.84765625 384.2890625 C58.50910392 387.44743113 61.53566918 391.69308358 64.78515625 396.2265625 C67.85750299 394.29741455 70.4643723 392.54734645 73.03515625 389.9765625 C78.88723552 384.12448323 85.38908996 378.97626477 92.78515625 375.2265625 C93.66816406 374.75476563 94.55117188 374.28296875 95.4609375 373.796875 C111.73344259 365.31237818 128.58210032 362.14462967 146.78515625 361.2265625 C147.06587366 341.26443585 144.93093348 321.9065833 141.84765625 302.20703125 C141.58855469 300.54897461 141.58855469 300.54897461 141.32421875 298.85742188 C140.96663434 296.57328667 140.60727714 294.28942825 140.24609375 292.00585938 C139.47004738 287.02236758 138.73285317 282.06294775 138.27734375 277.0390625 C137.8079106 271.96908197 136.9016046 267.029992 135.91015625 262.0390625 C135.73234619 261.12487549 135.55453613 260.21068848 135.37133789 259.26879883 C134.10838776 252.7951151 132.81247294 246.32788515 131.50390625 239.86328125 C130.98602791 237.24292944 130.484912 234.62317094 130.00390625 231.99609375 C129.87314697 231.28364502 129.7423877 230.57119629 129.60766602 229.8371582 C129.24571123 227.85294823 128.88832483 225.86790646 128.53125 223.8828125 C127.44359088 218.55271338 125.85129299 213.41091401 124.22265625 208.2265625 C123.35537579 205.36711306 122.73347281 202.82786168 122.34765625 199.8515625 C121.68658704 195.59133871 120.36197954 191.79769223 118.95703125 187.73046875 C117.63431483 183.77554665 116.44856762 179.79309194 115.28515625 175.7890625 C114.85811279 174.32681127 114.43102983 172.86457158 114.00390625 171.40234375 C113.79765625 170.6954541 113.59140625 169.98856445 113.37890625 169.26025391 C110.92464548 160.85400712 108.27943192 152.62667639 105.06640625 144.4765625 C103.7902226 141.23941372 102.56941059 137.98457409 101.34765625 134.7265625 C95.09904382 118.51131592 87.49721073 100.88419195 76.99609375 86.9296875 C75.78515625 85.2265625 75.78515625 85.2265625 74.47265625 82.9609375 C72.34782726 79.51792756 69.91698235 76.39735876 67.41015625 73.2265625 C66.9409375 72.62328125 66.47171875 72.02 65.98828125 71.3984375 C61.074475 64.87669508 61.074475 64.87669508 54.59765625 60.1640625 C52.78515625 59.2265625 52.78515625 59.2265625 51.84765625 57.33984375 C46.50864608 46.72070955 29.38891139 39.84914551 18.78515625 36.2265625 C-7.42077109 28.34414971 -33.13881108 43.58067365 -50.390625 62.62890625 Z M344.78515625 194.2265625 C343.25195296 195.01409525 341.7100273 195.78486103 340.16015625 196.5390625 C330.30482253 201.41516932 320.80865845 206.46382526 312.26171875 213.41015625 C309.81544801 215.20434536 307.27286836 216.64530052 304.62744141 218.12182617 C301.43412817 220.03671385 298.56508272 222.34331355 295.66015625 224.6640625 C295.06589844 225.12876953 294.47164062 225.59347656 293.859375 226.07226562 C290.25990074 228.92085618 286.99908401 231.93933463 283.78515625 235.2265625 C282.11848958 236.55989583 280.45182292 237.89322917 278.78515625 239.2265625 C277.09752774 240.8720003 275.43112135 242.53944827 273.78515625 244.2265625 C272.93953125 245.0515625 272.09390625 245.8765625 271.22265625 246.7265625 C268.77618732 249.15419954 268.77618732 249.15419954 266.78515625 251.7265625 C264.78515625 254.2265625 264.78515625 254.2265625 262.16015625 256.7890625 C259.74622998 259.01952606 259.74622998 259.01952606 258.66015625 261.4765625 C258.37140625 262.0540625 258.08265625 262.6315625 257.78515625 263.2265625 C256.30015625 263.7215625 256.30015625 263.7215625 254.78515625 264.2265625 C253.42152417 266.20602842 252.09096981 268.208487 250.78515625 270.2265625 C249.47249107 271.58024846 248.139483 272.91455846 246.78515625 274.2265625 C243.77878477 277.31793154 243.77878477 277.31793154 242.78515625 281.2265625 C242.12515625 281.2265625 241.46515625 281.2265625 240.78515625 281.2265625 C239.42755692 282.90446124 238.1480382 284.64599338 236.91015625 286.4140625 C234.30321285 290.11631863 231.62651833 293.70138714 228.78515625 297.2265625 C225.8526541 300.89546719 225.8526541 300.89546719 224.78515625 305.2265625 C223.79515625 305.5565625 222.80515625 305.8865625 221.78515625 306.2265625 C220.16174209 308.28292115 220.16174209 308.28292115 218.6484375 310.84765625 C218.07158203 311.78287109 217.49472656 312.71808594 216.90039062 313.68164062 C216.30548828 314.66583984 215.71058594 315.65003906 215.09765625 316.6640625 C214.49115234 317.64439453 213.88464844 318.62472656 213.25976562 319.63476562 C210.09620405 324.12899362 210.09620405 324.12899362 208.78515625 329.2265625 C208.12515625 329.2265625 207.46515625 329.2265625 206.78515625 329.2265625 C206.55948975 329.75008301 206.33382324 330.27360352 206.10131836 330.81298828 C202.97347066 337.96972908 199.47053142 344.91469913 195.93945312 351.87890625 C192.72299174 358.25799704 189.69361719 364.70130112 186.78515625 371.2265625 C187.57019531 371.73445312 188.35523438 372.24234375 189.1640625 372.765625 C207.81437045 384.98558137 221.25144436 401.10122452 226.03515625 423.4140625 C226.95977055 428.91392342 226.90286967 434.36320971 226.71191406 439.9206543 C226.66609317 441.68886527 226.71837774 443.45901895 226.78515625 445.2265625 C228.56490052 447.41426296 228.56490052 447.41426296 230.8671875 447.4921875 C246.15184645 447.40472164 261.37791551 445.64846626 276.36328125 442.69921875 C279.12585276 442.16007173 281.89287848 441.64724234 284.66015625 441.1328125 C298.28820989 438.55464627 311.53559869 435.31455351 324.78515625 431.2265625 C325.74711914 430.93458984 326.70908203 430.64261719 327.70019531 430.34179688 C330.66933417 429.43877646 333.6342044 428.52306165 336.59765625 427.6015625 C337.49895264 427.3245752 338.40024902 427.04758789 339.32885742 426.76220703 C344.10070979 425.24908234 348.49162235 423.49241708 352.92407227 421.16845703 C355.81042881 419.7076721 358.82253962 418.61558759 361.84765625 417.4765625 C369.24933897 414.60415607 376.14266931 411.02819471 383.07324219 407.17285156 C384.65832044 406.29667311 386.25640764 405.44414128 387.85546875 404.59375 C393.02263672 401.84464392 397.92274122 398.89702089 402.74609375 395.58203125 C404.78515625 394.2265625 404.78515625 394.2265625 408.16015625 392.4140625 C413.54279112 389.41677162 418.10749983 385.1954831 422.78515625 381.2265625 C423.52378906 380.61296875 424.26242187 379.999375 425.0234375 379.3671875 C429.04720711 375.96065633 432.5857389 372.35819718 435.9921875 368.3359375 C437.93860771 366.04603137 439.9527683 363.8267995 441.97265625 361.6015625 C447.36558103 356.10357742 447.36558103 356.10357742 449.78515625 349.2265625 C450.77515625 348.8965625 451.76515625 348.5665625 452.78515625 348.2265625 C468.24393549 327.35206902 476.75529145 302.03754917 477.78515625 276.2265625 C477.82640625 275.19273437 477.86765625 274.15890625 477.91015625 273.09375 C478.45042482 245.60758625 470.11412903 220.65444575 451.18359375 200.5234375 C442.63955098 192.54899758 430.93135593 186.41625398 419.78515625 183.2265625 C418.73908203 182.90945313 418.73908203 182.90945313 417.671875 182.5859375 C394.72557917 176.53606666 364.76159769 181.56864936 344.78515625 194.2265625 Z M-215.65234375 271.5390625 C-216.36455078 271.65701172 -217.07675781 271.77496094 -217.81054688 271.89648438 C-222.87664969 272.79375054 -227.45714857 274.2900382 -232.21484375 276.2265625 C-233.28089844 276.63777344 -234.34695313 277.04898437 -235.4453125 277.47265625 C-236.42113281 277.86582031 -237.39695312 278.25898437 -238.40234375 278.6640625 C-239.38589844 279.05464844 -240.36945313 279.44523437 -241.3828125 279.84765625 C-244.38787424 281.31081045 -246.66498595 283.08068558 -249.21484375 285.2265625 C-250.03984375 285.7009375 -250.86484375 286.1753125 -251.71484375 286.6640625 C-254.67857173 288.51639249 -256.80695078 290.69827488 -259.21484375 293.2265625 C-260.06046875 294.0515625 -260.90609375 294.8765625 -261.77734375 295.7265625 C-266.30836786 299.84421251 -266.30836786 299.84421251 -268.21484375 305.2265625 C-269.69984375 305.7215625 -269.69984375 305.7215625 -271.21484375 306.2265625 C-271.54484375 308.2065625 -271.87484375 310.1865625 -272.21484375 312.2265625 C-272.87484375 312.2265625 -273.53484375 312.2265625 -274.21484375 312.2265625 C-280.98664327 333.82075583 -277.66538391 353.06670102 -267.21875 373.140625 C-261.09727012 384.26597017 -253.27173814 394.34930899 -244.21484375 403.2265625 C-243.10109375 404.37125 -243.10109375 404.37125 -241.96484375 405.5390625 C-226.81813396 421.46980845 -226.81813396 421.46980845 -208.21484375 430.2265625 C-208.21484375 430.8865625 -208.21484375 431.5465625 -208.21484375 432.2265625 C-206.56484375 432.5565625 -204.91484375 432.8865625 -203.21484375 433.2265625 C-203.21484375 433.8865625 -203.21484375 434.5465625 -203.21484375 435.2265625 C-196.52931036 440.23693967 -185.65671835 447.2265625 -177.21484375 447.2265625 C-177.21484375 447.8865625 -177.21484375 448.5465625 -177.21484375 449.2265625 C-169.89266447 452.32694472 -162.53202288 455.28462751 -155.09765625 458.10546875 C-152.96447091 458.93504082 -150.86100328 459.84194453 -148.77734375 460.7890625 C-139.10128252 464.69343808 -128.88708905 466.87547897 -118.65673828 468.77294922 C-115.74624828 469.31361013 -112.83811157 469.86630415 -109.9296875 470.41796875 C-77.00254 476.62882707 -44.79518724 480.55704541 -11.21484375 477.2265625 C-10.15136719 477.12915771 -10.15136719 477.12915771 -9.06640625 477.02978516 C3.68385041 475.76314782 15.07441268 471.94354374 27.0078125 467.3828125 C32.19859348 465.40007156 37.4381807 463.7329608 42.78515625 462.2265625 C42.75035156 461.07994141 42.75035156 461.07994141 42.71484375 459.91015625 C42.56711216 451.1412314 43.44596254 442.87153616 44.78515625 434.2265625 C43.84800781 433.62714844 42.91085937 433.02773438 41.9453125 432.41015625 C38.50346454 430.03192015 36.38165389 427.48882877 33.78515625 424.2265625 C32.93953125 423.3809375 32.09390625 422.5353125 31.22265625 421.6640625 C28.86410342 419.30550967 26.86651892 416.82826584 24.78515625 414.2265625 C23.96015625 413.4015625 23.13515625 412.5765625 22.28515625 411.7265625 C19.90368953 409.34509578 17.88644027 406.85316753 15.78515625 404.2265625 C13.34590284 401.72476413 10.85013986 399.28987987 8.34765625 396.8515625 C5.76841028 394.20940809 3.43615854 391.45168143 1.1171875 388.58203125 C0.67761719 388.13472656 0.23804688 387.68742187 -0.21484375 387.2265625 C-0.87484375 387.2265625 -1.53484375 387.2265625 -2.21484375 387.2265625 C-2.58609375 386.2984375 -2.58609375 386.2984375 -2.96484375 385.3515625 C-4.03628104 383.08909756 -4.03628104 383.08909756 -6.21484375 382.2265625 C-8.76851942 380.94972467 -8.95676491 379.74272019 -10.21484375 377.2265625 C-13.92578332 372.93793049 -18.27346625 369.25913651 -22.60546875 365.6171875 C-24.92965389 363.60891102 -27.04322906 361.39817719 -29.21484375 359.2265625 C-33.90877505 354.95046221 -38.69306062 350.77596479 -43.53125 346.6640625 C-44.69232786 345.67270136 -45.84555229 344.67209345 -46.9921875 343.6640625 C-50.58065321 340.52317347 -54.22039629 337.82759805 -58.21484375 335.2265625 C-58.87484375 334.5665625 -59.53484375 333.9065625 -60.21484375 333.2265625 C-61.49471642 332.2320294 -62.7878731 331.25448602 -64.08984375 330.2890625 C-65.10691406 329.53302734 -65.10691406 329.53302734 -66.14453125 328.76171875 C-67.16933594 328.00181641 -67.16933594 328.00181641 -68.21484375 327.2265625 C-68.91867187 326.66839844 -69.6225 326.11023438 -70.34765625 325.53515625 C-72.10779883 324.03525511 -72.10779883 324.03525511 -74.21484375 324.2265625 C-74.21484375 323.5665625 -74.21484375 322.9065625 -74.21484375 322.2265625 C-75.79474025 320.90290723 -75.79474025 320.90290723 -77.86328125 319.625 C-78.62125 319.13515625 -79.37921875 318.6453125 -80.16015625 318.140625 C-80.96195313 317.63273437 -81.76375 317.12484375 -82.58984375 316.6015625 C-83.7809375 315.828125 -83.7809375 315.828125 -84.99609375 315.0390625 C-88.81949376 312.26893297 -88.81949376 312.26893297 -93.21484375 311.2265625 C-93.21484375 310.5665625 -93.21484375 309.9065625 -93.21484375 309.2265625 C-95.1862196 307.76863452 -95.1862196 307.76863452 -97.74609375 306.328125 C-98.70257812 305.76609375 -99.6590625 305.2040625 -100.64453125 304.625 C-101.65773438 304.03976562 -102.6709375 303.45453125 -103.71484375 302.8515625 C-105.18824219 301.9853125 -105.18824219 301.9853125 -106.69140625 301.1015625 C-112.10807967 297.93822522 -117.55344949 294.9279787 -123.21484375 292.2265625 C-124.23191406 291.73671875 -125.24898437 291.246875 -126.296875 290.7421875 C-127.64845703 290.11570312 -127.64845703 290.11570312 -129.02734375 289.4765625 C-130.39826172 288.83460938 -130.39826172 288.83460938 -131.796875 288.1796875 C-134.24683541 287.04320168 -134.24683541 287.04320168 -137.21484375 287.2265625 C-137.21484375 286.5665625 -137.21484375 285.9065625 -137.21484375 285.2265625 C-167.97998186 274.42022907 -167.97998186 274.42022907 -200.21484375 270.2265625 C-201.313125 270.19433594 -202.41140625 270.16210938 -203.54296875 270.12890625 C-207.68796047 270.23914539 -211.58048879 270.80239027 -215.65234375 271.5390625 Z M89.78515625 418.2265625 C83.91336138 424.92777204 83.91336138 424.92777204 81.78515625 433.2265625 C81.12515625 433.2265625 80.46515625 433.2265625 79.78515625 433.2265625 C74.95941769 445.24538306 74.5188855 457.85487797 78.80078125 470.140625 C83.28701956 479.73468887 92.12736305 486.47702547 101.72265625 490.6640625 C120.36191951 497.04861534 139.89057985 496.98159492 157.78515625 488.2265625 C158.69910156 487.783125 159.61304688 487.3396875 160.5546875 486.8828125 C166.57775203 483.78476563 172.21678521 480.30543919 176.78515625 475.2265625 C176.78515625 474.5665625 176.78515625 473.9065625 176.78515625 473.2265625 C177.37296875 473.00226563 177.96078125 472.77796875 178.56640625 472.546875 C185.74487013 468.27518346 190.36146404 456.3552699 193.03515625 448.6015625 C195.86627223 435.83626278 193.23737832 424.31297721 186.78515625 413.2265625 C183.81449032 408.90132656 180.31631247 406.29154341 175.84765625 403.6640625 C175.18596436 403.27347656 174.52427246 402.88289063 173.8425293 402.48046875 C145.61726943 386.38839186 111.72255828 396.21467014 89.78515625 418.2265625 Z M203.61328125 492.46875 C202.03612173 494.35472072 202.03612173 494.35472072 200.68359375 496.58984375 C198.04499985 500.2545575 194.75638946 502.76440245 191.22265625 505.5390625 C190.58432861 506.0542041 189.94600098 506.5693457 189.28833008 507.10009766 C185.62087714 510.00304198 182.05641907 512.26143482 177.78515625 514.2265625 C176.86476563 514.70996094 175.944375 515.19335938 174.99609375 515.69140625 C168.10248465 519.27114541 161.2197188 521.98564826 153.78515625 524.2265625 C148.3221162 546.45404605 158.51525663 575.71492774 163.04638672 597.62402344 C163.56373737 600.1468345 164.07431511 602.67013552 164.57470703 605.19628906 C164.70598495 605.85861038 164.83726288 606.5209317 164.97251892 607.20332336 C165.33656005 609.04475147 165.69897413 610.88650103 166.0612793 612.72827148 C168.32411491 623.66391113 171.35432323 634.41099263 174.34765625 645.1640625 C174.6405957 646.21835449 174.93353516 647.27264648 175.23535156 648.35888672 C176.74516381 653.73174168 178.3618995 659.03775388 180.16186523 664.32006836 C180.93945528 666.69852534 181.50298636 669.09488222 182.03515625 671.5390625 C184.8922356 683.31506679 189.26451801 694.90840558 193.90234375 706.09375 C194.51303983 707.5691485 195.10014455 709.0544521 195.66796875 710.546875 C198.28569966 717.38817175 201.52871136 723.87402887 204.85742188 730.39013672 C205.78401371 732.22430087 206.68644284 734.06849049 207.58203125 735.91796875 C210.52802394 741.97794875 213.59217712 747.75350797 217.453125 753.28515625 C218.67059132 755.05958663 219.74374065 756.84515736 220.78515625 758.7265625 C225.09903341 766.46012048 230.40214448 773.51480315 235.84765625 780.4765625 C236.74581055 781.64058594 236.74581055 781.64058594 237.66210938 782.828125 C240.82726503 786.89117257 244.04062404 790.67220793 247.78515625 794.2265625 C252.78515625 799.2265625 252.78515625 799.2265625 254.47265625 801.0390625 C255.73733896 802.45020027 255.73733896 802.45020027 257.78515625 802.2265625 C258.19121094 803.13148438 258.19121094 803.13148438 258.60546875 804.0546875 C262.473281 811.17556038 272.0423438 816.19519967 278.78515625 820.2265625 C279.44515625 820.2265625 280.10515625 820.2265625 280.78515625 820.2265625 C280.78515625 820.8865625 280.78515625 821.5465625 280.78515625 822.2265625 C283.28783197 823.95180276 283.28783197 823.95180276 286.41015625 825.6640625 C287.45429687 826.26089844 288.4984375 826.85773438 289.57421875 827.47265625 C294.76291468 830.30687094 299.77187351 832.69803609 305.40234375 834.47265625 C306.91849965 834.95235803 308.42564417 835.46234651 309.91796875 836.01171875 C331.38723931 843.45489792 355.9605668 840.35031919 376.15234375 830.5859375 C391.86007863 822.47571237 404.26156329 813.7277212 415.78515625 800.2265625 C416.55988281 799.35128906 417.33460938 798.47601562 418.1328125 797.57421875 C421.47165644 793.55182699 424.06709342 789.09156295 426.72265625 784.6015625 C427.25044678 783.71291504 427.7782373 782.82426758 428.32202148 781.90869141 C433.97723707 772.31063819 438.9498261 763.06651375 441.78515625 752.2265625 C442.10742188 751.13730469 442.4296875 750.04804687 442.76171875 748.92578125 C446.23801281 736.3607031 447.29956721 724.20554665 446.78515625 711.2265625 C446.75615234 709.81890625 446.75615234 709.81890625 446.7265625 708.3828125 C445.91668223 692.47970896 439.9673111 675.28060311 432.78515625 661.2265625 C432.12829883 659.90589592 431.47332354 658.58429142 430.8203125 657.26171875 C424.26684567 643.6510525 424.26684567 643.6510525 415.78515625 631.2265625 C415.19734375 630.16695312 414.60953125 629.10734375 414.00390625 628.015625 C411.80455438 624.11074662 409.16612864 620.70022311 406.34765625 617.2265625 C403.49829214 613.68560516 400.70042486 610.14693796 398.09375 606.421875 C395.86123334 603.3318604 393.80839913 601.49399466 390.78515625 599.2265625 C388.3096194 596.87178355 386.04602117 594.5683855 383.97265625 591.8515625 C380.3553932 587.51084684 376.2152076 583.03657962 370.78515625 581.2265625 C370.49640625 580.6078125 370.20765625 579.9890625 369.91015625 579.3515625 C368.41141865 576.5206137 366.53531969 575.82549473 363.78515625 574.2265625 C362.11848958 572.55989583 360.45182292 570.89322917 358.78515625 569.2265625 C354.72111784 565.64555031 354.72111784 565.64555031 349.78515625 564.2265625 C349.78515625 563.5665625 349.78515625 562.9065625 349.78515625 562.2265625 C347.61057347 560.4055205 347.61057347 560.4055205 344.91015625 558.6015625 C344.00523437 557.96992187 343.1003125 557.33828125 342.16796875 556.6875 C339.96681919 555.05233145 339.96681919 555.05233145 337.78515625 555.2265625 C337.78515625 554.5665625 337.78515625 553.9065625 337.78515625 553.2265625 C336.20525975 551.90290723 336.20525975 551.90290723 334.13671875 550.625 C333.37875 550.13515625 332.62078125 549.6453125 331.83984375 549.140625 C331.03804687 548.63273438 330.23625 548.12484375 329.41015625 547.6015625 C328.2190625 546.828125 328.2190625 546.828125 327.00390625 546.0390625 C323.18050624 543.26893297 323.18050624 543.26893297 318.78515625 542.2265625 C318.78515625 541.5665625 318.78515625 540.9065625 318.78515625 540.2265625 C317.27161989 538.99903009 317.27161989 538.99903009 315.26953125 537.8359375 C314.51937744 537.37695068 313.76922363 536.91796387 312.99633789 536.44506836 C312.18414795 535.96046143 311.37195801 535.47585449 310.53515625 534.9765625 C309.70685303 534.47713135 308.8785498 533.9777002 308.02514648 533.46313477 C302.79639839 530.34134986 297.51789848 527.44740606 292.02734375 524.80859375 C287.79538655 522.74360259 283.63629559 520.55037529 279.47265625 518.3515625 C278.65885498 517.92270752 277.84505371 517.49385254 277.0065918 517.05200195 C273.17850885 515.03142367 269.35662867 513.00025415 265.546875 510.9453125 C259.692913 507.78962729 253.87168268 504.67559588 247.73828125 502.0859375 C245.79107158 501.22916525 243.96389347 500.24593577 242.09765625 499.2265625 C233.53678121 494.95453448 212.8210724 487.20242341 203.61328125 492.46875 Z M56.72265625 504.3515625 C51.25271337 508.69766479 45.65785282 512.70891148 39.47265625 515.9765625 C35.47709796 518.18920576 32.1958557 521.21027409 28.74414062 524.17529297 C24.83849217 527.47501616 20.76630669 530.33132154 16.47265625 533.1015625 C10.39546621 537.03220778 4.75268087 541.3242092 -0.85717773 545.89257812 C-7.60429794 551.38502071 -14.5670647 556.51159902 -21.83984375 561.2890625 C-28.52392447 565.69720176 -34.62493686 570.48557705 -40.21484375 576.2265625 C-42.21484375 577.89322917 -44.21484375 579.55989583 -46.21484375 581.2265625 C-47.90195798 582.8725276 -49.56940595 584.53893399 -51.21484375 586.2265625 C-52.06046875 587.0515625 -52.90609375 587.8765625 -53.77734375 588.7265625 C-56.22381268 591.15419954 -56.22381268 591.15419954 -58.21484375 593.7265625 C-60.21484375 596.2265625 -60.21484375 596.2265625 -62.90234375 598.8515625 C-65.40781169 601.08005096 -65.40781169 601.08005096 -66.21484375 604.2265625 C-67.69984375 604.7215625 -67.69984375 604.7215625 -69.21484375 605.2265625 C-70.56893695 607.21256587 -71.89941999 609.21473793 -73.21484375 611.2265625 C-74.88151042 612.89322917 -76.54817708 614.55989583 -78.21484375 616.2265625 C-79.55755196 618.22028075 -80.89137869 620.2200187 -82.21484375 622.2265625 C-83.54817708 623.55989583 -84.88151042 624.89322917 -86.21484375 626.2265625 C-89.79022912 630.30148847 -89.79022912 630.30148847 -91.21484375 635.2265625 C-91.87484375 635.2265625 -92.53484375 635.2265625 -93.21484375 635.2265625 C-95.0155239 637.65305281 -96.69320924 640.07395547 -98.33984375 642.6015625 C-98.80777344 643.30023437 -99.27570313 643.99890625 -99.7578125 644.71875 C-102.31894925 648.19312079 -102.31894925 648.19312079 -103.21484375 652.2265625 C-103.87484375 652.2265625 -104.53484375 652.2265625 -105.21484375 652.2265625 C-106.83521076 654.39373429 -106.83521076 654.39373429 -108.47265625 657.1875 C-109.09785156 658.21617187 -109.72304688 659.24484375 -110.3671875 660.3046875 C-111.01816406 661.39265625 -111.66914062 662.480625 -112.33984375 663.6015625 C-112.99855469 664.68179688 -113.65726563 665.76203125 -114.3359375 666.875 C-117.74329949 671.73551494 -117.74329949 671.73551494 -119.21484375 677.2265625 C-119.87484375 677.5565625 -120.53484375 677.8865625 -121.21484375 678.2265625 C-121.86697667 680.25119505 -121.86697667 680.25119505 -122.21484375 682.2265625 C-122.87484375 682.2265625 -123.53484375 682.2265625 -124.21484375 682.2265625 C-124.45356201 682.77256104 -124.69228027 683.31855957 -124.93823242 683.88110352 C-127.0097355 688.58504759 -129.16483869 693.23493855 -131.41113281 697.85766602 C-146.52230233 729.08146708 -160.0825945 767.57208215 -148.23046875 802.09375 C-147.30944693 804.19793062 -146.30695798 806.20726558 -145.21484375 808.2265625 C-144.56515625 809.7115625 -144.56515625 809.7115625 -143.90234375 811.2265625 C-141.45138359 815.58382501 -138.34106459 819.33854991 -135.21484375 823.2265625 C-134.51359375 824.1753125 -133.81234375 825.1240625 -133.08984375 826.1015625 C-131.00726517 828.46181822 -128.9304574 829.66508465 -126.21484375 831.2265625 C-125.59609375 831.855625 -124.97734375 832.4846875 -124.33984375 833.1328125 C-109.73961614 847.51833088 -84.11283977 852.00989978 -64.3359375 852.375 C-59.28676022 852.32888441 -54.52558628 851.62682599 -49.58984375 850.6015625 C-48.29832397 850.33641846 -48.29832397 850.33641846 -46.98071289 850.06591797 C-31.70515988 846.75219605 -18.14633645 840.45822563 -5.28125 831.59765625 C-3.36608627 830.32691434 -1.43250564 829.2373328 0.59765625 828.1640625 C3.91832871 826.14561454 5.46657921 824.29306761 7.78515625 821.2265625 C8.84911832 820.30780617 9.93345394 819.41220652 11.03515625 818.5390625 C11.94265625 817.7759375 12.85015625 817.0128125 13.78515625 816.2265625 C13.78515625 815.5665625 13.78515625 814.9065625 13.78515625 814.2265625 C14.34203125 813.9996875 14.89890625 813.7728125 15.47265625 813.5390625 C20.43101783 810.72485728 23.88858005 805.99445652 27.41015625 801.6015625 C31.49140707 796.51741045 31.49140707 796.51741045 33.3671875 794.66015625 C35.12010423 792.88792363 36.44016643 790.97169504 37.84765625 788.9140625 C41.25475237 783.97739769 44.72959723 779.09407119 48.23266602 774.2253418 C49.42401801 772.56402658 50.60753673 770.89763696 51.78515625 769.2265625 C52.17783691 768.67033203 52.57051758 768.11410156 52.97509766 767.54101562 C55.12768653 764.65269827 55.12768653 764.65269827 55.78515625 761.2265625 C56.44515625 761.2265625 57.10515625 761.2265625 57.78515625 761.2265625 C59.22617158 758.54089662 60.66303572 755.85314191 62.09765625 753.1640625 C62.70383789 752.03581055 62.70383789 752.03581055 63.32226562 750.88476562 C67.77784063 743.40972344 67.77784063 743.40972344 69.78515625 735.2265625 C70.44515625 734.8965625 71.10515625 734.5665625 71.78515625 734.2265625 C72.64732042 732.44651607 73.42560104 730.62545053 74.16015625 728.7890625 C74.60230469 727.68949219 75.04445313 726.58992188 75.5 725.45703125 C75.92410156 724.39097656 76.34820313 723.32492187 76.78515625 722.2265625 C77.11644531 721.43894531 77.44773437 720.65132812 77.7890625 719.83984375 C88.18569987 694.91401441 94.32174587 667.79546431 98.78515625 641.2265625 C98.92840332 640.39560059 99.07165039 639.56463867 99.21923828 638.70849609 C102.79191405 617.86461935 105.58564407 596.88785395 108.54278564 575.95019531 C109.37996597 570.03733468 110.23823405 564.12827179 111.125 558.22265625 C111.31449219 556.94753174 111.50398438 555.67240723 111.69921875 554.35864258 C112.03267651 552.12444445 112.37190089 549.89109393 112.71875 547.65893555 C113.68407297 541.13707995 113.96638511 534.81684939 113.78515625 528.2265625 C112.01011719 527.75476563 112.01011719 527.75476563 110.19921875 527.2734375 C98.68555126 524.17646457 88.29054914 520.85534261 77.97265625 514.7890625 C77.33755127 514.41749023 76.70244629 514.04591797 76.0480957 513.66308594 C71.26597945 510.75977121 67.42416658 507.47261369 64.09765625 502.9140625 C63.66453125 502.3571875 63.23140625 501.8003125 62.78515625 501.2265625 C59.93385408 501.2265625 58.91722916 502.56339198 56.72265625 504.3515625 Z " fill="#F82388" transform="translate(870.21484375,452.7734375)"/>
</svg>
