<?xml version="1.0" encoding="UTF-8"?>
<svg version="1.1" xmlns="http://www.w3.org/2000/svg" width="2048" height="2048">
<path d="M0 0 C36.03372072 -0.93952953 70.40030282 11.36083093 96.859375 35.7421875 C101.02432205 39.91398479 104.66249672 44.4388563 108.234375 49.12109375 C108.84023437 49.8996875 109.44609375 50.67828125 110.0703125 51.48046875 C115.10032281 58.26301658 118.73294844 65.66346853 122.34716797 73.26123047 C123.10896293 74.85819085 123.89046667 76.44572327 124.67578125 78.03125 C153.43829973 137.81040283 141.53300204 215.66836914 120.67456055 275.49421692 C119.1250146 279.9164531 117.55744033 284.3321765 115.984375 288.74609375 C115.68023682 289.60137665 115.37609863 290.45665955 115.06274414 291.33786011 C114.18354628 293.80177947 113.296428 296.26268516 112.40625 298.72265625 C112.14604065 299.4518779 111.8858313 300.18109955 111.61773682 300.93241882 C110.04901192 305.23132482 108.23521292 309.29692957 106.1222229 313.35697937 C104.82548085 315.93354829 103.84717575 318.60089877 102.859375 321.30859375 C100.67342369 327.13327147 98.15839542 332.73570065 95.46875 338.34375 C94.45106279 340.63354621 93.72681683 342.67647179 93.234375 345.12109375 C93.646875 344.69699219 94.059375 344.27289062 94.484375 343.8359375 C98.19266593 340.06970452 102.00768918 336.51105726 106.01171875 333.0625 C108.56414383 330.83305314 111.05325014 328.54107993 113.546875 326.24609375 C118.94245439 321.32328418 124.53401441 316.68493385 130.234375 312.12109375 C131.12382813 311.37601563 132.01328125 310.6309375 132.9296875 309.86328125 C135.234375 308.12109375 135.234375 308.12109375 137.234375 308.12109375 C137.234375 307.46109375 137.234375 306.80109375 137.234375 306.12109375 C138.81640625 304.67578125 138.81640625 304.67578125 141.046875 302.99609375 C141.86414062 302.37863281 142.68140625 301.76117187 143.5234375 301.125 C144.41804688 300.46371094 145.31265625 299.80242187 146.234375 299.12109375 C147.17023437 298.42886719 148.10609375 297.73664063 149.0703125 297.0234375 C156.52847863 291.55752123 164.15692204 286.49971113 172.046875 281.68359375 C172.80291016 281.21888672 173.55894531 280.75417969 174.33789062 280.27539062 C179.56041383 277.08310662 184.8412882 274.01710571 190.234375 271.12109375 C190.91862549 270.74412354 191.60287598 270.36715332 192.30786133 269.97875977 C194.234375 269.12109375 194.234375 269.12109375 197.234375 269.12109375 C197.234375 268.46109375 197.234375 267.80109375 197.234375 267.12109375 C198.50277026 266.61494077 199.77420602 266.11640276 201.046875 265.62109375 C201.75457031 265.34265625 202.46226562 265.06421875 203.19140625 264.77734375 C205.234375 264.12109375 205.234375 264.12109375 208.234375 264.12109375 C208.234375 263.46109375 208.234375 262.80109375 208.234375 262.12109375 C276.20917164 236.99985184 276.20917164 236.99985184 309.23828125 236.953125 C310.07922836 236.9497966 310.92017548 236.9464682 311.78660583 236.94303894 C313.55898497 236.9380038 315.33137348 236.93562955 317.10375977 236.93579102 C319.76530316 236.93361951 322.42642112 236.91546846 325.08789062 236.89648438 C339.18101225 236.84784434 352.52966674 237.90960747 366.109375 241.99609375 C366.96789063 242.23972656 367.82640625 242.48335937 368.7109375 242.734375 C373.7226633 244.19992512 378.45155916 245.97507926 383.18823242 248.17285156 C385.3297506 249.16529359 387.49526086 250.0836057 389.671875 250.99609375 C399.29551124 255.31588887 407.29269595 261.23035995 415.234375 268.12109375 C415.73791504 268.55615234 416.24145508 268.99121094 416.76025391 269.43945312 C423.66892794 275.44850377 429.80949855 281.70748818 435.234375 289.12109375 C435.83894531 289.93320312 436.44351563 290.7453125 437.06640625 291.58203125 C455.84619392 317.52186868 463.34060769 348.80062419 458.5859375 380.4453125 C456.05737591 393.31707337 449.96950733 405.94760234 443.234375 417.12109375 C442.574375 417.12109375 441.914375 417.12109375 441.234375 417.12109375 C440.89986328 418.17876953 440.89986328 418.17876953 440.55859375 419.2578125 C438.94759559 422.74118019 436.67536217 425.20379067 434.046875 427.93359375 C433.04342363 428.9978998 432.04081834 430.06300417 431.0390625 431.12890625 C430.31154785 431.89895996 430.31154785 431.89895996 429.56933594 432.68457031 C427.87458782 434.50825318 426.27223569 436.40194394 424.671875 438.30859375 C418.55661915 445.34552692 411.16599163 452.16383336 403.234375 457.12109375 C402.574375 457.12109375 401.914375 457.12109375 401.234375 457.12109375 C401.234375 457.78109375 401.234375 458.44109375 401.234375 459.12109375 C399.27840316 460.51821649 397.2684656 461.84037004 395.234375 463.12109375 C394.1825 463.86359375 393.130625 464.60609375 392.046875 465.37109375 C389.234375 467.12109375 389.234375 467.12109375 386.234375 467.12109375 C386.234375 467.78109375 386.234375 468.44109375 386.234375 469.12109375 C384.584375 469.45109375 382.934375 469.78109375 381.234375 470.12109375 C381.234375 470.78109375 381.234375 471.44109375 381.234375 472.12109375 C378.43176259 473.52239995 375.62883037 474.92300897 372.82421875 476.3203125 C370.34947934 477.55665363 367.88525103 478.81169565 365.42578125 480.078125 C364.80010254 480.39773193 364.17442383 480.71733887 363.52978516 481.04663086 C361.74061035 481.96096737 359.95423054 482.88076682 358.16796875 483.80078125 C355.234375 485.12109375 355.234375 485.12109375 352.234375 485.12109375 C352.234375 485.78109375 352.234375 486.44109375 352.234375 487.12109375 C347.23890948 489.13254226 342.23829567 491.13077511 337.234375 493.12109375 C336.49670898 493.415 335.75904297 493.70890625 334.99902344 494.01171875 C300.33532061 507.78657582 262.74995944 518.8620081 225.52333069 522.86920166 C224.10216848 523.02559591 222.68224325 523.19439818 221.26493835 523.38256836 C212.53150006 524.44141364 203.7573714 524.24633506 194.9765625 524.21875 C193.21965577 524.21688172 191.46274851 524.21545975 189.70584106 524.21446228 C185.11265591 524.2106694 180.51950307 524.20086718 175.92633057 524.1897583 C171.22693316 524.17947426 166.52753045 524.17494977 161.828125 524.16992188 C152.63019424 524.1592416 143.43228732 524.14220459 134.234375 524.12109375 C137.4649486 526.74633437 140.65051646 529.00767951 144.234375 531.12109375 C147.95241217 533.71725873 151.58649982 536.42749519 155.234375 539.12109375 C156.2346875 539.84941406 157.235 540.57773437 158.265625 541.328125 C164.09865226 545.62021078 169.60872134 550.09093749 174.9296875 555.00390625 C177.03076212 556.93404599 179.17987894 558.78081887 181.359375 560.62109375 C185.12451814 563.88115672 188.34636342 567.51167775 191.5703125 571.30078125 C193.11817379 573.21233041 193.11817379 573.21233041 195.234375 574.12109375 C195.234375 574.78109375 195.234375 575.44109375 195.234375 576.12109375 C195.894375 576.12109375 196.554375 576.12109375 197.234375 576.12109375 C198.85546875 577.765625 198.85546875 577.765625 200.671875 579.93359375 C203.20776832 582.9457264 203.20776832 582.9457264 205.95703125 585.7578125 C207.234375 587.12109375 207.234375 587.12109375 207.234375 589.12109375 C207.894375 589.12109375 208.554375 589.12109375 209.234375 589.12109375 C210.609375 590.44921875 210.609375 590.44921875 212.234375 592.37109375 C213.17023438 593.47324219 213.17023438 593.47324219 214.125 594.59765625 C214.82109375 595.43039062 215.5171875 596.263125 216.234375 597.12109375 C216.99234375 598.01570313 217.7503125 598.9103125 218.53125 599.83203125 C245.234375 631.55262241 245.234375 631.55262241 245.234375 638.12109375 C245.894375 638.12109375 246.554375 638.12109375 247.234375 638.12109375 C247.564375 639.77109375 247.894375 641.42109375 248.234375 643.12109375 C248.894375 643.12109375 249.554375 643.12109375 250.234375 643.12109375 C251.64114629 645.93463633 253.04767969 648.74829466 254.453125 651.5625 C255.63645743 653.92656984 256.82393172 656.2885712 258.015625 658.6484375 C258.6034375 659.81503906 259.19125 660.98164062 259.796875 662.18359375 C260.33441406 663.24707031 260.87195312 664.31054688 261.42578125 665.40625 C283.50451903 710.14325305 299.05822869 766.87049516 282.77197266 816.13574219 C280.02986136 823.9791488 276.93835994 831.67898576 273.234375 839.12109375 C272.574375 839.12109375 271.914375 839.12109375 271.234375 839.12109375 C270.986875 839.82234375 270.739375 840.52359375 270.484375 841.24609375 C263.20634479 857.98556324 245.89955096 870.509314 229.5234375 877.234375 C218.08088206 881.6415217 207.37855157 882.49407782 195.23339844 882.49169922 C192.76685591 882.49603663 190.30216081 882.53234785 187.8359375 882.5703125 C158.26222954 882.77896685 131.03796709 871.02927669 109.609375 850.62109375 C108.825625 849.79609375 108.041875 848.97109375 107.234375 848.12109375 C106.47253906 847.39019531 106.47253906 847.39019531 105.6953125 846.64453125 C100.3861271 841.5292887 95.8218658 835.88212871 91.234375 830.12109375 C90.64785156 829.40179687 90.06132813 828.6825 89.45703125 827.94140625 C61.234375 792.74609375 61.234375 792.74609375 61.234375 778.12109375 C60.574375 778.12109375 59.914375 778.12109375 59.234375 778.12109375 C58.84765625 777.07050781 58.4609375 776.01992187 58.0625 774.9375 C54.87300884 766.18819816 54.87300884 766.18819816 51.234375 757.62109375 C48.15881213 750.96171822 45.76657595 744.00023968 43.234375 737.12109375 C43.0892749 737.91878174 42.9441748 738.71646973 42.79467773 739.53833008 C36.38849489 774.44416547 27.87036089 808.4680912 13.1875 840.921875 C12.1856005 843.23363491 11.30687774 845.57483645 10.421875 847.93359375 C8.39715254 853.08816606 5.67961607 857.72482141 2.8203125 862.45703125 C1.51766229 864.64522692 0.332968 866.82601332 -0.765625 869.12109375 C-1.425625 869.12109375 -2.085625 869.12109375 -2.765625 869.12109375 C-3.03375 869.86359375 -3.301875 870.60609375 -3.578125 871.37109375 C-4.71839251 874.01171324 -5.85942806 875.97662219 -7.765625 878.12109375 C-8.425625 878.12109375 -9.085625 878.12109375 -9.765625 878.12109375 C-9.9205542 879.00728394 -9.9205542 879.00728394 -10.07861328 879.91137695 C-10.87821327 882.48322469 -11.85820417 883.58719092 -13.7578125 885.4765625 C-14.37519287 886.09474854 -14.99257324 886.71293457 -15.62866211 887.34985352 C-16.29260986 887.99623779 -16.95655762 888.64262207 -17.640625 889.30859375 C-18.65684937 890.31007446 -18.65684937 890.31007446 -19.69360352 891.33178711 C-25.12457431 896.62555713 -30.74787431 901.49946122 -36.765625 906.12109375 C-37.92771484 907.04921875 -37.92771484 907.04921875 -39.11328125 907.99609375 C-44.37456597 912.12109375 -44.37456597 912.12109375 -47.765625 912.12109375 C-47.765625 912.78109375 -47.765625 913.44109375 -47.765625 914.12109375 C-77.75266253 936.14697087 -115.88879533 940.41957076 -151.734375 935.44189453 C-160.06894435 934.12559355 -167.91140856 931.11389963 -175.765625 928.12109375 C-175.765625 927.46109375 -175.765625 926.80109375 -175.765625 926.12109375 C-177.415625 925.79109375 -179.065625 925.46109375 -180.765625 925.12109375 C-180.765625 924.46109375 -180.765625 923.80109375 -180.765625 923.12109375 C-181.57 923.03794922 -181.57 923.03794922 -182.390625 922.953125 C-185.86675593 921.73533571 -188.15262619 919.30840573 -190.765625 916.80859375 C-191.28640625 916.32197266 -191.8071875 915.83535156 -192.34375 915.33398438 C-193.82849578 913.94109786 -195.29744178 912.53142736 -196.765625 911.12109375 C-197.549375 910.38503906 -198.333125 909.64898438 -199.140625 908.890625 C-200.765625 907.12109375 -200.765625 907.12109375 -200.765625 905.12109375 C-201.425625 905.12109375 -202.085625 905.12109375 -202.765625 905.12109375 C-203.83202144 903.4961087 -204.81272843 901.81513209 -205.765625 900.12109375 C-206.55444479 898.89009816 -207.3463651 897.66108632 -208.140625 896.43359375 C-217.60477539 881.17794835 -222.60439514 864.85070625 -224.765625 847.12109375 C-224.86061279 846.37037598 -224.95560059 845.6196582 -225.0534668 844.84619141 C-227.77129694 821.08873221 -226.35526952 795.73473605 -221.24169922 772.36621094 C-220.72053401 769.90844926 -220.26253409 767.44224557 -219.80078125 764.97265625 C-213.80151795 734.79307839 -202.52413825 704.10603174 -189.765625 676.12109375 C-189.13180098 674.68070335 -188.50030342 673.23928707 -187.87109375 671.796875 C-184.3339899 663.73465458 -180.67213001 655.7834547 -176.671875 647.9375 C-174.75855737 644.15276967 -172.96756752 640.31373723 -171.16918945 636.47338867 C-167.25781605 628.13007144 -163.18090254 619.97329472 -158.54541016 612.00634766 C-157.02256768 609.3886785 -155.72700735 607.00524079 -154.765625 604.12109375 C-154.105625 604.12109375 -153.445625 604.12109375 -152.765625 604.12109375 C-152.650979 603.38769775 -152.53633301 602.65430176 -152.41821289 601.89868164 C-151.75059197 599.05710918 -150.8325013 597.16319731 -149.32421875 594.6796875 C-148.82639893 593.8539624 -148.3285791 593.0282373 -147.81567383 592.17749023 C-147.28353271 591.31325439 -146.7513916 590.44901855 -146.203125 589.55859375 C-145.66389404 588.67051025 -145.12466309 587.78242676 -144.5690918 586.86743164 C-140.93164676 580.91263889 -137.16622007 575.07184896 -133.19140625 569.3359375 C-131.61917254 567.09441646 -131.61917254 567.09441646 -130.765625 564.12109375 C-131.61265991 564.45935181 -131.61265991 564.45935181 -132.47680664 564.80444336 C-206.88880412 594.24729233 -302.62732093 611.67820347 -378.765625 579.12109375 C-381.46742442 577.84465308 -384.11213956 576.49697509 -386.765625 575.12109375 C-387.755625 574.79109375 -388.745625 574.46109375 -389.765625 574.12109375 C-389.765625 573.46109375 -389.765625 572.80109375 -389.765625 572.12109375 C-390.8484375 571.96640625 -390.8484375 571.96640625 -391.953125 571.80859375 C-395.04355921 571.05315428 -397.18306341 569.9657806 -399.765625 568.12109375 C-399.765625 567.46109375 -399.765625 566.80109375 -399.765625 566.12109375 C-400.33796875 566.01667969 -400.9103125 565.91226563 -401.5 565.8046875 C-404.13548268 565.00949876 -405.82593808 563.84207884 -408.015625 562.18359375 C-408.72203125 561.65894531 -409.4284375 561.13429688 -410.15625 560.59375 C-410.68734375 560.10777344 -411.2184375 559.62179687 -411.765625 559.12109375 C-411.765625 558.46109375 -411.765625 557.80109375 -411.765625 557.12109375 C-412.32765625 556.88390625 -412.8896875 556.64671875 -413.46875 556.40234375 C-416.28456542 554.83161678 -418.24517916 552.90637911 -420.515625 550.62109375 C-421.31484375 549.82703125 -422.1140625 549.03296875 -422.9375 548.21484375 C-424.765625 546.12109375 -424.765625 546.12109375 -424.765625 544.12109375 C-425.425625 544.12109375 -426.085625 544.12109375 -426.765625 544.12109375 C-426.765625 543.46109375 -426.765625 542.80109375 -426.765625 542.12109375 C-427.425625 542.12109375 -428.085625 542.12109375 -428.765625 542.12109375 C-430.45400956 539.92558649 -431.99879122 537.74439959 -433.515625 535.43359375 C-433.96373535 534.75312988 -434.4118457 534.07266602 -434.87353516 533.37158203 C-446.22322752 515.77157189 -451.17392937 496.79522283 -451.078125 475.99609375 C-451.07248535 474.71436279 -451.0668457 473.43263184 -451.06103516 472.11206055 C-450.93799532 462.47657974 -450.31325639 453.43951906 -447.765625 444.12109375 C-447.56694824 443.39422363 -447.36827148 442.66735352 -447.16357422 441.91845703 C-444.02701066 430.88292217 -439.57722991 420.98942679 -433.765625 411.12109375 C-433.21132813 410.16976563 -432.65703125 409.2184375 -432.0859375 408.23828125 C-421.84851979 391.43716032 -408.01822013 375.32710281 -391.765625 364.12109375 C-391.18748047 363.71487793 -390.60933594 363.30866211 -390.01367188 362.89013672 C-388.02299131 361.49576362 -386.02172988 360.11817102 -384.015625 358.74609375 C-383.37689453 358.30418701 -382.73816406 357.86228027 -382.08007812 357.40698242 C-378.66749064 355.12103223 -375.9520967 353.55252404 -371.765625 353.12109375 C-371.765625 352.46109375 -371.765625 351.80109375 -371.765625 351.12109375 C-362.93274122 347.0317957 -353.87299704 343.54405198 -344.765625 340.12109375 C-344.12318848 339.87681641 -343.48075195 339.63253906 -342.81884766 339.38085938 C-289.67221514 319.42048838 -227.98491577 329.44198853 -175.765625 347.12109375 C-175.11384277 347.34152344 -174.46206055 347.56195312 -173.79052734 347.7890625 C-161.8124921 351.87776344 -150.23825641 356.79401943 -138.765625 362.12109375 C-138.07549316 362.435625 -137.38536133 362.75015625 -136.67431641 363.07421875 C-125.59761043 368.12600722 -115.05799642 373.61336115 -104.765625 380.12109375 C-105.343125 379.07308594 -105.920625 378.02507812 -106.515625 376.9453125 C-107.26595304 375.56658473 -108.01593508 374.18766861 -108.765625 372.80859375 C-109.1471875 372.11830078 -109.52875 371.42800781 -109.921875 370.71679688 C-112.765625 365.4609375 -112.765625 365.4609375 -112.765625 362.12109375 C-113.425625 362.12109375 -114.085625 362.12109375 -114.765625 362.12109375 C-117.90440398 355.17720283 -120.85006624 348.16110149 -123.765625 341.12109375 C-124.1678125 340.16203125 -124.57 339.20296875 -124.984375 338.21484375 C-125.81732477 336.22857891 -126.64522305 334.24019012 -127.46875 332.25 C-128.32229203 330.19070132 -129.18661219 328.13583155 -130.0625 326.0859375 C-148.3119412 282.25652114 -159.01970644 235.08765585 -158.953125 187.55859375 C-158.95271713 186.45198898 -158.95271713 186.45198898 -158.95230103 185.32302856 C-158.92143717 167.00396994 -157.50069583 149.07602094 -153.765625 131.12109375 C-153.62398926 130.42709473 -153.48235352 129.7330957 -153.33642578 129.01806641 C-150.0663775 113.27486157 -144.83197145 98.55749782 -137.765625 84.12109375 C-137.42917969 83.39792969 -137.09273437 82.67476562 -136.74609375 81.9296875 C-131.86329446 71.64464218 -125.17366397 62.70906668 -117.765625 54.12109375 C-116.57259766 52.72503906 -116.57259766 52.72503906 -115.35546875 51.30078125 C-109.67877943 44.84141051 -103.58520686 39.3501661 -96.765625 34.12109375 C-96.04117187 33.54359375 -95.31671875 32.96609375 -94.5703125 32.37109375 C-92.765625 31.12109375 -92.765625 31.12109375 -90.765625 31.12109375 C-90.765625 30.46109375 -90.765625 29.80109375 -90.765625 29.12109375 C-88.52224146 27.5800921 -86.29860523 26.17856999 -83.953125 24.80859375 C-83.26895508 24.40415039 -82.58478516 23.99970703 -81.87988281 23.58300781 C-76.3343516 20.35222337 -70.66507035 17.6443505 -64.765625 15.12109375 C-63.01543016 14.2881697 -61.2654347 13.4548266 -59.515625 12.62109375 C-40.38105434 4.01188636 -20.78831109 0.91022266 0 0 Z M-52.765625 45.12109375 C-52.765625 45.78109375 -52.765625 46.44109375 -52.765625 47.12109375 C-53.46558594 47.21519531 -54.16554688 47.30929687 -54.88671875 47.40625 C-58.32038179 48.25884204 -60.80863457 49.72246872 -63.828125 51.55859375 C-67.0963067 53.53269089 -70.31820692 55.47592301 -73.765625 57.12109375 C-73.765625 57.78109375 -73.765625 58.44109375 -73.765625 59.12109375 C-74.34957031 59.38792969 -74.93351562 59.65476562 -75.53515625 59.9296875 C-83.59749886 64.23619275 -93.86987729 73.43385063 -96.765625 82.12109375 C-97.425625 82.12109375 -98.085625 82.12109375 -98.765625 82.12109375 C-100.29243492 84.30137832 -101.66908997 86.456789 -103.015625 88.74609375 C-103.41821533 89.42687988 -103.82080566 90.10766602 -104.2355957 90.80908203 C-108.02275341 97.34785243 -111.04333323 104.07203099 -113.765625 111.12109375 C-114.0140918 111.73581543 -114.26255859 112.35053711 -114.51855469 112.98388672 C-119.74245292 125.96418138 -122.43922345 139.35790698 -124.765625 153.12109375 C-124.89984863 153.90000977 -125.03407227 154.67892578 -125.17236328 155.48144531 C-133.4959603 206.21909577 -119.75117621 258.49907126 -102.953125 306.05859375 C-102.72251373 306.71357849 -102.49190247 307.36856323 -102.25430298 308.043396 C-100.04310616 314.28985651 -97.81271889 320.42190904 -94.71948242 326.28930664 C-92.92341934 329.73846489 -91.39720884 333.31445233 -89.828125 336.87109375 C-89.48330078 337.64952637 -89.13847656 338.42795898 -88.78320312 339.22998047 C-86.02030005 345.49040898 -83.34991351 351.78461712 -80.765625 358.12109375 C-80.105625 358.12109375 -79.445625 358.12109375 -78.765625 358.12109375 C-78.67410156 358.79269531 -78.58257813 359.46429687 -78.48828125 360.15625 C-77.57512532 363.90265729 -75.95415718 367.14964309 -74.203125 370.55859375 C-73.66631104 371.60877686 -73.66631104 371.60877686 -73.11865234 372.68017578 C-72.00998369 374.8319545 -70.88827706 376.97658502 -69.765625 379.12109375 C-69.2713501 380.08571533 -69.2713501 380.08571533 -68.76708984 381.06982422 C-64.26927793 389.79736654 -59.03080024 396.49591763 -51.765625 403.12109375 C-50.65767578 404.52681641 -50.65767578 404.52681641 -49.52734375 405.9609375 C-47.10029207 408.28467413 -47.10029207 408.28467413 -44.87255859 408.22192383 C-43.35791804 408.03118499 -41.84813777 407.79941381 -40.34423828 407.53710938 C-22.76739992 404.70138389 -3.66894603 406.99896178 12.78125 413.546875 C15.2177131 414.34438302 15.2177131 414.34438302 17.4609375 413.37109375 C21.23277861 410.71252733 22.67592812 406.31691228 24.234375 402.12109375 C24.894375 402.12109375 25.554375 402.12109375 26.234375 402.12109375 C26.5025 401.63382813 26.770625 401.1465625 27.046875 400.64453125 C29.00662995 397.09892197 30.97312785 393.56407804 33.03125 390.07421875 C37.84514808 381.87133642 41.99672903 373.47870282 46.01171875 364.859375 C48.03752055 360.51485259 50.1427961 356.21576045 52.296875 351.93359375 C52.78281128 350.96667603 52.78281128 350.96667603 53.27856445 349.98022461 C54.26223598 348.02636994 55.24798835 346.07357898 56.234375 344.12109375 C60.74222807 335.19394226 65.19096 326.27128938 69.234375 317.12109375 C69.51676025 316.50516357 69.79914551 315.8892334 70.09008789 315.25463867 C73.06313541 308.71006819 75.62507992 302.02854462 78.171875 295.30859375 C80.60126693 288.90656401 83.04219253 282.52786572 85.7421875 276.234375 C88.63907667 269.33224629 90.94858974 262.26159401 93.171875 255.12109375 C93.38748077 254.43188843 93.60308655 253.74268311 93.82522583 253.03259277 C100.20915872 232.49772157 104.63759325 211.47373271 107.234375 190.12109375 C107.32936279 189.38093018 107.42435059 188.6407666 107.5222168 187.87817383 C108.40207337 180.28481604 108.43426315 172.69485384 108.421875 165.05859375 C108.42096863 164.02622086 108.42096863 164.02622086 108.42004395 162.97299194 C108.39520694 152.5458411 108.01179815 142.41788992 106.234375 132.12109375 C106.11610352 131.36957031 105.99783203 130.61804688 105.87597656 129.84375 C101.69967907 103.61702682 91.77839145 78.4570255 73.234375 59.12109375 C72.61304688 58.44820313 71.99171875 57.7753125 71.3515625 57.08203125 C67.69557202 53.22930586 63.96237452 50.55347367 59.234375 48.12109375 C56.97069149 46.80581557 54.7070308 45.49053025 52.4453125 44.171875 C50.04862759 43.0328145 47.84638713 42.53809919 45.234375 42.12109375 C45.234375 41.46109375 45.234375 40.80109375 45.234375 40.12109375 C10.41402519 28.70976149 -18.96832982 31.95331641 -52.765625 45.12109375 Z M257.484375 279.55859375 C256.50603699 279.83923676 256.50603699 279.83923676 255.50793457 280.12554932 C246.27822947 282.78741605 237.24096981 285.793667 228.234375 289.12109375 C228.234375 289.78109375 228.234375 290.44109375 228.234375 291.12109375 C227.2753125 291.24484375 227.2753125 291.24484375 226.296875 291.37109375 C222.01180849 292.42049779 218.22449818 294.2621249 214.234375 296.12109375 C213.08839844 296.64832031 211.94242188 297.17554688 210.76171875 297.71875 C207.58374573 299.18151669 204.40824034 300.64944058 201.234375 302.12109375 C201.234375 302.78109375 201.234375 303.44109375 201.234375 304.12109375 C200.50992188 304.21777344 199.78546875 304.31445312 199.0390625 304.4140625 C195.83712351 305.22123653 193.99700726 306.46590323 191.359375 308.43359375 C188.06218064 310.87733426 184.73210612 312.97333376 181.15332031 314.98022461 C177.46211326 317.17475521 174.01741588 319.72219906 170.546875 322.24609375 C169.75595459 322.8194043 168.96503418 323.39271484 168.15014648 323.98339844 C162.56413884 328.06764449 157.19748759 332.31811085 151.9375 336.81640625 C149.35121678 339.02147431 146.70909049 341.13385691 144.046875 343.24609375 C137.46075356 348.61044194 131.37453471 354.50060972 125.22265625 360.3515625 C122.31988483 363.10902717 119.37447222 365.79868392 116.359375 368.43359375 C110.37171748 373.75022069 104.80096775 379.50598776 99.18408203 385.20825195 C94.94476674 389.49354205 90.6339575 393.59045262 86.06103516 397.51708984 C83.31961158 399.92435433 80.77975657 402.5100026 78.234375 405.12109375 C74.99222273 408.40782562 71.75486517 411.62867711 68.234375 414.62109375 C64.64952943 417.68519333 61.27507243 420.93305437 57.921875 424.24609375 C57.40560547 424.74947266 56.88933594 425.25285156 56.35742188 425.77148438 C53.47244709 428.6488771 50.84818442 431.34935527 49.234375 435.12109375 C50.11217559 438.57566381 52.77703979 441.12462133 55.01733398 443.83984375 C64.82837639 455.75220278 71.30555502 468.76699449 72.78198242 484.34716797 C72.8679216 485.2426535 72.95386078 486.13813904 73.04240417 487.0607605 C73.13742973 488.08062546 73.13742973 488.08062546 73.234375 489.12109375 C93.51308872 490.99394058 113.75111063 491.69298809 134.09918213 492.18554688 C137.37082255 492.26647517 140.64225893 492.354417 143.91371632 492.44238949 C175.19256266 493.62307108 175.19256266 493.62307108 206.421875 492.30859375 C207.42831055 492.21803711 208.43474609 492.12748047 209.47167969 492.03417969 C232.99319636 489.79795282 256.56277361 484.68786816 279.234375 478.12109375 C280.60406454 477.7470217 281.97386287 477.3733478 283.34375 477 C294.89077581 473.76867711 306.11960518 469.71264357 317.359375 465.55859375 C318.49989319 465.13962326 318.49989319 465.13962326 319.66345215 464.71218872 C328.10649813 461.60193466 336.27812102 458.35504884 344.234375 454.12109375 C345.56872685 453.46032989 346.90462306 452.80267379 348.2421875 452.1484375 C360.36461225 446.07508449 372.10305028 439.23032126 383.109375 431.30859375 C384.18614502 430.53721069 384.18614502 430.53721069 385.28466797 429.75024414 C389.42866831 426.69535327 393.07029015 423.40829068 396.64648438 419.70800781 C398.234375 418.12109375 398.234375 418.12109375 400.8984375 416 C408.64920108 409.76569016 414.24438023 400.61192255 419.234375 392.12109375 C419.81832031 391.14269531 419.81832031 391.14269531 420.4140625 390.14453125 C429.36962859 373.83012791 429.50552398 356.22268743 424.609375 338.68359375 C420.30790362 325.76330701 413.80328487 314.65336549 405.234375 304.12109375 C404.450625 303.06921875 403.666875 302.01734375 402.859375 300.93359375 C385.07251435 281.87624306 360.64651547 272.29986469 335.234375 269.12109375 C333.94917969 268.95480469 332.66398437 268.78851562 331.33984375 268.6171875 C306.2493839 266.27803766 281.38464104 272.68912838 257.484375 279.55859375 Z M-344.765625 375.12109375 C-345.4167627 375.43900879 -346.06790039 375.75692383 -346.73876953 376.08447266 C-351.43711541 378.38628968 -356.10517264 380.74363325 -360.765625 383.12109375 C-362.09811392 383.78944658 -363.43093252 384.45715234 -364.765625 385.12109375 C-364.765625 385.78109375 -364.765625 386.44109375 -364.765625 387.12109375 C-365.34054687 387.22421875 -365.91546875 387.32734375 -366.5078125 387.43359375 C-376.70981618 390.54008622 -387.38713839 402.89620312 -393.765625 411.12109375 C-393.765625 411.78109375 -393.765625 412.44109375 -393.765625 413.12109375 C-394.425625 413.12109375 -395.085625 413.12109375 -395.765625 413.12109375 C-397.00692757 414.5520958 -397.00692757 414.5520958 -398.19140625 416.453125 C-398.65595215 417.16364014 -399.12049805 417.87415527 -399.59912109 418.60620117 C-400.08719238 419.37424072 -400.57526367 420.14228027 -401.078125 420.93359375 C-401.57650879 421.71387939 -402.07489258 422.49416504 -402.58837891 423.2980957 C-406.20444839 429.04661234 -409.32824607 434.7694111 -411.765625 441.12109375 C-412.20519531 442.24128906 -412.64476562 443.36148438 -413.09765625 444.515625 C-420.90382672 465.27958853 -421.17691286 485.46632082 -412.390625 505.99609375 C-406.10190584 518.85766094 -396.65313398 530.09513227 -384.765625 538.12109375 C-384.14816406 538.59289062 -383.53070312 539.0646875 -382.89453125 539.55078125 C-379.57863546 542.07514062 -376.96230347 543.73957753 -372.765625 544.12109375 C-372.765625 544.78109375 -372.765625 545.44109375 -372.765625 546.12109375 C-356.96366692 552.11446753 -341.55264195 557.61596599 -324.765625 560.12109375 C-324.08757812 560.22856934 -323.40953125 560.33604492 -322.7109375 560.44677734 C-313.4420962 561.9053376 -304.13973008 562.7742052 -294.765625 563.12109375 C-293.51918213 563.17209229 -293.51918213 563.17209229 -292.24755859 563.22412109 C-259.23986006 564.39132924 -225.56555328 559.33857373 -193.94042969 550.03100586 C-190.93791857 549.1704738 -187.92886622 548.40630742 -184.890625 547.68359375 C-174.33835693 545.08396215 -164.02786353 541.61678905 -153.765625 538.05859375 C-153.08411377 537.82551514 -152.40260254 537.59243652 -151.70043945 537.35229492 C-147.50920066 535.87529438 -143.58228111 534.11032756 -139.63134766 532.07788086 C-137.10728254 530.78348002 -134.536188 529.60502576 -131.953125 528.43359375 C-131.03917969 528.01722656 -130.12523437 527.60085938 -129.18359375 527.171875 C-126.765625 526.12109375 -126.765625 526.12109375 -123.765625 525.12109375 C-123.765625 524.46109375 -123.765625 523.80109375 -123.765625 523.12109375 C-123.23195313 522.96253906 -122.69828125 522.80398438 -122.1484375 522.640625 C-116.01694197 520.7205546 -110.44102986 518.11875018 -104.765625 515.12109375 C-105.03375 513.88359375 -105.301875 512.64609375 -105.578125 511.37109375 C-105.75730469 510.53320312 -105.93648437 509.6953125 -106.12109375 508.83203125 C-106.72168891 506.14309147 -106.72168891 506.14309147 -107.56640625 503.66015625 C-113.05272633 485.92712166 -110.73215575 465.58540151 -103.140625 448.87109375 C-99.60013769 442.22811756 -94.76663042 436.69533695 -89.765625 431.12109375 C-91.27064567 426.93732561 -94.25784129 425.08494845 -97.828125 422.74609375 C-98.4144873 422.35252686 -99.00084961 421.95895996 -99.60498047 421.5534668 C-100.78219053 420.7645199 -101.96184498 419.97920681 -103.14404297 419.19775391 C-104.51890159 418.28490739 -105.88017414 417.35164987 -107.23828125 416.4140625 C-112.86026096 412.54703834 -118.73663448 409.30649526 -124.765625 406.12109375 C-126.18895314 405.363565 -127.61211913 404.60573154 -129.03515625 403.84765625 C-134.44420301 400.96988139 -134.44420301 400.96988139 -139.86572266 398.11572266 C-141.61111944 397.20197985 -143.350776 396.27729422 -145.08984375 395.3515625 C-147.72903848 393.91219568 -147.72903848 393.91219568 -150.765625 394.12109375 C-150.765625 393.46109375 -150.765625 392.80109375 -150.765625 392.12109375 C-151.56484375 391.81816406 -152.3640625 391.51523437 -153.1875 391.203125 C-158.56371338 389.15233938 -163.9151895 387.07816023 -169.203125 384.80859375 C-222.496511 362.56804684 -290.27432993 348.4240163 -344.765625 375.12109375 Z M-69.37890625 455.92578125 C-76.95690827 465.29016091 -79.91194867 476.23131798 -78.765625 488.12109375 C-75.14417185 504.29917418 -65.48859698 517.22896501 -51.953125 526.74609375 C-35.84603522 536.5384722 -15.44298791 541.13155958 3.04296875 536.74609375 C6.55105112 535.74557115 9.88918663 534.57745903 13.234375 533.12109375 C14.01554687 532.79496094 14.79671875 532.46882812 15.6015625 532.1328125 C25.93123597 527.45067079 34.90295982 519.78631605 39.234375 509.12109375 C41.75421285 500.30614497 43.3068834 492.00563773 40.234375 483.12109375 C39.96238281 482.29222656 39.69039062 481.46335937 39.41015625 480.609375 C33.85410941 465.30094216 22.73662999 453.31196257 8.234375 446.12109375 C7.244375 446.12109375 6.254375 446.12109375 5.234375 446.12109375 C5.234375 445.46109375 5.234375 444.80109375 5.234375 444.12109375 C-20.37511152 435.85219998 -49.53785812 433.73071046 -69.37890625 455.92578125 Z M64.234375 530.12109375 C63.84507812 530.72695313 63.45578125 531.3328125 63.0546875 531.95703125 C58.4730746 538.81889389 53.20268231 544.44738296 47.234375 550.12109375 C46.574375 550.78109375 45.914375 551.44109375 45.234375 552.12109375 C45.894375 553.11109375 46.554375 554.10109375 47.234375 555.12109375 C47.63105774 557.57991028 47.63105774 557.57991028 47.84106445 560.55004883 C47.92508514 561.66982117 48.00910583 562.78959351 48.09567261 563.94329834 C48.22040451 565.77347504 48.22040451 565.77347504 48.34765625 567.640625 C48.4923129 569.58529046 48.63698992 571.52995455 48.78258133 573.47455025 C48.93624417 575.54112547 49.08622743 577.60794325 49.23556519 579.67483521 C49.7523081 586.78963365 50.31279006 593.90101302 50.8828125 601.01171875 C50.93920584 601.71536623 50.99559917 602.41901371 51.0537014 603.14398384 C56.49897226 670.64197666 71.20678675 742.21168056 109.3671875 799.3125 C111.234375 802.12109375 111.234375 802.12109375 112.859375 804.99609375 C113.313125 805.69734375 113.766875 806.39859375 114.234375 807.12109375 C114.894375 807.12109375 115.554375 807.12109375 116.234375 807.12109375 C116.42 807.80171875 116.605625 808.48234375 116.796875 809.18359375 C118.49393605 812.65150111 120.61712326 814.67149373 123.390625 817.30859375 C125.07262517 818.96208544 126.51734194 820.65377316 127.984375 822.49609375 C141.67011898 838.59485049 163.24449041 848.60817878 184.05859375 850.87109375 C185.10660156 850.95359375 186.15460938 851.03609375 187.234375 851.12109375 C188.10707031 851.20359375 188.97976563 851.28609375 189.87890625 851.37109375 C204.87531271 852.1082443 219.30718951 847.42263645 231.421875 838.87109375 C232.02 838.29359375 232.618125 837.71609375 233.234375 837.12109375 C233.234375 836.46109375 233.234375 835.80109375 233.234375 835.12109375 C234.224375 834.79109375 235.214375 834.46109375 236.234375 834.12109375 C254.28831406 813.96467065 257.65251881 786.01477686 256.234375 760.12109375 C254.04596977 736.19097157 246.62510087 714.46644928 238.234375 692.12109375 C237.574375 692.12109375 236.914375 692.12109375 236.234375 692.12109375 C236.11449219 691.40179687 235.99460937 690.6825 235.87109375 689.94140625 C232.44702806 674.77468582 221.47858662 660.34729184 213.50244141 647.23144531 C212.46945338 645.51231776 211.47664444 643.7690981 210.49609375 642.01953125 C210.07972656 641.39304687 209.66335938 640.7665625 209.234375 640.12109375 C208.574375 640.12109375 207.914375 640.12109375 207.234375 640.12109375 C206.84765625 639.03248047 206.84765625 639.03248047 206.453125 637.921875 C205.18195001 635.00061708 203.69421098 632.81236726 201.734375 630.30859375 C201.1259375 629.51839844 200.5175 628.72820312 199.890625 627.9140625 C199.3440625 627.32238281 198.7975 626.73070312 198.234375 626.12109375 C197.574375 626.12109375 196.914375 626.12109375 196.234375 626.12109375 C195.86505859 625.27417969 195.86505859 625.27417969 195.48828125 624.41015625 C194.01583246 621.72213447 192.25133221 619.74792219 190.171875 617.49609375 C189.36363281 616.614375 188.55539062 615.73265625 187.72265625 614.82421875 C186.49095703 613.48617187 186.49095703 613.48617187 185.234375 612.12109375 C183.7740238 610.49790692 182.31565752 608.87293189 180.859375 607.24609375 C180.12847656 606.4365625 179.39757813 605.62703125 178.64453125 604.79296875 C177.36019583 603.36916741 176.0768117 601.94448552 174.80029297 600.51367188 C173.30407232 598.83666395 171.80096511 597.16604348 170.296875 595.49609375 C169.8239502 594.96258301 169.35102539 594.42907227 168.86376953 593.87939453 C167.69495476 592.58830637 166.46900663 591.34939393 165.234375 590.12109375 C164.574375 590.12109375 163.914375 590.12109375 163.234375 590.12109375 C163.00363281 589.55390625 162.77289062 588.98671875 162.53515625 588.40234375 C160.90101506 585.53646251 158.90127616 583.79196373 156.421875 581.62109375 C155.56980469 580.86828125 154.71773437 580.11546875 153.83984375 579.33984375 C149.55545919 575.02671863 149.55545919 575.02671863 144.234375 573.12109375 C144.234375 572.46109375 144.234375 571.80109375 144.234375 571.12109375 C142.59274749 570.08049926 140.91966167 569.08938431 139.234375 568.12109375 C137.32270453 566.72587174 135.42778436 565.30751585 133.546875 563.87109375 C118.69818937 551.83502922 118.69818937 551.83502922 101.234375 545.12109375 C101.234375 544.46109375 101.234375 543.80109375 101.234375 543.12109375 C94.75544986 540.61628252 88.20870424 538.45201442 81.546875 536.49609375 C80.84699463 536.29024658 80.14711426 536.08439941 79.42602539 535.87231445 C75.89199191 534.84734926 72.36487946 533.91725359 68.77734375 533.09765625 C67.60816406 532.77539062 66.43898438 532.453125 65.234375 532.12109375 C64.904375 531.46109375 64.574375 530.80109375 64.234375 530.12109375 Z M-79.765625 546.12109375 C-82.43741076 548.39211165 -83.86972801 551.05643105 -85.5703125 554.08129883 C-88.21227786 558.58979977 -91.23607259 562.86268719 -94.16796875 567.18554688 C-100.1669307 576.09193411 -105.51660313 585.35587599 -110.828125 594.68359375 C-111.33150391 595.56466797 -111.83488281 596.44574219 -112.35351562 597.35351562 C-113.82904956 599.9399949 -115.297413 602.53045333 -116.765625 605.12109375 C-117.25530762 605.97429199 -117.74499023 606.82749023 -118.24951172 607.70654297 C-118.70729004 608.51236816 -119.16506836 609.31819336 -119.63671875 610.1484375 C-120.04720459 610.86636475 -120.45769043 611.58429199 -120.88061523 612.32397461 C-121.91288973 614.08626301 -121.91288973 614.08626301 -121.765625 616.12109375 C-122.425625 616.12109375 -123.085625 616.12109375 -123.765625 616.12109375 C-124.08273437 616.76691406 -124.39984375 617.41273438 -124.7265625 618.078125 C-127.95780494 624.60309248 -131.29849381 631.06026741 -134.703125 637.49609375 C-146.04356928 655.60879332 -146.04356928 655.60879332 -151.765625 675.12109375 C-152.425625 675.12109375 -153.085625 675.12109375 -153.765625 675.12109375 C-154.08015625 675.95511719 -154.3946875 676.78914063 -154.71875 677.6484375 C-156.94039171 683.49028451 -159.21849108 689.26739913 -161.8046875 694.95703125 C-163.17721769 698.04801388 -164.41042974 701.18960958 -165.6484375 704.33642578 C-166.76567103 707.12120849 -167.93873888 709.87735496 -169.1171875 712.63671875 C-171.77914822 719.01888067 -174.04278061 725.49193134 -176.203125 732.05859375 C-176.59145508 733.23736084 -176.97978516 734.41612793 -177.37988281 735.63061523 C-191.382477 778.4881824 -203.70172716 828.91772839 -184.390625 872.203125 C-179.12830851 882.42746274 -172.2507299 890.62397061 -162.765625 897.12109375 C-161.1878125 898.23484375 -161.1878125 898.23484375 -159.578125 899.37109375 C-141.9503259 908.94516645 -115.50565215 906.23380125 -96.953125 901.49609375 C-85.5513767 898.09847456 -75.02746926 892.05015932 -64.765625 886.12109375 C-64.765625 885.46109375 -64.765625 884.80109375 -64.765625 884.12109375 C-64.02441406 883.85167969 -63.28320312 883.58226562 -62.51953125 883.3046875 C-41.76203541 874.38338078 -26.89378211 850.32500097 -17.8671875 830.90625 C-16.58172998 828.15532018 -16.58172998 828.15532018 -16.765625 825.12109375 C-16.105625 825.12109375 -15.445625 825.12109375 -14.765625 825.12109375 C12.39440131 750.41595853 26.27306525 674.23042429 10.65991211 595.30102539 C8.94293154 586.55252438 7.6385066 578.04747378 7.234375 569.12109375 C6.43443115 569.13156738 5.6344873 569.14204102 4.81030273 569.15283203 C-25.8206475 569.50113647 -49.50114509 566.39268277 -75.33203125 548.7578125 C-77.6376755 547.13170773 -77.6376755 547.13170773 -79.765625 546.12109375 Z " fill="#F82389" transform="translate(1032.765625,450.87890625)"/>
</svg>
